<?xml version="1.0" encoding="UTF-8"?>
<svg id="Layer_2" data-name="Layer 2" xmlns="http://www.w3.org/2000/svg" viewBox="0 0 804.76 245.18">
  <defs>
    <style>
      .cls-1 {
        fill: #0a0b04;
      }

      .cls-2 {
        fill: #4f6f4f;
      }

      .cls-3 {
        fill: #616144;
      }

      .cls-4 {
        fill: #101609;
      }

      .cls-5 {
        fill: #181c05;
      }

      .cls-6 {
        fill: #020201;
      }

      .cls-7 {
        fill: #53745a;
      }

      .cls-8 {
        fill: #31401d;
      }

      .cls-9 {
        fill: #4a4118;
      }

      .cls-10 {
        fill: #3d5037;
      }

      .cls-11 {
        fill: #587b63;
      }

      .cls-12 {
        fill: #292a0f;
      }
    </style>
  </defs>
  <g id="Layer_0_Image" data-name="Layer 0 Image">
    <g>
      <path class="cls-3" d="M690.97,167.08c0,1,0,2,0,3-3.1.41-3.34.05-3.01-3l-1.99,1c-23.24-6.01-46.51-12.13-70-17-2.18-.45-2.8,5.08-2.93,5.05-2.15-.54-7.48,4.9-15.34.95-.8-.4-5.85-4.53-12.21-6-.89-3.26,2.52-9.59,8.52-9,23.57,6.61,56.58,12.75,80.18,19.28,5.8,1.61,11.23,4.11,16.78,5.72Z"/>
      <path class="cls-12" d="M458.23,140.89l13.2,10.41c44.68,11.2,92.69,20.31,137.66,30.89,28.83,6.78,65.71,19,94.5,24.75,24.68,4.93,26.59-.1,45.04-.49-3.4,2.11-3.33,6.25-10.77,7.3-4.54.64-32.33-.72-38.93-1.75-23.89-3.72-74.8-16.12-100.79-22-31.06-7.03-112.94-24.83-136.74-32.36-9.41-2.97-7.52-7.23-20.3-9.04,1.18-2.19-.97-7.17,1.76-8.29,1.81-.74,12.5.86,15.36.58Z"/>
      <path class="cls-8" d="M521.76,141.86c1.18,1.86,2.58,3.74,2.45,5.47-.14,1.84-.9,2.9-.81,4.93.07,1.54-3.05,4.9,1.09,6.31l205.56,48.9,14.94.34c.52.62,3.12,1.71,2.93,2.51-.53.06.32.76-.16.99-15.31-.37-16.86,3.06-37.39-1.23-23.95-5.01-54.66-14.8-78.65-20.53-37.42-8.94-77.35-16.95-114.53-26.31l-11.04-7.71c.75-.03,2.72-1.07,3.58-1.44,5.2-2.27,6.92-5.92-1.83-9.91-9.21-4.19-9.65-.76-12.18-6.58,5.15.53,24.06,4.39,26.05,4.27Z"/>
      <path class="cls-2" d="M680.33,173.91c-.15,3.85,24.04,8.9,32.75,12.58,4.87,2.06,4.29,3.52,4.7,3.68l-184.19-44.34c-10.55-9.22-9-4.15-11.84-3.98-1.98.12-20.9-3.74-26.05-4.27-.29-.66.88-1.68.32-1.97,7.62-1.12,28.35,4.44,26.69.32,4.12,2.24,32.37,9.31,40.88,11.47,23.65,6,63.76,16.37,86.59,21.33,9.92,2.16,20.11,3.45,30.13,5.18Z"/>
      <path class="cls-10" d="M742.22,204.31c.7,1,1.9,2.46,2.77,3.49l-14.94-.34-205.56-48.9c-4.14-1.42-1.02-4.78-1.09-6.31l218.82,52.05Z"/>
      <path class="cls-2" d="M733.58,195.8c6.83,2.59,4.35.25,9.28,4.56l-3.13.1c-.51.64,2.67,1.6,2.8,1.87.17.35-.38.64-.16.99s-.41.64-.16.99l-218.82-52.05c-.09-2.03.67-3.09.81-4.93,6.73.89,13.08,2.2,19.59,3.66,46.07,10.32,100.75,24.21,146.67,35.58,12.59,3.11,29.1,10,43.12,9.24Z"/>
      <path class="cls-11" d="M521.76,141.86c2.84-.17,1.29-5.24,11.84,3.98l184.19,44.34c4.91,2.01,9.36,2.82,12.7,4.11,1.17.45,1.96,1.09,3.09,1.52-14.02.76-30.53-6.13-43.12-9.24-45.92-11.36-100.6-25.25-146.67-35.58-6.51-1.46-12.85-2.77-19.59-3.66.13-1.73-1.27-3.61-2.45-5.47Z"/>
      <path class="cls-12" d="M80.97,52.08c8.31-1.89,10.91,1.67,18.16,3.34,2.49.57,19.03,4.28,19.79,3.61.15-.14.48-2.75,1.05-3.95.47-.99.86-2.6,2-3l1,3c-.18.88.14,2.06,0,3-.04.24-1.41,1.14-1,2.43,1.36,2.27,3.42.68,5.78,1.19,72.58,15.77,143.85,37.13,216.01,54.08,13.62,3.2,28.1,5.86,41.21,8.29.62.12,1.38-.11,2,0-.56,2.6,1.3,2.04,2.97,2.48,6.57,1.7,14.36,4.07,21.03,4.52.66.04,1.34,0,2,0,.78,2.53,3.01,1.85,5,2,.66.05,1.34-.04,2,0l1.49.99.51-.99c.64.08,1.36-.09,2,0-.68,2.5,4.47,3.18,5.97,3.53,7.87,1.87,16.83,3.02,24.03,4.47.61.12,1.39-.12,2,0-.37,2.26.45,2.84,2,1,.61.13,1.39-.13,2,0-.56,2.6,1.3,2.05,2.97,2.48,10.64,2.76,21.92,4.45,32.03,8.52-13.16.1-32.06-6.76-45.75-9.75-20.7-4.52-47-12.04-71-17.01-6.1-1.26-31.53-6.48-35.69-5.31-1.1.31-.04,2.29-1.16,3.16-2.41,1.87-6.91-2.26-6.4,1.91-.91-.17-2.08.16-3,0s-2.09.17-3,0c-.72-1.13-2.08-2.27-3-1-.61-.12-1.39.12-2,0,.37-2.26-.45-2.84-2-1-.6-.13-1.4.13-2,0,.37-2.26-.45-2.84-2-1-.6-.13-1.4.13-2,0,.6-2.91-1.44-1.82-3.17-2.28-9.57-2.55-20.09-4.6-29.83-6.72-.32-.07-.68.07-1,0l-3-1c-.32-.07-.68.07-1,0l-3-1c-.32-.07-.68.07-1,0-3.17-1.87-7.41-2.37-11-3-.32-.06-.68.06-1,0-11.37-3.66-23.34-7.19-35.05-9.61-1.42-.29-1.85.63-1.95.61-.61-.12-1.39.12-2,0,.37-2.26-.45-2.84-2-1-.62-.11-1.38.12-2,0v-2c-4.49.32-8.67-1.26-13-2-.32-.06-.68.05-1,0-2.19-1.99-5.41-1.55-8-2-.32-.06-.68.06-1,0l-2-1c-.61-.12-1.39.12-2,0l-3-1c-.32-.07-.68.07-1,0l-3-1c-.6-.13-1.4.13-2,0l-2-1c-.6-.14-1.4.14-2,0l-2-1c-.32-.07-.68.07-1,0l-3-1c-.32-.07-.68.07-1,0-.99-1.65-2.76-1.68-4.36-2.14-6.37-1.79-47.32-13.45-49.96-12.72-1.17.32-1.53,1.79-1.68,1.86-1.08.43-2.79.74-4,1l-1.49-.99-.51.99c-.66-.02-1.34.04-2,0l-3-1c-.64-.08-1.37.1-2,0,.59-3.09-1.52-1.7-3.33-2.12-7.55-1.74-14.15-4.3-21.19-5.11-1.49-.17-3.02-.47-4.49-.77v-2c2.56-2.15,5.92-4.35,5.99-7.99-.66-.03-1.33.02-1.99,0-.59-.02-1.58-.13-2,0v-2c2.31.21,2.81-1.95,3-2,.57-.15,1.4.14,2,0Z"/>
      <path class="cls-9" d="M75.97,5.08c-2.48-1.56-3.52-1.39-5,1-2.14,3.45-.57,9.23-1.01,13.49-.74,7.16-2.9,14.19-1.98,21.51,1.65.42.42-1.71,1.65-2,1.87-.45,4.45.55,6.34-.99,0,.17,1.06.73,1.05,1.38,0,.18-1.26.48-2.05,2.62-1.64.25-3.9-.4-5.36-.04-1.27.31-.43,1.55-.64,2.04-.54,1.27-.64,1.94-1,3-.17.49-.71,1.16-1,2-.05.15-1.12.26-.89,1.33.24,1.11,1.38,1.21,1.89,1.67,2.81,2.56,5.14,1.05,5,3.99-2.93.95-6.02,1.33-9,2.01.18-6.46-6.18-5.46-10.67-4.17l-8.33,3.17c-1.29-.5-16.32,2.64-19.51,2.99-5.82.63-12.8-.65-18.49,2.01-2.38-1.2-4.76-.78-6.25-4.25-2.27-5.31,1.29-36.95,4.4-42.1,2.02-3.34,4.98-4.25,8.33-5.67C27.23,4.22,50.57-.49,65.41.04c5.65.2,6.96,1.95,10.55,5.04ZM40.97,14.08c-1.9-1.95.05-3.86-6.54-3.05-10.87,1.33-9.25,14.59-10.61,15.96-.46.47-2.69-.51-2.91.67-.18.97-.94,7.39-.83,7.77.62,2.22,4.64,2.13,4.91,3.16.76,2.87-1.64,2.37-1.78,2.68-1.13,2.45,6.37,9.05,9.77,8.82,4.93-.33,11.06-13.08,11.74-17.76.75-5.11.74-12.96-1.77-17.5-.63-1.14-1.86-.62-1.97-.74ZM19.11,48.94c-1.1-.7-1.72-8.96-4.13-9.86-1.6,7.91,4.23,13.93,11.99,12.99v-2.99c-1.92-.41-6.61.66-7.87-.14Z"/>
      <path class="cls-5" d="M334.97,126.08c-.51-4.16,3.99-.04,6.4-1.91,1.12-.87.06-2.85,1.16-3.16,4.17-1.17,29.6,4.05,35.69,5.31,24,4.97,50.29,12.48,71,17.01,13.69,2.99,32.58,9.85,45.75,9.75.67,0,1.33,0,2,0-.38,3.95,1.44,1.08,2,1,.6-.08,1.38-.03,2,0,.91,5.62,12.71,1.79,13,7-2.97.73-10.21.31-14,0-.33-.03-.67.03-1,0-5.57-.53-11.44-2.31-17-3-1.31-.16-2.69-.88-4-1-.97-.09-2.02-.01-3,0-3.77.04-7.09.92-11,1-1,.02-2,.02-3,0-.66-.02-1.35.06-2,0-.86-2.89-3.93-1.69-6-2-.64-.1-1.37.11-2,0l-2-1c-.62-.11-1.39.12-2,0l-2-1c-.61-.12-1.4.13-2,0-.53-1.67-1.91-2.66-3-1-.6-.13-1.41.14-2,0,.37-2.26-.45-2.84-2-1-.59-.14-1.41.14-2,0-.39-1.19-1.29-2.43-2-1-.59-.14-1.4.14-2,0-1.53-2.67-4.46-1.75-6-2-.63-.1-1.38.11-2,0-2.45-2.77-6.71-2.42-10-3-.32-.06-.67.05-1,0-1.79-2.14-4.66-1.61-7-2-.63-.11-1.38.11-2,0l-2-1c-.32-.06-.68.06-1,0l-3-1c-.6-.13-1.4.13-2,0-4.85-3.97-12.26-3.82-18-5-.32-.07-.68.07-1,0l-3-1c-1.66-.37-3.35-.64-5-1l-4-1c-.32-.07-.68.07-1,0l-2-1c-4.96-1.1-10.04-1.94-15-3-1.57-2.27-7.11-3.47-10-4Z"/>
      <path class="cls-3" d="M560.97,143.08c.28.08,2.3,3.33,5,2,.04.52.81,1.38,1,2-11,.79-26.4-8.85-37-7-.44.08-1.93.08-2,0-.23-.26.22-1.78,0-1.99-.69-.66-1.88.98-1.99.99-.59.08-1.39.05-2,0,.51-2.52-1.14-2.14-2.76-2.69-5.65-1.92-8.63-2.84-14.24-2.31-.98.09-2.02-.09-3,0,.57-2.68-1.34-1.97-2.98-2.47-4.4-1.34-8.95-2.7-13.44-3.66-1.59-.34-3.09-1.48-4.58.13-2.05-.53-4.32-.57-6-1,.57-2.66-1.33-1.99-2.98-2.47-16.42-4.77-33.45-8.25-50.02-12.53-12.72-3.29-25.41-7.29-38.22-10.29-1.45-.34-3.75-1.7-4.78.29-1.34-.33-2.67-.67-4-1l-7.78-3.72c-6.8-2.08-13.71-2.94-20.62-4.38-1.57-.33-6.1-4.29-5.6.1-.6-.13-1.38.11-2,0,.35-3.64.22-2.48-2.31-3.14-32.35-8.51-65.39-15.62-97.92-23.93-2.98-.76-7.85-2.38-11.76-3.92-3.02-1.19-2.83.04-3,0-6.06-1.46-11.12-2.79-17-5-3.13-1.17-2.3.02-3,0-1.58-.05-1.64-.86-2-1-.16-.06-.37-1.22-1.41-.99-.36.08-.39.91-.59.99-4.67,1.89-2.13.56-3-1s-1.41-.72-2-1c-.25-.12-.68.1-1,0-.99-.33-1.37-.65-3-1-.32-.07-.68.07-1,0-2.58-3.14-6.75-2.44-10-3-.32-.06-.68.06-1,0-1.27-1.1-5.08-2.64-6-1-.9-.19-1.63-.92-2-1-.99-1.65-2.76-1.69-4.37-2.13-9.63-2.68-27.5-8.75-36.45-9.71-1.55-.17-1.71.7-2.19.84-.52.16-1.37-.11-2,0-.07-.46-.54-.88-1-1,.3-.15.8-1.77,2-2,3.57-.7,39.63,9.38,46.42,11.08,126.88,31.74,254.42,62.87,380.56,97.47,1.78.49,3.87.13,5.02.45Z"/>
      <path class="cls-11" d="M75.97,54.08v2c-1.91.6-1.48,2.12-2,3-2.48,4.15-1.02,2.49-1,5,0,.38-1.07,1.25-1,1.99.64.1,1.41-.11,2,0,1.46.3,3,.6,4.49.77,7.03.81,13.64,3.36,21.19,5.11,1.81.42,3.92-.97,3.33,2.12-28.98-4.66-47.31-7.67-77.51-7.98-1.69-.02-4.45.64-5.49-1.02,5.85-.14,13.66-.58,19.22-2.09,5.04-1.37,8.98-1.96,14.78-2.91,3.26-.53,6.78-1.26,10-2,2.98-.68,6.07-1.06,9-2.01.14-2.93-2.19-1.43-5-3.99,2.3.07,6.22,1.84,8,2Z"/>
      <path class="cls-3" d="M691.97,167.08c3-6.68,6.17-8.99,12.05-3.55,2.03,1.88,5.08,8.26,5.6,8.63,2.74,1.95,29.46,7.3,35.35,8.92,3.36.92,6.68,1.96,10,3,1.95.61,3.66,1.49,5.61,1.93,8.39,1.9,6.57-.57,5.94,4.07-12.61-.68-35.48-9.53-49.55-12-5.65-.99-4.06-2-11-1-.11.72-.14,2.34,0,3-2.13.24-2.24.13-2-2,.23-.02,1.11-.87,2-1,.46-3.03,2.85-5.05.97-6.47-4.97-1.45-9.98-2.11-14.97-3.53Z"/>
      <path class="cls-9" d="M592.97,132.08c.64,3.5,4.42,5.96,4.68,9.63.33,4.62-1.13,13.3-1.68,18.37-2.26.87-4.2-1.76-5-2-.15-1.46-.42-2.66-1-4-.96-2.22-2.39-2.76-2-5,.12-.12-.33-1.27.22-1.76,1.1-.98,4.07-1.48,3.7-3.61-.5-2.81-15.7-15.17,1.08-11.64Z"/>
      <path class="cls-12" d="M75.97,5.08c.15.13,1.24-.27,2.04.68,2.55,3.04,2.81,6.13,3.96,9.32l1,1c.1.3-.1.7,0,1,.32.97.71,2.06,1,3,.92,2.98,2.26,7.16,3,10,.55,2.09,1.07,3.76,1,6-.01.49-.82,2.62-1,4-.12.95.19,2.15,0,3-2.64,3.3-3.49,3.51-7,5,2.23-6.66,5.47-10.1,3.77-18.28-.33-1.58-6.44-13.92-7.54-15.45-1.3-1.79-1.64-2.65-4.23-2.28.03-1.86.63-4.94-1-6,1.48-2.39,2.52-2.56,5-1Z"/>
      <path class="cls-3" d="M44.97,57.08c.11.04.28,1.43,1.64,1.81,2.4.68,5.82-.8,7.36,1.19-5.8.95-9.74,1.54-14.78,2.91-5.56,1.51-13.37,1.95-19.22,2.09-.66.02-1.34.01-2,0h-1c-5.52-.56-5.28-.62-10-3,5.68-2.66,12.67-1.38,18.49-2.01,3.19-.35,18.22-3.49,19.51-2.99Z"/>
      <path class="cls-2" d="M82.97,17.08c2.33-.94,4.35,1.51,5.67,1.69,7.32,1,11.83.11,20.33,2.81,3.95,1.25,4.98.38,5,4.5,0,.67,0,1.33,0,2-3.54-1.37-14.37-4.52-17.83-4.82-1.57-.14-1.6.61-2.17.82-.41.15-1.3-.28-1.89.08-1.96,2.49,4.44,7.98-.11,6.92-.3-.31-3.18-.59-4-1,.04-1.65-1.8-7.13-.96-7.96.55-.54,3.29.91,2.95-1.03l-5.99-1.01c-.29-.94-.68-2.03-1-3Z"/>
      <path class="cls-8" d="M113.97,26.08c6.57,2.89,5.86-1.34,7.62-1.92,4.67-1.54,9.69,5.74,7.38,9.92-1.2.23-1.7,1.85-2,2-.47.24-2.44-.44-2.88.08-.37.44-1.04,8.34-1.12,9.92-.35.08-.88-.13-1,0,0-.67,0-1.33,0-2,0-2.8-.49-2.98-1-5-.64-2.54-1.02-6.69-3-9-.96-1.12-2.65-1.48-4-2,0-.67,0-1.33,0-2Z"/>
      <path class="cls-12" d="M705.97,177.08c-.89.13-1.77.98-2,1-1.99.21-6.09-.38-8-1-.41-.13-4.71-1.91-4.89-2.11-.41-.47-.12-3.73-.11-4.89,0-1,0-2,0-3,.31.09.69-.09,1,0,4.99,1.42,10.01,2.08,14.97,3.53,1.88,1.42-.51,3.44-.97,6.47Z"/>
      <path class="cls-10" d="M171.97,87.08c-18.64-4.4-37.29-8.89-56-13,.15-.06.51-1.53,1.68-1.86,2.64-.73,43.59,10.93,49.96,12.72,1.61.45,3.38.49,4.36,2.14Z"/>
      <path class="cls-3" d="M572.97,145.08c-.57,2.67,1.33,1.98,2.98,2.47,2.5.74,10.2,3.38,12.02,1.53-.39,2.24,1.04,2.78,2,5-1.64-.12-3.37.18-5,0-4.12-.45-7.93-2.38-12-2.99,1.2,1.67.68,3.43,1,4.99l-1,1c-1.62-.41-3.34-.57-5-1v-3c1.1.26,2.77-.15,4,0,.02-.66,0-1.33,0-2-.02-1.84-.84-2.87-1-4-.46-3.27,1.51-1.57,2-2Z"/>
      <path class="cls-1" d="M573.97,136.08c1.15.7,3.52-1.73,2.96,2.45-.28,2.11-2.36,5.16-3.96,6.55-.49.43-2.46-1.27-2,2-1.33.06-2.68-.1-4,0-.19-.62-.96-1.48-1-2-.22-2.93,4.42-9.71,8-9Z"/>
      <path class="cls-9" d="M560.97,143.08c2.6-5.07,5.52-10.9,12.34-9.01,1.07.3.57,1.95.66,2.01-3.58-.71-8.22,6.07-8,9-2.7,1.33-4.72-1.92-5-2Z"/>
      <path class="cls-10" d="M261.97,109.08c-12.47-2.26-24.98-4.91-37-9,.1.02.53-.91,1.95-.61,11.71,2.42,23.67,5.96,35.05,9.61Z"/>
      <path class="cls-10" d="M393.97,142.08c-5.92-1.27-12.59-2.19-18-5,5.74,1.18,13.15,1.03,18,5Z"/>
      <path class="cls-10" d="M334.97,126.08c2.89.53,8.43,1.73,10,4-4.19-.9-9.79-1.23-13-4,.92.16,2.09-.17,3,0Z"/>
      <path class="cls-10" d="M282.97,114.08c9.73,2.12,20.26,4.17,29.83,6.72,1.73.46,3.77-.63,3.17,2.28-11.02-2.47-22.36-5.18-33-9Z"/>
      <path class="cls-10" d="M205.97,95.08c4.33.74,8.51,2.32,13.01,2v2c-4.14-.77-9.34-1.91-13.01-4Z"/>
      <path class="cls-10" d="M458.97,158.08c-2.13-.19-4.44-.3-6-2,2.07.31,5.14-.89,6,2Z"/>
      <path class="cls-10" d="M442.97,154.08c-1.43-.3-2.68-.93-3-1,1.09-1.66,2.47-.67,3,1Z"/>
      <path class="cls-10" d="M429.97,151.08c-1.99-.45-4.47-.58-6-2,1.54.25,4.47-.67,6,2Z"/>
      <path class="cls-11" d="M111.97,75.08c-2.01.43-1.12.03-2,0l.51-.99,1.49.99Z"/>
      <path class="cls-10" d="M204.97,95.08c-2.63-.44-5.78-.02-8-2,2.59.45,5.81.01,8,2Z"/>
      <path class="cls-10" d="M220.97,99.08c1.55-1.84,2.37-1.26,2,1-1.6-.31-1.89-.98-2-1Z"/>
      <path class="cls-10" d="M273.97,112.08c-3.45-.78-8.11-.45-11-3,3.59.63,7.83,1.13,11,3Z"/>
      <path class="cls-10" d="M317.97,123.08c1.55-1.84,2.37-1.26,2,1-1.54-.33-1.89-.98-2-1Z"/>
      <path class="cls-10" d="M321.97,124.08c1.55-1.84,2.37-1.26,2,1-1.57-.32-1.89-.98-2-1Z"/>
      <path class="cls-10" d="M366.97,135.08c-1.37-.3-2.74-.72-4-1l4,1Z"/>
      <path class="cls-10" d="M410.97,146.08c-2.31-.35-5.16-.36-7-2,2.34.39,5.21-.14,7,2Z"/>
      <path class="cls-10" d="M421.97,149.08c-3.16-.58-7.19-1.45-10-3,3.29.58,7.55.23,10,3Z"/>
      <path class="cls-10" d="M435.97,152.08c1.55-1.84,2.37-1.26,2,1-1.49-.35-1.89-.97-2-1Z"/>
      <path class="cls-10" d="M433.97,152.08c-1.48-.35-1.89-.97-2-1,.71-1.43,1.61-.19,2,1Z"/>
      <path class="cls-10" d="M281.97,114.08c-1.38-.3-2.7-.94-3-1l3,1Z"/>
      <path class="cls-10" d="M398.97,143.08c-1.48-.3-2.69-.93-3-1l3,1Z"/>
      <path class="cls-10" d="M374.97,137.08c-1.45-.31-2.64-.92-3-1l3,1Z"/>
      <path class="cls-10" d="M277.97,113.08c-1.43-.3-2.69-.93-3-1l3,1Z"/>
      <path class="cls-10" d="M191.97,92.08c-1.47-.3-2.67-.93-3-1l3,1Z"/>
      <path class="cls-10" d="M187.97,91.08c-1.4-.31-2.64-.92-3-1l3,1Z"/>
      <path class="cls-10" d="M175.97,88.08c-1.37-.32-2.55-.89-3-1l3,1Z"/>
      <path class="cls-11" d="M107.97,75.08c-2.1-.13-2.84-.98-3-1l3,1Z"/>
      <path class="cls-10" d="M401.97,144.08c-1.61-.3-1.89-.98-2-1l2,1Z"/>
      <path class="cls-10" d="M361.97,134.08c-1.51-.33-1.89-.98-2-1l2,1Z"/>
      <path class="cls-10" d="M450.97,156.08c-1.64-.28-1.89-.98-2-1l2,1Z"/>
      <path class="cls-10" d="M446.97,155.08c-1.6-.31-1.89-.98-2-1l2,1Z"/>
      <path class="cls-10" d="M195.97,93.08c-1.6-.29-1.89-.98-2-1l2,1Z"/>
      <path class="cls-10" d="M328.97,126.08c-1.19-.22-2.2-.84-3-1,.92-1.27,2.28-.13,3,1Z"/>
      <path class="cls-10" d="M182.97,90.08c-1.52-.34-1.89-.98-2-1l2,1Z"/>
      <path class="cls-10" d="M178.97,89.08c-1.5-.34-1.89-.97-2-1l2,1Z"/>
      <path class="cls-7" d="M82.97,16.08l-1-1c.02.07.75.24,1,1Z"/>
      <path class="cls-11" d="M16.97,65.08h1c-.28,0-.31.07-1,0Z"/>
      <path class="cls-10" d="M86.97,40.08c5.23,1.07,8.2-.59,7.01,6l2.5-3.02c4.57-.58,23.87,6.12,25.36,4.85.43-.37,0-1.67.14-1.83.12-.13.65.08,1,0,.45-.1,1.5-.08,2,0-1.55,4.53,4.54,5.69,7.77,6.73,36.91,11.87,81.41,19.71,119.67,29.33,109.44,27.52,218.75,55.77,328.31,82.75l2.25-2.82c-.01.07.8.6.71,1.3-.32,2.53-1.76,5.03-1.71,7.7-5.75-.71-11.41-2.26-17-3-1.07-5.27-8.52-3.02-11.43-2.98-.46,0-.53-1.78-2.51-2.55-15.58-6.02-36.18-7.67-52.33-10.71-12.15-2.29-26-7.09-38.74-9.76-.61-.13-1.39.13-2,0-.11-.02-.43-.68-2-1-.61-.12-1.39.12-2,0-9.1-3.42-20.31-6.6-30-8-.64-.09-1.36.08-2,0-1.57-.2-1.73.02-2,0-.66-.04-1.34.05-2,0,.29-4.38-3.99-2.01-5-2-.66,0-1.34.04-2,0,.48-2.37-1.05-2.28-2.75-2.7-6.61-1.64-14.5-3.08-21.25-4.3-.62-.11-1.38.12-2,0-6.42-3-14.09-4.79-21-6.5-28.64-7.1-57.76-13.03-86.22-20.78-42.87-11.67-82.78-22.47-126.18-32.82-9.05-2.16-19.35-7.55-28.6-5.9.14-.94-.18-2.12,0-3,.17-.83,2.71-4.3-1-3-1.14.4-1.53,2.01-2,3-9.81-2.94-20.34-4.3-30.04-7.51-1.62-.54-3.54.17-2.96-2.49.16-.54-.13-1.39,0-2,.19-.85-.12-2.05,0-3Z"/>
      <path class="cls-5" d="M790.97,200.08c.2.86-.19,2.11,0,3,.92.16,2.03-.11,3,0-2.23,4.63.48,3.58.94,4.75,1.17,2.99,1.75,10.56.86,13.54-1.11,3.75-10.87,10.21-14.57,11.42-9.1,2.97-40.46-5.93-52.73-6.71-2.67-.17-7.7-1.47-6.49,2.99-2.84-.69-7.93-2.66-10-1-1.56.23-1.9.06-2.09-1.43-.6-4.69.47-9.94,1.09-14.57,3.26-.04,2.94,3.07,5.4,4.17,6.22,2.79,27.35,6.83,35.37,8.55,6.71,1.44,19.89,4.86,26,5.04,1.69.05,8.69-1.8,9.8-2.68,1.82-1.46,1.65-4.29,2.43-6.08.13-.31-.16-.85,0-1,.16-.15,1.69.54,2.01-.66,1.39-5.18.08-11.19-1.01-16.34-.53-.09-1.07.24-1.76-.22-.94-.61-6.53-8.26-7.24-9.78l1-1c4.07,1.95,6.83,2.93,8,8Z"/>
      <path class="cls-2" d="M615.97,151.08l.9,5.6c22.17,5.76,44.72,12.9,67.27,17.74,1.46.31,3.87,1.55,4.83-.34,1.71,3.24,3.1,5.99,7,3,1.91.62,6.01,1.21,8,1-.24,2.13-.13,2.24,2,2,.07.33-.08.7,0,1,.56,7.09-1.64,3.14-4.77,2.27-1.56-.43-3.3-.02-4.6-.43-1.95-.62-.66-2.58-3.5-1.65l-1.13,2.07c.31-5.67-3.78-1.65-7.27-2.5-19.04-4.68-37.93-10.18-56.92-15.08-2.17-.56-10.35-1.39-10.82-1.68-.12-.07-.02-1.38-.64-1.91-4.06-3.48-1.36-1.53-1.55-5.59-.09-1.83-1.1-3.59-.81-5.5.13.03-.18-.45,2,0Z"/>
      <path class="cls-8" d="M718.97,189.08c.44,1.64.95,3.27,1,5,.05,1.84-.13,3.01,0,5,.1,1.5-.67,5.32.64,6.05l63.88,15.03,4.49-2.08c.19.53,1.02,1.18,1,2-.16.15.13.69,0,1-4.6,2.11-4.89,5.75-11.24,4.82-7.41-1.07-17.07-5.77-24.53-7.55-11.63-2.77-23.97-4.23-35.55-7.45l-3.68-5.82c.22-.15.76-1.49,1-2,1.44-3.08,1.78-6.97-1.03-9.48-2.96-2.65-2.92.81-3.97-4.52,1.57-.31,7.41.44,8,0Z"/>
      <path class="cls-12" d="M707.65,209.62c11.58,3.22,34.9,3.64,47.5,7.89,7.26,2.45,16.17,7.32,23.57,8.39,6.35.92,6.65-2.72,11.24-4.82-.77,1.78-.61,4.62-2.43,6.08-1.11.89-8.11,2.73-9.8,2.68-6.11-.17-19.29-3.59-26-5.04-8.02-1.72-46.59-10.01-52.81-12.8"/>
      <path class="cls-2" d="M767.97,195.08c.14,3.82,7.63,4.9,10.41,7.12,1.56,1.24,1.46,2.78,1.59,2.88l-57.26-13.99c-3.61-7.39-2.9-2.64-3.74-2.01-.59.44-6.43-.31-8,0-.12-.61.18-1.8,0-2,2.22-2.34,8.7-.2,8-4,1.34,1.54,10.14,3.96,12.79,4.71,7.37,2.1,19.87,5.85,26.94,7.05,3.07.52,6.18.16,9.26.24Z"/>
      <path class="cls-8" d="M459.97,142.08c12.74,2.66,26.59,7.47,38.74,9.76,16.15,3.04,36.74,4.7,52.33,10.71,1.98.76,2.05,2.55,2.51,2.55,2.9-.03,10.35-2.28,11.43,2.98-6.31-.84-13.06-2.22-19-3,.37-2.47-1.33-2.06-2.96-2.49-8.91-2.37-33.71-8.06-42.04-8.51-.62-.03-1.4-.08-2,0-.29-.92-1.15-1.01-2-1-.67,0-1.33,0-2,0-10.11-4.07-21.39-5.76-32.03-8.52-1.67-.43-3.53.12-2.97-2.48Z"/>
      <path class="cls-2" d="M618.97,168.08c16.18-.21,40.1,11.61,57.01,13.49l.99,1.5c-2.71,1.96-21.76-4.83-26.55-5.03-4.8-.2-16.84,2.23-21.05-.89-1.57-1.16.09-2.27-3.4-3.07-4.04-.93-9.84.29-7-6Z"/>
      <path class="cls-12" d="M601.97,155.08c1,.39,5.55,2.98,5.76,3.23.82.97.64,4.16,1.38,4.65.89.59,3.45-.22,3.87.11.48.37-1.6,5.98,2.99,6.01-.17,1.97.12,4.02,0,6-.66-.05-1.34.06-2,0-.33-.03-.67.04-1,0-3.94-.45-8.03-.78-12-1,.04-2.07-.3-4.22.24-6.26.67-2.5,3.34-3.02,2.76-5.74-.3-1.4.62-2.41-2-2,.22-1.51-.09-3.38,0-5Z"/>
      <path class="cls-5" d="M590.97,158.08c.8.24,2.74,2.87,5,2-.44,4-1.6,7.84-.99,12-4.35.18-8.72-.48-13.01-1-.05-2.68,1.39-5.17,1.71-7.7.09-.69-.72-1.22-.71-1.3.09-.64-.08-1.35,0-2,.02-.16.75-2.07,1-3,2.03.63,5.22.48,7,1Z"/>
      <path class="cls-8" d="M601.97,152.08c6.36,1.47,4.39-4.35,5-5.01,1.33-1.43,4.85,3.47,7,4.01-.29,1.91.73,3.67.81,5.5.19,4.05-2.51,2.11,1.55,5.59.62.53.52,1.84.64,1.91-1.28,1.32.11,3.07,0,4-.08.7-.99.93-1,1-4.59-.03-2.51-5.64-2.99-6.01-.42-.33-2.98.49-3.87-.11-.74-.49-.56-3.68-1.38-4.65-.21-.25-4.76-2.84-5.76-3.23.05-1-.05-2,0-3Z"/>
      <path class="cls-12" d="M500.97,154.08c8.33.45,33.13,6.13,42.04,8.51,1.62.43,3.32.02,2.96,2.49-7.75-1.01-18.73-.16-26.3-1.98-2.05-.49.88-3.64-5.7-2.02-.29-5.21-12.09-1.38-13-7Z"/>
      <path class="cls-10" d="M716.97,178.08c.5,1.09,1.46,4.38,2,5,.7,3.8-5.78,1.66-8,4-2.03-2.23-.78-1.1-4.7-2.95-.69-.33-.27-2.94-.3-3.05-.08-.3.07-.67,0-1-.14-.66-.11-2.28,0-3,6.94-1,5.35,0,11,1Z"/>
      <path class="cls-10" d="M618.97,168.08c-2.84,6.29,2.96,5.07,7,6,1.11,2.99-4.85,2.25-7.59,2.04-1.31-.1-2.26-1.03-2.41-1.04.12-1.98-.17-4.03,0-6,0-.07.92-.3,1-1,.67,0,1.33,0,2,0Z"/>
      <path class="cls-8" d="M696.96,200.08c-.86,2.6-.93,4.38,0,6.99-6.5-.02-6.77-6.42,0-6.99Z"/>
      <path class="cls-8" d="M601.97,160.08c2.62-.41,1.7.6,2,2h-3c-.43-1.17.98-1.89,1-2Z"/>
      <path class="cls-4" d="M796.96,228.08c-.77-.81-11.98,6.62-14.16,7.33-4.65,1.51-10.95,1.68-15.83,1.67l4.99,7.99c-3.39-1.19-8.93-1.98-11.34-2.98-1.07-.44-.43-2.17-1.32-3.08-1.64-1.67-32.12-8.68-37.34-9.95-1.21-4.46,3.83-3.16,6.49-2.99,12.27.77,43.63,9.68,52.73,6.71,3.7-1.21,13.46-7.67,14.57-11.42.89-2.98.31-10.55-.86-13.54-.46-1.17-3.17-.12-.94-4.75-.96-.12-2.08.15-3,0-.19-.89.2-2.14,0-3,1.18.45,2.98.47,4,1,1.46.75,9.43,8.43,9.8,9.7"/>
      <path class="cls-8" d="M384.97,124.08c-13.11-2.43-27.58-5.09-41.21-8.29-72.16-16.96-143.44-38.31-216.01-54.08-2.36-.51-4.42,1.08-5.78-1.19-.41-1.29.96-2.19,1-2.43,9.25-1.65,19.55,3.74,28.6,5.9,43.4,10.35,83.31,21.15,126.18,32.82,28.47,7.75,57.58,13.68,86.22,20.78,6.9,1.71,14.57,3.5,21,6.5Z"/>
      <path class="cls-8" d="M86.97,45.08c-.58,2.66,1.34,1.95,2.96,2.49,9.69,3.21,20.23,4.58,30.04,7.51-.57,1.2-.9,3.81-1.05,3.95-.75.67-17.3-3.04-19.79-3.61-7.25-1.66-9.85-5.23-18.16-3.34,1.18-1.85,5.42-4.98,6-7Z"/>
      <path class="cls-8" d="M453.97,141.08c-7.2-1.44-16.16-2.6-24.03-4.47-1.5-.36-6.65-1.03-5.97-3.53,9.69,1.4,20.9,4.58,30,8Z"/>
      <path class="cls-8" d="M386.97,124.08c6.75,1.22,14.64,2.65,21.25,4.3,1.7.42,3.23.34,2.75,2.7-6.67-.45-14.46-2.82-21.03-4.52-1.67-.43-3.53.12-2.97-2.48Z"/>
      <path class="cls-8" d="M79.97,48.08c-.36,1.08.05,2.85-1,4-.19.05-.69,2.21-3,2-1.78-.16-5.7-1.93-8-2-.51-.46-1.64-.56-1.89-1.67s.83-1.17.89-1.33c4.75,2.36,8.65.85,13-1Z"/>
      <path class="cls-9" d="M77.97,56.08c.66.02,1.33-.03,1.99,0-.07,3.65-3.44,5.84-5.99,7.99h-1c-.02-2.51-1.48-.85,1-5,2.34.27,4.11-.42,4-3Z"/>
      <path class="cls-11" d="M86.97,45.08c-.58,2.02-4.82,5.15-6,7-.6.14-1.43-.15-2,0,1.05-1.15.64-2.92,1-4,3.51-1.49,4.36-1.7,7-5-.13.61.16,1.46,0,2Z"/>
      <path class="cls-8" d="M412.97,131.08c1.01,0,5.29-2.38,5,2-1.99-.15-4.22.53-5-2Z"/>
      <path class="cls-8" d="M77.97,56.08c.11,2.58-1.66,3.27-4,3,.52-.88.09-2.4,2-3,.42-.13,1.41-.02,2,0Z"/>
      <path class="cls-8" d="M121.97,52.08c3.71-1.3,1.17,2.17,1,3l-1-3Z"/>
      <path class="cls-8" d="M421.97,133.08l-.51.99-1.49-.99c.27.02.43-.2,2,0Z"/>
      <path class="cls-8" d="M457.97,142.08c-1.55,1.84-2.37,1.26-2-1,1.57.32,1.89.98,2,1Z"/>
      <path class="cls-8" d="M73.97,66.08c-.59-.12-1.36.09-2,0-.06-.74,1.01-1.61,1-1.99h1v2Z"/>
      <path class="cls-1" d="M40.97,14.08c.11.12,1.34-.4,1.97.74,2.51,4.54,2.52,12.39,1.77,17.5-.68,4.68-6.81,17.43-11.74,17.76-1.34-3.93-5.35-7.16-5.68-11.63-.18-2.41,1.15-13.21,1.92-15.63,1.47-4.62,6.39-10.05,11.76-8.74Z"/>
      <path class="cls-6" d="M79.97,48.08c-4.35,1.85-8.25,3.36-13,1,.29-.84.83-1.51,1-2,2.14-.27,5.63-.12,5-3,.33-.01.68.05,1,0,1.86-.29,2.35.07,4.06-1.42,4.05-3.52-1.04-15.96-8.06-14.58.3-5.21,1.89-10.19,2-16,2.59-.37,2.93.48,4.23,2.28,1.11,1.53,7.21,13.87,7.54,15.45,1.7,8.18-1.54,11.62-3.77,18.28Z"/>
      <path class="cls-12" d="M40.97,14.08c-5.37-1.31-10.29,4.12-11.76,8.74-.77,2.41-2.1,13.22-1.92,15.63.33,4.47,4.34,7.7,5.68,11.63-3.4.23-10.9-6.37-9.77-8.82.14-.31,2.55.19,1.78-2.68-.27-1.03-4.29-.94-4.91-3.16-.1-.38.65-6.79.83-7.77.22-1.18,2.45-.2,2.91-.67,1.36-1.37-.26-14.63,10.61-15.96,6.59-.81,4.64,1.1,6.54,3.05Z"/>
      <path class="cls-7" d="M71.97,12.08c-.11,5.81-1.7,10.79-2,16-.42,7.35,5.23,5.34,7.01,7.01.11.11-.97,2.16-1.01,2.99-1.89,1.54-4.47.54-6.34.99-1.23.29,0,2.43-1.65,2-.92-7.32,1.24-14.35,1.98-21.51.44-4.25-1.12-10.04,1.01-13.49,1.63,1.06,1.03,4.14,1,6Z"/>
      <path class="cls-10" d="M63.97,58.08c-3.22.74-6.74,1.47-10,2-1.54-1.98-4.96-.51-7.36-1.19-1.36-.38-1.53-1.77-1.64-1.81l8.33-3.17c4.49-1.29,10.85-2.29,10.67,4.17Z"/>
      <path class="cls-4" d="M69.97,28.08c7.02-1.38,12.11,11.06,8.06,14.58-1.71,1.49-2.21,1.12-4.06,1.42.29-.68.74-1.31,1-2,.8-2.14,2.05-2.43,2.05-2.62,0-.65-1.06-1.22-1.05-1.38.04-.83,1.13-2.88,1.01-2.99-1.78-1.67-7.43.34-7.01-7.01Z"/>
      <path class="cls-3" d="M19.11,48.94c1.26.8,5.95-.26,7.87.14v2.99c-7.76.94-13.59-5.08-11.99-12.99,2.41.89,3.03,9.15,4.13,9.86Z"/>
      <path class="cls-4" d="M72.97,44.08c.63,2.88-2.86,2.73-5,3,.36-1.06.46-1.73,1-3,1.33-.04,2.67.05,4,0Z"/>
      <path class="cls-5" d="M74.97,42.08c-.26.69-.71,1.32-1,2-.32.05-.67-.01-1,0-1.33.05-2.67-.04-4,0,.21-.49-.63-1.73.64-2.04,1.46-.36,3.72.29,5.36.04Z"/>
      <path class="cls-12" d="M498.97,154.08c-.56.08-2.38,2.95-2-1,.85,0,1.71.08,2,1Z"/>
      <path class="cls-2" d="M129.97,37.08c13.93,4.86,28.56,7.88,43,11,.37.08,1.1.81,2,1,2.03.42,3.99.64,6,1,.32.06.68-.06,1,0,2.73,2.26,6.74,2.26,10,3,.32.07.68-.07,1,0l3,1c.32.1.75-.12,1,0l2,1c.87,1.56-1.67,2.89,3,1h2c.36.14.42.95,2,1h3c5.88,2.21,10.94,3.54,17,5h3c3.91,1.55,8.78,3.16,11.76,3.92,32.53,8.31,65.57,15.42,97.92,23.93,2.53.67,2.66-.5,2.31,3.14-1.3-.23-5.76-2.28-5.99-.01l162.99,41.01c1.3,1.06,2.89.62,4,1,19.6,6.73,45.87,13.3,66,18v3c-144.01-37.05-287.55-73.72-432.01-110.49-1.54-.51-5.87-1.85-6.74-2.76-1.45-1.54-.96-3.91-1.26-5.75.63-.11,1.48.16,2,0ZM333.96,91.09c-4.16-.5-4.16,1.48,0,.98v-.98Z"/>
      <path class="cls-11" d="M126.97,36.08c.46.12.93.54,1,1,.29,1.84-.2,4.21,1.26,5.75.86.91,5.19,2.24,6.74,2.76,144.46,36.77,288,73.44,432.01,110.49,1.66.43,3.38.59,5,1,.34.09,1.07.75,2,1,2.16.59,4.71.48,7,2-2.77,2.02-7.66,0-10.82-.68-147.43-31.95-292.4-77.29-439.63-110.36-2.42-.72-3.67-2.5-6.55-2.95-.5-.08-1.55-.1-2,0,.08-1.58.76-9.48,1.12-9.92.44-.52,2.41.16,2.88-.08Z"/>
      <path class="cls-11" d="M340.97,93.08c.62.11,1.4-.13,2,0,10.99,2.28,23.1,5.29,34,8,1.33.33,2.66.67,4,1,14.21,3.55,28.69,8.34,43,12,17.61,4.51,35.39,8.51,53,13,1.68.43,3.95.47,6,1,5.41,1.39,11.48,3.13,15,6l-162.99-41.01c.23-2.27,4.69-.22,5.99.01Z"/>
      <path class="cls-11" d="M503.97,134.08c.98-.09,2.02.09,3,0,4.58,1.63,12.39,4.65,17,5,.61.05,1.41.08,2,0l2,1c.07.08,1.56.08,2,0l42,11c0,.67.02,1.33,0,2-1.24-.15-2.9.26-4,0-20.13-4.7-46.4-11.27-66-18,.27-.98,1.15-.92,2-1Z"/>
      <path class="cls-7" d="M423.97,112.08c16.56,4.29,33.6,7.77,50.02,12.53,1.66.48,3.55-.19,2.98,2.47-17.61-4.49-35.39-8.49-53-13v-2Z"/>
      <path class="cls-2" d="M423.97,112.08v2c-14.31-3.66-28.79-8.45-43-12,1.03-1.99,3.32-.63,4.78-.29,12.82,3,25.5,7,38.22,10.29Z"/>
      <path class="cls-7" d="M566.97,147.08c1.32-.1,2.67.06,4,0,.16,1.13.98,2.16,1,4l-42-11c10.6-1.85,26,7.79,37,7Z"/>
      <path class="cls-2" d="M342.97,93.08c-.5-4.38,4.02-.42,5.6-.1,6.91,1.44,13.82,2.29,20.62,4.38l7.78,3.72c-10.9-2.71-23.01-5.72-34-8Z"/>
      <path class="cls-11" d="M172.97,48.08c-14.44-3.12-29.07-6.14-43-11,.48-.15.64-1.01,2.19-.84,8.95.96,26.82,7.03,36.45,9.71,1.61.45,3.38.48,4.37,2.13Z"/>
      <path class="cls-7" d="M482.97,128.08c1.49-1.6,2.99-.47,4.58-.13,4.49.96,9.04,2.33,13.44,3.66,1.64.5,3.56-.22,2.98,2.47-.85.08-1.73.02-2,1-1.11-.38-2.7.06-4-1-3.52-2.87-9.59-4.61-15-6Z"/>
      <path class="cls-7" d="M506.97,134.08c5.6-.53,8.58.39,14.24,2.31,1.62.55,3.27.17,2.76,2.69-4.61-.35-12.42-3.37-17-5Z"/>
      <path class="cls-11" d="M191.97,53.08c-3.26-.74-7.27-.74-10-3,3.25.56,7.42-.14,10,3Z"/>
      <path class="cls-11" d="M180.97,50.08c-2.01-.36-3.97-.58-6-1,.92-1.64,4.73-.1,6,1Z"/>
      <path class="cls-7" d="M525.97,139.08c.11-.02,1.31-1.66,1.99-.99.23.22-.22,1.73,0,1.99l-2-1Z"/>
      <path class="cls-11" d="M228.97,62.08h-3c.17.04-.02-1.19,3,0Z"/>
      <path class="cls-11" d="M208.97,57.08h-3c.7.02-.13-1.17,3,0Z"/>
      <path class="cls-11" d="M195.97,54.08l-3-1c1.63.35,2.01.67,3,1Z"/>
      <path class="cls-11" d="M203.97,56.08h-2c.2-.08.23-.91.59-.99,1.05-.23,1.25.93,1.41.99Z"/>
      <path class="cls-11" d="M198.97,55.08l-2-1c.59.28,1.13-.55,2,1Z"/>
      <path class="cls-11" d="M685.97,168.08c1.94,1.43,1.95,4.02,3,6-.96,1.9-3.37.66-4.83.34-22.55-4.85-45.1-11.99-67.27-17.74l-.9-5.6c23.49,4.87,46.76,10.99,70,17Z"/>
      <path class="cls-10" d="M685.97,168.08l1.99-1c-.34,3.05-.09,3.41,3.01,3-.01,1.16-.3,4.42.11,4.89.18.2,4.48,1.98,4.89,2.11-3.9,2.99-5.29.24-7-3-1.05-1.98-1.06-4.57-3-6Z"/>
      <path class="cls-11" d="M763.97,189.08c.3.02.72.07,1,0,.3.33.61.8,1,1,5.38,2.68,1.88,1.68,2,5-3.08-.08-6.19.28-9.26-.24-7.07-1.2-19.58-4.96-26.94-7.05-2.65-.75-11.45-3.17-12.79-4.71-.54-.62-1.5-3.91-2-5,14.07,2.47,34.39,10.32,47,11Z"/>
      <path class="cls-11" d="M589.97,154.08c.58,1.34.85,2.54,1,4-1.78-.52-4.97-.37-7-1,.27-1.03.37-2.09,1-3,1.63.18,3.36-.12,5,0Z"/>
      <path class="cls-11" d="M91.97,31.08c.24.25-.53,2.04.5,2.02,1.78-.03,2.69-2.2,3.5-2.02.15.03.66,1.53,2.39,2.07,7.43,2.31,15.09,3.97,22.61,5.93.51,2.02,1,2.2,1,5-6.19-1.35-19.12-2.61-24.33-5.2-1.51-.75-1.46-2.74-2.27-2.81-1.41-.13-4.94,1.5-7.4,0,.07-2.24-.45-3.91-1-6h1c.82.41,3.7.69,4,1Z"/>
      <path class="cls-7" d="M87.97,36.08c2.47,1.49,5.99-.14,7.4,0,.8.07.76,2.06,2.27,2.81,5.21,2.59,18.14,3.85,24.33,5.2,0,.67,0,1.33,0,2-.14.16.3,1.46-.14,1.83-1.49,1.27-20.79-5.43-25.36-4.85l-2.5,3.02c1.2-6.58-1.78-4.92-7.01-6,.18-1.38.99-3.51,1-4Z"/>
      <path class="cls-7" d="M83.97,20.08l5.99,1.01c.33,1.95-2.4.5-2.95,1.03-.84.83,1,6.31.96,7.96h-1c-.74-2.84-2.08-7.02-3-10Z"/>
      <path class="cls-11" d="M113.97,28.08c1.35.52,3.04.88,4,2-7.28-.67-15.1-2.7-22-5-.68-.23-1.32-.73-2-1,.56-.21.6-.96,2.17-.82,3.47.3,14.3,3.45,17.83,4.82Z"/>
      <path class="cls-7" d="M93.97,24.08c.68.27,1.32.77,2,1v6c-.8-.18-1.72,1.99-3.5,2.02-1.03.02-.26-1.77-.5-2.02,4.56,1.06-1.85-4.43.11-6.92.59-.36,1.48.07,1.89-.08Z"/>
      <path class="cls-2" d="M117.97,30.08c1.98,2.31,2.36,6.46,3,9-7.51-1.97-15.18-3.63-22.61-5.93-1.73-.54-2.24-2.03-2.39-2.07v-6c6.9,2.3,14.72,4.33,22,5Z"/>
      <path class="cls-10" d="M584.97,154.08c-.63.91-.73,1.97-1,3-.25.93-.98,2.84-1,3h-1c-2.29-1.52-4.84-1.41-7-2,.06-.77-.92-1.61-1-2-.32-1.56.21-3.32-1-4.99,4.07.61,7.88,2.54,12,2.99Z"/>
      <path class="cls-2" d="M574.97,158.08c-.93-.25-1.66-.91-2-1l1-1c.08.39,1.06,1.23,1,2Z"/>
      <path class="cls-2" d="M581.97,160.08h1c-.08.65.09,1.36,0,2l-2.25,2.82c-109.56-26.99-218.87-55.24-328.31-82.75-38.26-9.62-82.76-17.46-119.67-29.33-3.23-1.04-9.33-2.2-7.77-6.73,2.87.46,4.13,2.23,6.55,2.95,147.24,33.08,292.2,78.41,439.63,110.36,3.16.68,8.04,2.71,10.82.68Z"/>
      <path class="cls-1" d="M771.97,245.08c-2.54-.6-4.42-3.76-4.99-7.99,4.88,0,11.17-.16,15.83-1.67,2.18-.71,13.4-8.14,14.16-7.33-.98.81-2.5,2.07-4.38,3.58-4.85,3.88-4.83,3.59-7.61,5.89-4.05,3.34-4.96,4.67-8.08,6.22-2.02,1.01-3.39,1.67-4.92,1.31Z"/>
      <path class="cls-12" d="M780.97,191.08c-.03.87.74,1.43,1,2,.71,1.53,6.3,9.17,7.24,9.78.69.45,1.23.12,1.76.22,1.09,5.14,2.4,11.16,1.01,16.34-.32,1.21-1.85.51-2.01.66.02-.82-.81-1.47-1-2-.31-.88-.74-2.13-1-3-.09-.31.08-.69,0-1,.71.13.99-.33,1-1,.02-1.34-.74-1.47-1-2-1.69-3.46-.83-1.55-3-3-.36-.24-.63-.74-1-1,3.36-9.24-10.03-12-13-19,3.11.7,7.07,1.81,10,3Z"/>
      <path class="cls-10" d="M787.97,215.08c.26.87.69,2.12,1,3l-4.49,2.08-63.88-15.03c-1.31-.73-.54-4.55-.64-6.05l68,16Z"/>
      <path class="cls-2" d="M784.97,208.08c2.17,1.45,1.31-.46,3,3l-.93.61c-.12.72.88,1.15.93,1.39.07.32-.08.69,0,1s-.09.69,0,1l-68-16c-.13-1.99.05-3.16,0-5,2.06-.21,4.02.06,6.04.45,14.28,2.74,31.32,7.61,45.61,11.4,3.92,1.04,9.19,5.17,13.35,2.15Z"/>
      <path class="cls-11" d="M718.97,189.08c.84-.63.13-5.38,3.74,2.01l57.26,13.99c1.57,1.19,2.94,1.27,4,2,.37.26.64.76,1,1-4.16,3.02-9.43-1.11-13.35-2.15-14.29-3.79-31.33-8.66-45.61-11.4-2.02-.39-3.98-.66-6.04-.45-.05-1.73-.56-3.36-1-5Z"/>
      <path class="cls-8" d="M770.97,188.08c2.97,7,16.36,9.76,13,19-1.06-.73-2.43-.81-4-2-.13-.1-.03-1.63-1.59-2.88-2.79-2.22-10.27-3.3-10.41-7.12-.12-3.32,3.38-2.32-2-5v-1c.18-.24-.52-1.89.6-2.08.99-.17,3.14.8,4.4,1.08Z"/>
      <path class="cls-4" d="M782.97,192.08l-1,1c-.26-.57-1.03-1.13-1-2,.8.33,1.33.68,2,1Z"/>
      <path class="cls-3" d="M765.97,190.08c-.39-.2-.7-.67-1-1,.35-.08.9.13,1,0v1Z"/>
      <path class="cls-11" d="M333.96,91.09v.98c-4.16.5-4.16-1.48,0-.98Z"/>
      <path class="cls-8" d="M788.97,213.08h-1c-.05-.24-1.05-.68-.93-1.39l.93-.61c.26.53,1.02.66,1,2Z"/>
      <path class="cls-10" d="M787.97,214.08c-.08-.31.07-.68,0-1h1c-.01.67-.29,1.13-1,1Z"/>
    </g>
  </g>
</svg>