<svg width="24" height="25" viewBox="0 0 24 25" fill="none" xmlns="http://www.w3.org/2000/svg">
<mask id="mask0_2028_1141" style="mask-type:alpha" maskUnits="userSpaceOnUse" x="0" y="0" width="24" height="25">
<rect y="0.454346" width="24" height="24" fill="#D9D9D9"/>
</mask>
<g mask="url(#mask0_2028_1141)">
<path d="M5.85 17.5543C6.7 16.9043 7.65 16.3918 8.7 16.0168C9.75 15.6418 10.85 15.4543 12 15.4543C13.15 15.4543 14.25 15.6418 15.3 16.0168C16.35 16.3918 17.3 16.9043 18.15 17.5543C18.7333 16.871 19.1875 16.096 19.5125 15.2293C19.8375 14.3627 20 13.4377 20 12.4543C20 10.2377 19.2208 8.35018 17.6625 6.79185C16.1042 5.23351 14.2167 4.45435 12 4.45435C9.78333 4.45435 7.89583 5.23351 6.3375 6.79185C4.77917 8.35018 4 10.2377 4 12.4543C4 13.4377 4.1625 14.3627 4.4875 15.2293C4.8125 16.096 5.26667 16.871 5.85 17.5543ZM12 13.4543C11.0167 13.4543 10.1875 13.1168 9.5125 12.4418C8.8375 11.7668 8.5 10.9377 8.5 9.95435C8.5 8.97101 8.8375 8.14185 9.5125 7.46685C10.1875 6.79185 11.0167 6.45435 12 6.45435C12.9833 6.45435 13.8125 6.79185 14.4875 7.46685C15.1625 8.14185 15.5 8.97101 15.5 9.95435C15.5 10.9377 15.1625 11.7668 14.4875 12.4418C13.8125 13.1168 12.9833 13.4543 12 13.4543ZM12 22.4543C10.6167 22.4543 9.31667 22.1918 8.1 21.6668C6.88333 21.1418 5.825 20.4293 4.925 19.5293C4.025 18.6293 3.3125 17.571 2.7875 16.3543C2.2625 15.1377 2 13.8377 2 12.4543C2 11.071 2.2625 9.77101 2.7875 8.55435C3.3125 7.33768 4.025 6.27935 4.925 5.37935C5.825 4.47935 6.88333 3.76685 8.1 3.24185C9.31667 2.71685 10.6167 2.45435 12 2.45435C13.3833 2.45435 14.6833 2.71685 15.9 3.24185C17.1167 3.76685 18.175 4.47935 19.075 5.37935C19.975 6.27935 20.6875 7.33768 21.2125 8.55435C21.7375 9.77101 22 11.071 22 12.4543C22 13.8377 21.7375 15.1377 21.2125 16.3543C20.6875 17.571 19.975 18.6293 19.075 19.5293C18.175 20.4293 17.1167 21.1418 15.9 21.6668C14.6833 22.1918 13.3833 22.4543 12 22.4543Z" fill="white"/>
</g>
</svg>
