<?xml version="1.0" encoding="UTF-8"?>
<svg id="Layer_2" data-name="Layer 2" xmlns="http://www.w3.org/2000/svg" viewBox="0 0 430.1 228.05">
  <defs>
    <style>
      .cls-1 {
        fill: #0a0b04;
      }

      .cls-2 {
        fill: #4f6f4f;
      }

      .cls-3 {
        fill: #616144;
      }

      .cls-4 {
        fill: #101609;
      }

      .cls-5 {
        fill: #181c05;
      }

      .cls-6 {
        fill: #020201;
      }

      .cls-7 {
        fill: #53745a;
      }

      .cls-8 {
        fill: #31401d;
      }

      .cls-9 {
        fill: #4a4118;
      }

      .cls-10 {
        fill: #3d5037;
      }

      .cls-11 {
        fill: #152223;
      }

      .cls-12 {
        fill: #587b63;
      }

      .cls-13 {
        fill: #292a0f;
      }
    </style>
  </defs>
  <g id="Layer_0_Image" data-name="Layer 0 Image">
    <g>
      <path class="cls-12" d="M266.1,15c12.67.65,29.08,9.03,42,11,1.66,3.52,1.61,3.02,3,5,.39.56-.86,10.62,2.65,12.84,7.94,5.03,7.81-5.07,13.34-6.83,1.46,4.2-3.13,6.5-3.99,8.51-.76,1.79,1.44,1.89,2.45,1.45s11.54-16.5,12.45-18.57c-.32-3.33-.26.16-2.15.42-.61.08-7.14.83-5.75-1.81,20.95-3.51,61.29,5.74,84.19,9.3,1.84.29,4.47.39,5.81,1.7-.2.03-.76.79-1.61.91-27.38,3.87-54.96,6.65-82.39,10.1-.64,2.41,1.28,2.24,2.99,2.99l-14,22c-9.7-2.71-25.56-8.63-34.73-9.78-2.13-.27-2.55-.87-2.27,1.77,1.14-.03,5.66.52,6.01,1.01.23.33-.22,1.77,0,1.99.6.6,1.88-.99,1.99-.99,4.07-.2,19.69,5.74,25,7-4.17,10.58-13.12,20.27-20.19,29.36-9.15,11.75-15,20.58-23.38,32.57-7.7,11.03-20.02,20.02-22.43,34.07-6.06-1.12-12.2,7.35-15,12-35-10.53-70.86-23.85-106.33-33.22-1.29-.34-2.45-1.73-2.67-1.78l-15-124c1.13-.09,2.35-.95,3-1,10.56-.81,22.93-.28,34-1,5.32-.34,10.67-.67,16-1,11.67-.73,23.34-1.37,35-2,4.26-.23,8.64-.78,13-1,14.89-.76,34.97-3.72,49-3ZM261.1,41c-5.65.42-11.33.74-17,1-.23.01-1.1-.73-2.27-.67-13.67.69-27.53,2.7-41.09,2.61-1.27.05-.43,1.52-.64,2.05-.37.93-1.59,1.82-1.07,3.39l9.56,75.62,5.5,1.99-7.95-71.58c.16-1.08-.68-1.71-1.04-2.42.21-1.23-.32-5.7,0-6,1.31-1.28,31.83-1.61,36.58-1.96,1.3-.1,2.26-1.03,2.42-1.04,4.98-.37,10.01-.73,15-1,.2.41.85.71,1,1,.54,1.08,1.27,4.3,2,6l2.04,18.55c-1.37,16.86-2.58,33.92-3.09,50.9.47,4.34-14.41,13.64-11.94,16.55.94.16,2.17-.2,3,0,1.08.26,2.57,1.01,3.54.92,1.39-.12,15.18-13.44,16.47-15.42s1.73-3.69,1.99-6.01c1.96-17.35.4-36.4,2.95-53.86l-5.04-21.54c-3.68-.27-7.25.63-10.91.9Z"/>
      <path class="cls-13" d="M116.1,24l15,124c-4.78-1.12-14.44-1.32-20-2-3.72-.45-10.55-2.34-14-2-2.71.27-3.55,1.49-4,4l-2.99-3.02c-.5-1.45,3.89-.74,1.98-2.96-.13-.16-2.59-.91-3.72-1.77-7.58-5.76-15.59-10.97-22.73-17.29l-5.75-45.25c-.37-1.27-8.34-8.95-9.8-9.7-.92-5.95-.49-15.95-2.16-21.34-.24-.79-.66-1.33-1.46-1.59-10.54,1.84-21.31,2.33-31.88,3.92-1.78.27-3.77-.48-4.49,2.01-3.32-1.04-6.64-2.08-10-3-.46-1.41.71-2.22,1-3l53.26-6.24c11.26-3.28,22.31-7.2,33.56-10.5,1.71-.5,3.79.68,3.18-2.27,8.32-.85,16.66-1.34,25-2Z"/>
      <path class="cls-3" d="M91.1,26c.6,2.95-1.47,1.76-3.18,2.27-11.25,3.3-22.3,7.22-33.56,10.5L1.1,45c1.27-3.4,2.73-7.82,6.71-8.79,27.84-2.64,55.49-7.37,83.29-10.21Z"/>
      <path class="cls-2" d="M236.1,3l30,12c-14.03-.72-34.11,2.24-49,3,.68-6.08,3.71-11.75,3-18,5.42-.02,10.76,2.08,16,3Z"/>
      <path class="cls-9" d="M220.1,0c.71,6.25-2.32,11.92-3,18-4.36.22-8.74.77-13,1l4-8.99c-1.47-1.07-33.57,3.54-36,4.99l-3-6c12.76-2.61,25.84-2.85,38.22-5.28C212.2,2.76,215.84.01,220.1,0Z"/>
      <path class="cls-9" d="M166.1,9c-8.09,2.08-10.23,5.15-13,13-11.07.72-23.44.19-34,1,2.34-2.37,9.16-10.99,11.71-11.79,4.48-1.4,19.39-2.79,24.8-3.2,3-.23,7.91-.71,10.49.99Z"/>
      <path class="cls-3" d="M308.1,26c-12.92-1.97-29.33-10.35-42-11l-30-12c15.66,2.74,31.59,5.65,47.01,9.49,4.14,1.03,19.92,4.84,21.86,7.14,1.21,1.43,2.28,4.59,3.13,6.38Z"/>
      <path class="cls-10" d="M330.1,27c-1.39,2.64,5.15,1.89,5.75,1.81,1.89-.25,1.83-3.74,2.15-.42-.91,2.06-11.43,18.12-12.45,18.57s-3.21.34-2.45-1.45c.85-2.01,5.44-4.31,3.99-8.51-5.54,1.77-5.4,11.86-13.34,6.83-3.51-2.22-2.26-12.28-2.65-12.84,1.99.85,4.87-.98,6-1,.28,0,3.35,3.27,3-1,3.57-.55,6.66-1.44,10-2Z"/>
      <path class="cls-13" d="M169.1,9l3,6c-1.1.66-3.51,4.41-3,6-5.33.33-10.68.66-16,1,2.77-7.85,4.91-10.92,13-13,.83-.21,2.11.18,3,0Z"/>
      <path class="cls-12" d="M320.1,29c.35,4.27-2.72,1-3,1,.93-.57,1.93-.84,3-1Z"/>
      <path class="cls-8" d="M424.1,38v1c-4.43-1.3-3.76,1.88-4,2-1.25.63-6.27,1.6-8.56,2.92-1.19.69-9.58,6.58-9.96,7.06-.58.75-.61,1.1-.47,2.02l4.99,1-42,5.01c-.98-.34-14.36-1.09-8.72-4.23,1.49-.83,3.99-1.35,5.72-1.78-1.03-3.74-9.94.35-12,2.01-3.17-.59-7.08-1.72-10-3-1.71-.75-3.64-.58-2.99-2.99,27.43-3.45,55.01-6.23,82.39-10.1.84-.12,1.4-.88,1.61-.91,1.26-.18,2.74.18,4,0Z"/>
      <path class="cls-13" d="M7.37,103.5c3.85,1.07,6.61,1.97,7.07,2.45.89.91.25,2.63,1.32,3.08,2.41,1,7.95,1.79,11.34,2.98.97.34,2.12.64,3,1-.74,2.55,1.79,1.78,2,2,.12.13-.12,1.18.35,1.62,2.75,2.57,7.97,4.91,7.66,9.37l-30,3c-.99-4.84-3.21-17.63-3-22l.27-3.5Z"/>
      <path class="cls-2" d="M332.1,77c0,.32.05.69,0,1-1.7,11.23-16.65,27.85-22.83,37.67-6.63,10.55-11.84,21.71-18.94,32.06-3.29,4.79-7.74,8.59-11.03,13.97-2.79,4.54-5.28,10.3-7.2,15.3-4.64-1.43-13.3-5.32-17-6,2.41-14.05,14.73-23.04,22.43-34.07,8.37-11.99,14.23-20.82,23.38-32.57,7.07-9.08,16.02-18.77,20.19-29.36,3.77.9,7.72,1.27,11,2Z"/>
      <path class="cls-5" d="M255.1,171c3.7.68,12.36,4.57,17,6,3.31,1.02,6.69,1.97,10,3,8.63,2.7,17.4,5.26,26,8,8.35,2.66,16.69,6.29,25,9,.3,1.43-.88,4.03.69,5.03,2.89,1.84,8.27,2.6,11.31,3.97.53.24,2.05,1.44,3,2,1.59,6.54.87,13.32,1,20-.55-.17-1.45.17-2,0-.11-.03-.9-.66-2-1-7.3-2.26-15.53-5.69-21-10,2.65-2.02,6.86-13.96,5.54-16.02-.7-1.1-2.88-1.3-3.94-2.13-.99-.77-1.39-2.26-1.89-2.56-4.32-2.59-35.68-10.75-41.31-11.21s-.28,3.15,2.6,3.91c.34,6.68-5.18,2.44-9,2.99,2.14-8.74-1.35-1.37-4.04-.56-1.13.34-2.16.89-3.41.64-7.02-2.52-14.45-3.96-21.55-6.07-1.49-.44-4.6-2.28-7-3,2.8-4.65,8.94-13.12,15-12Z"/>
      <path class="cls-1" d="M131.1,148c.22.05,1.38,1.44,2.67,1.78,35.47,9.37,71.33,22.68,106.33,33.22,2.4.72,5.51,2.56,7,3v4c-33.81-10.12-72.04-22.46-105.99-30.51-3.49-.83-6.47-1.17-10.01-1.49-7.17-.65-15.39.3-23,1,.05-.99-.07-2.01,0-3,.24-3.41,2.15-6.69,3-10,5.56.68,15.22.88,20,2Z"/>
      <path class="cls-1" d="M261.1,41c3.66-.27,7.23-1.17,10.91-.9l5.04,21.54c-2.55,17.46-.99,36.51-2.95,53.86-.26,2.32-.7,4.03-1.99,6.01s-15.08,15.3-16.47,15.42c-.96.08-2.46-.66-3.54-.92,3.41-4.25,7.47-7.84,11-12,.9-1.07,3.38-1.73,3.79-3.72,1.83-7.87.63-15.9,1.17-23.82.89-12.93,4.74-32.53-.45-44.46-1.54-3.55-5.94-6.49-6.51-10.99Z"/>
      <path class="cls-10" d="M205.1,53c.36.71,1.2,1.34,1.04,2.42l7.95,71.58-5.5-1.99-9.56-75.62c-.52-1.57.7-2.46,1.07-3.39.97,2.38,4.01,5.03,5,7Z"/>
      <path class="cls-5" d="M261.1,41c.56,4.5,4.96,7.45,6.51,10.99,5.19,11.93,1.34,31.54.45,44.46-.54,7.92.65,15.96-1.17,23.82-.4,1.98-2.88,2.65-3.79,3.72l3.04-41.46c.39-12.88.97-20.8-4.04-32.54-.73-1.7-1.46-4.92-2-6l-1-1c-4.99.27-10.02.63-15,1v-2c5.67-.26,11.35-.58,17-1Z"/>
      <path class="cls-6" d="M172.1,15c2.43-1.45,34.53-6.06,36-4.99l-4,8.99c-11.66.63-23.33,1.27-35,2-.51-1.59,1.9-5.34,3-6Z"/>
      <path class="cls-8" d="M263.1,124c-3.53,4.16-7.59,7.75-11,12-.83-.2-2.06.15-3,0-2.47-2.91,12.41-12.21,11.94-16.55.52-16.98,1.72-34.04,3.09-50.9l-2.04-18.55c5.01,11.74,4.43,19.66,4.04,32.54l-3.04,41.46Z"/>
      <path class="cls-7" d="M349.1,55c-.57.46-6.59,8.9-7.83,10.67-2.14,3.08-5.36,7.68-6.17,11.33-.88-.19-2.13.19-3,0,0-.66.07-1.32,0-1.97-2.43.14-4.68-.38-6.99-1.03l14-22c2.92,1.28,6.83,2.41,10,3Z"/>
      <path class="cls-8" d="M244.1,42v2c-.16.01-1.12.94-2.42,1.04-4.76.35-35.28.67-36.58,1.96-.31.31.22,4.78,0,6-.99-1.97-4.03-4.62-5-7,.21-.53-.63-2,.64-2.05,13.56.08,27.42-1.92,41.09-2.61,1.16-.06,2.04.68,2.27.67Z"/>
      <path class="cls-10" d="M325.1,74c2.31.65,4.56,1.17,6.99,1.03.08.65,0,1.31,0,1.97-3.28-.73-7.23-1.1-11-2-5.31-1.26-20.93-7.2-25-7l-2-1c-.35-.49-4.87-1.04-6.01-1.01-.28-2.64.14-2.04,2.27-1.77,9.17,1.15,25.04,7.06,34.73,9.78Z"/>
      <path class="cls-7" d="M296.1,68c-.11,0-1.39,1.6-1.99.99-.23-.23.22-1.67,0-1.99l2,1Z"/>
      <path class="cls-8" d="M260.1,44c-.15-.29-.8-.59-1-1l1,1Z"/>
      <path class="cls-8" d="M420.1,63c-.68,1.05-1.77,1.64-2,2-8.34.63-16.99,1-25.26,2.25-.87.13-3.01.45-2.73,1.74,1.7-.09,3.42.86,4.99,1.01-.17,3.37-1.53,6.45-3.17,9.33-9.67,16.93-24.12,28.8-31.6,47.4-2.25,5.59-2.23,12.72-5.37,17.63-3.43,5.36-12.59,6.56-8.86,15.64-5.5-2.74-7.39,2.13-11.06,4.43-4.94,3.1-13.99,7.25-17.38,11.62-3.03,3.91-3.74,9.9-9.55,11.95-8.6-2.74-17.37-5.3-26-8,.13-3.04,1.36-7.21,2.53-9.97,6-14.12,19.56-17.84,26.69-33.31,6.22-13.51,13.26-19.7,19.63-31.37,2.73-5.01,4.62-14.69,7.28-18.72,2.02-3.05,5.01-1.52,4.88-4.63,3.35.91,9.4-.15,11.89,3.61s3.68,20.86,5.12,22.4c1.31,1.41,1.89-.11,2.03-1.52.32-3.29-2.85-16.73-4.04-20.48l6.49-4.01,10.51-18.99c1.15.36,2.44,1.81,4.2,2.29,8.88,2.44,10.09.54,18.32-.28,7.48-.75,15-1.47,22.48-2.02Z"/>
      <path class="cls-13" d="M416.1,69c-.95,1.46-2.17,2.72-3,4-8.02-.65-4.66.09-6.55,3.92-1,2.03-3.28,5.3-4.64,7.39-16.62,25.65-35.65,50.24-51.63,76.37-6.95,11.36-12.6,23.42-16.18,36.32-.3-.1-.7.1-1,0-8.31-2.71-16.65-6.34-25-9,5.82-2.04,6.52-8.04,9.55-11.95,3.39-4.37,12.44-8.52,17.38-11.62,3.68-2.31,5.56-7.17,11.06-4.43-3.72-9.08,5.44-10.28,8.86-15.64,3.14-4.92,3.12-12.05,5.37-17.63,7.49-18.6,21.93-30.47,31.6-47.4,1.64-2.88,3-5.95,3.17-9.33,7.17.68,13.9-1.33,21-1Z"/>
      <path class="cls-5" d="M413.1,73c-2.83,4.34-5.43,10.08-8,14-14.11,21.53-29.56,42.37-43.42,64.08-2.75,4.3-7.16,10.37-8.58,14.92-3.75-1.11-3.75,2.99-3.99,5.51-.88,9.4.63,19.96-.01,29.49-1.07,1.09-12.77-3.28-15-4,3.57-12.9,9.22-24.96,16.18-36.32,15.98-26.12,35.01-50.72,51.63-76.37,1.36-2.1,3.64-5.36,4.64-7.39,1.89-3.83-1.47-4.57,6.55-3.92Z"/>
      <path class="cls-13" d="M420.1,41c-1.98,3.36-3.8,5.78-3,10l11-1c-2.73,4.22-5.25,8.74-8,13-7.49.55-15.01,1.27-22.48,2.02-8.23.82-9.44,2.71-18.32.28-1.75-.48-3.05-1.93-4.2-2.29-4.48-1.41-7.26-2.7-11-4l42-5.01-4.99-1c-.13-.92-.11-1.27.47-2.02.37-.48,8.77-6.37,9.96-7.06,2.29-1.33,7.31-2.29,8.56-2.92Z"/>
      <path class="cls-5" d="M424.1,39c2.19,2.26,5.29,5,6,8-.67,1.06-1.35,2-2,3l-11,1c-.8-4.23,1.02-6.64,3-10,.24-.12-.43-3.3,4-2Z"/>
      <path class="cls-5" d="M418.1,65c-.61.94-1.08,2.58-2,4-7.1-.33-13.83,1.68-21,1-1.58-.15-3.3-1.1-4.99-1.01-.28-1.29,1.86-1.61,2.73-1.74,8.27-1.25,16.92-1.62,25.26-2.25Z"/>
      <path class="cls-4" d="M7.37,103.5c3.85,1.07,6.61,1.97,7.07,2.45.89.91.25,2.63,1.32,3.08,2.41,1,7.95,1.79,11.34,2.98l-4.99-7.99c4.88,0,11.17-.16,15.83-1.67,2.18-.71,13.4-8.14,14.16-7.33-.4,3.33-2.12,7.92-3.61,10.88-.88,1.74-5.67,9.19-6.86,9.16-1.32-.03-2.54-1.96-4.02-2.02-1.63-.07-4.53,2.71-5.5,1.98-.38-.29,1.23-.7-2-2-.74,2.55,1.79,1.78,2,2,.12.13-.12,1.18.35,1.62,2.75,2.57,7.97,4.91,7.66,9.37l-30,3c1.05,5.14,4.56,17.74,7,22,5.32-.52,42.42-5.54,44.01-4,.22.22-.14,3.02,0,4,3.34.78,1.9-4,3.17-4.84.63-.42,14.37-2.21,15.11-2.02,2.02.53,7.51,6.97,5.69,8.83-1.28,1.31-2.39-3.11-2.97,4.03,1.65.1,3.36-.15,5,0,5.39-.58,2.75-4.03,6-4,.27-1.5-.27-3.5,0-5l-2.99-3.02c-.5-1.45,3.89-.74,1.98-2.96-.13-.16-2.59-.91-3.72-1.77-7.58-5.76-15.59-10.97-22.73-17.29l-5.75-45.25c-.37-1.27-8.34-8.95-9.8-9.7-1.02-.53-2.82-.55-4-1,.2.86-.19,2.11,0,3,.92.16,2.03-.11,3,0-2.23,4.63.48,3.58.94,4.75,1.17,2.99,1.75,10.56.86,13.54-1.11,3.75-10.87,10.21-14.57,11.42-5.14,1.68-17.36-.43-29.24-2.72"/>
      <path class="cls-6" d="M21.71,53.92c.99-.17,3.14.8,4.4,1.08,3.11.7,7.07,1.81,10,3,.8.33,1.33.68,2,1,4.07,1.95,6.83,2.93,8,8,1.18.45,2.98.47,4,1-.92-5.95-.49-15.95-2.16-21.34-.24-.79-.66-1.33-1.46-1.59-10.54,1.84-21.31,2.33-31.88,3.92-1.78.27-3.77-.48-4.49,2.01,1.95.61,3.71,1.31,5.61,1.93l3.65.79,2.34.19Z"/>
      <path class="cls-8" d="M97.1,144c.29,1.83-.41,10.63,0,11s9.24.57,11.01,1c-.07.99.05,2.01,0,3-8.56.79-17.14,2.47-26,3,.09-1.65-.13-3.35,0-5,1.65.1,3.36-.15,5,0,.17.02.68.97,1.52.98,2.18.03,4.1-2.87,4.48-4.98.27-1.5-.27-3.5,0-5,.45-2.51,1.29-3.73,4-4Z"/>
      <path class="cls-11" d="M111.1,146c-.85,3.31-2.76,6.59-3,10-1.77-.43-10.6-.62-11.01-1s.29-9.18,0-11c3.45-.34,10.28,1.55,14,2Z"/>
      <path class="cls-10" d="M17.1,151c5.32-.52,42.42-5.54,44.01-4,.22.22-.14,3.02,0,4,.55,4.18,6.01,1.47,5.01,4.49-.2.61-4.05,2.53-5.01,2.51-.3,0-5.55-1.08-5.81-1.22-.52-.28-1.1-2.78-1.69-2.78h-19.5c-1.58,6.32,4.41,4.42,5.01,5,.87.86-.91,4.11-1.01,5-4-.83-8.77-1.53-12.58-2.85-1.68-.58-1.98-1.92-2.42-2.15-.98-3.44-4.34-5.1-6-8Z"/>
      <path class="cls-1" d="M27.1,112l-4.99-7.99c4.88,0,11.17-.16,15.83-1.67,2.18-.71,13.4-8.14,14.16-7.33-.4,3.33-2.12,7.92-3.61,10.88-.88,1.74-5.67,9.19-6.86,9.16-1.32-.03-2.54-1.96-4.02-2.02-1.63-.07-4.53,2.71-5.5,1.98-.38-.29,1.23-.7-2-2-.88-.36-2.03-.66-3-1Z"/>
      <path class="cls-10" d="M343.1,82c.13,3.11-2.86,1.58-4.88,4.63-2.66,4.02-4.55,13.7-7.28,18.72-6.36,11.67-13.41,17.86-19.63,31.37-7.13,15.48-20.68,19.19-26.69,33.31-1.17,2.76-2.4,6.93-2.53,9.97-3.31-1.03-6.69-1.98-10-3,1.91-5,4.41-10.77,7.2-15.3,3.3-5.37,7.74-9.17,11.03-13.97,7.1-10.35,12.32-21.5,18.94-32.06,6.17-9.83,21.13-26.44,22.83-37.67,3.51,1.12,7.55,3.06,11,4Z"/>
      <path class="cls-5" d="M335.1,77c4.27.91,19.66,4.19,22.01,6.53,1.01,1,.7,1.54.99,2.47,1.19,3.76,4.36,17.19,4.04,20.48-.14,1.41-.71,2.92-2.03,1.52-1.44-1.54-2.62-18.65-5.12-22.4s-8.55-2.69-11.89-3.61-7.49-2.88-11-4c.05-.31,0-.68,0-1,.87.19,2.12-.19,3,0Z"/>
      <path class="cls-13" d="M285.1,189c-2.88-.77-8.38-4.39-2.6-3.91s36.99,8.62,41.31,11.21c.49.3.9,1.79,1.89,2.56,1.06.82,3.24,1.03,3.94,2.13,1.32,2.06-2.89,14.01-5.54,16.02-.75-.59-9.04-4.07-11-5-2.35-1.11-4.68-1.96-7-3-2.45-1.1-16.39-6.35-16.88-7.13-1.03-1.64,2.2-9.52,1.76-11.3-.61-2.46-4.4-1.18-5.88-1.58Z"/>
      <path class="cls-1" d="M353.1,166c-.16.51.11,1.37,0,2-1.17,6.73-.16,14.7,0,22-4.01-.81-1.13,7.11-1.97,10.35-.29,1.12-1.94.54-2.03.65-.93,1.19-1.35,3.95-4,5-3.04-1.37-8.42-2.13-11.31-3.97-1.57-1-.4-3.61-.69-5.03.3.1.7-.1,1,0,2.23.72,13.93,5.09,15,4,.64-9.53-.87-20.09.01-29.49.24-2.52.24-6.62,3.99-5.51Z"/>
      <path class="cls-10" d="M349.1,55c2.06-1.66,10.97-5.75,12-2.01-1.73.44-4.23.95-5.72,1.78-5.64,3.14,7.74,3.89,8.72,4.23,3.74,1.3,6.52,2.59,11,4l-10.51,18.99-6.49,4.01c-.29-.93.02-1.47-.99-2.47-2.35-2.34-17.74-5.62-22.01-6.53.82-3.64,4.03-8.25,6.17-11.33,1.24-1.78,7.25-10.21,7.83-10.67Z"/>
      <path class="cls-6" d="M61.1,151c3.34.78,1.9-4,3.17-4.84.63-.42,14.37-2.21,15.11-2.02,2.02.53,7.51,6.97,5.69,8.83-1.28,1.31-2.39-3.11-2.97,4.03-.13,1.65.09,3.35,0,5-3.59.22-10.83,1.33-13.51,1.09-2.08-.18-5.88-3.21-7.49-2.09v-3c.96.02,4.8-1.9,5.01-2.51,1-3.02-4.46-.31-5.01-4.49Z"/>
      <path class="cls-13" d="M93.1,153c-.37,2.11-2.29,5-4.48,4.98-.84,0-1.35-.96-1.52-.98,5.39-.58,2.75-4.03,6-4Z"/>
      <path class="cls-3" d="M21.1,57c-.39-.2-.7-.67-1-1,.35-.08.9.13,1,0v1Z"/>
    </g>
  </g>
</svg>