<?xml version="1.0" encoding="UTF-8"?>
<svg id="Layer_2" data-name="Layer 2" xmlns="http://www.w3.org/2000/svg" viewBox="0 0 633.7 384.24">
  <defs>
    <style>
      .cls-1 {
        fill: #0a0b04;
      }

      .cls-2 {
        fill: #4f6f4f;
      }

      .cls-3 {
        fill: #616144;
      }

      .cls-4 {
        fill: #101609;
      }

      .cls-5 {
        fill: #181c05;
      }

      .cls-6 {
        fill: #020201;
      }

      .cls-7 {
        fill: #53745a;
      }

      .cls-8 {
        fill: #31401d;
      }

      .cls-9 {
        fill: #4a4118;
      }

      .cls-10 {
        fill: #3d5037;
      }

      .cls-11 {
        fill: #152223;
      }

      .cls-12 {
        fill: #587b63;
      }

      .cls-13 {
        fill: #292a0f;
      }
    </style>
  </defs>
  <g id="Layer_0_Image" data-name="Layer 0 Image">
    <g>
      <path class="cls-2" d="M304.56,23.07c1.64.16,3.36-.09,5.01,0l-1.01-11c1.38-1.58-.06-3.21,5.45-3.03,22.86,4.16,45.9,7.36,68.8,11.29,43.67,7.48,93.19,14.19,135.79,24.21,2.33.55,7.54,1.68,9.33,2.71s1.3,2.42,1.64,2.82L320.93,13.2l-7.38-.12,1.01,1.99c-3.39-.09-3.62.51-4.05,3.45-.78,5.31-.45,5.33,3.82,6.24,57.43,12.17,118.15,17.25,175.84,29.2,6.72-.28,15.06-3.26,21.39-.89l-11.99,1.99c6.6,1.26,13.39,1.81,19.99,3.01,2.12.39,4.6,1.77,7,2,1.31.13,2.69-.06,4,0l-1-10c.1.12,1.75-.46,2.03.65.49,1.98-.76,8.94,1.15,10.18.93.6,18.74,3.6,21.82,4.17.85,17.01,2.58,33.95,3,51-35.83-.23-71.7.29-107.54.04-69.45-.48-139.47-1.47-208.92-2.08-21.51-.19-43.04.23-64.54.04-.62-4.21,1.72-7.46,3.48-11.02,14.32-29.07,31.75-56.82,46.06-85.94l.45-3.04c-2.59-.23-5.46.29-8,0-.26-.03-.74-.99-1-1-.66-.03-1.34.02-2,0,0-.67,0-1.33,0-2,0-1.5-.23-2.82,1-4,.19,1.53-.38,3.2,1.64,3.86,3.12,1.02,10.8-.22,14.84.16,5.8.54,11.65,2.85,17.53,2.47-.02-1.23-.27-2.81-.94-3.82-1.26-1.9-28.61-5.89-33.07-5.67,0-1,0-2,0-3,2.34-.89,2.59-1.22,5.46-1.01,5.13.37,20.66,3.08,25.61,4.44,7.88,2.17,6.05,9.52,8.59,10.41,15.9,1.04,32.79,6.68,48.34,8.16Z"/>
      <path class="cls-10" d="M472.56,349.07c-.03,1.99.01,4,0,6,3.67.45,3.43-5.15,2.99-8l87,3c-1.5,9.06-5,17.48-7.17,26.35-.5,1.68-1.85,1.26-2.83,1.65-.24-.95-1.16-1.01-2-1-.35-5.46,6.38-15.01,6.04-19.5-.27-3.63-9.32-3.87-11.28-.24-.98,1.83-6.02,15.79-6.33,17.74-.29,1.79.33,1.92.57,3-3.38,1.38-3.83-1.9-5.43-2.08-7.91-.89-17.5-.55-25.57-.92-7-.32-14.02-.86-21-1-2.33-.05-4.67.03-7,0-.72-.13-1.59-.83-3-1-20.19-2.49-54.22-5.81-74-5-.66.03-1.34-.04-2,0-2.31-1.65-6.13-1.14-9-1-1.66.08-3.35-.1-5,0-1.82-1.5-4.71-1.17-7-1-.66.05-1.34-.04-2,0-1.16-1.44-12.48-1.4-13.01-1-.16.12.1,1.44,0,2-.36.06-.86-.11-1,0-4.5-4.69-12.68-2.55-18.49-3.01-14.98-1.2-33.42-4.42-48.06-3.99-1.93.06-4.01-1.01-3.45,2-.48-.15-1.35.07-2,0,.95-4.47-2.29-2.88-6-3-2.98-.1-6.04.22-9,0-3.92-.28-9.78-1.71-14-2-1.17-.08-2.17.13-3,1-.32-.24-6.73-.08-8,0,.76-3.07-2.32-1.92-5-2-19.39-.6-38.67-2.76-58-4-1.22-3.4,2.51-7.15,3-9l280,6Z"/>
      <path class="cls-7" d="M554.56,237.07c-.19,1.61.31,2.38,2,2,.13,18.75,1.78,36.38,3,55h-1.35c-1.33,3.7-2.24.95-2.65,1,1.47-3.26-3.72-4.38-5.37-3.92-2.87.79-1.28,4.15-.63,5.92.26.7.67,1.33,1.01,1.99-6.33-1.32-7.42,7.81-10.7,8.81-4.99,1.52-10.86-2.03-15.61-.59-1.91.58-3.56,3.84-5.99,5.01-9.18,4.42-27.55,10.64-37.66,13.34-2.14.57-4.74.04-6.39.61-.32.11-4.51,4.54-4.67,4.83-1.63-.67-2.18-2.18-2.88-3.62-7.04-14.64-8.92-36.44-10.11-52.89-.18-2.49.06-5.02-.01-7.5,6.01-1.04,21.22,4.75,25,0,.43-.54-1.09-2.42,1.51-2.02,1.74.26,3.2,2.65,5.49,2.02.73-3.4-2.26-18.97-.03-20.54l66.04-9.46Z"/>
      <path class="cls-12" d="M559.56,294.07c1.02,15.53,5.34,41.92,3,56l-87-3c-.25-1.64-1.43-4.11-3-5-.46-2.72-1.28-4.49-2-7,1.46-2.08,1.77-3.46-1-3,.03-.36-.1-.82,0-1,.16-.3,4.35-4.72,4.67-4.83,1.64-.57,4.25-.04,6.39-.61,10.11-2.71,28.48-8.92,37.66-13.34,2.43-1.17,4.07-4.43,5.99-5.01,4.75-1.44,10.62,2.12,15.61.59,3.28-1,4.37-10.13,10.7-8.81-.34-.66-.75-1.29-1.01-1.99.64-.08,1.5.15,2,0,1.57,1.83,2.37,1.27,2-1,.17-.04.57-.82,2-1,.41-.05,1.32,2.7,2.65-.99h1.35ZM555.55,337.08l-35.99-3.01c-.47,3.05.75,1.63,2.52,1.95,7.6,1.36,15.3.72,22.93,2.09l10.54-1.04Z"/>
      <path class="cls-12" d="M469.56,341.07c.16,0,2.86.92,3,1,.15.89-.08,2.02,0,3-30.82-.58-61.71-.37-92.54-.96-58.33-1.11-117.11-4.04-175.46-4.04,5.01-1.18,12.19-1.62,17.33-1.62,46.26-.02,92.05,2.1,138.13,2.66,34.32.42,70.21-1.84,104.16.86,1.78.14,3.54-1.01,5.39-.91Z"/>
      <path class="cls-6" d="M380.56,366.07c-.89,2.91,2.88,2.25,5.51,1.97,1.64-.17,1.4-.96,1.49-.97,1.65-.1,3.34.08,5,0-1.08,3.06,4.76,2.21,7.52,1.97,1.61-.14,1.39-.97,1.48-.97.66-.04,1.34.03,2,0-.56,3.02,1.53,1.94,3.45,2,3.17.11,6.38-.09,9.54,0-.49,2.02-4.8.75-6.53.95-1.5.18-3.08.2-3.46,2.03,12.01.22,24.02,1.25,36,2.01,9.62.61,19.39,1.64,29,2,1,.04,2,0,3,0h3c2.18.6,8.47,2,10.5,2h16c2.8,0,7.55-1,11.5-1h4c-.23.29.24,1.82,0,2-.66.5-13.63.72-16.52,1.03-1.88.2-4.04-1.21-3.49,1.97-13.99.71-27.99.85-42,1-8.86.09-17.08.32-26,0-1.33-.05-2.67.05-4,0-1.68-.06-3.72-.9-6-1-20.09-.84-42.24-3.38-62-3-.33,0-.67-.02-1,0l-3.99-11c2.64.85,6.75,1.2,9.28-.03,1.21-.59.61-1.89.72-1.97.14-.11.64.06,1,0,3.2-.5,9.61-.79,13-1,.66-.04,1.34.05,2,0Z"/>
      <path class="cls-12" d="M558.56,65.07c24.6,4.43,49.34,8.36,73.86,13.14.07,25.31,1.85,50.45,1.08,75.81-1.74-.05-2.93.13-4.48,1.01-16.69,9.48-40.22,31.03-56.58,43.43-4,3.03-8.22,6.75-12.9,8.6.19-.95.99-4.65,1-5,20.92-16.78,43.45-31.76,64-49,.36-.3.65-.69,1-1,1.21-1.06,2.25-.97,4-3,4.32-5.02,1.16-12.75.89-18.93-.89-.41-2.16.13-2.89-.07-8.22-2.28-11.85-2.44-20-2l-46-9c-.04-1.66.05-3.34,0-5l66,11c5.92.19,3.02-2.97,2.95-6.46-.2-9.8,1.39-23.92-.02-32.98-.43-2.74-1.15-4.13-3.93-4.57-6.05-.95-18.53-2.86-24-2l-44-8c0-2,0-4,0-6Z"/>
      <path class="cls-10" d="M558.56,65.07c0,2,0,4,0,6-.01,4.77.67,8.47,1,13,.16,2.15.94,4.16,1,5,.57,7.86.75,17.01,1,25,.05,1.66-.04,3.34,0,5,.09,4.32,0,8.68,0,13,0,1.67.02,3.33,0,5-.06,5.64.21,11.37,0,17-.02.65-.88,2.39-1,4-.05.65,0,1.34,0,2,.01.92-.16,3.87,0,4.01.5.46,3.55-.75,4.02.5.99,2.66-3.52.98-4.01,1.49-1.35,5.48,2.52,3.36,3.02,4.51,1.02,2.33-2.61,1.14-2.94,1.53-.72.85.61,4.12.44,5.47-.13,1.06-1.54,2.17-1.61,4.02-.08,2.11,1.94,1.31,2.09,1.5.29.38-1.77,1.91-1.96,3.51-.52,4.33,1.05,11.98.98,15.47,0,.35-.81,4.05-1,5-.93,4.51-2.58,3.14-3.02,5.47-1.13,5.92-.02,19.64.02,26.53-1.69.38-2.19-.39-2-2,.22-6.15-.28-12.39-.04-18.54,1.32-34.14,3.88-68.23,3.04-102.46-.42-17.05-2.15-33.99-3-51,1.2.22,2.79-.22,4,0Z"/>
      <path class="cls-8" d="M178.56,13.07c-.18.24-1.92,2.84-2,3l-39.85,1.15-1.15,4.85c2.87.93,1.7-1.75,2-1.99,4.08-3.2-.59,7.83-.75,8.75-1.14,6.38,1.93,13.75-6.25,15.26l1.99,1.98h-6.49c.27-2.96,3.08-4.84,4.37-7.61,1.44-3.1,3.06-8.47,2.18-11.76-.32-1.18-4.81-.42-4.05-3.61l3.98-.48c-1.64-.88-1.78-5.32-2-5.52-.79-.73-10.17,3.91-9.98-2,4.53,2.14,8.08.34,11.99,0,8.49-.74,17.01-.9,25.46-2.04l20.54.04Z"/>
      <path class="cls-1" d="M550.56,377.07c-2.25.03-9.33.65-8,3-.98.11-2.02-.1-3,0-.09-.64.13-1.42,0-2-.24-1.08-.86-1.21-.57-3,.31-1.95,5.35-15.92,6.33-17.74,1.95-3.63,11-3.39,11.28.24.34,4.49-6.39,14.04-6.04,19.5Z"/>
      <path class="cls-2" d="M147.56,69.07c-2.16,3.34-3.6,4.8-6,9-4.14,7.23-6.73,6.39-5,16-3.55.49-1.59-4.46-2-7,5.49-13.84,19.67-36.37,30-47-5.08,10.61-10.48,18.95-17,29Z"/>
      <path class="cls-2" d="M178.56,13.07c.08-.11,1.24.13,1.63-.34,2.82-3.27,3.74-7.28,9.11-4.91,1.97.87,3.32,3.61,4.98,4.09,1.76.51,11.14-1,14.79-.84,2.45.11,3.27-.72,1.48,2-3.17.05-8.47.85-12.54,1-1.92.07-4.01-1.03-3.46,2-.47-.17-2.25-.05-3,0-.49.03-1.55,1.2-2.4,1.05-1.02-.18-.46-1.95-.6-2.05,5.03-.36-.22-3.98-2.5-4.08-2.65-.12-1.63,2.81-2.5,4.08-5.7,8.37-12.43,18.23-19,25,3.93-8.22,8.27-16.16,12-24,.08-.16,1.82-2.76,2-3Z"/>
      <path class="cls-9" d="M531.56,380.07c-10.5,1.02-21.17,2.45-32,3-.56-3.18,1.6-1.76,3.49-1.97,2.89-.31,15.86-.54,16.52-1.03.24-.18-.24-1.71,0-2,1.69-2.14,10.87-1.51,12,2Z"/>
      <path class="cls-3" d="M508.56,375.07c8.06.37,17.65.04,25.57.92,1.6.18,2.06,3.46,5.43,2.08.13.58-.09,1.36,0,2-2.59.27-5.4-.25-8,0-1.13-3.51-10.31-4.14-12-2h-4c.9-4.1-4.91-.35-7-3Z"/>
      <path class="cls-3" d="M188.56,15.07c.14.1-.42,1.87.6,2.05.85.15,1.92-1.02,2.4-1.05l-4,4.5c10.79,4.79,3.25,12.27-.41,18.6-6.36,11-13.17,20.74-20.6,30.9-4.78-1.7-9.94.26-14.54.12-2.07-.06-.71-3.31-4.46-1.12,6.52-10.05,11.92-18.39,17-29,6.57-6.77,13.3-16.63,19-25,1.12.25,4.5-.35,5,0Z"/>
      <path class="cls-3" d="M86.56,36.07c1.91-.81,4.02-.81,4.77-1.23,1.06-.59,8.35-14.39,10.43-15.56,1.83-1.03,12.14-.75,16.03-2.48,5.39-2.4,2.19-8.27,12.19-4.6,1.51.56,3.06.75,2.58,2.87-3.91.34-7.46,2.15-11.99,0-.19,5.91,9.19,1.26,9.98,2,.21.2.36,4.64,2,5.52l-3.98.48c-.75,3.19,3.74,2.43,4.05,3.61.88,3.29-.74,8.67-2.18,11.76-1.29,2.77-4.11,4.65-4.37,7.63h6.49s-1.99-1.99-1.99-1.99c8.17-1.51,5.11-8.88,6.25-15.26.16-.92,4.83-11.94.75-8.75-.3.23.87,2.92-2,1.99l1.15-4.85,39.85-1.15c-3.73,7.84-8.07,15.78-12,24-10.33,10.63-24.51,33.16-30,47-.06.14-1.46.49-1.79,1.66-1.62,5.71,1.21,9.4,2.79,14.34-4.7-1.32-5.7-2.45-4.49,2.98-5.52-1.73-13.14.69-19.02,1.01s-11.69-.2-17.49,0c-2.29-2.19,10.97-18,11-21.99,7.56-1.21,18.78.23,25.83-1.71,1.77-.49,2.6.32,2.16-2.28-9.83-.03-19.67,1.42-29.45,2.04-4.64.29-9.38-.33-14.03-.03-2.38.15-11.75.75-12.9,1.13-1.75.56-1.38,2.65-1.61,2.86-.54.49-4.46,2.5-4.73,3.24-1.78,4.95,5.58,14.72,4.8,18.14-.19.82-1.41.69-2.06.63v.97c2.7.04,4.41,2.12,5.99,4.01.69.83.58,2.94,1.57,3.02,4.89.11,8.96-4.33,13-4.95,8.64-1.35,22.81-1.53,32.04-1.97,4.28-.21,5.14,3.45,7.39-2.09.67-.02,1.34.03,2,0-.47,2.67.63,2.04,3,2,.35.85.6,1.26,1,2,.35.66.67,1.33,1,2-2.84,1.9-5.15,6.06-10.76,7.74-19.85,5.93-46.95,8.79-68.01,12.99-1.73.35-3.48.34-5.22.28-.87,3.19,3.39,2.06,5.38,1.87,22.08-2.05,47.04-10.76,69.41-13.59,8.19-4.53,15.44-9.96,22.21-16.29,3.9-3.64.22-.94-.08-2.57-.38-2.09,8.14-14.23,9.92-17.1,8.89-14.35,30.3-43.13,33.9-59.08.85-3.79-.66-7.14,2.26-10.74-.52-1.34-2.45.5-3.38.48-.71-.01-1.2-1.84-1.63-1.99-.56-3.03,1.53-1.93,3.46-2,4.07-.15,9.37-.95,12.54-1,1.66-.03,3.34-.06,5,0,.66.02,1.34-.03,2,0-.21,1.98-6.24,7.55-5,8.99,1.87,2.17,5.01-7.63,6-7.99,2.53.3,5.41-.22,8,0l-.45,3.04c-14.31,29.12-31.75,56.86-46.06,85.94-1.75,3.56-4.1,6.81-3.48,11.02l-35,52-.51-3.02-14.48,1.01,8.98-16.99c-4.24,2.82-8.9,16.09-13.51,16.98-4.19.81-9.84-.72-14.43.99-1.45-1.04-.47-9.55.15-11.31.22-.63,5.66-4.88,4.8-5.66-1.45-1.31-3.13,3.02-4.51,2.99-1.12.19.24-2.82-1.04-3.06-4.97-.92-14.33.17-19.45,1.08-.24,1.73,2.28.95,3.48.99,2.6.08,6.69-.54,8.87.17.22.07,3.32,2.86,3.4,3.07.76,1.94-1.09,10.82-3.42,11.59-3.25,1.09-9.35-.5-13.61,1.2-1.27.51-.12,2.34-1.72,1.95-.38-2.29,1.09-14.92-1.51-14.97-2.19-.05-1.24,6.73-1.49,6.99-.44.45-10.43-.19-12.58-.05-1.29.09-2.29,1.03-2.42,1.04-6.01.3-13.31-.74-19,0,2.54-2.85-2.31-1.21-.89-4.38,1.02-2.27,2.71-1.19,3.89-4.62,1.4-4.09-.47-3.09-.72-5.63-.85-8.7,2.89-13.33.72-23.37-1.3-6.01-.43-9.94,1.78-15.73l.22-13.27c2.57-3.92,5.17-9.66,8-14,.83-1.28,2.05-2.54,3-4s1.39-3.06,2-4c.23-.36,1.32-.95,2-2,2.75-4.26,5.27-8.78,8-13,.65-1,1.33-1.94,2-3,3.57-5.59,10.22-10.11,9-18ZM212.55,23.08c-1.99-.44-2.33,1.85-3.55,3.49-.71.94-4.06,5.74-3.44,6.5,1.57,1.92,2.15-1.48,2.47-1.98,1.59-2.44,3.82-5.24,4.52-8.01ZM205.55,34.08l-5.55,6.42-.95,3.56,6.5-9.97ZM198.07,45.09l-1.49,1.49c-.02,1.05,2.5-.59,1.49-1.49ZM127.56,51.07c3.23-.21,8.02-1.69,11.51-1.99,5.83-.5,13.97,1.68,18.49-3l-56.49,3-2.5,2.99c7.61-1.52,15.33-.55,23-.99-2.3,4.27-4.55,8.83-7,13-.09.16-2.78-.77-2,2-.08,2.45-8.72,14.33-8,14.99,2.3,2.11,4.88-3.75,6.23-4.33s4.59-.51,4.77-.67c.26-.24-1.22-3.07-.62-5.01.77-2.5,5.81-7.21,7.6-9.71l5.02-10.27ZM191.54,58.07c.44-.44,4.04-8.5,4.52-9.98-1.1,1.81-6.1,6.92-6.47,8.52-.46,1.94,1.44,1.96,1.95,1.46ZM189.55,59.08c-1.09-1.09-3.08.9-1.99,1.99s3.08-.9,1.99-1.99ZM187.55,62.08c-1.99-.44-2.33,1.85-3.55,3.49-.71.94-4.06,5.74-3.44,6.5,1.57,1.92,2.15-1.48,2.47-1.98,1.59-2.44,3.82-5.24,4.52-8.01ZM180.55,73.08c-1.92-.47-2.43,1.94-3.53,3.5-.83,1.17-6.03,8.79-5.46,9.49,1.58,1.91,2.14-1.48,2.47-1.98,2.26-3.45,5.09-7.17,6.52-11.01ZM171.55,87.08c-1.99-.44-2.33,1.85-3.55,3.49-.71.94-4.06,5.74-3.44,6.5,1.57,1.92,2.15-1.48,2.47-1.98,1.59-2.44,3.82-5.24,4.52-8.01ZM164.55,98.08c-.56-.57-5.72,2.85-5.99,3.98,1.69,1.39,7.6-2.34,5.99-3.98ZM132.56,162.08c1.58-.05,4.57.47,5.57-.93,3.87-5.41-7.98-7.98-5.57.93Z"/>
      <path class="cls-3" d="M98.56,85.07c-1.02,7.16-8.01,12.04-10.69,18.75l-6.31,6.25c.12-.94,1.13-2.9,1.01-2.99-.3-.21-1.99.4-2.74-.22-1.98-1.63-6.92-16.49-4.27-19.79,7.78,1.39,15.69-1.91,23-2ZM83.06,105.07v1c.65-.33.65-.67,0-1Z"/>
      <path class="cls-9" d="M308.56,12.07l1.01,11c-1.64-.09-3.37.15-5.01,0,.18-1.23-.26-2.91,0-4l1-1c.32-1.28.43-3.71.6-4.06.57-1.18,1.9-1.37,2.4-1.94Z"/>
      <path class="cls-10" d="M216.56,1.07c0,1,0,2,0,3s-.12,2.07,0,3c-1.23,1.18-.99,2.5-1,4-3.13-.03-2.81,1.12-2.55-2.04.33-4.06.1-6.65,3.55-7.96Z"/>
      <path class="cls-3" d="M550.56,377.07c.84,0,1.76.05,2,1-2.57,1.01-7.14,1.66-10,2-1.33-2.35,5.75-2.97,8-3Z"/>
      <path class="cls-2" d="M304.56,19.07c.19-.81.98-.93,1-1l-1,1Z"/>
      <path class="cls-12" d="M557.56,116.07c.84,34.23-1.72,68.32-3.04,102.46-.24,6.16.26,12.39.04,18.54l-66.04,9.46c-2.22,1.57.76,17.14.03,20.54-2.29.63-3.74-1.75-5.49-2.02-2.6-.39-1.08,1.48-1.51,2.02-7.61-.8-15.35-1.96-23-2-1.08-14.92,1.46-31.8-.01-46.49-.25-2.51-.8-6.38-3.99-6.51.27-6.48-.35-13.06-.04-19.54.96-20.15,8.61-41.06,14.66-60.35.41-1.3.68-3.03-1.1-2.1-2.17,1.13-11.88,41.39-14.28,46.73l-1.24,36.26c-2.32.1-4.68-.08-7.01,0,.18,13.32-.22,26.69,0,40.01l-156,22c-.2-3.33-1.03-6.78-1-11,.24-36.06,2.37-73.23,3.04-109.46.06-3.33.97-31.11-.55-31.55-2.32-.67-1.44,2.15-1.49,3.5-1.8,44.76-2.38,92.64-2,137.51.03,4.09-1.08,8.96-1,12l-95,14h-1c-.34-.33-.64-.69-1-1-.81-.71-1.63-1.35-2.51-1.98-1.01.58.54,1.34.51,1.98-.1,2.02-3.4,2.26-5,2-.42-.53-1.98-.83-2.49-1.97-.85-25.56.42-51.35.49-77.03.01-4.52,1.65-44.39-.51-45.01-2.32-.67-1.44,2.15-1.49,3.5-.55,13.68.04,27.79,0,41.51-.07,25.98.05,52.02,0,78l-.67,2-37.33,5c-.57-42.79,1.15-85.96-.88-128.56-.02-.38,2.6-.67,1.88-2.44l35-52c21.5.19,43.03-.23,64.54-.04,69.45.61,139.47,1.6,208.92,2.08,35.84.25,71.71-.27,107.54-.04ZM203.02,130.52l-1.97,5.55c2.56-4.36,7.08-7.73,8.01-12.98-2.19,1.57-4.74,5.16-6.04,7.43ZM212.55,131.08c-1.22-1.24-2.62,1.57-3.22,2.27-1.24,1.47-9.54,13.83-8.77,14.71,1.52,1.74,2.19-1.36,2.57-1.89,1.13-1.53,10.07-14.43,9.42-15.1ZM199.55,138.08c-1.09-1.09-3.08.9-1.99,1.99s3.08-.9,1.99-1.99ZM197.55,141.08c-1.09-1.09-3.08.9-1.99,1.99s3.08-.9,1.99-1.99ZM195.55,144.08c-1.09-1.09-3.08.9-1.99,1.99s3.08-.9,1.99-1.99ZM193.55,147.08c-1.09-1.09-3.08.9-1.99,1.99s3.08-.9,1.99-1.99ZM186.56,170.07c4.7-5.7,9.34-11.91,13.04-18.46.63-1.11,2.45-2.58-.53-2.55-2.24,6.94-11.76,14.48-13.51,21.01-.12.46-.3,2.08.5,2.01,1.07.02.18-1.63.5-2.01ZM191.55,150.08c-1.09-1.09-3.08.9-1.99,1.99s3.08-.9,1.99-1.99ZM189.55,153.08c-1.91-.47-2.44,1.94-3.54,3.5-1.94,2.74-4.12,6.39-5.45,9.49l5.23-6.27,3.76-6.72ZM186.55,180.08l-2,1.48c.09,31.35.36,62.75-1.05,93.97-.16,3.54-1.31,9.47,2.56,10.53l.48-105.97Z"/>
      <path class="cls-10" d="M529.56,50.07l1,10c-1.32-.07-2.69.12-4,0,.3-4.78.68-8.79-5.16-9.34L314.56,15.07l-1.01-1.99,7.38.12,208.63,36.87Z"/>
      <path class="cls-9" d="M511.56,53.07c4.7-.21,7.31-.5,8,5-6.6-1.2-13.4-1.75-19.99-3.01l11.99-1.99Z"/>
      <path class="cls-8" d="M218.56,14.07c-.98.36-4.12,10.16-6,7.99-1.25-1.45,4.78-7.02,5-8.99.26.01.74.97,1,1Z"/>
      <path class="cls-4" d="M227.56,372.07c-.09-.02-.07-3.16,1.71-6.62,1.04-2.03,2.33-3.46,3.29-4.38,1.18.07,2.91.17,4,0,.14.26.41.63.84.67,0,0,.03,0,.05,0,.5.01.85-.64,1.1-.68,2.73-.4,3.44,1.23,3.01-3-.64-.67-15.55.37-18.54.03-17.62-2.05-34.93-4.29-52.92-5.08-2.65-.12-11.39,1.06-11.97.92-2.1-.5-1.32-3.53-1.58-3.87,3.3.48,3.19-5.62,3.7-7.85.41-1.76-.52-3.74,2.3-3.15-.07.99.1,2.02,0,3-.29,2.74-2.23,5.12-2,8l14.49,2.02c-.32-2.87,2.02-5.78,2.51-8.02,1.08,1.26.74,2.89,3.02,1.53,1.99-1.19,6.24-10.52,7.62-13.4.84-1.74,1.89-2.89,1.36-5.13,1.87.58,2.87,8.77,3,11,.04.65.03,1.35,0,2-.04.93.19,2.27,0,3-.49,1.85-4.22,5.6-3,9,19.33,1.25,38.61,3.4,58,4v3c-2.31.42-4.68-1.27-4,1.99,2.32.06,4.67-.06,7,0-3.73.47-6.74.63-8.88.68-1.91.04-3.95.02-6.68.73-1.77.46-2.67.69-3.63,1.35-3.68,2.52-3.68,8.28-3.81,8.25Z"/>
      <path class="cls-5" d="M47.56,161.07c5.69-.74,12.99.3,19,0v2c-7.57.2-14.81,1.39-22,2-4.1.35-8.37-.34-12.49,0-3.41.29-6.81.48-5.4,4.39,1.51,4.19,13.54,1.02,16.89,1.61,1.07,3.22-7.27,1.7-4.99,4.98.3.43,8.25,5.43,9,5.61,5.37,1.27,15.62-.66,21.29.62,3.7.84,7.1,8.23,10.63,3.2,1.28-1.82.03-5.17,3.07-4.4-.81,4.94.82,9.82,1.05,14.45,1.01,21-1.34,43.19-.08,64.08.7,11.62,1.46,21.66,16.04,20.46l-1,11,25.99-4.99c.5,2.93-.7,1.62-2.33,2.12-7.01,2.15-23.61,4.54-21.67,15.3.28,1.55,2.01,2.82,2,4.07-.01,1.57-2.37,2.6-1.87,4.75.53,2.28,6.52,10.11,7.6,14.51,2.41,9.85-11.33,13.99-11.73,23.24-19.38.23-38.76,1.43-58,2-.48-4.83-6.84-3.26-9.96-4.54-3.32-1.36-9.95-7.06-13.72-9.28-3.09-1.82-7.09-3.45-10.32-5.18.16-4.01-.93-6.94-1.04-10.46-1.36-41.83-2.04-83.64-2.96-125.54-.16-7.3-1.17-15.27,0-22,3.7-1.13,18.21-5.48,19.79-8.2.91-1.58-.19-5.72.22-7.79,1.88-.2.58,2.59,1.91,3.57.86.63,18.21.77,20.63.47s3.85-1.97,4.45-2.05ZM24.55,166.07h-2.99c.83,25.84.39,51.66.95,77.55.19,8.9.29,20.1,1.04,28.97.09,1.12.33,5.06,2.49,4.49l-1.49-111.01ZM73.06,212.07c-6.24.32-12.73,0-19,0-.17,0-2.92.98-2.49,1.99,10.07.56,19.9-1.7,29.99-1,.66-4.47-6.94-1.07-8.49-.99Z"/>
      <path class="cls-13" d="M66.56,161.07c.13,0,1.13-.96,2.42-1.04,2.15-.14,12.14.5,12.58.05.25-.25-.7-7.04,1.49-6.99,2.6.06,1.13,12.68,1.51,14.97,1.6.38.45-1.45,1.72-1.95,4.25-1.7,10.35-.12,13.61-1.2,2.33-.78,4.18-9.65,3.42-11.59-.08-.21-3.18-3-3.4-3.07-2.18-.71-6.27-.09-8.87-.17-1.2-.04-3.72.74-3.48-.99,5.12-.91,14.48-2,19.45-1.08,1.28.24-.08,3.25,1.04,3.06,1.38.03,3.05-4.29,4.51-2.99.87.78-4.58,5.02-4.8,5.66-.62,1.75-1.6,10.26-.15,11.31,4.59-1.71,10.24-.18,14.43-.99,4.61-.89,9.27-14.16,13.51-16.98l-8.98,16.99,14.48-1.01.51,3.02c.72,1.77-1.89,2.05-1.88,2.44,2.03,42.6.31,85.77.88,128.56,5.81,14.59,15.31,27.71,22,42-2.82-.59-1.89,1.39-2.3,3.15-.51,2.23-.4,8.33-3.7,7.85-.08-.11-1.43.04-2,0-2.63-.18-5.36.04-8,0-16.61-.26-33.39-.2-50,0,.4-9.25,14.14-13.39,11.73-23.24-1.08-4.4-7.07-12.23-7.6-14.51-.5-2.15,1.86-3.18,1.87-4.75,0-1.25-1.72-2.52-2-4.07-1.94-10.76,14.65-13.16,21.67-15.3,1.63-.5,2.82.81,2.33-2.12l-25.99,4.99,1-11c-14.58,1.21-15.35-8.84-16.04-20.46-1.26-20.9,1.09-43.08.08-64.08-.22-4.64-1.86-9.51-1.05-14.45-3.04-.77-1.79,2.58-3.07,4.4-3.53,5.03-6.93-2.36-10.63-3.2-5.67-1.28-15.91.64-21.29-.62-.75-.18-8.69-5.17-9-5.61-2.28-3.27,6.06-1.75,4.99-4.98-3.35-.59-15.37,2.58-16.89-1.61-1.41-3.9,1.99-4.1,5.4-4.39,4.12-.35,8.39.34,12.49,0-.56,3.03,1.53,1.92,3.45,2,11.21.44,22.43-.06,33.55-1v-2.99c-4.99.09-10.02-.14-15.01,0v-2Z"/>
      <path class="cls-13" d="M50.56,123.07c-2.68-.76-2.47,3.18-2.71,4.77-.8,5.26-1.06,10.57-2.22,15.79-.5,2.27-2.63,4.18-1.07,6.42-1.21,1.23-15.07-.99-18.37.14-1.48.51-5.37,9.49-2.15,7.86,2.09-7.57,13.4-7.05,19.99-5.96,1.89.31,3.74,3.47,4.53.97v-1c.51-.16,1.38.11,2,0-1.18,3.43-2.86,2.35-3.89,4.62-1.42,3.16,3.42,1.53.89,4.38-.6.08-2.11,1.76-4.45,2.05s-19.77.16-20.63-.47c-1.33-.98-.03-3.78-1.91-3.57-.41,2.07.69,6.21-.22,7.79-1.58,2.72-16.09,7.08-19.79,8.2.11-.63-.16-1.49,0-2,1.42-4.55,5.84-10.61,8.58-14.92,13.86-21.71,29.31-42.55,43.42-64.08l-.22,13.27c-2.21,5.79-3.08,9.73-1.78,15.73Z"/>
      <path class="cls-9" d="M194.56,16.07c.42.15.92,1.98,1.63,1.99.93.02,2.87-1.82,3.38-.48-2.93,3.59-1.41,6.95-2.26,10.74-3.6,15.94-25.01,44.73-33.9,59.08-1.78,2.87-10.3,15.02-9.92,17.1.3,1.63,3.97-1.07.08,2.57-3.1,1.24-7.31,3.15-10,5h-4c-.4-.74-.65-1.15-1-2-.26-.65.02-1.65-1-2,1.46-.4,6-2.27,5-4,.49.29,1.62.97,2,1,3.57.28,6.82-5.97,8.45-9.09.58-1.1.32-2.49.55-2.91.95-1.81,2.17-3.45,3-5,3.34.41,3.24-4.08,4-6,.35-.88.22-2.11,1-3,3.55-4.08,3.12-6.43,5-9,7.42-10.17,14.23-19.9,20.6-30.9,3.66-6.33,11.2-13.81.41-18.6l4-4.5c.75-.05,2.53-.17,3,0Z"/>
      <path class="cls-10" d="M98.56,85.07c5.4-.06,1.99,2.95,3.5,3.01,1.36-2.08.86-2.59,3.5-3.01-.03,3.99-13.29,19.81-11,21.99,5.8-.21,11.69.31,17.49,0s13.5-2.74,19.02-1.01c-1.21-5.43-.21-4.29,4.49-2.98.19.59,1.69,1.31,1,3-4.06-.54-2.45.65-3,2-2.25,5.54-3.11,1.88-7.39,2.09-9.23.44-23.4.63-32.04,1.97-4.03.63-8.11,5.06-13,4.95-.99-.08-.88-2.19-1.57-3.02,3.17.63,1.7-1.58,2-4l6.31-6.25c2.68-6.71,9.67-11.59,10.69-18.75Z"/>
      <path class="cls-10" d="M50.56,123.07c2.17,10.04-1.57,14.67-.72,23.37.25,2.55,2.12,1.54.72,5.63-.62.11-1.49-.16-2,0-.34.11-.8-.15-.98.5l.98.5c-.79,2.49-2.63-.66-4.53-.97-6.59-1.08-17.9-1.6-19.99,5.96-3.22,1.64.67-7.35,2.15-7.86,3.3-1.13,17.16,1.08,18.37-.14-1.56-2.25.57-4.16,1.07-6.42,1.16-5.22,1.42-10.53,2.22-15.79.24-1.6.03-5.54,2.71-4.77Z"/>
      <path class="cls-13" d="M153.56,107.07c-6.77,6.33-14.02,11.77-22.21,16.29-22.37,2.83-47.33,11.53-69.41,13.59-1.99.18-6.25,1.32-5.38-1.87,1.75.06,3.49.07,5.22-.28,21.06-4.2,48.16-7.05,68.01-12.99,5.61-1.68,7.93-5.83,10.76-7.74,1.02-.68,1.97-1.29,3-2,2.69-1.85,6.9-3.76,10-5Z"/>
      <path class="cls-8" d="M127.56,51.07l-5.02,10.27c-1.79,2.5-6.83,7.21-7.6,9.71-.6,1.94.88,4.77.62,5.01-.18.16-3.36.07-4.77.67s-3.94,6.44-6.23,4.33c-.72-.67,7.92-12.55,8-14.99,2.05.28,2.29.05,2-2,2.45-4.17,4.7-8.73,7-13,2.26-.13,4.12.12,6,0Z"/>
      <path class="cls-13" d="M75.56,87.07c-2.66,3.31,2.29,18.16,4.27,19.79.75.62,2.44,0,2.74.22.13.09-.89,2.06-1.01,2.99-.3,2.42,1.17,4.63-2,4-1.58-1.89-3.29-3.98-5.99-4.01v-.97c.65.07,1.87.19,2.06-.63.78-3.42-6.58-13.19-4.8-18.14.27-.75,4.19-2.75,4.73-3.24Z"/>
      <path class="cls-13" d="M75.56,87.07c.23-.21-.14-2.3,1.61-2.86,1.15-.37,10.53-.98,12.9-1.13,4.65-.3,9.39.32,14.03.03,9.79-.61,19.62-2.06,29.45-2.04.44,2.6-.39,1.79-2.16,2.28-7.05,1.95-18.27.51-25.83,1.71-2.64.42-2.14.93-3.5,3.01-1.51-.06,1.9-3.07-3.5-3.01-7.31.09-15.22,3.39-23,2Z"/>
      <path class="cls-13" d="M121.56,51.07c-7.66.44-15.39-.52-23,.99l2.5-2.99,56.49-3c-4.52,4.68-12.66,2.5-18.49,3-3.49.3-8.28,1.78-11.51,1.99-1.88.12-3.74-.13-6,0Z"/>
      <path class="cls-13" d="M134.56,87.07c.41,2.54-1.55,7.49,2,7,.19,1.08-.46,2.58.28,3.72,2.81,1.48,2.68,4.45,5.72,6.28,1,1.73-3.54,3.6-5,4-.5.14-1.36-.03-2,0s-1.33-.02-2,0c.55-1.36-1.06-2.54,3-2,.69-1.69-.81-2.4-1-3-1.58-4.94-4.42-8.63-2.79-14.34.33-1.17,1.74-1.52,1.79-1.66Z"/>
      <path class="cls-8" d="M132.56,162.08c-2.41-8.91,9.44-6.34,5.57-.93-1,1.4-3.99.88-5.57.93Z"/>
      <path class="cls-8" d="M164.55,98.08c1.61,1.65-4.3,5.37-5.99,3.98.27-1.13,5.43-4.56,5.99-3.98Z"/>
      <path class="cls-8" d="M180.55,73.08c-1.43,3.83-4.26,7.56-6.52,11.01-.33.5-.89,3.9-2.47,1.98-.58-.7,4.63-8.32,5.46-9.49,1.1-1.56,1.61-3.98,3.53-3.5Z"/>
      <path class="cls-8" d="M187.55,62.08c-.7,2.77-2.93,5.57-4.52,8.01-.33.5-.9,3.9-2.47,1.98-.62-.76,2.74-5.56,3.44-6.5,1.22-1.63,1.56-3.93,3.55-3.49Z"/>
      <path class="cls-8" d="M212.55,23.08c-.7,2.77-2.93,5.57-4.52,8.01-.33.5-.9,3.9-2.47,1.98-.62-.76,2.74-5.56,3.44-6.5,1.22-1.63,1.56-3.93,3.55-3.49Z"/>
      <path class="cls-8" d="M171.55,87.08c-.7,2.77-2.93,5.57-4.52,8.01-.33.5-.9,3.9-2.47,1.98-.62-.76,2.74-5.56,3.44-6.5,1.22-1.63,1.56-3.93,3.55-3.49Z"/>
      <path class="cls-8" d="M191.54,58.07c-.5.5-2.41.48-1.95-1.46.38-1.6,5.37-6.7,6.47-8.52-.48,1.48-4.09,9.54-4.52,9.98Z"/>
      <path class="cls-10" d="M137.56,108.07c1.02.35.74,1.35,1,2-2.37.04-3.47.67-3-2,.64-.03,1.5.14,2,0Z"/>
      <path class="cls-10" d="M143.56,112.07c-1.03.71-1.98,1.32-3,2-.33-.67-.65-1.34-1-2h4Z"/>
      <polygon class="cls-8" points="205.55 34.08 199.05 44.05 200 40.49 205.55 34.08"/>
      <path class="cls-8" d="M189.55,59.08c1.09,1.09-.9,3.08-1.99,1.99s.9-3.08,1.99-1.99Z"/>
      <path class="cls-10" d="M114.56,64.07c.29,2.05.05,2.28-2,2-.78-2.77,1.91-1.84,2-2Z"/>
      <path class="cls-8" d="M198.07,45.09c1.01.9-1.51,2.54-1.49,1.49l1.49-1.49Z"/>
      <path class="cls-2" d="M202.56,340.07h2c58.35,0,117.13,2.93,175.46,4.04,30.83.59,61.72.38,92.54.96.16,2.09.02,2.54,0,4l-280-6c.19-.73-.04-2.07,0-3,3.32,0,6.68,0,10,0Z"/>
      <path class="cls-11" d="M364.56,367.07c-.11.09.49,1.39-.72,1.97-2.53,1.23-6.63.88-9.28.03l3.99,11c-.92.05-1.77.98-2,1-.9.08-2.11.1-3,0,1.87-3.45-4.22-13.44-6.73-13.97-2.95-.62-4.27.91-5.27.97-1.95.12-5.28-2.42-8-3s-6.16-.83-9-1c-4.46-.27-9.48-.08-14,0-4.24.08-10.13-.6-14,0-.6-.44-1.49-1.84-2-2-.56-3.01,1.53-1.94,3.45-2,14.64-.43,33.07,2.79,48.06,3.99,5.81.47,13.99-1.68,18.49,3.01Z"/>
      <path class="cls-11" d="M477.56,373.07c-1.68,2.63-3.72,1.01-6,1-8.71-.04-17.16-.91-25.78-.66-1.74.05-3.72-1.74-3.22,1.66-11.98-.76-23.99-1.79-36-2.01.38-1.82,1.97-1.85,3.46-2.03,1.73-.2,6.05,1.07,6.53-.95-3.16-.1-6.37.1-9.54,0-1.93-.06-4.01,1.02-3.45-2,19.78-.81,53.81,2.51,74,5ZM438.06,373.07v1c.65-.33.65-.67,0-1Z"/>
      <path class="cls-9" d="M480.56,374.07c1.59.28,4.98,2.72,7,0,6.98.14,14,.68,21,1,2.09,2.65,7.9-1.1,7,3-3.95,0-8.7,1-11.5,1h-16c-2.03,0-8.32-1.4-10.5-2-.41-.11-2.25-2.59-3,0-1,0-2,.04-3,0v-3c2.28.01,4.32,1.63,6-1,1.41.17,2.28.87,3,1Z"/>
      <path class="cls-6" d="M252.56,358.07c1.27-.08,7.68-.24,8,0,.8.59-2.19,1.67,3,2,4.29.27,8.7-.19,13,0-.15.54.1,1.37,0,2-2.56.06-12.14,2.21-14,1-.73-.47,2-1.69-4-2-1.99-.1-4.01.05-6,0-.67-.02-1.33.02-2,0-2.32-.07-4.67.06-6.99,0-.68-3.27,1.68-1.57,3.99-1.99,1.7-.31,3.17-.89,5-1Z"/>
      <path class="cls-1" d="M286.56,359.07c-.82,3.33,2.37,1.05,4,3-4.75.08-9.46-.11-14,0,.1-.63-.15-1.46,0-2,.07-.24.8-.61,1-1,2.96.22,6.02-.1,9,0Z"/>
      <path class="cls-8" d="M475.56,347.07c.43,2.84.68,8.45-2.99,8,0-1.99-.04-4,0-6,.02-1.46.16-1.91,0-4-.08-.98.15-2.11,0-3,1.57.89,2.75,3.36,3,5Z"/>
      <path class="cls-8" d="M458.56,265.07c7.65.04,15.39,1.2,23,2-3.79,4.74-18.99-1.04-25,0,.08,2.48-.17,5.01.01,7.5,1.19,16.45,3.07,38.24,10.11,52.89.69,1.44,1.25,2.95,2.88,3.62-.1.18.03.64,0,1-.14,1.94.77,2.19,1,3,.72,2.51,1.54,4.28,2,7-.14-.08-2.84-.99-3-1-.56-9-8.08-17.57-10-26-.22-.97.42-2.47-1-3,.1-1.27.06-2.72,0-4-.05-1.09.31-2.52-1-3,.12-1.63.02-3.36,0-5-.04-3.93-2.9-32.71-4.14-33.88-.52-.5-2.06.03-2.86-.12,2.14-1.68,5.34-1.01,8-1Z"/>
      <path class="cls-11" d="M277.56,359.07c-.2.39-.93.76-1,1-4.3-.19-8.71.27-13,0v-3c4.22.29,10.08,1.72,14,2Z"/>
      <path class="cls-11" d="M378.56,366.07c-3.39.21-9.8.5-13,1,.09-.56-.17-1.88,0-2,.53-.4,11.85-.44,13.01,1Z"/>
      <path class="cls-11" d="M401.56,368.07c-.09,0,.13.83-1.48.97-2.76.23-8.6,1.09-7.52-1.97,2.87-.14,6.69-.65,9,1Z"/>
      <path class="cls-11" d="M387.56,367.07c-.09,0,.15.79-1.49.97-2.63.28-6.41.94-5.51-1.97,2.29-.17,5.18-.5,7,1Z"/>
      <path class="cls-11" d="M286.56,359.07c3.71.12,6.95-1.47,6,3-.64-.07-1.35-.01-2,0-1.63-1.95-4.82.33-4-3Z"/>
      <path class="cls-11" d="M247.56,356.07c2.68.08,5.76-1.07,5,2-1.83.11-3.3.69-5,1v-3Z"/>
      <path class="cls-4" d="M263.56,357.07v3c-5.19-.33-2.2-1.41-3-2,.83-.87,1.83-1.08,3-1Z"/>
      <path class="cls-11" d="M487.56,374.07c-2.02,2.72-5.41.28-7,0,2.33.03,4.67-.05,7,0Z"/>
      <path class="cls-10" d="M549.56,297.07c-.65-1.77-2.24-5.13.63-5.92,1.65-.45,6.84.66,5.37,3.92-1.43.18-1.83.96-2,1-1.06.28-1.7.91-2,1-.5.15-1.36-.08-2,0Z"/>
      <path class="cls-2" d="M555.55,337.08l-10.54,1.04c-7.62-1.37-15.33-.73-22.93-2.09-1.77-.32-2.99,1.1-2.52-1.95l35.99,3.01Z"/>
      <path class="cls-7" d="M469.56,332.07c2.77-.46,2.46.92,1,3-.23-.81-1.14-1.06-1-3Z"/>
      <path class="cls-7" d="M553.56,296.07c.37,2.27-.43,2.83-2,1,.3-.09.94-.72,2-1Z"/>
      <path class="cls-10" d="M471.56,374.07v3c-9.61-.36-19.38-1.39-29-2-.5-3.4,1.47-1.61,3.22-1.66,8.63-.25,17.08.62,25.78.66Z"/>
      <path class="cls-10" d="M477.56,377.07h-3c.75-2.59,2.59-.11,3,0Z"/>
      <path class="cls-8" d="M624.56,153.07c-20.55,17.24-43.08,32.22-64,49,.07-3.48-1.5-11.13-.98-15.47.19-1.6,2.25-3.13,1.96-3.51-.15-.2-2.17.61-2.09-1.5.07-1.85,1.48-2.96,1.61-4.02.17-1.34-1.17-4.62-.44-5.47.33-.39,3.96.8,2.94-1.53-.5-1.14-4.37.98-3.02-4.51.5-.51,5,1.17,4.01-1.49-.46-1.25-3.51-.05-4.02-.5-.15-.13.02-3.08,0-4.01l57-6c1.42-1.9,4.81-.76,7-1ZM566.55,163.07v-1.99s-2.99,1.01-2.99,1.01v.98s2.99,0,2.99,0ZM567.55,166.08h-1.99v3.99h1.99v-3.99Z"/>
      <path class="cls-9" d="M626.56,81.07v2l-66,6c-.06-.84-.84-2.85-1-5,12.8-.85,25.63-1.91,38.41-3.09,2.22-.21,4.15-1.84,4.59-1.91,5.47-.86,17.95,1.05,24,2Z"/>
      <path class="cls-9" d="M627.56,130.07v1l-66,6c.02-1.67,0-3.33,0-5,15.33-1.32,30.63-3.17,46-4,8.15-.44,11.78-.28,20,2Z"/>
      <path class="cls-13" d="M625.56,149.07v3c-.35.31-.64.7-1,1-2.19.24-5.58-.9-7,1l-57,4c.12-1.61.98-3.35,1-4l64-5Z"/>
      <path class="cls-8" d="M627.56,125.07c-1-14.01-1-27.95-1-42v-2c2.78.44,3.51,1.82,3.93,4.57,1.4,9.05-.19,23.17.02,32.98.07,3.49,2.97,6.65-2.95,6.46Z"/>
      <path class="cls-13" d="M627.56,130.07c.74.2,2-.34,2.89.07.26,6.18,3.43,13.91-.89,18.93h-2v-19Z"/>
      <path class="cls-8" d="M627.56,149.07h2c-1.75,2.03-2.79,1.94-4,3v-3c.67,0,1.33,0,2,0Z"/>
      <path class="cls-3" d="M617.56,154.07l-57,6c0-.66-.05-1.35,0-2l57-4Z"/>
      <path class="cls-12" d="M183.56,15.07c.87-1.27-.16-4.2,2.5-4.08,2.28.1,7.53,3.72,2.5,4.08-.5-.35-3.88.25-5,0Z"/>
      <path class="cls-2" d="M445.56,253.07c.04,2.28-.44,10.93.14,11.85.51.81,3.73.94,4.86,1.15.8.15,2.34-.38,2.86.12,1.24,1.18,4.1,29.95,4.14,33.88-4.75.12-2.16-5.23-3.14-6.86-3.78-6.31-21.6,10.3-25.85,11.46-2.47.67-4.68-.9-7.42-.59-2.13.24-4.29,2.07-6.55,2.54-4.2.87-11.42,1.18-14.97,3.03-4.27,2.22-6.57,10.35-9.8,11.26-3.34.94-10.64-2.91-14.03.41-.81.8-1,3-2.21,4.28-5.85,6.22-20.66,1.04-23.03,3.48-.51.52-.22,2.69,1.48,1.99l93.01,7.01-1.5-4.5c4.04-2.44,3.44,3.2,5.01,5.48-5.14-.13-10.34.23-15.49,0-23.98-1.07-58.42-7.94-80.9-5.88-12.28,1.12-20.31-.73-32.15-.15-39.12,1.9-78.58,2.19-117.84,2.15-.83,0-7.65.34-6.61,2.9h-3c-.13-2.23-1.13-10.42-3-11-2.88-.89-9.56.64-13,0-.47.44,1.94,10.73,1.95,12.69,0,1.58-.91,2.02-.96,2.31h-15c.1-.98-.07-2.01,0-3-6.69-14.29-16.19-27.41-22-42l37.33-5,.67-2,5.54,3.93c2.43,3.22,4.5,5.84,7.97,8.05-1.63-4.9-6.3-6.96-9.51-10.98,1.6.26,4.9.02,5-2h2c.36.31.66.67,1,1,3.76,3.72,6.06,9.26,11.48,11.02l-10.48-11.02,95-14c.35,13.83,3.64,34.54,6.04,48.48.31,1.79-1.09,2.98,1.95,2.52-1.86-17.31-3.94-34.64-4.99-52l156-22ZM213.56,321.07c.35.17.75,1.07,1.51.97,25.5,1.09,51.01,5.65,76.5,4.53,0-1.7-9.35-.53-10.4-.61-22.5-1.74-45.03-4.41-67.61-5.89l-19.98-17.51c3.16,2.3,5.46,6.46,8.07,8.92,1.16,1.09,11.17,9.24,11.91,9.59ZM206.05,304.09c1.66,3.75,4.45,6.98,8.02,8.96-.45-4.59-5.41-5.9-8.02-8.96ZM277.55,316.08l-61.99-4,1.47,2c18.39.58,36.7,2.78,55.03,3.98,1.98.13,6.41,1.12,5.48-1.98Z"/>
      <path class="cls-9" d="M454.56,212.07c3.18.13,3.73,4,3.99,6.51,1.47,14.69-1.06,31.56.01,46.49-2.66-.01-5.86-.68-8,1-1.12-.21-4.35-.34-4.86-1.15-.58-.92-.1-9.57-.14-11.85-.23-13.31.17-26.69,0-40.01,2.32-.07,4.68.11,7.01,0,.5-.02,1.52-1.02,2-1Z"/>
      <path class="cls-8" d="M287.56,264.07c-.38-44.87.2-92.75,2-137.51.05-1.35-.83-4.16,1.49-3.5,1.52.43.61,28.21.55,31.55-.67,36.23-2.8,73.4-3.04,109.46h-1Z"/>
      <path class="cls-8" d="M452.56,213.07l1.24-36.26c2.39-5.34,12.11-45.6,14.28-46.73,1.78-.93,1.51.8,1.1,2.1-6.04,19.29-13.69,40.19-14.66,60.35-.31,6.48.31,13.06.04,19.54-.48-.02-1.5.98-2,1Z"/>
      <path class="cls-13" d="M289.56,275.07c1.06,17.35,3.13,34.68,4.99,52-3.04.46-1.64-.73-1.95-2.52-2.41-13.94-5.69-34.65-6.04-48.48-.08-3.04,1.03-7.91,1-12h1c-.03,4.22.8,7.67,1,11Z"/>
      <path class="cls-8" d="M180.56,212.07c-.07,25.68-1.33,51.47-.49,77.03.51,1.14,2.06,1.44,2.49,1.97,3.21,4.02,7.88,6.08,9.51,10.98-3.47-2.21-5.53-4.83-7.97-8.05l-5.54-3.93c.05-25.98-.07-52.02,0-78h2Z"/>
      <path class="cls-10" d="M178.56,212.07c.04-13.72-.55-27.83,0-41.51.05-1.35-.83-4.16,1.49-3.5,2.16.62.52,40.49.51,45.01h-2Z"/>
      <path class="cls-10" d="M212.55,131.08c.66.67-8.29,13.57-9.42,15.1-.39.53-1.06,3.63-2.57,1.89-.77-.89,7.53-13.25,8.77-14.71.6-.71,2-3.51,3.22-2.27Z"/>
      <path class="cls-10" d="M185.56,170.07c1.75-6.52,11.27-14.06,13.51-21.01,2.99-.03,1.16,1.44.53,2.55-3.7,6.55-8.34,12.75-13.04,18.46h-1Z"/>
      <path class="cls-10" d="M203.02,130.52c1.31-2.27,3.85-5.87,6.04-7.43-.94,5.25-5.46,8.62-8.01,12.98l1.97-5.55Z"/>
      <path class="cls-10" d="M189.55,153.08l-3.76,6.72-5.23,6.27c1.33-3.1,3.51-6.75,5.45-9.49,1.1-1.56,1.62-3.97,3.54-3.5Z"/>
      <path class="cls-10" d="M199.55,138.08c1.09,1.09-.9,3.08-1.99,1.99s.9-3.08,1.99-1.99Z"/>
      <path class="cls-10" d="M191.55,150.08c1.09,1.09-.9,3.08-1.99,1.99s.9-3.08,1.99-1.99Z"/>
      <path class="cls-10" d="M193.55,147.08c1.09,1.09-.9,3.08-1.99,1.99s.9-3.08,1.99-1.99Z"/>
      <path class="cls-10" d="M195.55,144.08c1.09,1.09-.9,3.08-1.99,1.99s.9-3.08,1.99-1.99Z"/>
      <path class="cls-10" d="M197.55,141.08c1.09,1.09-.9,3.08-1.99,1.99s.9-3.08,1.99-1.99Z"/>
      <path class="cls-13" d="M186.56,170.07c-.32.38.57,2.03-.5,2.01-.8.07-.62-1.55-.5-2.01h1Z"/>
      <path class="cls-13" d="M189.56,289.07h-2c.03-.64-1.52-1.4-.51-1.98.88.63,1.7,1.27,2.51,1.98Z"/>
      <path class="cls-13" d="M191.56,290.07l10.48,11.02c-5.42-1.76-7.72-7.3-11.48-11.02h1Z"/>
      <path class="cls-13" d="M186.55,180.08l-.48,105.97c-3.87-1.06-2.72-6.98-2.56-10.53,1.4-31.22,1.13-62.62,1.05-93.97l2-1.48Z"/>
      <path class="cls-6" d="M96.56,350.07c16.61-.2,33.39-.26,50,0-.53,4.62,8.57,3.35,8,0,.57.04,1.92-.11,2,0,.26.35-.52,3.37,1.58,3.87.58.14,9.32-1.04,11.97-.92,17.99.79,35.3,3.03,52.92,5.08,2.98.35,17.9-.7,18.54-.03.43,4.23-.27,2.59-3.01,3-1.12-2.66-1.86-.02-2,0-1.09.17-2.82.07-4,0-.24-.01-1.57-1.02-3.38-1.07-3.36-.11-13.15-.5-15.59.59-6.06,2.72,0,6.42-.03,10.48-33.52-2.73-67.43-5.03-101-7-11.98-.7-24.01-1.64-36-2-3.95-.12-7.16,1-11,1-.47,0-1.49-1-2-1-3.58-2.05-9.17-.73-13.54-.96-1.3-.07-2.61-1.04-2.96-1.04h-28c-4.22,0-9.83-1.15-14.95-1.19,6.94-2.55,14.17-1.9,21.45-2.81l-1.51-1.97-10.49-2.01c8.31-.2,16.69.24,24.99-.01,19.24-.57,38.62-1.77,58-2Z"/>
      <path class="cls-1" d="M232.56,361.07c-3.37,3.36-4.48,6.25-5,11-4.7.15-9.33-.62-14-1,.02-4.06-6.03-7.76.03-10.48,2.44-1.1,12.23-.7,15.59-.59,1.81.06,3.15,1.06,3.38,1.07Z"/>
      <path class="cls-1" d="M189.56,327.07c.52,2.25-.53,3.39-1.36,5.13-1.38,2.88-5.63,12.21-7.62,13.4-2.28,1.36-1.94-.27-3.02-1.53.13-.59-.12-1.38,0-2,.05-.29.97-.73.96-2.31,0-1.96-2.42-12.25-1.95-12.69,3.44.64,10.12-.89,13,0Z"/>
      <path class="cls-8" d="M177.56,342.07c-.12.62.13,1.41,0,2-.49,2.24-2.84,5.15-2.51,8.02l-14.49-2.02c-.22-2.87,1.71-5.26,2-8h15Z"/>
      <path class="cls-12" d="M195.56,338.07c2.88,0,7.97-1.15,7,2-3.32,0-6.68,0-10,0,.03-.65.04-1.35,0-2h3Z"/>
      <path class="cls-1" d="M238.56,361.07c-.36.05-.98,1.49-2,0,.14-.02.88-2.66,2,0Z"/>
      <path class="cls-13" d="M24.55,166.07l1.49,111.01c-2.16.57-2.4-3.37-2.49-4.49-.75-8.87-.85-20.07-1.04-28.97-.56-25.89-.12-51.7-.95-77.55h2.99Z"/>
      <path class="cls-3" d="M66.56,163.07c4.98-.13,10.02.09,15.01,0v2.99c-11.12.94-22.34,1.45-33.55,1-1.92-.08-4.01,1.03-3.45-2,7.19-.61,14.43-1.8,22-2Z"/>
      <path class="cls-8" d="M73.06,212.07c1.55-.08,9.15-3.47,8.49.99-10.09-.7-19.92,1.55-29.99,1-.43-1.01,2.33-1.99,2.49-1.99,6.27,0,12.76.32,19,0Z"/>
      <path class="cls-4" d="M154.56,350.07c.57,3.35-8.53,4.62-8,0,2.64.04,5.37-.18,8,0Z"/>
      <path class="cls-3" d="M161.56,79.07c-.78.89-.65,2.12-1,3-3.15,1.02-2.96,4.04-4,6-.83,1.55-2.05,3.19-3,5-3.62,2.88-7.31,7.85-9,12-.38-.03-1.51-.71-2-1-3.05-1.83-2.91-4.8-5.72-6.28-.73-1.14-.08-2.64-.28-3.72-1.73-9.61.86-8.77,5-16,6.6,2.64,17.24-8.47,20,1Z"/>
      <path class="cls-10" d="M147.56,69.07c3.75-2.18,2.38,1.06,4.46,1.12,4.6.14,9.76-1.82,14.54-.12-1.88,2.57-1.45,4.92-5,9-2.76-9.47-13.4,1.64-20-1,2.4-4.2,3.84-5.66,6-9Z"/>
      <path class="cls-10" d="M144.56,105.07c1.69-4.15,5.38-9.12,9-12-.22.42.03,1.82-.55,2.91-1.64,3.11-4.89,9.37-8.45,9.09Z"/>
      <path class="cls-10" d="M160.56,82.07c-.76,1.92-.66,6.41-4,6,1.04-1.96.85-4.98,4-6Z"/>
      <path class="cls-3" d="M48.56,153.07l-.98-.5c.18-.65.64-.39.98-.5v1Z"/>
      <path class="cls-7" d="M195.56,338.07c-1.03-2.56,5.78-2.9,6.61-2.9,39.26.05,78.71-.25,117.84-2.15,11.85-.57,19.88,1.28,32.15.15,22.49-2.06,56.92,4.81,80.9,5.88,5.15.23,10.35-.13,15.49,0-1.57-2.28-.97-7.92-5.01-5.48l1.5,4.5-93.01-7.01c-1.7.7-1.98-1.47-1.48-1.99,2.37-2.45,17.19,2.74,23.03-3.48,1.21-1.28,1.4-3.49,2.21-4.28,3.38-3.33,10.69.53,14.03-.41,3.23-.91,5.53-9.05,9.8-11.26,3.55-1.85,10.77-2.16,14.97-3.03,2.26-.47,4.42-2.29,6.55-2.54,2.74-.31,4.94,1.26,7.42.59,4.25-1.16,22.07-17.77,25.85-11.46.97,1.63-1.62,6.98,3.14,6.86.02,1.64.12,3.37,0,5-.07.87-3.06,3.5,1,3,.06,1.28.1,2.73,0,4-.07.87-3.07,3.5,1,3,1.92,8.43,9.44,17,10,26-1.84-.1-3.61,1.05-5.39.91-33.95-2.71-69.83-.44-104.16-.86-46.07-.56-91.86-2.68-138.13-2.66-5.14,0-12.33.44-17.33,1.62h-2c.97-3.15-4.12-2-7-2Z"/>
      <path class="cls-10" d="M438.06,373.07c.65.33.65.67,0,1v-1Z"/>
      <path class="cls-2" d="M458.56,308.07c-4.06.5-1.07-2.13-1-3,1.31.48.95,1.91,1,3Z"/>
      <path class="cls-2" d="M459.56,315.07c-4.07.5-1.07-2.13-1-3,1.42.53.78,2.03,1,3Z"/>
      <rect class="cls-10" x="565.56" y="166.08" width="1.99" height="3.99"/>
      <polygon class="cls-10" points="566.55 163.07 563.56 163.06 563.56 162.09 566.55 161.07 566.55 163.07"/>
      <path class="cls-10" d="M213.56,320.07c22.58,1.48,45.11,4.16,67.61,5.89,1.05.08,10.39-1.09,10.4.61-25.49,1.12-51.01-3.44-76.5-4.53-.76.09-1.16-.81-1.51-.97v-1Z"/>
      <path class="cls-10" d="M277.55,316.08c.92,3.1-3.5,2.11-5.48,1.98-18.33-1.21-36.64-3.4-55.03-3.98l-1.47-2,61.99,4Z"/>
      <path class="cls-13" d="M206.05,304.09c2.61,3.06,7.57,4.37,8.02,8.96-3.58-1.98-6.36-5.21-8.02-8.96Z"/>
      <path class="cls-8" d="M213.56,320.07v1c-.73-.35-10.75-8.51-11.91-9.59-2.61-2.46-4.92-6.62-8.07-8.92l19.98,17.51Z"/>
      <path class="cls-13" d="M83.06,105.07c.65.33.65.67,0,1v-1Z"/>
      <path class="cls-4" d="M4.1,358.88l.45-21.81c.05-1.32-.04-2.67,0-4,3.24,1.73,7.23,3.35,10.32,5.18,3.77,2.22,10.4,7.92,13.72,9.28,3.12,1.28,9.48-.29,9.96,4.54-8.3.25-16.69-.19-24.99.01l10.49,2.01,1.51,1.97c-7.28.91-14.51.26-21.45,2.81"/>
    </g>
  </g>
</svg>