<svg width="911" height="512" viewBox="0 0 911 512" fill="none" xmlns="http://www.w3.org/2000/svg">
<mask id="mask0_2063_1689" style="mask-type:luminance" maskUnits="userSpaceOnUse" x="0" y="0" width="911" height="512">
<path d="M0 -6.10352e-05L0 511.9L910.05 511.9V-6.10352e-05L0 -6.10352e-05Z" fill="white"/>
</mask>
<g mask="url(#mask0_2063_1689)">
<g opacity="0.2">
<path d="M42.1199 63.9897L49.4899 59.5697C49.6999 59.4397 49.7699 59.1697 49.6399 58.9597C49.5099 58.7497 49.2399 58.6897 49.0299 58.8097L41.6599 63.2297C41.4499 63.3597 41.3799 63.6297 41.5099 63.8397C41.5899 63.9797 41.7399 64.0497 41.8899 64.0497C41.9699 64.0497 42.0499 64.0297 42.1199 63.9897Z" fill="#1D1D1B"/>
<path d="M27.3797 72.84L34.7497 68.41C34.9597 68.28 35.0297 68.01 34.8997 67.8C34.7797 67.59 34.4997 67.53 34.2897 67.65L26.9197 72.08C26.7097 72.21 26.6397 72.48 26.7697 72.69C26.8497 72.83 26.9997 72.9 27.1497 72.9C27.2297 72.9 27.3097 72.88 27.3797 72.84Z" fill="#1D1D1B"/>
<path d="M56.8699 55.1396L64.2399 50.7196C64.4499 50.5896 64.5199 50.3196 64.3899 50.1096C64.2599 49.8996 63.9899 49.8396 63.7799 49.9596L56.4099 54.3796C56.1999 54.5096 56.1299 54.7796 56.2599 54.9896C56.3399 55.1296 56.4899 55.1996 56.6399 55.1996C56.7199 55.1996 56.7999 55.1796 56.8699 55.1396Z" fill="#1D1D1B"/>
<path d="M81.0195 216.33C81.1895 216.57 81.3095 216.84 81.4495 217.1L218.34 134.97C218.17 134.73 218.02 134.48 217.89 134.21L81.0295 216.33H81.0195Z" fill="#1D1D1B"/>
<path d="M75.4093 104.06C75.4093 103.82 75.2093 103.62 74.9693 103.62C74.7293 103.62 74.5293 103.82 74.5293 104.06V112.08C74.5293 112.32 74.7293 112.52 74.9693 112.52C75.2093 112.52 75.4093 112.32 75.4093 112.08V104.06Z" fill="#1D1D1B"/>
<path d="M75.4093 136.13C75.4093 135.89 75.2093 135.69 74.9693 135.69C74.7293 135.69 74.5293 135.89 74.5293 136.13V144.15C74.5293 144.39 74.7293 144.59 74.9693 144.59C75.2093 144.59 75.4093 144.39 75.4093 144.15V136.13Z" fill="#1D1D1B"/>
<path d="M75.4093 120.1C75.4093 119.86 75.2093 119.66 74.9693 119.66C74.7293 119.66 74.5293 119.86 74.5293 120.1V128.12C74.5293 128.37 74.7293 128.56 74.9693 128.56C75.2093 128.56 75.4093 128.36 75.4093 128.12V120.1Z" fill="#1D1D1B"/>
<path d="M75.4093 71.9898C75.4093 71.7498 75.2093 71.5498 74.9693 71.5498C74.7293 71.5498 74.5293 71.7498 74.5293 71.9898V80.0098C74.5293 80.2498 74.7293 80.4498 74.9693 80.4498C75.2093 80.4498 75.4093 80.2498 75.4093 80.0098V71.9898Z" fill="#1D1D1B"/>
<path d="M75.4093 184.24C75.4093 184 75.2093 183.8 74.9693 183.8C74.7293 183.8 74.5293 184 74.5293 184.24V192.26C74.5293 192.5 74.7293 192.7 74.9693 192.7C75.2093 192.7 75.4093 192.5 75.4093 192.26V184.24Z" fill="#1D1D1B"/>
<path d="M75.4093 55.9498C75.4093 55.7098 75.2093 55.5098 74.9693 55.5098C74.7293 55.5098 74.5293 55.7098 74.5293 55.9498V63.9698C74.5293 64.2098 74.7293 64.4098 74.9693 64.4098C75.2093 64.4098 75.4093 64.2098 75.4093 63.9698V55.9498Z" fill="#1D1D1B"/>
<path d="M75.4093 88.0201C75.4093 87.7801 75.2093 87.5801 74.9693 87.5801C74.7293 87.5801 74.5293 87.7801 74.5293 88.0201V96.04C74.5293 96.28 74.7293 96.48 74.9693 96.48C75.2093 96.48 75.4093 96.28 75.4093 96.04V88.0201Z" fill="#1D1D1B"/>
<path d="M75.4093 152.16C75.4093 151.92 75.2093 151.72 74.9693 151.72C74.7293 151.72 74.5293 151.92 74.5293 152.16V160.18C74.5293 160.42 74.7293 160.62 74.9693 160.62C75.2093 160.62 75.4093 160.42 75.4093 160.18V152.16Z" fill="#1D1D1B"/>
<path d="M75.4093 168.2C75.4093 167.96 75.2093 167.76 74.9693 167.76C74.7293 167.76 74.5293 167.96 74.5293 168.2V176.22C74.5293 176.46 74.7293 176.66 74.9693 176.66C75.2093 176.66 75.4093 176.46 75.4093 176.22V168.2Z" fill="#1D1D1B"/>
<path d="M74.9693 199.83C74.7293 199.83 74.5293 200.03 74.5293 200.27V208.29C74.5293 208.53 74.7293 208.73 74.9693 208.73C75.2093 208.73 75.4093 208.53 75.4093 208.29V200.27C75.4093 200.03 75.2093 199.83 74.9693 199.83Z" fill="#1D1D1B"/>
<path d="M362.83 40.2896C362.97 40.0295 363.09 39.7596 363.26 39.5196L230.88 -39.9004C230.74 -39.6404 230.62 -39.3704 230.46 -39.1204L362.83 40.2996V40.2896Z" fill="#1D1D1B"/>
<path d="M226.12 129.27C226.29 129.51 226.44 129.76 226.57 130.03L363.26 48.02C363.09 47.78 362.97 47.51 362.83 47.25L226.12 129.28V129.27Z" fill="#1D1D1B"/>
<path d="M510.659 136.29C510.489 136.05 510.369 135.78 510.229 135.52L375.779 216.19C375.949 216.43 376.069 216.7 376.209 216.96L510.659 136.29Z" fill="#1D1D1B"/>
<path d="M369.04 128.11C369.04 128.36 369.24 128.55 369.48 128.55C369.72 128.55 369.92 128.35 369.92 128.11V120.09C369.92 119.85 369.72 119.65 369.48 119.65C369.24 119.65 369.04 119.85 369.04 120.09V128.11Z" fill="#1D1D1B"/>
<path d="M369.04 176.22C369.04 176.46 369.24 176.66 369.48 176.66C369.72 176.66 369.92 176.46 369.92 176.22V168.2C369.92 167.96 369.72 167.76 369.48 167.76C369.24 167.76 369.04 167.96 369.04 168.2V176.22Z" fill="#1D1D1B"/>
<path d="M369.04 208.29C369.04 208.53 369.24 208.73 369.48 208.73C369.72 208.73 369.92 208.53 369.92 208.29V200.27C369.92 200.03 369.72 199.83 369.48 199.83C369.24 199.83 369.04 200.03 369.04 200.27V208.29Z" fill="#1D1D1B"/>
<path d="M369.04 160.18C369.04 160.42 369.24 160.62 369.48 160.62C369.72 160.62 369.92 160.42 369.92 160.18V152.16C369.92 151.92 369.72 151.72 369.48 151.72C369.24 151.72 369.04 151.92 369.04 152.16V160.18Z" fill="#1D1D1B"/>
<path d="M369.04 96.04C369.04 96.28 369.24 96.48 369.48 96.48C369.72 96.48 369.92 96.28 369.92 96.04V88.0201C369.92 87.7801 369.72 87.5801 369.48 87.5801C369.24 87.5801 369.04 87.7801 369.04 88.0201V96.04Z" fill="#1D1D1B"/>
<path d="M369.04 112.08C369.04 112.32 369.24 112.52 369.48 112.52C369.72 112.52 369.92 112.32 369.92 112.08V104.06C369.92 103.82 369.72 103.62 369.48 103.62C369.24 103.62 369.04 103.82 369.04 104.06V112.08Z" fill="#1D1D1B"/>
<path d="M369.04 144.15C369.04 144.39 369.24 144.59 369.48 144.59C369.72 144.59 369.92 144.39 369.92 144.15V136.13C369.92 135.89 369.72 135.69 369.48 135.69C369.24 135.69 369.04 135.89 369.04 136.13V144.15Z" fill="#1D1D1B"/>
<path d="M369.48 64.4098C369.72 64.4098 369.92 64.2098 369.92 63.9698V55.9498C369.92 55.7098 369.72 55.5098 369.48 55.5098C369.24 55.5098 369.04 55.7098 369.04 55.9498V63.9698C369.04 64.2098 369.24 64.4098 369.48 64.4098Z" fill="#1D1D1B"/>
<path d="M369.04 80.0098C369.04 80.2498 369.24 80.4498 369.48 80.4498C369.72 80.4498 369.92 80.2498 369.92 80.0098V71.9898C369.92 71.7498 369.72 71.5498 369.48 71.5498C369.24 71.5498 369.04 71.7498 369.04 71.9898V80.0098Z" fill="#1D1D1B"/>
<path d="M369.04 192.25C369.04 192.49 369.24 192.69 369.48 192.69C369.72 192.69 369.92 192.49 369.92 192.25V184.23C369.92 183.99 369.72 183.79 369.48 183.79C369.24 183.79 369.04 183.99 369.04 184.23V192.25Z" fill="#1D1D1B"/>
<path d="M395.41 28.7297L402.78 24.2997C402.99 24.1697 403.06 23.8997 402.93 23.6897C402.81 23.4797 402.54 23.4197 402.32 23.5397L394.95 27.9697C394.74 28.0997 394.67 28.3697 394.8 28.5797C394.88 28.7197 395.03 28.7897 395.18 28.7897C395.26 28.7897 395.34 28.7697 395.41 28.7297Z" fill="#1D1D1B"/>
<path d="M410.16 19.8798L417.53 15.4598C417.74 15.3298 417.81 15.0598 417.68 14.8498C417.56 14.6398 417.28 14.5798 417.08 14.6998L409.71 19.1198C409.5 19.2498 409.43 19.5198 409.56 19.7298C409.64 19.8698 409.79 19.9398 409.94 19.9398C410.02 19.9398 410.1 19.9198 410.17 19.8798H410.16Z" fill="#1D1D1B"/>
<path d="M424.91 11.0297L432.28 6.60969C432.49 6.47969 432.56 6.20971 432.43 5.99971C432.31 5.78971 432.04 5.72974 431.82 5.84974L424.45 10.2697C424.24 10.3997 424.17 10.6697 424.3 10.8797C424.38 11.0197 424.53 11.0897 424.68 11.0897C424.76 11.0897 424.84 11.0697 424.91 11.0297Z" fill="#1D1D1B"/>
<path d="M380.66 37.58L388.03 33.16C388.24 33.03 388.31 32.76 388.18 32.55C388.06 32.34 387.78 32.28 387.57 32.4L380.2 36.82C379.99 36.95 379.92 37.22 380.05 37.43C380.13 37.57 380.28 37.64 380.43 37.64C380.51 37.64 380.59 37.62 380.66 37.58Z" fill="#1D1D1B"/>
<path d="M439.649 2.17962L447.019 -2.24036C447.229 -2.37036 447.299 -2.64035 447.169 -2.85035C447.039 -3.06035 446.769 -3.12037 446.559 -3.00037L439.189 1.41961C438.979 1.54961 438.909 1.81966 439.039 2.02966C439.119 2.16966 439.269 2.23962 439.419 2.23962C439.499 2.23962 439.579 2.21962 439.649 2.17962Z" fill="#1D1D1B"/>
<path d="M517.18 124.79V-31.1802C517.03 -31.1802 516.89 -31.1602 516.74 -31.1602C516.59 -31.1602 516.45 -31.1802 516.3 -31.1802V124.79C516.45 124.79 516.59 124.75 516.74 124.75C516.89 124.75 517.03 124.79 517.18 124.79Z" fill="#1D1D1B"/>
<path d="M653.929 50.3196C653.769 50.0696 653.609 49.8196 653.469 49.5596L522.819 127.95C522.989 128.19 523.109 128.46 523.249 128.72L653.929 50.3096V50.3196Z" fill="#1D1D1B"/>
<path d="M630.55 200.4C630.42 200.61 630.49 200.88 630.7 201.01L638.07 205.44C638.14 205.48 638.22 205.5 638.3 205.5C638.45 205.5 638.59 205.43 638.68 205.29C638.81 205.08 638.74 204.81 638.53 204.68L631.16 200.25C630.95 200.13 630.68 200.19 630.55 200.4Z" fill="#1D1D1B"/>
<path d="M542.06 147.31C541.93 147.52 542 147.79 542.21 147.92L549.58 152.34C549.65 152.38 549.73 152.4 549.81 152.4C549.96 152.4 550.11 152.33 550.19 152.19C550.32 151.98 550.25 151.71 550.04 151.58L542.67 147.16C542.46 147.04 542.19 147.1 542.06 147.31Z" fill="#1D1D1B"/>
<path d="M645.3 209.25C645.17 209.46 645.24 209.73 645.45 209.86L652.82 214.28C652.89 214.32 652.97 214.34 653.05 214.34C653.2 214.34 653.34 214.26 653.43 214.13C653.56 213.92 653.49 213.65 653.28 213.52L645.91 209.1C645.7 208.98 645.43 209.04 645.3 209.25Z" fill="#1D1D1B"/>
<path d="M556.81 156.16C556.68 156.37 556.75 156.64 556.96 156.77L564.33 161.2C564.4 161.24 564.48 161.26 564.56 161.26C564.71 161.26 564.86 161.18 564.94 161.05C565.07 160.84 565 160.57 564.79 160.44L557.42 156.01C557.21 155.88 556.94 155.95 556.81 156.16Z" fill="#1D1D1B"/>
<path d="M586.31 173.86C586.18 174.07 586.25 174.34 586.46 174.47L593.83 178.89C593.9 178.93 593.98 178.95 594.06 178.95C594.21 178.95 594.36 178.88 594.44 178.74C594.57 178.53 594.5 178.26 594.29 178.13L586.92 173.71C586.71 173.59 586.44 173.65 586.31 173.86Z" fill="#1D1D1B"/>
<path d="M601.05 182.71C600.92 182.92 600.99 183.19 601.2 183.32L608.57 187.74C608.64 187.78 608.72 187.8 608.8 187.8C608.95 187.8 609.1 187.72 609.18 187.59C609.31 187.38 609.24 187.11 609.03 186.98L601.66 182.56C601.45 182.44 601.18 182.5 601.05 182.71Z" fill="#1D1D1B"/>
<path d="M571.56 165.01C571.43 165.22 571.5 165.49 571.71 165.62L579.08 170.04C579.15 170.08 579.23 170.1 579.31 170.1C579.46 170.1 579.61 170.02 579.69 169.89C579.82 169.68 579.75 169.41 579.54 169.28L572.17 164.86C571.96 164.74 571.69 164.8 571.56 165.01Z" fill="#1D1D1B"/>
<path d="M615.8 191.56C615.67 191.77 615.74 192.04 615.95 192.17L623.32 196.59C623.39 196.63 623.47 196.65 623.55 196.65C623.7 196.65 623.85 196.57 623.93 196.44C624.06 196.23 623.99 195.96 623.78 195.83L616.41 191.41C616.2 191.29 615.93 191.35 615.8 191.56Z" fill="#1D1D1B"/>
<path d="M535.07 143.56C535.22 143.56 535.37 143.48 535.45 143.35C535.58 143.14 535.509 142.87 535.299 142.74L527.93 138.32C527.72 138.2 527.45 138.26 527.32 138.47C527.19 138.68 527.259 138.95 527.469 139.08L534.84 143.5C534.91 143.54 534.99 143.56 535.07 143.56Z" fill="#1D1D1B"/>
<path d="M664.44 168.2C664.44 167.96 664.24 167.76 664 167.76C663.76 167.76 663.56 167.96 663.56 168.2V176.22C663.56 176.46 663.76 176.66 664 176.66C664.24 176.66 664.44 176.46 664.44 176.22V168.2Z" fill="#1D1D1B"/>
<path d="M664 199.83C663.76 199.83 663.56 200.03 663.56 200.27V208.29C663.56 208.53 663.76 208.73 664 208.73C664.24 208.73 664.44 208.53 664.44 208.29V200.27C664.44 200.03 664.24 199.83 664 199.83Z" fill="#1D1D1B"/>
<path d="M664.44 184.24C664.44 184 664.24 183.8 664 183.8C663.76 183.8 663.56 184 663.56 184.24V192.26C663.56 192.5 663.76 192.7 664 192.7C664.24 192.7 664.44 192.5 664.44 192.26V184.24Z" fill="#1D1D1B"/>
<path d="M663.63 55.77C663.6 55.83 663.55 55.88 663.55 55.95V63.97C663.55 64.21 663.75 64.41 663.99 64.41C664.23 64.41 664.43 64.21 664.43 63.97V55.95C664.43 55.88 664.38 55.83 664.35 55.77C664.23 55.77 664.11 55.79 663.98 55.79C663.85 55.79 663.74 55.78 663.61 55.77H663.63Z" fill="#1D1D1B"/>
<path d="M664.44 88.0201C664.44 87.7801 664.24 87.5801 664 87.5801C663.76 87.5801 663.56 87.7801 663.56 88.0201V96.04C663.56 96.28 663.76 96.48 664 96.48C664.24 96.48 664.44 96.28 664.44 96.04V88.0201Z" fill="#1D1D1B"/>
<path d="M664.44 104.06C664.44 103.82 664.24 103.62 664 103.62C663.76 103.62 663.56 103.82 663.56 104.06V112.08C663.56 112.32 663.76 112.52 664 112.52C664.24 112.52 664.44 112.32 664.44 112.08V104.06Z" fill="#1D1D1B"/>
<path d="M664.44 152.16C664.44 151.92 664.24 151.72 664 151.72C663.76 151.72 663.56 151.92 663.56 152.16V160.18C663.56 160.42 663.76 160.62 664 160.62C664.24 160.62 664.44 160.42 664.44 160.18V152.16Z" fill="#1D1D1B"/>
<path d="M664.44 136.13C664.44 135.89 664.24 135.69 664 135.69C663.76 135.69 663.56 135.89 663.56 136.13V144.15C663.56 144.39 663.76 144.59 664 144.59C664.24 144.59 664.44 144.39 664.44 144.15V136.13Z" fill="#1D1D1B"/>
<path d="M664.44 120.1C664.44 119.86 664.24 119.66 664 119.66C663.76 119.66 663.56 119.86 663.56 120.1V128.12C663.56 128.37 663.76 128.56 664 128.56C664.24 128.56 664.44 128.36 664.44 128.12V120.1Z" fill="#1D1D1B"/>
<path d="M664.44 71.9898C664.44 71.7498 664.24 71.5498 664 71.5498C663.76 71.5498 663.56 71.7498 663.56 71.9898V80.0098C663.56 80.2498 663.76 80.4498 664 80.4498C664.24 80.4498 664.44 80.2498 664.44 80.0098V71.9898Z" fill="#1D1D1B"/>
<path d="M949.5 38.8697C949.64 38.6097 949.76 38.3397 949.92 38.0897L818.06 -41.0303C817.92 -40.7703 817.8 -40.5003 817.63 -40.2603L949.5 38.8597V38.8697Z" fill="#1D1D1B"/>
<path d="M810.819 -36.9199V123.86C810.969 123.86 811.109 123.82 811.259 123.82C811.409 123.82 811.549 123.86 811.699 123.86V-36.9199C811.549 -36.9199 811.409 -36.8799 811.259 -36.8799C811.109 -36.8799 810.969 -36.9199 810.819 -36.9199Z" fill="#1D1D1B"/>
<path d="M79.8099 43.7697C79.8099 41.0997 77.6399 38.9297 74.9699 38.9297C72.2999 38.9297 70.1299 41.0997 70.1299 43.7697C70.1299 46.4397 72.2999 48.6097 74.9699 48.6097C77.6399 48.6097 79.8099 46.4397 79.8099 43.7697Z" fill="#3A679F"/>
<path d="M222.23 127.28C219.56 127.28 217.39 129.45 217.39 132.12C217.39 132.87 217.58 133.58 217.88 134.21C218.01 134.48 218.16 134.73 218.33 134.97C219.13 136.06 220.36 136.78 221.78 136.91C221.93 136.92 222.07 136.95 222.22 136.95C222.37 136.95 222.51 136.92 222.66 136.91C225.12 136.68 227.06 134.64 227.06 132.12C227.06 131.37 226.87 130.66 226.57 130.03C226.44 129.76 226.29 129.51 226.12 129.27C225.24 128.07 223.83 127.28 222.23 127.28Z" fill="#3A679F"/>
<path d="M74.9699 213.14C72.4599 213.14 70.2399 214.41 68.9199 216.33C68.7499 216.57 68.6299 216.84 68.4899 217.1C67.9599 218.11 67.6299 219.25 67.6299 220.47C67.6299 224.52 70.9199 227.81 74.9699 227.81C79.0199 227.81 82.3099 224.52 82.3099 220.47C82.3099 219.25 81.9799 218.11 81.4499 217.1C81.3099 216.84 81.1899 216.57 81.0199 216.33C79.6999 214.4 77.4799 213.14 74.9699 213.14Z" fill="#3A679F"/>
<path d="M377.11 220.48C377.11 219.2 376.77 218.02 376.21 216.96C376.07 216.7 375.95 216.43 375.78 216.19C374.41 214.18 372.1 212.86 369.48 212.86C365.27 212.86 361.85 216.27 361.85 220.49C361.85 224.71 365.27 228.12 369.48 228.12C372.1 228.12 374.41 226.8 375.78 224.79C375.95 224.55 376.07 224.28 376.21 224.02C376.76 222.96 377.11 221.78 377.11 220.5V220.48Z" fill="#3A679F"/>
<path d="M361.939 43.77C361.939 45.03 362.279 46.2 362.829 47.25C362.969 47.51 363.089 47.78 363.259 48.02C364.619 50.01 366.899 51.31 369.489 51.31C373.649 51.31 377.029 47.93 377.029 43.77C377.029 39.61 373.649 36.23 369.489 36.23C366.899 36.23 364.619 37.54 363.259 39.52C363.089 39.76 362.969 40.03 362.829 40.29C362.279 41.34 361.939 42.51 361.939 43.77Z" fill="#3A679F"/>
<path d="M663.629 55.77C663.749 55.77 663.869 55.79 663.999 55.79C664.129 55.79 664.239 55.78 664.369 55.77C670.839 55.58 676.029 50.28 676.029 43.77C676.029 37.26 670.649 31.75 664.009 31.75C657.369 31.75 651.989 37.13 651.989 43.77C651.989 45.88 652.529 47.85 653.479 49.57C653.619 49.83 653.779 50.08 653.939 50.33C656.019 53.52 659.579 55.65 663.639 55.78L663.629 55.77Z" fill="#3A679F"/>
<path d="M516.74 139.5C520.81 139.5 524.11 136.2 524.11 132.13C524.11 130.9 523.78 129.76 523.25 128.74C523.11 128.48 522.99 128.21 522.82 127.97C521.57 126.15 519.52 124.95 517.18 124.8C517.03 124.8 516.89 124.76 516.74 124.76C516.59 124.76 516.45 124.8 516.3 124.8C512.44 125.03 509.37 128.21 509.37 132.13C509.37 133.36 509.7 134.5 510.23 135.52C510.37 135.78 510.49 136.05 510.66 136.29C511.99 138.23 514.22 139.5 516.74 139.5Z" fill="#3A679F"/>
<path d="M664 229.01C668.71 229.01 672.53 225.19 672.53 220.48C672.53 215.77 668.71 211.95 664 211.95C659.29 211.95 655.47 215.77 655.47 220.48C655.47 221.93 655.86 223.27 656.5 224.46C656.64 224.72 656.76 224.99 656.92 225.24C658.45 227.51 661.05 229.01 664 229.01Z" fill="#3A679F"/>
<path d="M810.82 123.86C806.44 124.09 802.96 127.69 802.96 132.12C802.96 136.55 806.68 140.43 811.26 140.43C815.84 140.43 819.57 136.71 819.57 132.12C819.57 127.53 816.08 124.09 811.71 123.86C811.56 123.86 811.42 123.82 811.27 123.82C811.12 123.82 810.98 123.86 810.83 123.86H810.82Z" fill="#3A679F"/>
</g>
<path d="M162.88 -8.45996C162.79 -8.60996 162.71 -8.76992 162.63 -8.91992L88.5195 35.55C88.6095 35.7001 88.6895 35.8601 88.7695 36.0101L162.88 -8.45996Z" fill="#1D1D1B"/>
<path d="M82.5198 46.61C82.4298 46.61 82.3498 46.5901 82.2598 46.5801V139.61C82.3498 139.61 82.4298 139.58 82.5198 139.58C82.6098 139.58 82.6898 139.6 82.7798 139.61V46.5801C82.6898 46.5801 82.6098 46.61 82.5198 46.61Z" fill="#1D1D1B"/>
<path d="M85.8896 141.35C85.9896 141.49 86.0697 141.65 86.1497 141.8L164.45 94.8199C164.35 94.6799 164.28 94.5099 164.2 94.3599L85.8997 141.34L85.8896 141.35Z" fill="#1D1D1B"/>
<path d="M174.53 198.58C174.45 198.73 174.38 198.89 174.28 199.04L253.5 246.57C253.58 246.41 253.66 246.26 253.77 246.12L174.54 198.58H174.53Z" fill="#1D1D1B"/>
<path d="M250.07 147.7C249.98 147.55 249.9 147.39 249.82 147.24L174.28 192.57C174.38 192.71 174.45 192.88 174.53 193.03L250.07 147.7Z" fill="#1D1D1B"/>
<path d="M169.39 -4.90991C169.3 -4.90991 169.22 -4.92994 169.13 -4.93994V85.6601C169.22 85.6601 169.3 85.6301 169.39 85.6301C169.48 85.6301 169.56 85.6501 169.65 85.6601V-4.93994C169.56 -4.93994 169.48 -4.90991 169.39 -4.90991Z" fill="#1D1D1B"/>
<path d="M174.57 94.3701C174.49 94.5201 174.42 94.6801 174.32 94.8301L249.82 140.13C249.9 139.98 249.97 139.82 250.07 139.67L174.57 94.3701Z" fill="#1D1D1B"/>
<path d="M175.9 -8.45996L252.43 37.4601C252.51 37.3001 252.59 37.1501 252.68 37.0001L176.14 -8.91992C176.06 -8.76992 175.99 -8.60996 175.89 -8.45996H175.9Z" fill="#1D1D1B"/>
<path d="M255.99 -61.96V35.1401C256.08 35.1401 256.16 35.11 256.25 35.11C256.34 35.11 256.42 35.1301 256.51 35.1401V-61.96C256.42 -61.96 256.34 -61.9299 256.25 -61.9299C256.16 -61.9299 256.08 -61.95 255.99 -61.96Z" fill="#1D1D1B"/>
<path d="M255.99 43.75V136.33C256.08 136.33 256.16 136.3 256.25 136.3C256.34 136.3 256.42 136.32 256.51 136.33V43.75C256.42 43.75 256.34 43.78 256.25 43.78C256.16 43.78 256.08 43.76 255.99 43.75Z" fill="#1D1D1B"/>
<path d="M255.99 151.04V244.87C256.08 244.87 256.16 244.84 256.25 244.84C256.34 244.84 256.42 244.86 256.51 244.87V151.04C256.42 151.04 256.34 151.07 256.25 151.07C256.16 151.07 256.08 151.05 255.99 151.04Z" fill="#1D1D1B"/>
<path d="M433.7 41.9802L513.2 89.6802C513.28 89.5302 513.36 89.3702 513.46 89.2302L433.96 41.5303C433.88 41.6803 433.8 41.8402 433.71 41.9902L433.7 41.9802Z" fill="#1D1D1B"/>
<path d="M513.26 -10.2197C513.16 -10.3597 513.09 -10.5197 513.01 -10.6797L433.7 36.9103C433.8 37.0503 433.87 37.2103 433.95 37.3703L513.26 -10.2197Z" fill="#1D1D1B"/>
<path d="M430.24 137.72V43.9102C430.15 43.9102 430.07 43.9401 429.98 43.9401C429.89 43.9401 429.81 43.9202 429.72 43.9102V137.71C429.81 137.71 429.89 137.68 429.98 137.68C430.07 137.68 430.15 137.7 430.24 137.71V137.72Z" fill="#1D1D1B"/>
<path d="M434.97 140.379C435.07 140.519 435.14 140.689 435.22 140.839L513.45 93.8995C513.35 93.7595 513.27 93.5995 513.19 93.4395L434.97 140.369V140.379Z" fill="#1D1D1B"/>
<path d="M523.7 199.61C523.61 199.76 523.54 199.92 523.45 200.07L598.42 245.05C598.5 244.9 598.57 244.73 598.67 244.59L523.7 199.61Z" fill="#1D1D1B"/>
<path d="M517.11 187.95V95.6602C517.02 95.6602 516.94 95.6901 516.85 95.6901C516.76 95.6901 516.68 95.6702 516.59 95.6602V187.95C516.68 187.95 516.76 187.92 516.85 187.92C516.94 187.92 517.02 187.94 517.11 187.95Z" fill="#1D1D1B"/>
<path d="M600.32 141.95C600.4 141.79 600.48 141.64 600.58 141.5L520.5 93.4502C520.42 93.6102 520.34 93.7602 520.24 93.9102L600.32 141.96V141.95Z" fill="#1D1D1B"/>
<path d="M599.539 36.6401L520.689 -10.6699C520.609 -10.5099 520.529 -10.36 520.439 -10.21L599.289 37.1001C599.369 36.9501 599.439 36.7801 599.539 36.6401Z" fill="#1D1D1B"/>
<path d="M520.24 89.2198C520.34 89.3598 520.42 89.5198 520.5 89.6798L599.54 42.2598C599.44 42.1198 599.37 41.9598 599.29 41.7998L520.25 89.2298L520.24 89.2198Z" fill="#1D1D1B"/>
<path d="M603.45 -57.7305V34.4395C603.54 34.4395 603.62 34.4095 603.71 34.4095C603.8 34.4095 603.88 34.4295 603.97 34.4395V-57.7305C603.88 -57.7305 603.8 -57.7005 603.71 -57.7005C603.62 -57.7005 603.54 -57.7205 603.45 -57.7305Z" fill="#1D1D1B"/>
<path d="M603.45 147.479V241.9C603.54 241.9 603.62 241.87 603.71 241.87C603.8 241.87 603.88 241.89 603.97 241.9V147.479C603.88 147.479 603.8 147.51 603.71 147.51C603.62 147.51 603.54 147.489 603.45 147.479Z" fill="#1D1D1B"/>
<path d="M684.61 95.4498C684.52 95.2998 684.44 95.1397 684.36 94.9897L606.84 141.5C606.94 141.64 607.02 141.8 607.1 141.95L684.61 95.4498Z" fill="#1D1D1B"/>
<path d="M773.169 245.66C773.249 245.51 773.319 245.34 773.419 245.2L694.729 197.979C694.649 198.129 694.579 198.29 694.479 198.44L773.18 245.66H773.169Z" fill="#1D1D1B"/>
<path d="M690.32 98.6699V191.12C690.41 191.12 690.49 191.09 690.58 191.09C690.67 191.09 690.75 191.11 690.84 191.12V98.6699C690.75 98.6699 690.67 98.7 690.58 98.7C690.49 98.7 690.41 98.6799 690.32 98.6699Z" fill="#1D1D1B"/>
<path d="M690.32 -7.7998V84.4602C690.41 84.4602 690.49 84.4302 690.58 84.4302C690.67 84.4302 690.75 84.4502 690.84 84.4602V-7.7998C690.75 -7.7998 690.67 -7.76984 690.58 -7.76984C690.49 -7.76984 690.41 -7.7898 690.32 -7.7998Z" fill="#1D1D1B"/>
<path d="M947.339 245.92C947.419 245.77 947.499 245.61 947.589 245.46L867.449 197.38C867.369 197.54 867.289 197.69 867.189 197.83L947.339 245.92Z" fill="#1D1D1B"/>
<path d="M861.43 197.84C861.33 197.7 861.25 197.54 861.17 197.39L781.47 245.21C781.57 245.35 781.64 245.51 781.72 245.67L861.43 197.84Z" fill="#1D1D1B"/>
<path d="M82.7799 139.61C82.6899 139.61 82.6099 139.58 82.5199 139.58C82.4299 139.58 82.3499 139.6 82.2599 139.61C80.9699 139.69 79.8399 140.36 79.1499 141.36C79.0499 141.5 78.9699 141.66 78.8899 141.81C78.5999 142.37 78.4199 143 78.4199 143.68C78.4199 145.94 80.2599 147.78 82.5199 147.78C84.7799 147.78 86.6199 145.94 86.6199 143.68C86.6199 143 86.4399 142.37 86.1499 141.81C86.0699 141.65 85.9899 141.5 85.8899 141.36C85.1999 140.36 84.0699 139.7 82.7799 139.61Z" fill="#3A679F"/>
<path d="M82.7798 46.5798C86.6098 46.4398 89.6798 43.3098 89.6798 39.4398C89.6798 38.1798 89.3298 37.0198 88.7598 35.9998C88.6798 35.8498 88.6098 35.6897 88.5098 35.5397C87.2298 33.5797 85.0299 32.2798 82.5098 32.2798C79.9898 32.2798 77.7898 33.5797 76.5098 35.5397C76.4198 35.6897 76.3498 35.8498 76.2598 35.9998C75.6898 37.0298 75.3398 38.1898 75.3398 39.4398C75.3398 40.6898 75.6898 41.8598 76.2598 42.8798C76.3398 43.0298 76.4098 43.1898 76.5098 43.3398C77.7398 45.2298 79.8398 46.4898 82.2498 46.5798C82.3398 46.5798 82.4198 46.6097 82.5098 46.6097C82.5998 46.6097 82.6798 46.5898 82.7698 46.5798H82.7798Z" fill="#3A679F"/>
<path d="M175.26 195.8C175.26 194.79 174.98 193.85 174.53 193.02C174.45 192.87 174.38 192.71 174.28 192.56C173.23 190.98 171.43 189.93 169.39 189.93C166.15 189.93 163.52 192.56 163.52 195.8C163.52 199.04 166.01 201.5 169.13 201.64C169.22 201.64 169.3 201.67 169.39 201.67C169.48 201.67 169.56 201.65 169.65 201.64C171.58 201.55 173.28 200.55 174.28 199.03C174.38 198.89 174.45 198.72 174.53 198.57C174.98 197.74 175.26 196.8 175.26 195.79V195.8Z" fill="#3A679F"/>
<path d="M175.31 91.5599C175.31 88.3799 172.79 85.7999 169.65 85.6599C169.56 85.6599 169.48 85.6299 169.39 85.6299C169.3 85.6299 169.22 85.6499 169.13 85.6599C165.98 85.7999 163.46 88.3799 163.46 91.5599C163.46 92.5799 163.74 93.5299 164.2 94.3699C164.28 94.5199 164.35 94.6799 164.45 94.8299C165.51 96.4299 167.32 97.4899 169.39 97.4899C171.46 97.4899 173.27 96.4299 174.33 94.8299C174.43 94.6899 174.5 94.5199 174.58 94.3699C175.04 93.5299 175.32 92.5799 175.32 91.5599H175.31Z" fill="#3A679F"/>
<path d="M255.99 35.1401C254.62 35.2201 253.42 35.9301 252.68 37.0001C252.58 37.1401 252.51 37.3001 252.43 37.4601C252.12 38.0601 251.92 38.7301 251.92 39.4501C251.92 41.7501 253.72 43.6201 255.99 43.7501C256.08 43.7501 256.16 43.7802 256.25 43.7802C256.34 43.7802 256.42 43.7601 256.51 43.7501C258.78 43.6101 260.58 41.7501 260.58 39.4501C260.58 37.1501 258.78 35.2801 256.51 35.1501C256.42 35.1501 256.34 35.1201 256.25 35.1201C256.16 35.1201 256.08 35.1401 255.99 35.1501V35.1401Z" fill="#3A679F"/>
<path d="M255.99 244.87C255.07 244.95 254.27 245.42 253.76 246.12C253.66 246.26 253.57 246.41 253.49 246.57C253.29 246.98 253.17 247.43 253.17 247.92C253.17 249.53 254.41 250.84 255.99 250.97C256.08 250.97 256.16 251 256.25 251C256.34 251 256.42 250.98 256.51 250.97C258.09 250.84 259.33 249.53 259.33 247.92C259.33 246.31 258.09 245 256.51 244.87C256.42 244.87 256.34 244.84 256.25 244.84C256.16 244.84 256.08 244.86 255.99 244.87Z" fill="#3A679F"/>
<path d="M255.99 136.33C253.51 136.42 251.34 137.72 250.07 139.67C249.98 139.82 249.91 139.98 249.82 140.13C249.23 141.19 248.87 142.39 248.87 143.69C248.87 144.99 249.23 146.18 249.82 147.24C249.9 147.39 249.97 147.55 250.07 147.7C251.34 149.65 253.51 150.95 255.99 151.04C256.08 151.04 256.16 151.07 256.25 151.07C256.34 151.07 256.42 151.05 256.51 151.04C260.46 150.9 263.63 147.67 263.63 143.69C263.63 139.71 260.46 136.48 256.51 136.33C256.42 136.33 256.34 136.3 256.25 136.3C256.16 136.3 256.08 136.32 255.99 136.33Z" fill="#3A679F"/>
<path d="M430.24 137.719C430.15 137.719 430.07 137.689 429.98 137.689C429.89 137.689 429.81 137.709 429.72 137.719C426.54 137.859 423.99 140.459 423.99 143.679C423.99 146.899 426.67 149.669 429.98 149.669C433.29 149.669 435.97 146.989 435.97 143.679C435.97 142.649 435.68 141.689 435.22 140.839C435.14 140.689 435.07 140.529 434.97 140.379C433.94 138.829 432.22 137.809 430.24 137.719Z" fill="#3A679F"/>
<path d="M430.24 43.9194C431.67 43.8394 432.93 43.0994 433.7 41.9794C433.8 41.8394 433.87 41.6795 433.95 41.5195C434.28 40.8995 434.48 40.1995 434.48 39.4395C434.48 38.6795 434.28 37.9894 433.95 37.3594C433.87 37.2094 433.79 37.0495 433.7 36.8995C432.89 35.7095 431.53 34.9395 429.99 34.9395C427.5 34.9395 425.49 36.9495 425.49 39.4395C425.49 41.9295 427.37 43.7795 429.73 43.9095C429.82 43.9095 429.9 43.9395 429.99 43.9395C430.08 43.9395 430.16 43.9195 430.25 43.9095L430.24 43.9194Z" fill="#3A679F"/>
<path d="M435.63 247.919C435.63 244.799 433.1 242.27 429.99 242.27C426.88 242.27 424.35 244.799 424.35 247.919C424.35 251.039 426.88 253.56 429.99 253.56C431.95 253.56 433.68 252.559 434.69 251.039C434.79 250.899 434.86 250.73 434.94 250.58C435.37 249.78 435.64 248.889 435.64 247.919H435.63Z" fill="#3A679F"/>
<path d="M524.72 195.8C524.72 191.54 521.33 188.09 517.1 187.95C517.01 187.95 516.93 187.92 516.84 187.92C516.75 187.92 516.67 187.94 516.58 187.95C512.35 188.09 508.96 191.54 508.96 195.8C508.96 200.06 512.35 203.51 516.58 203.65C516.67 203.65 516.75 203.68 516.84 203.68C516.93 203.68 517.01 203.66 517.1 203.65C519.76 203.56 522.09 202.16 523.44 200.07C523.53 199.92 523.6 199.76 523.69 199.61C524.32 198.48 524.71 197.19 524.71 195.8H524.72Z" fill="#3A679F"/>
<path d="M517.11 95.6699C518.41 95.5899 519.55 94.92 520.25 93.91C520.35 93.77 520.43 93.61 520.51 93.45C520.8 92.88 520.99 92.2499 520.99 91.5599C520.99 90.8699 520.81 90.2399 520.51 89.6699C520.43 89.5099 520.35 89.36 520.25 89.21C519.51 88.13 518.26 87.4199 516.85 87.4199C515.44 87.4199 514.2 88.13 513.45 89.21C513.35 89.35 513.27 89.51 513.19 89.66C512.9 90.23 512.71 90.8599 512.71 91.5499C512.71 92.2399 512.89 92.8699 513.19 93.4399C513.27 93.5999 513.35 93.75 513.45 93.9C514.15 94.91 515.29 95.58 516.59 95.66C516.68 95.66 516.76 95.6899 516.85 95.6899C516.94 95.6899 517.02 95.67 517.11 95.66V95.6699Z" fill="#3A679F"/>
<path d="M603.45 34.4401C601.82 34.5201 600.39 35.3601 599.54 36.6401C599.44 36.7801 599.37 36.9502 599.29 37.1002C598.91 37.8002 598.68 38.6001 598.68 39.4501C598.68 40.3001 598.91 41.0901 599.29 41.8001C599.37 41.9501 599.44 42.1201 599.54 42.2601C600.44 43.6001 601.98 44.4801 603.71 44.4801C606.49 44.4801 608.74 42.2301 608.74 39.4501C608.74 36.6701 606.62 34.5801 603.97 34.4401C603.88 34.4401 603.8 34.4102 603.71 34.4102C603.62 34.4102 603.54 34.4301 603.45 34.4401Z" fill="#3A679F"/>
<path d="M609.76 247.92C609.76 244.67 607.19 242.04 603.98 241.9C603.89 241.9 603.81 241.87 603.72 241.87C603.63 241.87 603.55 241.89 603.46 241.9C601.46 241.99 599.72 243.02 598.68 244.59C598.58 244.73 598.51 244.9 598.43 245.05C597.96 245.91 597.67 246.88 597.67 247.92C597.67 251.17 600.24 253.8 603.46 253.94C603.55 253.94 603.63 253.97 603.72 253.97C603.81 253.97 603.89 253.95 603.98 253.94C605.98 253.85 607.72 252.82 608.76 251.25C608.86 251.11 608.93 250.94 609.01 250.79C609.48 249.93 609.77 248.97 609.77 247.92H609.76Z" fill="#3A679F"/>
<path d="M599.89 143.68C599.89 145.7 601.47 147.34 603.45 147.48C603.54 147.48 603.62 147.51 603.71 147.51C603.8 147.51 603.88 147.49 603.97 147.48C605.96 147.34 607.53 145.71 607.53 143.68C607.53 143.05 607.36 142.47 607.1 141.95C607.02 141.79 606.94 141.64 606.84 141.5C606.15 140.51 605.01 139.86 603.71 139.86C602.41 139.86 601.27 140.51 600.58 141.5C600.48 141.64 600.4 141.8 600.32 141.95C600.05 142.47 599.89 143.05 599.89 143.68Z" fill="#3A679F"/>
<path d="M690.32 191.12C687.84 191.26 685.87 193.29 685.87 195.8C685.87 198.31 687.84 200.34 690.32 200.48C690.41 200.48 690.49 200.51 690.58 200.51C690.67 200.51 690.75 200.49 690.84 200.48C692.35 200.4 693.68 199.62 694.48 198.44C694.58 198.3 694.65 198.14 694.73 197.98C695.08 197.32 695.29 196.59 695.29 195.8C695.29 193.29 693.32 191.26 690.84 191.12C690.75 191.12 690.67 191.09 690.58 191.09C690.49 191.09 690.41 191.11 690.32 191.12Z" fill="#3A679F"/>
<path d="M690.32 84.4595C686.51 84.5995 683.45 87.7194 683.45 91.5594C683.45 92.8094 683.8 93.9594 684.36 94.9894C684.44 95.1394 684.51 95.2995 684.61 95.4495C685.84 97.3295 687.93 98.5794 690.32 98.6694C690.41 98.6694 690.49 98.6995 690.58 98.6995C690.67 98.6995 690.75 98.6794 690.84 98.6694C694.65 98.5294 697.71 95.4095 697.71 91.5695C697.71 87.7295 694.65 84.6095 690.84 84.4695C690.75 84.4695 690.67 84.4395 690.58 84.4395C690.49 84.4395 690.41 84.4595 690.32 84.4695V84.4595Z" fill="#3A679F"/>
<path d="M772.59 247.92C772.59 250.51 774.63 252.61 777.19 252.75C777.28 252.75 777.36 252.78 777.45 252.78C777.54 252.78 777.62 252.76 777.71 252.75C780.27 252.61 782.31 250.51 782.31 247.92C782.31 247.1 782.09 246.34 781.73 245.66C781.65 245.51 781.58 245.34 781.48 245.2C780.61 243.91 779.13 243.06 777.46 243.06C775.79 243.06 774.31 243.91 773.44 245.2C773.34 245.34 773.27 245.5 773.19 245.66C772.83 246.34 772.61 247.1 772.61 247.92H772.59Z" fill="#3A679F"/>
<path d="M864.05 199.31C864.14 199.31 864.22 199.34 864.31 199.34C864.4 199.34 864.48 199.32 864.57 199.31C865.65 199.23 866.6 198.67 867.19 197.84C867.29 197.7 867.37 197.54 867.45 197.39C867.69 196.91 867.84 196.38 867.84 195.81C867.84 193.86 866.26 192.28 864.31 192.28C862.36 192.28 860.78 193.86 860.78 195.81C860.78 196.38 860.93 196.91 861.17 197.39C861.25 197.55 861.33 197.7 861.43 197.84C862.02 198.68 862.97 199.23 864.05 199.31Z" fill="#3A679F"/>
</g>
</svg>
