<svg width="701" height="1005" viewBox="0 0 701 1005" fill="none" xmlns="http://www.w3.org/2000/svg">
<g opacity="0.47" clip-path="url(#clip0_2009_7637)">
<g opacity="0.4">
<path d="M747.93 639.071C746.208 636.13 747.215 632.344 750.169 630.623C750.863 630.22 751.626 629.971 752.375 629.865L749.689 601.626C746.566 601.799 743.452 600.254 741.783 597.384C741.285 596.572 740.98 595.727 740.804 594.882L710.146 600.319C710.532 603.151 709.218 606.052 706.601 607.561C705.323 608.316 703.931 608.607 702.55 608.534L701.938 608.481C699.825 608.171 697.831 606.945 696.652 604.927C695.134 602.306 695.444 599.121 697.18 596.841L697.569 596.382C698.063 595.85 698.634 595.374 699.282 595.005C702.76 592.965 707.23 594.154 709.226 597.621C709.615 598.296 709.88 598.992 710.045 599.698L740.709 594.247C740.332 591.664 741.173 589.031 743.002 587.134L743.452 586.708C743.877 586.305 744.344 585.964 744.869 585.637C747.276 584.252 750.088 584.176 752.47 585.158L758.193 572.695C757.256 572.186 756.44 571.458 755.881 570.473C754.251 567.695 755.21 564.11 757.991 562.496C760.756 560.859 764.334 561.818 765.97 564.603C767.574 567.387 766.635 570.949 763.84 572.591C762.229 573.518 760.39 573.593 758.768 572.958L753.04 585.404C754.461 586.146 755.716 587.271 756.568 588.759C757.983 591.166 758.084 593.981 757.058 596.382L756.809 596.936C756.088 598.352 754.978 599.6 753.49 600.456C752.462 601.049 751.371 601.421 750.301 601.561L752.998 629.789C755.213 629.689 757.418 630.797 758.64 632.853C760.342 635.814 759.339 639.589 756.384 641.304C753.449 643.033 749.652 642.04 747.933 639.063L747.93 639.071Z" fill="white"/>
<path d="M508.043 189.678C512.261 190.789 514.777 195.12 513.656 199.354C513.396 200.35 512.927 201.274 512.345 202.04L540.312 225.159C542.959 222.168 547.183 220.763 551.318 221.835C552.478 222.131 553.512 222.607 554.457 223.228L577.283 190.531C574.358 188.312 572.93 184.498 573.919 180.76C574.403 178.922 575.398 177.405 576.704 176.21L577.308 175.701C579.505 174.058 582.415 173.364 585.289 174.117C589.049 175.116 591.652 178.278 592.141 181.927L592.216 182.702C592.255 183.623 592.158 184.566 591.909 185.511C590.6 190.495 585.493 193.458 580.539 192.132C579.586 191.883 578.708 191.486 577.926 190.99L555.103 223.693C557.767 225.693 559.394 228.858 559.467 232.222L559.453 233.028C559.416 233.758 559.299 234.513 559.123 235.263C558.197 238.708 555.743 241.316 552.685 242.586L558.757 259.056C560.073 258.667 561.477 258.592 562.869 258.961C566.847 260.022 569.24 264.127 568.175 268.086C567.126 272.088 563.059 274.469 559.039 273.417C555.08 272.351 552.699 268.271 553.75 264.253C554.37 261.972 555.986 260.237 558.01 259.331L551.933 242.858C549.979 243.498 547.82 243.619 545.701 243.042C542.257 242.147 539.618 239.684 538.371 236.576L538.084 235.845C537.466 233.917 537.334 231.782 537.924 229.65C538.318 228.184 538.939 226.877 539.797 225.763L511.836 202.65C509.921 204.757 506.927 205.765 503.956 204.998C499.74 203.859 497.232 199.536 498.365 195.294C499.449 191.08 503.796 188.542 508.037 189.672L508.043 189.678Z" fill="white"/>
<path d="M265.964 608.285C266.252 609.427 266.212 610.574 265.958 611.635L283.707 616.94C284.903 613.291 287.889 610.342 291.903 609.388C293.447 609.032 294.998 608.988 296.463 609.253L297.187 609.407C300.178 610.127 302.786 612.054 304.358 614.786L311.919 610.672C311.819 610.499 311.743 610.278 311.704 610.073C311.195 607.98 312.484 605.918 314.558 605.395C316.633 604.913 318.732 606.209 319.233 608.285C319.716 610.373 318.436 612.457 316.348 612.936C314.726 613.322 313.127 612.637 312.241 611.305L304.668 615.424C305.042 616.182 305.353 616.974 305.537 617.813C306.197 620.555 305.8 623.284 304.601 625.606L304.257 626.239C303.2 627.987 301.691 629.454 299.84 630.453L309.116 649.228C309.596 649.007 310.097 648.848 310.611 648.702C315.263 647.617 319.892 650.485 320.997 655.135C321.746 658.323 320.619 661.532 318.338 663.572L318.044 663.796C317.077 664.599 315.917 665.184 314.603 665.506C312.274 666.046 309.974 665.615 308.095 664.448L307.793 664.252C306.068 663.082 304.749 661.294 304.243 659.084C303.318 655.233 305.163 651.366 308.461 649.559L299.191 630.769C298.534 631.071 297.855 631.312 297.128 631.48C294.098 632.19 291.09 631.625 288.613 630.134L288.034 629.739C285.815 628.197 284.135 625.875 283.458 623.037C283.047 621.177 283.089 619.349 283.525 617.617L265.754 612.315C264.968 614.562 263.118 616.35 260.633 616.923C256.764 617.866 252.895 615.474 251.983 611.59C251.069 607.726 253.468 603.836 257.32 602.921C261.197 602.014 265.063 604.407 265.975 608.28L265.964 608.285Z" fill="white"/>
<path d="M280.794 564.309C281.554 563.092 282.734 562.277 284.028 561.922L278.493 534.038C276.452 534.374 274.328 534.074 272.385 533.047L270.076 537.34C270.076 537.34 270.104 537.329 270.115 537.34C271.493 538.196 271.921 540.009 271.074 541.411C270.21 542.796 268.384 543.222 267.009 542.346C265.622 541.506 265.186 539.682 266.058 538.311C266.833 537.004 268.474 536.565 269.821 537.205L272.114 532.902C272.005 532.851 271.859 532.782 271.753 532.72C269.039 531.03 267.434 528.229 267.163 525.277L267.129 524.681C267.07 522.834 267.551 520.954 268.574 519.277C268.751 518.975 268.963 518.676 269.198 518.404L254.647 506.269C252.872 508.18 249.937 508.639 247.667 507.223C245.067 505.611 244.242 502.189 245.878 499.581C247.474 496.967 250.893 496.161 253.498 497.773C256.115 499.393 256.92 502.813 255.307 505.41C255.203 505.563 255.117 505.684 255.033 505.813L269.564 517.94C271.06 516.275 273.044 515.203 275.136 514.823L275.745 514.722C277.861 514.462 280.045 514.904 281.996 516.107C284.506 517.66 286.08 520.181 286.488 522.923L306.65 520.385C306.577 519.392 306.798 518.393 307.354 517.484C308.783 515.15 311.833 514.431 314.153 515.875C316.473 517.31 317.183 520.363 315.763 522.666C314.335 524.994 311.279 525.705 308.959 524.278C307.731 523.525 306.949 522.311 306.708 520.996L286.583 523.525C286.765 525.559 286.315 527.669 285.177 529.55C283.754 531.853 281.509 533.347 279.063 533.92L284.624 561.813C285.823 561.631 287.1 561.877 288.199 562.551C290.735 564.135 291.526 567.457 289.955 569.975C288.4 572.527 285.074 573.308 282.544 571.746C280.019 570.174 279.217 566.861 280.785 564.314L280.794 564.309Z" fill="white"/>
<path d="M666.949 703.71C664.254 704.339 661.551 703.835 659.329 702.559L628.992 747.963C632.218 750.272 634.697 753.573 635.969 757.58L644.89 754.908C644.89 754.908 644.845 754.88 644.867 754.847C644.141 751.833 646.041 748.772 649.089 748.041C652.158 747.305 655.186 749.228 655.89 752.275C656.625 755.317 654.75 758.375 651.7 759.077C648.871 759.763 646.022 758.14 645.088 755.454L636.134 758.165C636.21 758.395 636.33 758.666 636.375 758.921C637.783 764.895 636.148 770.872 632.497 775.24L631.734 776.138C629.31 778.696 626.118 780.601 622.447 781.488C621.776 781.642 621.1 781.768 620.432 781.832L623.722 818.091C628.712 817.921 633.316 821.267 634.488 826.287C635.841 832.012 632.304 837.785 626.548 839.125C620.843 840.488 615.109 836.932 613.761 831.201C612.408 825.448 615.928 819.714 621.656 818.385C621.972 818.318 622.265 818.254 622.556 818.209L619.271 781.967C614.972 782.191 610.857 780.965 607.477 778.628L606.507 777.94C603.312 775.419 600.922 771.846 599.921 767.556C598.596 762.021 599.901 756.483 603.052 752.205L572.239 728.247C570.987 729.657 569.304 730.749 567.319 731.199C562.212 732.427 557.096 729.274 555.913 724.162C554.697 719.038 557.884 713.937 562.944 712.742C568.043 711.531 573.137 714.704 574.356 719.794C574.993 722.499 574.406 725.208 572.952 727.315L603.737 751.259C606.255 748.24 609.728 745.971 613.815 744.977C618.886 743.791 623.965 744.793 628.041 747.353L658.347 701.913C656.486 700.511 655.082 698.46 654.481 696.017C653.192 690.441 656.623 684.855 662.191 683.549C667.76 682.214 673.345 685.675 674.654 691.235C675.968 696.806 672.549 702.378 666.949 703.723L666.949 703.71Z" fill="white"/>
<path d="M385.528 822.885C383.924 817.034 387.332 810.987 393.185 809.355C394.905 808.86 396.66 808.832 398.304 809.173L405.301 781.768C399.685 780.176 395.005 775.785 393.314 769.741C392.668 767.394 392.548 765.018 392.85 762.754L344.501 754.676C343.668 758.563 340.752 761.884 336.651 763.014C330.778 764.621 324.661 761.198 323.026 755.277C321.391 749.387 324.849 743.284 330.742 741.633C336.621 740.008 342.718 743.472 344.373 749.356C344.761 750.784 344.848 752.213 344.688 753.585L393.04 761.663C393.979 757.051 396.761 752.938 400.817 750.411L394.113 739.129C393.823 739.269 393.51 739.409 393.185 739.493C390.04 740.366 386.82 738.519 385.906 735.385C385.056 732.237 386.884 728.974 390.024 728.096C393.171 727.231 396.425 729.067 397.3 732.226C397.98 734.677 397.007 737.148 395.05 738.569L401.756 749.896C402.891 749.272 404.077 748.76 405.363 748.425C409.486 747.263 413.665 747.722 417.291 749.404L447.402 687.41C447.114 687.237 446.826 687.091 446.563 686.881C444.112 685.051 442.683 682.359 442.381 679.541L399.179 683.823C399.246 685.384 398.816 686.971 397.79 688.317C395.517 691.361 391.184 692.013 388.134 689.713C385.783 687.942 384.874 684.978 385.612 682.309L385.707 682.001C385.942 681.315 386.292 680.65 386.742 680.028C389.034 676.967 393.35 676.34 396.409 678.632C397.938 679.779 398.844 681.422 399.104 683.182L442.331 678.903C442.216 676.595 442.876 674.214 444.324 672.199L396.079 636.169C393.694 639.102 389.409 639.656 386.348 637.37C383.217 635.017 382.582 630.562 384.927 627.431C386.482 625.377 388.917 624.383 391.307 624.621L391.603 624.66C392.744 624.82 393.867 625.262 394.868 625.998C397.899 628.281 398.575 632.548 396.476 635.663L444.715 671.692C446.527 669.476 449.082 668.175 451.715 667.887L452.062 667.848C453.563 667.705 455.112 667.949 456.568 668.511L504.652 569.542C501.831 568.134 499.351 566.097 497.459 563.514L442.49 601.147C442.8 601.679 443.063 602.283 443.245 602.938C444.374 606.987 441.979 611.207 437.914 612.337C433.869 613.451 429.667 611.098 428.538 607.023C427.428 602.952 429.773 598.755 433.838 597.616C436.888 596.768 440.005 597.918 441.864 600.224L496.824 562.627C495.751 560.971 494.934 559.169 494.37 557.196C493.537 554.095 493.478 551.034 494.057 548.121L398.516 527.149C397.454 531.184 394.323 534.589 389.998 535.77C385.903 536.926 381.682 535.818 378.674 533.201L347.249 567.546C348.155 568.442 348.826 569.544 349.195 570.845C349.723 572.701 349.446 574.598 348.641 576.215L363.508 584.624C364.193 583.552 365.238 582.713 366.561 582.343C369.37 581.554 372.278 583.214 373.083 586.023C373.849 588.86 372.219 591.779 369.376 592.565C366.572 593.343 363.648 591.695 362.862 588.891C362.49 587.551 362.697 586.227 363.237 585.097L348.353 576.677C347.42 578.21 345.919 579.411 344.068 579.931C343.081 580.211 342.108 580.261 341.163 580.141L340.627 580.057C337.976 579.525 335.729 577.57 334.952 574.802C333.867 570.862 336.17 566.777 340.107 565.702C342.555 564.992 345.077 565.644 346.872 567.169L378.274 532.824C376.745 531.346 375.571 529.471 374.953 527.264C373.147 520.752 376.952 514.003 383.457 512.192C389.973 510.371 396.711 514.216 398.502 520.693C399.008 522.509 399.104 524.337 398.779 526.072L494.297 547.05C495.966 540.46 501.029 534.911 508.051 532.963C508.065 532.938 508.093 532.955 508.104 532.963L481.32 436.412C481.32 436.412 481.278 436.412 481.264 436.431C474.485 438.303 467.566 436.076 463.102 431.235L439.189 451.181C440.153 452.412 440.872 453.828 441.302 455.42C443.167 462.066 439.256 468.966 432.616 470.824C425.955 472.682 419.072 468.784 417.244 462.096C415.399 455.453 419.27 448.553 425.918 446.72C430.623 445.388 435.415 446.969 438.495 450.358L462.366 430.393C460.843 428.532 459.658 426.313 458.953 423.792C457.522 418.626 458.497 413.377 461.201 409.171L376.857 351.632C374.612 354.704 371.363 357.069 367.408 358.166C362.298 359.624 357.087 358.597 352.991 355.832L331.765 385.451C333.132 386.59 334.197 388.115 334.7 389.942C336.02 394.668 333.266 399.573 328.55 400.869C323.834 402.176 318.97 399.414 317.647 394.699C316.333 389.976 319.101 385.11 323.814 383.792C326.308 383.106 328.857 383.545 330.865 384.813L352.091 355.216C349.175 352.967 346.942 349.808 345.871 346.002C344.565 341.318 345.309 336.538 347.546 332.635L348.11 331.709C350.157 328.625 353.125 326.194 356.827 324.862L353.998 316.632C353.978 316.615 353.967 316.652 353.939 316.641C351.143 317.432 348.222 315.753 347.442 312.953C346.662 310.135 348.311 307.197 351.127 306.441C353.939 305.649 356.863 307.289 357.629 310.118C358.367 312.737 356.978 315.432 354.492 316.425L357.321 324.685C357.567 324.604 357.802 324.503 358.051 324.431C363.572 322.897 369.194 324.212 373.413 327.453L374.274 328.158C376.742 330.34 378.637 333.245 379.571 336.622C379.761 337.246 379.898 337.879 379.993 338.503L413.679 334.104C413.333 329.453 416.268 325.055 420.928 323.762C426.209 322.304 431.711 325.393 433.173 330.707C434.649 335.996 431.554 341.466 426.259 342.938C420.965 344.421 415.477 341.318 414.009 336.026C413.939 335.747 413.881 335.472 413.822 335.193L380.122 339.577C380.53 343.59 379.512 347.477 377.461 350.706L461.802 408.281C464.111 405.083 467.463 402.615 471.558 401.485C476.601 400.077 481.742 400.947 485.871 403.491L525.227 340.411C523.027 338.895 521.319 336.622 520.581 333.841C518.819 327.559 522.498 321.022 528.783 319.282C533.616 317.942 538.601 319.814 541.399 323.602L541.729 324.042C542.43 325.063 542.978 326.238 543.35 327.512C545.081 333.807 541.418 340.319 535.143 342.082C531.981 342.963 528.802 342.471 526.166 340.99L486.794 404.084C490.042 406.334 492.586 409.717 493.788 413.791L592.937 386.011C591.489 379.703 595.213 373.307 601.503 371.566C607.949 369.775 614.639 373.542 616.453 380.014C617.6 384.27 616.389 388.582 613.56 391.571L632.234 409.977C632.83 409.426 633.551 408.998 634.37 408.777C637.182 407.971 640.12 409.641 640.909 412.462C641.675 415.285 640.017 418.193 637.221 418.999C634.387 419.76 631.468 418.112 630.702 415.288C630.182 413.481 630.683 411.645 631.862 410.369L613.202 391.99C611.807 393.342 610.024 394.408 608 394.984C601.732 396.717 595.246 393.18 593.253 387.066L494.057 414.849C495.164 419.634 494.272 424.447 491.89 428.367L501.518 434.442C502.192 433.482 503.17 432.721 504.389 432.346C507.218 431.61 510.136 433.241 510.919 436.059C511.708 438.891 510.022 441.795 507.221 442.568C504.392 443.368 501.495 441.717 500.693 438.897C500.316 437.506 500.52 436.059 501.191 434.889L491.591 428.837C489.486 432.1 486.274 434.702 482.368 436.065L509.183 532.723C516.287 531.181 523.418 533.733 527.997 538.885L549.143 520.99C548.005 519.552 547.127 517.848 546.599 515.95C544.463 508.297 548.969 500.376 556.626 498.229C560.543 497.138 564.526 497.799 567.806 499.727L588.084 466.934C587.167 466.277 586.441 465.345 586.108 464.161C585.37 461.453 586.927 458.66 589.63 457.907C592.328 457.169 595.118 458.73 595.864 461.428C596.608 464.133 595.028 466.94 592.334 467.673C591.008 468.054 589.664 467.861 588.537 467.242L568.258 500.026C571.118 501.881 573.352 504.719 574.322 508.247C575.499 512.475 574.657 516.756 572.396 520.128L591.746 533.677C592.35 532.916 593.217 532.292 594.251 531.993C596.846 531.265 599.543 532.801 600.248 535.39C600.961 537.986 599.457 540.664 596.871 541.389C594.271 542.111 591.587 540.6 590.874 537.986C590.491 536.64 590.737 535.244 591.447 534.133L572.083 520.584C570.235 523.108 567.565 525.081 564.317 525.993C558.921 527.476 553.409 525.694 549.841 521.821L528.727 539.73C530.298 541.705 531.517 544.053 532.241 546.641C534.2 553.782 532.006 561.038 527.128 565.87L586.253 630.52C587.422 629.546 588.775 628.807 590.293 628.385C596.13 626.795 602.14 630.184 603.75 636.01C605.386 641.827 601.947 647.849 596.155 649.458C590.346 651.07 584.305 647.687 582.7 641.836C581.621 637.943 582.795 633.948 585.454 631.236L526.331 566.606C524.151 568.545 521.542 570.045 518.559 570.859C514.109 572.096 509.589 571.696 505.636 570L457.586 668.939C457.961 669.115 458.344 669.3 458.696 669.529L459.233 669.91C459.233 669.91 459.238 669.921 459.266 669.921C462.548 672.386 463.971 676.402 463.336 680.191L481.077 684.158C481.323 683.277 481.712 682.426 482.296 681.657C484.708 678.405 489.276 677.759 492.508 680.179C495.745 682.603 496.396 687.183 493.97 690.412C491.557 693.65 486.978 694.31 483.766 691.873C481.479 690.194 480.487 687.404 480.946 684.766L463.219 680.823C462.886 682.203 462.283 683.554 461.377 684.766C459.493 687.276 456.728 688.7 453.818 688.946L453.189 688.999C451.537 689.044 449.884 688.694 448.352 687.964L418.25 749.896C421.007 751.388 423.321 753.629 424.926 756.394L452.982 741.133C452.621 740.397 452.322 739.644 452.118 738.855C450.167 731.848 454.268 724.609 461.265 722.636C466.079 721.316 471.024 722.838 474.267 726.218L513.133 690.357C512.692 689.825 512.328 689.198 512.149 688.479C511.4 685.767 512.98 682.958 515.702 682.217C518.406 681.43 521.207 683.048 521.962 685.753C522.722 688.482 521.117 691.274 518.414 692.041C516.603 692.542 514.771 691.988 513.511 690.773L474.616 726.632C475.88 728.076 476.884 729.828 477.429 731.801C478.404 735.304 477.882 738.863 476.216 741.807L501.431 756.76C502.337 755.395 503.656 754.343 505.334 753.859C508.993 752.865 512.756 755.02 513.779 758.652C514.805 762.29 512.658 766.062 509.01 767.075C505.364 768.096 501.596 765.947 500.579 762.329C500.059 760.532 500.349 758.725 501.16 757.225L475.922 742.249C474.245 744.963 471.592 747.079 468.282 748.005C462.45 749.617 456.468 747.065 453.524 742.109L425.46 757.387C425.952 758.364 426.374 759.374 426.653 760.502C427.934 765.06 427.243 769.697 425.113 773.536L424.548 774.47C422.348 777.94 418.893 780.629 414.608 781.818C411.832 782.579 409.014 782.616 406.358 782.039L399.358 809.467C402.791 810.553 405.653 813.276 406.682 817.025C408.304 822.871 404.907 828.926 399.042 830.538C393.202 832.175 387.161 828.741 385.526 822.907L385.528 822.885Z" fill="white"/>
<path d="M645.625 603.036C643.833 604.091 641.529 603.486 640.481 601.698C639.433 599.907 640.006 597.602 641.82 596.538C641.94 596.48 642.072 596.463 642.203 596.385L639.419 589.327C635.983 590.573 632.05 589.252 630.115 585.984C628.958 584.045 628.776 581.809 629.405 579.828L614.782 574.906C614.385 575.963 613.638 576.898 612.584 577.519C610.147 578.955 607.004 578.137 605.573 575.711C604.131 573.263 604.955 570.14 607.401 568.699C609.82 567.269 612.967 568.075 614.401 570.512C615.151 571.797 615.271 573.252 614.877 574.561L629.509 579.447C630.087 577.804 631.233 576.363 632.869 575.412C635.86 573.649 639.581 574.156 642.021 576.403L672.356 546.641C671.609 545.835 670.933 544.956 670.351 543.974C668.224 540.317 667.793 536.111 668.836 532.331L669.057 531.637C669.971 528.878 671.66 526.396 674.039 524.524L669.227 518.057C669.158 518.116 669.085 518.164 669.009 518.203C666.356 519.759 662.926 518.874 661.361 516.211C659.798 513.538 660.684 510.122 663.332 508.544C666.007 506.974 669.448 507.858 670.997 510.53C672.384 512.903 671.827 515.88 669.806 517.624L674.637 524.079C674.989 523.808 675.339 523.589 675.694 523.363C678.816 521.547 682.313 520.965 685.598 521.466L693.806 475.027C691.567 474.506 689.545 473.13 688.273 471C685.883 466.912 687.247 461.677 691.326 459.295C695.382 456.903 700.638 458.257 703.023 462.323C705.418 466.411 704.054 471.638 699.973 474.045C698.273 475.052 696.347 475.382 694.533 475.147L686.336 521.608C690.373 522.439 694.069 524.891 696.299 528.735C696.998 529.93 697.507 531.206 697.851 532.493L730.173 524.768C729.242 520.156 731.23 515.245 735.51 512.73C740.899 509.554 747.849 511.353 751.019 516.776C754.184 522.16 752.369 529.093 746.982 532.267C741.598 535.437 734.668 533.624 731.481 528.24C730.972 527.353 730.609 526.424 730.341 525.498L698.027 533.215C698.561 535.762 698.393 538.364 697.652 540.812L697.404 541.498C696.252 544.674 694.077 547.489 690.94 549.33C689.596 550.141 688.156 550.687 686.716 551.029L685.967 551.168C681.251 552.008 676.359 550.528 672.867 547.164L642.533 576.943C642.866 577.309 643.168 577.709 643.433 578.171C645.586 581.851 644.353 586.588 640.666 588.743C640.372 588.905 640.067 589.062 639.76 589.182L642.533 596.236C644.171 595.665 646.047 596.331 646.978 597.901C648.004 599.692 647.422 601.995 645.625 603.033L645.625 603.036Z" fill="white"/>
<path d="M452.141 819.692C452.845 816.933 455.657 815.288 458.408 815.996C461.142 816.704 462.797 819.516 462.079 822.269C462.028 822.459 461.925 822.591 461.863 822.79L471.379 826.917C473.473 822.398 478.558 819.863 483.59 821.156C486.57 821.911 488.907 823.892 490.216 826.427L509.083 817.042C508.443 815.646 508.272 814.003 508.677 812.386C509.656 808.653 513.472 806.401 517.193 807.36C520.941 808.343 523.169 812.145 522.213 815.895C521.257 819.622 517.427 821.88 513.684 820.909C511.736 820.4 510.207 819.104 509.301 817.473L490.476 826.883C491.502 829.03 491.781 831.537 491.11 834.024C489.919 838.633 485.849 841.742 481.318 841.921L480.753 900.006C482.248 900.07 483.75 900.269 485.24 900.652C490.85 902.118 495.298 905.776 497.951 910.438L498.409 911.325C500.185 914.862 500.959 918.891 500.473 923.01L511.35 924.602C511.361 924.473 511.389 924.361 511.42 924.266C512.485 920.172 516.65 917.71 520.737 918.776C524.827 919.848 527.268 924.006 526.222 928.097C525.143 932.194 520.967 934.65 516.896 933.576C513.271 932.636 510.922 929.216 511.207 925.595L500.319 924.023C500.238 924.61 500.123 925.17 499.975 925.732C498.714 930.506 495.907 934.446 492.237 937.124L529.135 989.937C531.785 988.247 535.09 987.615 538.358 988.468C544.611 990.099 548.346 996.488 546.722 1002.72C545.1 1008.98 538.729 1012.73 532.476 1011.1C526.225 1009.48 522.504 1003.1 524.1 996.837C524.785 994.213 526.334 992.044 528.319 990.516L491.393 937.689C486.699 940.798 480.772 941.993 474.888 940.457C473.051 939.978 471.346 939.237 469.766 938.316L445.996 977.046C451.375 980.591 454.17 987.248 452.459 993.835C450.321 1002.1 441.884 1007.08 433.584 1004.92C425.323 1002.77 420.383 994.311 422.522 986.059C424.66 977.765 433.109 972.823 441.375 974.947C442.725 975.314 443.978 975.854 445.132 976.514L468.9 937.804C465.928 935.856 463.583 933.17 461.945 930.098L461.494 929.191C459.557 925.002 458.953 920.181 460.197 915.393C460.726 913.295 461.578 911.378 462.643 909.646L463.228 908.801C466.968 903.442 473.132 900.115 479.749 899.983L480.294 841.89C479.623 841.873 478.95 841.756 478.254 841.582C472.623 840.116 469.241 834.355 470.72 828.702C470.857 828.26 470.996 827.815 471.164 827.39L461.699 823.246C460.664 825.381 458.204 826.567 455.797 825.957C453.063 825.218 451.408 822.42 452.138 819.686L452.141 819.692Z" fill="white"/>
</g>
<path d="M739.728 -171.253C738.822 -163.594 731.892 -158.13 724.235 -159.036C721.49 -159.347 719.016 -160.472 717.031 -162.114L643.917 -80.4013C645.756 -78.5237 646.765 -75.8654 646.438 -73.0337C646.237 -71.3156 645.535 -69.7514 644.529 -68.4754L685.031 -31.542C687.955 -34.4801 692.126 -36.0975 696.556 -35.5714C702.338 -34.8999 706.878 -30.7669 708.37 -25.4755L771.208 -40.2192C771.077 -41.0363 771.038 -41.8813 771.141 -42.732C771.737 -47.682 776.196 -51.2077 781.133 -50.6229C786.067 -50.0381 789.595 -45.5582 789.024 -40.6473C788.434 -35.7029 783.964 -32.1828 779.025 -32.748C775.379 -33.1902 772.503 -35.7505 771.482 -39.0552L708.642 -24.3255C708.907 -22.9488 708.969 -21.5329 708.798 -20.0918C707.887 -12.4331 700.962 -6.95706 693.311 -7.85808C691.852 -8.03157 690.462 -8.43451 689.176 -9.01092L662.23 44.3227C666.614 46.7459 669.703 51.0691 670.516 56.0639L752.708 45.733C752.663 45.1286 752.682 44.513 752.755 43.9114C753.401 38.4101 758.377 34.4758 763.876 35.1222C769.375 35.7686 773.311 40.7522 772.67 46.2478C772.363 48.7858 771.141 51.0076 769.352 52.5746L788.557 78.4215C789.692 77.6632 791.068 77.2798 792.516 77.4505C795.748 77.8255 798.079 80.7636 797.696 84.0123C797.313 87.2554 794.386 89.5667 791.138 89.175C787.895 88.8 785.572 85.8591 785.958 82.6244C786.142 81.0434 786.95 79.7031 788.068 78.7601L768.899 52.9607C766.875 54.5473 764.27 55.3588 761.541 55.0426C757.066 54.5109 753.644 51.1279 752.859 46.9334L670.684 57.2448C670.779 58.3612 670.771 59.4805 670.631 60.6278C670.002 65.9472 666.915 70.3459 662.633 72.8643L675.159 96.0278C676.991 95.1463 679.076 94.7658 681.251 95.012C687.387 95.7423 691.779 101.297 691.069 107.444C690.339 113.586 684.79 117.971 678.634 117.249C672.518 116.525 668.115 110.967 668.833 104.822C669.244 101.269 671.288 98.3139 674.108 96.5958L661.587 73.4379C658.834 74.809 655.666 75.4247 652.387 75.0413C647.076 74.4005 642.65 71.2917 640.129 66.9965L556.028 112.252C557.638 115.45 558.348 119.132 557.909 122.963C557.828 123.654 557.716 124.334 557.543 125.003L593.27 134.447C594.824 129.626 599.605 126.419 604.807 127.035C610.731 127.731 614.991 133.115 614.301 139.047C613.602 144.988 608.24 149.213 602.291 148.522C596.359 147.82 592.115 142.441 592.811 136.515C592.837 136.204 592.895 135.908 592.971 135.603L557.233 126.159C556.011 130.328 553.403 133.831 550.003 136.249L611.242 228.816C614.885 226.547 619.285 225.453 623.884 225.99C629.511 226.673 634.308 229.661 637.428 233.923L702.967 186.701C701.376 184.272 700.599 181.297 700.954 178.191C701.787 171.129 708.164 166.1 715.225 166.928C720.634 167.569 724.844 171.495 726.15 176.459L790.078 161.478C789.978 160.957 789.944 160.445 789.997 159.905C790.363 156.953 793.025 154.846 795.968 155.182C798.932 155.529 801.04 158.209 800.696 161.167C800.335 164.113 797.674 166.237 794.73 165.876C792.505 165.616 790.769 164.052 790.193 162.062L726.284 177.044C726.558 178.373 726.639 179.764 726.485 181.194C725.65 188.245 719.276 193.296 712.217 192.459C708.706 192.028 705.701 190.232 703.657 187.666L638.113 234.883C640.473 238.495 641.627 242.916 641.163 247.53L752.378 260.416C753.499 253.474 759.889 248.591 766.934 249.422C774.16 250.262 779.341 256.835 778.505 264.068C777.934 268.811 774.918 272.642 770.853 274.522L782.091 300.679C782.919 300.377 783.819 300.232 784.744 300.352C787.903 300.719 790.171 303.581 789.793 306.743C789.419 309.897 786.561 312.149 783.417 311.783C780.244 311.405 777.99 308.551 778.354 305.386C778.589 303.38 779.849 301.74 781.532 300.903L770.317 274.763C768.343 275.563 766.126 275.879 763.862 275.627C756.834 274.796 751.763 268.573 752.252 261.6L641.001 248.711C640.165 253.98 637.291 258.452 633.271 261.41L640.467 271.469C641.552 270.781 642.852 270.425 644.233 270.582C647.383 270.957 649.645 273.814 649.27 276.982C648.895 280.141 646.055 282.393 642.891 282.018C639.726 281.646 637.465 278.784 637.836 275.636C638.018 274.057 638.826 272.703 639.98 271.791L632.799 261.765C629.313 264.169 625.033 265.456 620.529 265.24L607.849 373.435C615.629 374.832 621.776 380.297 624.25 387.398L652.882 378.094C652.331 376.166 652.147 374.104 652.393 371.989C653.402 363.418 661.182 357.279 669.747 358.289C674.159 358.815 677.919 361.115 680.398 364.403L714.294 339.798C713.609 338.755 713.282 337.495 713.408 336.172C713.777 333.147 716.508 330.984 719.536 331.342C722.561 331.703 724.721 334.428 724.369 337.456C724.003 340.47 721.277 342.636 718.247 342.291C716.763 342.104 715.496 341.36 714.632 340.28L680.739 364.895C682.856 367.923 683.935 371.695 683.476 375.66C682.906 380.383 680.303 384.343 676.65 386.805L690.566 408.396C691.511 407.87 692.612 407.59 693.772 407.736C696.682 408.077 698.751 410.707 698.413 413.606C698.077 416.508 695.447 418.581 692.542 418.251C689.632 417.901 687.577 415.271 687.916 412.364C688.086 410.833 688.908 409.56 690.06 408.732L676.152 387.135C673.256 388.912 669.761 389.794 666.102 389.357C660.055 388.666 655.23 384.567 653.256 379.216L624.644 388.534C625.405 391.184 625.684 394.03 625.329 396.94C624.404 404.896 619.207 411.309 612.313 414.172L611.192 414.577C608.212 415.618 604.986 416.041 601.631 415.663C596.655 415.084 592.255 412.8 588.97 409.479L427.151 554.403C429.309 557.019 430.724 560.221 431.202 563.674L465.713 559.865C465.659 558.987 465.679 558.097 465.771 557.201C466.694 549.364 473.789 543.759 481.647 544.679C487.031 545.32 491.376 548.893 493.26 553.625L547.113 533.579C546.878 532.857 546.797 532.076 546.886 531.284C547.255 528.248 549.987 526.074 553.028 526.424C556.073 526.796 558.245 529.544 557.898 532.586C557.535 535.624 554.778 537.787 551.748 537.426C549.718 537.208 548.097 535.882 547.331 534.13L493.453 554.179C494.149 556.158 494.431 558.318 494.168 560.548C493.699 564.463 491.697 567.823 488.843 570.098L508.084 595.509C509.521 594.507 511.313 594.006 513.203 594.216C517.279 594.703 520.209 598.405 519.722 602.496C519.244 606.564 515.549 609.502 511.464 609.013C507.383 608.531 504.464 604.821 504.939 600.752C505.177 598.757 506.178 597.045 507.604 595.872L488.348 570.442C485.561 572.474 482.022 573.515 478.306 573.067C471.776 572.3 466.806 567.241 465.847 561.035L431.344 564.849C431.451 566.044 431.417 567.261 431.283 568.478C430.679 573.588 428.079 577.975 424.358 580.95L515.75 705.984C519.566 703.357 524.136 701.801 529.006 701.731L529.082 688.798C528.948 688.792 528.813 688.789 528.685 688.772C523.759 688.188 520.228 683.725 520.799 678.803C521.383 673.872 525.842 670.344 530.77 670.928C535.688 671.51 539.224 675.962 538.64 680.893C538.122 685.289 534.522 688.557 530.278 688.8L530.203 701.739C530.885 701.753 531.564 701.787 532.263 701.868C537.988 702.545 543.015 705.192 546.766 709.048L602.224 657.575C599.853 654.774 598.579 651.03 599.026 647.091C599.921 639.563 606.733 634.171 614.27 635.058C621.793 635.937 627.191 642.781 626.302 650.308C625.43 657.83 618.611 663.219 611.075 662.332C607.91 661.952 605.14 660.53 603.043 658.437L547.557 709.93C551.932 714.891 554.267 721.612 553.436 728.689C553.19 730.927 552.581 733.043 551.767 735.035L600.631 756.472C603.89 749.653 611.206 745.335 619.126 746.27C629.097 747.442 636.243 756.472 635.063 766.445C633.883 776.418 624.871 783.539 614.896 782.383C604.936 781.191 597.801 772.156 598.97 762.189C599.152 760.56 599.579 759.021 600.161 757.566L551.303 736.135C547.004 745.274 537.228 751.1 526.622 749.854C524.128 749.555 521.746 748.889 519.557 747.907L518.501 747.361C511.635 743.872 506.785 737.251 505.596 729.562L437.917 738.222C437.986 739.017 437.975 739.828 437.872 740.662C437.081 747.453 430.919 752.32 424.112 751.514C423.564 751.452 423.028 751.332 422.516 751.197L419.22 762.9C421.876 763.787 423.645 766.431 423.302 769.324C422.907 772.643 419.911 774.993 416.589 774.604C413.296 774.221 410.92 771.221 411.311 767.908C411.7 764.601 414.694 762.228 418.012 762.614C418.228 762.653 418.423 762.715 418.65 762.754L421.926 751.044C416.321 749.317 412.55 743.796 413.252 737.747C413.668 734.151 415.605 731.118 418.328 729.156L404.328 708.696C402.782 709.669 400.923 710.154 398.986 709.916C394.477 709.401 391.248 705.313 391.79 700.805C392.316 696.291 396.392 693.084 400.901 693.594C405.407 694.151 408.619 698.225 408.116 702.733C407.825 705.075 406.576 707.064 404.82 708.357L418.801 728.812C421.152 727.29 424.012 726.537 427.003 726.895C432.577 727.547 436.832 731.809 437.766 737.055L505.437 728.384C505.258 726.641 505.225 724.844 505.454 723.042C506.256 716.29 509.756 710.526 514.766 706.687L423.391 581.68C419.743 584.263 415.178 585.536 410.395 584.979C407.275 584.604 404.415 583.482 401.969 581.814L383.669 606.497C386.688 608.993 388.424 612.933 387.941 617.102C387.18 623.642 381.246 628.331 374.704 627.554C368.165 626.795 363.474 620.852 364.249 614.313C365.017 607.762 370.944 603.083 377.48 603.847C379.426 604.099 381.184 604.779 382.716 605.789L401.024 581.106C396.02 577.2 393.104 570.854 393.89 564.088C394.206 561.443 395.036 559.017 396.286 556.846L350.939 528.864C348.515 532.418 344.224 534.533 339.634 533.993C333.028 533.215 328.295 527.235 329.086 520.623C329.852 514.031 335.832 509.307 342.444 510.088C349.041 510.874 353.768 516.851 352.983 523.449C352.793 525.044 352.309 526.522 351.565 527.848L396.92 555.855C399.772 551.597 404.267 548.639 409.377 547.752L407.28 533.646C406.906 533.669 406.562 533.671 406.187 533.618C402.654 533.207 400.141 530.028 400.549 526.48C400.974 522.968 404.144 520.458 407.683 520.867C411.202 521.292 413.718 524.471 413.296 527.997C412.986 530.733 410.993 532.837 408.457 533.464L410.551 547.581C411.938 547.447 413.341 547.424 414.775 547.592C419.402 548.138 423.425 550.332 426.368 553.494L588.162 408.592C585.898 406.04 584.26 402.959 583.416 399.584L512.613 414.79C512.691 415.484 512.717 416.195 512.641 416.919C512.11 421.475 507.975 424.718 503.433 424.183C498.873 423.657 495.622 419.527 496.139 414.969C496.69 410.427 500.813 407.17 505.364 407.702C508.786 408.102 511.456 410.528 512.359 413.634L583.139 398.434C582.739 396.35 582.644 394.164 582.915 391.957C583.312 388.512 584.52 385.409 586.301 382.711L498.767 322.298C496.022 325.925 491.487 328.043 486.643 327.472C482.016 326.929 478.242 324.084 476.296 320.225L430.567 341.83C431.115 343.083 431.339 344.468 431.174 345.935C430.922 348.022 429.888 349.819 428.398 351.089L439.929 365.684C441.048 364.892 442.434 364.478 443.919 364.646C447.069 365.027 449.328 367.881 448.962 371.054C448.587 374.21 445.733 376.469 442.571 376.096C439.412 375.713 437.162 372.859 437.528 369.697C437.704 368.22 438.434 366.963 439.468 366.048L427.934 351.464C426.351 352.614 424.355 353.204 422.262 352.961C421.163 352.841 420.171 352.491 419.265 351.976L388.164 402.802C389.674 403.843 390.588 405.657 390.353 407.635C390.029 410.472 387.46 412.501 384.62 412.157C381.785 411.821 379.753 409.247 380.094 406.42C380.429 403.569 382.99 401.546 385.83 401.89C386.484 401.952 387.105 402.176 387.658 402.469L418.756 351.668C416.315 350.042 414.851 347.155 415.222 344.043C415.726 339.628 419.723 336.491 424.126 337.011C426.877 337.322 429.136 339.009 430.332 341.276L476.056 319.676C475.12 317.558 474.689 315.18 474.991 312.712C475.838 305.425 482.441 300.201 489.74 301.06C497.028 301.916 502.259 308.534 501.384 315.837C501.166 317.852 500.458 319.699 499.452 321.327L586.986 381.738C591.377 375.811 598.752 372.302 606.619 373.239C606.619 373.239 606.658 373.239 606.677 373.239L619.347 265.162C619.322 265.142 619.302 265.142 619.285 265.142C611.701 264.244 605.637 259.143 603.135 252.439L570.897 262.66C571.314 264.272 571.468 266.004 571.272 267.781C570.4 275.233 563.64 280.56 556.193 279.682C548.731 278.806 543.406 272.057 544.287 264.594C545.159 257.145 551.902 251.829 559.357 252.702C564.619 253.326 568.812 256.862 570.528 261.521L602.741 251.319C601.981 248.776 601.682 246.07 602.006 243.26C602.685 237.471 605.827 232.585 610.261 229.468L549.014 136.89C545.489 139.078 541.242 140.139 536.797 139.624C531.086 138.952 526.247 135.759 523.259 131.324L489.729 152.372C490.66 154.048 491.09 156.043 490.842 158.092C490.241 163.372 485.441 167.147 480.174 166.514C474.89 165.91 471.122 161.119 471.729 155.839C472.349 150.567 477.118 146.793 482.41 147.411C485.206 147.736 487.579 149.233 489.106 151.371L522.627 130.311C520.6 126.881 519.638 122.779 520.128 118.506C520.74 113.265 523.443 108.771 527.301 105.76L494.512 61.0587C492.513 62.3459 490.095 62.9867 487.551 62.6816C481.779 62.0017 477.661 56.7607 478.334 51.002C479.005 45.2349 484.233 41.1048 490.006 41.7959C495.77 42.4591 499.902 47.6945 499.211 53.4728C498.89 56.2766 497.47 58.6886 495.477 60.3452L528.257 105.058C531.573 102.797 535.584 101.56 539.822 101.747L540.359 92.3062C540.359 92.3062 540.339 92.3118 540.328 92.3006C537.155 91.9424 534.913 89.0687 535.271 85.9207C535.646 82.7559 538.505 80.4922 541.67 80.8755C544.829 81.2505 547.091 84.0879 546.705 87.261C546.369 90.1991 543.856 92.3425 540.952 92.3174L540.415 101.781C540.683 101.806 540.96 101.8 541.231 101.837C547.415 102.576 552.556 106.199 555.474 111.214L639.575 65.9499C638.228 63.2105 637.604 60.0542 637.973 56.7803C638.239 54.5585 638.932 52.4794 639.969 50.6438L593.566 22.2757C591.143 25.8098 586.902 27.9001 582.376 27.3712C575.857 26.6101 571.202 20.6947 571.962 14.2029C572.723 7.6859 578.621 3.0269 585.132 3.79921C591.649 4.55751 596.317 10.4589 595.543 16.9815C595.369 18.5233 594.88 19.9644 594.17 21.2516L640.615 49.6337C643.919 44.6333 649.843 41.6336 656.22 42.3807C657.989 42.5822 659.644 43.0775 661.168 43.777L688.122 -9.54539C683.336 -12.2121 680.393 -17.5734 681.083 -23.3377C681.388 -26.1611 682.548 -28.6431 684.237 -30.6662L643.735 -67.5884C641.865 -65.7835 639.209 -64.8154 636.419 -65.126C631.474 -65.7164 627.937 -70.2075 628.508 -75.1603C629.103 -80.0963 633.579 -83.6304 638.535 -83.0456C640.227 -82.8637 641.764 -82.1754 643.025 -81.182L716.131 -162.906C713.148 -165.83 711.49 -170.047 712.005 -174.519C712.902 -182.158 719.84 -187.648 727.492 -186.741C735.138 -185.835 740.628 -178.915 739.728 -171.25L739.728 -171.253Z" fill="white"/>
<path d="M528.665 807.995C529.202 809.702 530.393 811.023 531.85 811.795L527.27 823.044C523.536 821.553 519.292 821.284 515.146 822.594C508.222 824.771 503.559 830.728 502.664 837.505L502.541 838.655C502.39 840.843 502.631 843.099 503.327 845.312C506.326 854.882 516.482 860.193 526.012 857.185C526.804 856.944 527.547 856.648 528.271 856.303L576.628 961.849C571.021 964.725 568.138 971.301 570.09 977.507C572.27 984.447 579.65 988.306 586.572 986.131C593.513 983.957 597.349 976.562 595.182 969.633C593.005 962.685 585.622 958.818 578.689 960.995C578.345 961.11 578.021 961.225 577.674 961.384L529.308 855.794C536.728 851.728 540.507 842.861 537.868 834.466C536.292 829.46 532.73 825.621 528.319 823.531L532.92 812.235C534.106 812.593 535.419 812.629 536.717 812.223C540.102 811.157 541.961 807.551 540.896 804.151C539.842 800.779 536.247 798.896 532.862 799.967C529.496 801.017 527.606 804.632 528.66 808.001L528.665 807.995Z" fill="white"/>
<path d="M671.123 502.485C670.868 502.955 670.628 503.431 670.432 503.94C668.473 508.776 668.998 513.986 671.408 518.166L658.635 526.564C657.246 524.863 654.906 524.113 652.706 524.812C649.796 525.75 648.219 528.858 649.153 531.752C650.098 534.634 653.198 536.234 656.094 535.294C658.999 534.357 660.567 531.259 659.633 528.355C659.538 528.08 659.412 527.803 659.278 527.554L672.017 519.196C673.773 521.796 676.289 523.925 679.414 525.195C681.838 526.18 684.354 526.525 686.809 526.326L691.603 570.112C689.081 570.577 686.828 572.27 685.791 574.824C684.181 578.789 686.098 583.325 690.068 584.931C694.049 586.554 698.572 584.646 700.174 580.673C701.795 576.693 699.869 572.172 695.908 570.546C694.843 570.137 693.741 569.961 692.676 570.014L687.862 526.228C693.403 525.428 698.402 521.799 700.655 516.233C701.454 514.266 701.835 512.215 701.854 510.206L724.056 509.646C724.375 513.854 726.994 517.727 731.165 519.412C737.025 521.787 743.698 518.986 746.077 513.13C748.461 507.259 745.632 500.591 739.776 498.215C733.916 495.828 727.235 498.635 724.856 504.5C724.319 505.838 724.051 507.217 724.02 508.574L701.815 509.145C701.44 503.059 697.7 497.426 691.673 494.975C684.17 491.933 675.752 494.894 671.657 501.568L671.126 502.494L671.123 502.485Z" fill="white"/>
<path d="M320.932 683.624C317.933 682.399 314.659 682.874 312.163 684.584L291.509 658.482C292.619 657.489 293.569 656.255 294.14 654.8C295.18 652.251 295.093 649.548 294.159 647.178L293.555 645.98C292.46 644.052 290.774 642.415 288.549 641.503C284.833 639.986 280.769 640.873 277.948 643.383L277.034 644.354C276.324 645.16 275.709 646.072 275.292 647.127C273.713 650.986 274.697 655.225 277.417 658.04L252.651 685.418C251.91 684.833 251.119 684.301 250.18 683.926C244.964 681.8 239.045 684.315 236.924 689.52C234.81 694.753 237.315 700.699 242.529 702.82C247.72 704.932 253.66 702.42 255.777 697.195C257.345 693.337 256.369 689.095 253.652 686.271L278.418 658.905C279.161 659.495 279.958 660.033 280.889 660.402C284.196 661.748 287.769 661.208 290.497 659.325L311.153 685.404C310.147 686.324 309.331 687.446 308.774 688.756C306.843 693.56 309.132 698.997 313.929 700.953C318.69 702.881 324.136 700.57 326.068 695.799C328.01 691.006 325.704 685.555 320.932 683.619L320.932 683.624Z" fill="white"/>
<path d="M720.196 646.637C718.574 650.625 719.304 654.926 721.7 658.155L696.903 678.54C695.293 676.712 693.233 675.21 690.815 674.222C686.814 672.585 682.568 672.669 678.839 674.085L677.754 674.547C674.12 676.231 671.098 679.231 669.468 683.229C666.65 690.211 668.97 697.979 674.628 702.372L675.579 703.074C676.479 703.67 677.469 704.182 678.483 704.616C684.094 706.885 690.191 705.847 694.639 702.403L695.542 701.658C697.348 700.035 698.835 698.001 699.816 695.592C702.089 690.009 701.052 683.934 697.655 679.466L722.438 659.075C723.592 660.337 725.018 661.389 726.712 662.095C731.274 663.961 736.312 662.755 739.574 659.442L793.324 707.68C792.611 708.567 791.968 709.521 791.518 710.646C789.05 716.713 791.968 723.638 798.048 726.095C804.095 728.588 811 725.656 813.46 719.578C815.923 713.514 813.007 706.591 806.949 704.118C802.384 702.26 797.333 703.471 794.07 706.765L740.335 658.527C741.053 657.657 741.685 656.688 742.135 655.569C744.592 649.503 741.682 642.594 735.627 640.118C729.569 637.641 722.664 640.56 720.198 646.64L720.196 646.637Z" fill="white"/>
<path d="M403.875 889.865C405.374 888.519 406.598 886.829 407.42 884.826C409.659 879.313 408.044 873.185 403.848 869.421L430.763 836.54C431.42 837.024 432.13 837.449 432.907 837.777C438.138 839.886 444.103 837.377 446.233 832.15C448.352 826.92 445.834 820.954 440.609 818.833C438.034 817.786 435.289 817.873 432.899 818.847L431.839 819.384C429.86 820.475 428.208 822.188 427.294 824.466C425.639 828.501 426.804 832.983 429.86 835.801L402.903 868.655C401.991 867.958 400.971 867.373 399.844 866.917C392.808 864.055 384.788 867.432 381.947 874.475C379.071 881.521 382.462 889.529 389.498 892.395C394.153 894.3 399.229 893.43 402.978 890.618L403.875 889.86L403.875 889.865Z" fill="white"/>
<path d="M599.926 974.141C599.624 983.624 591.668 991.081 582.2 990.779C572.734 990.477 565.276 982.524 565.583 973.041C565.885 963.567 573.838 956.104 583.304 956.414C592.778 956.711 600.228 964.666 599.926 974.141ZM599.16 974.127C599.451 965.066 592.322 957.475 583.273 957.181C574.232 956.89 566.637 964.009 566.343 973.067C566.053 982.121 573.176 989.727 582.219 990.018C591.271 990.312 598.875 983.179 599.16 974.127Z" fill="white"/>
<path d="M413.523 880.245C413.182 890.654 404.457 898.842 394.058 898.5C383.667 898.17 375.481 889.44 375.82 879.03C376.152 868.624 384.877 860.436 395.271 860.775C405.668 861.105 413.853 869.841 413.523 880.245ZM412.665 880.217C412.981 870.28 405.164 861.953 395.243 861.628C385.316 861.307 376.991 869.125 376.672 879.061C376.351 888.992 384.167 897.325 394.089 897.644C404.015 897.966 412.341 890.139 412.665 880.214L412.665 880.217Z" fill="white"/>
<path d="M285.16 637.252C292.661 637.493 298.568 643.808 298.327 651.307C298.087 658.809 291.786 664.725 284.291 664.484C276.791 664.241 270.884 657.939 271.116 650.429C271.364 642.927 277.666 637.017 285.16 637.252ZM285.138 637.932C278.001 637.708 272.03 643.333 271.801 650.454C271.574 657.587 277.179 663.578 284.316 663.804C291.425 664.034 297.419 658.418 297.645 651.282C297.874 644.161 292.25 638.164 285.141 637.932L285.138 637.932Z" fill="white"/>
<path d="M392.073 616.252C391.788 625.005 384.441 631.911 375.697 631.628C366.949 631.348 360.05 623.989 360.335 615.23C360.615 606.475 367.964 599.575 376.717 599.854C385.461 600.137 392.352 607.494 392.073 616.252ZM391.388 616.232C391.651 607.849 385.067 600.806 376.692 600.546C368.316 600.271 361.283 606.87 361.02 615.258C360.752 623.636 367.341 630.685 375.722 630.945C384.092 631.217 391.117 624.61 391.391 616.232L391.388 616.232Z" fill="white"/>
<path d="M434.291 345.364C434.095 351.503 428.94 356.341 422.818 356.145C416.679 355.949 411.849 350.79 412.041 344.653C412.243 338.514 417.389 333.676 423.534 333.872C429.662 334.073 434.484 339.227 434.294 345.364L434.291 345.364ZM433.866 345.35C434.056 339.443 429.404 334.485 423.514 334.3C417.607 334.107 412.659 338.757 412.469 344.664C412.287 350.566 416.922 355.524 422.829 355.714C428.72 355.907 433.673 351.251 433.866 345.35Z" fill="white"/>
<path d="M441.632 739.725C441.347 748.584 433.902 755.566 425.04 755.286C416.176 755.006 409.209 747.552 409.491 738.69C409.779 729.831 417.21 722.832 426.072 723.126C434.928 723.412 441.911 730.86 441.629 739.728L441.632 739.725ZM441.061 739.7C441.335 731.143 434.601 723.96 426.055 723.691C417.515 723.412 410.325 730.15 410.053 738.709C409.777 747.269 416.517 754.452 425.06 754.721C433.614 755 440.787 748.26 441.061 739.7Z" fill="white"/>
<path d="M629.646 649.31C629.347 658.689 621.477 666.082 612.095 665.78C602.722 665.486 595.35 657.603 595.644 648.218C595.946 638.833 603.815 631.454 613.183 631.751C622.559 632.053 629.942 639.924 629.646 649.31ZM628.972 649.282C629.254 640.277 622.168 632.725 613.166 632.434C604.178 632.148 596.625 639.239 596.337 648.241C596.046 657.242 603.127 664.812 612.12 665.097C621.125 665.385 628.681 658.286 628.972 649.282Z" fill="white"/>
<path d="M664.863 509.324C665.232 497.841 674.869 488.8 686.347 489.169C697.826 489.538 706.869 499.172 706.503 510.67C706.134 522.154 696.492 531.201 685.014 530.828C673.527 530.465 664.492 520.814 664.863 509.324ZM665.548 509.352C665.193 520.464 673.929 529.793 685.033 530.154C696.129 530.51 705.457 521.759 705.818 510.645C706.173 499.528 697.423 490.21 686.328 489.849C675.224 489.494 665.903 498.243 665.548 509.352Z" fill="white"/>
<path d="M630.769 395.275C630.3 409.91 618.016 421.444 603.404 420.974C588.772 420.504 577.263 408.212 577.732 393.571C578.202 378.948 590.477 367.417 605.104 367.887C619.721 368.354 631.239 380.649 630.769 395.275ZM630.087 395.256C630.537 380.996 619.327 369.028 605.081 368.572C590.83 368.113 578.865 379.337 578.409 393.588C577.953 407.856 589.175 419.824 603.421 420.286C617.669 420.747 629.626 409.51 630.087 395.256Z" fill="white"/>
<path d="M563.073 121.553C562.651 134.923 551.432 145.444 538.075 145.019C524.718 144.59 514.198 133.364 514.623 120C515.054 106.622 526.27 96.0921 539.627 96.5175C552.984 96.9484 563.503 108.18 563.073 121.553ZM562.402 121.531C562.813 108.53 552.592 97.6255 539.61 97.203C526.625 96.7889 515.725 107.013 515.303 120.017C514.892 133.012 525.118 143.913 538.095 144.333C551.08 144.744 561.98 134.52 562.402 121.531Z" fill="white"/>
<path d="M730.206 180.164C729.916 189.247 722.287 196.41 713.215 196.119C704.138 195.823 696.998 188.192 697.289 179.104C697.585 170.029 705.2 162.877 714.269 163.171C723.346 163.464 730.494 171.084 730.206 180.164ZM729.782 180.15C730.064 171.305 723.1 163.876 714.261 163.599C705.424 163.313 697.999 170.272 697.714 179.118C697.429 187.977 704.392 195.406 713.229 195.688C722.074 195.974 729.496 189.004 729.782 180.15Z" fill="white"/>
<path d="M522.789 601.964C522.599 607.779 517.724 612.357 511.909 612.169C506.1 611.979 501.523 607.104 501.708 601.29C501.901 595.478 506.779 590.883 512.588 591.076C518.4 591.258 522.974 596.15 522.789 601.964ZM522.35 601.953C522.526 596.373 518.151 591.686 512.566 591.502C506.994 591.328 502.32 595.724 502.141 601.307C501.965 606.883 506.346 611.568 511.926 611.741C517.497 611.926 522.171 607.533 522.35 601.956L522.35 601.953Z" fill="white"/>
</g>
<defs>
<clipPath id="clip0_2009_7637">
<rect width="1162" height="936" fill="white" transform="translate(936) rotate(90)"/>
</clipPath>
</defs>
</svg>
