<svg width="571" height="914" viewBox="0 0 571 914" fill="none" xmlns="http://www.w3.org/2000/svg">
<g opacity="0.11" clip-path="url(#clip0_2009_7602)">
<g opacity="0.4">
<path d="M134.348 801.674C130.778 800.735 128.65 797.074 129.598 793.495C129.818 792.652 130.216 791.872 130.708 791.224L107.044 771.68C104.803 774.209 101.229 775.396 97.7308 774.49C96.7491 774.24 95.8739 773.837 95.0744 773.312L75.7605 800.953C78.2348 802.829 79.4435 806.053 78.6061 809.213C78.1969 810.767 77.3548 812.049 76.2501 813.06L75.7392 813.49C73.88 814.879 71.4175 815.465 68.9858 814.829C65.8043 813.984 63.6021 811.311 63.1881 808.227L63.1242 807.572C63.0911 806.793 63.1739 805.996 63.3845 805.197C64.4915 800.984 68.8132 798.479 73.0047 799.6C73.8114 799.81 74.5541 800.146 75.2164 800.565L94.528 772.92C92.2737 771.228 90.897 768.553 90.8355 765.71L90.8473 765.028C90.8781 764.411 90.9774 763.772 91.1264 763.138C91.9094 760.226 93.9863 758.022 96.5741 756.948L91.4363 743.025C90.3222 743.353 89.1347 743.417 87.9568 743.105C84.5907 742.208 82.5659 738.738 83.4671 735.391C84.3542 732.009 87.7959 729.996 91.1974 730.885C94.5469 731.786 96.5623 735.235 95.6729 738.632C95.1477 740.56 93.7805 742.026 92.0679 742.793L97.2104 756.718C98.8638 756.177 100.69 756.075 102.483 756.562C105.397 757.319 107.63 759.401 108.685 762.029L108.929 762.646C109.452 764.276 109.563 766.081 109.064 767.883C108.73 769.123 108.205 770.228 107.479 771.169L131.138 790.708C132.758 788.927 135.292 788.075 137.806 788.723C141.373 789.686 143.495 793.341 142.537 796.927C141.619 800.489 137.941 802.635 134.353 801.679L134.348 801.674Z" fill="#15285B"/>
<path d="M339.184 447.8C338.941 446.835 338.974 445.865 339.189 444.969L324.171 440.484C323.158 443.568 320.632 446.062 317.235 446.868C315.929 447.169 314.617 447.206 313.377 446.982L312.764 446.852C310.233 446.244 308.026 444.614 306.697 442.305L300.299 445.782C300.384 445.929 300.448 446.116 300.481 446.289C300.911 448.058 299.821 449.801 298.066 450.244C296.31 450.651 294.534 449.555 294.111 447.8C293.701 446.036 294.785 444.273 296.552 443.869C297.924 443.542 299.277 444.122 300.027 445.248L306.435 441.766C306.118 441.125 305.855 440.455 305.699 439.746C305.141 437.428 305.477 435.121 306.491 433.158L306.782 432.623C307.676 431.145 308.954 429.905 310.52 429.061L302.671 413.188C302.264 413.375 301.841 413.51 301.406 413.633C297.469 414.551 293.552 412.126 292.618 408.195C291.984 405.501 292.937 402.787 294.867 401.063L295.116 400.874C295.934 400.195 296.916 399.7 298.028 399.428C299.998 398.972 301.945 399.336 303.534 400.323L303.79 400.488C305.249 401.477 306.366 402.988 306.794 404.857C307.577 408.112 306.016 411.381 303.225 412.909L311.068 428.794C311.624 428.538 312.199 428.335 312.814 428.193C315.378 427.592 317.923 428.07 320.019 429.331L320.509 429.664C322.387 430.967 323.809 432.931 324.381 435.329C324.729 436.902 324.693 438.447 324.324 439.911L339.362 444.394C340.026 442.494 341.592 440.983 343.695 440.498C346.969 439.701 350.243 441.723 351.014 445.007C351.787 448.273 349.758 451.561 346.498 452.335C343.217 453.101 339.946 451.079 339.175 447.805L339.184 447.8Z" fill="#15285B"/>
<path d="M326.636 484.976C325.992 486.005 324.994 486.693 323.899 486.994L328.583 510.566C330.309 510.282 332.107 510.535 333.751 511.403L335.705 507.775C335.705 507.775 335.681 507.784 335.672 507.775C334.506 507.051 334.144 505.518 334.861 504.333C335.591 503.162 337.136 502.802 338.3 503.543C339.473 504.252 339.842 505.795 339.104 506.954C338.449 508.059 337.06 508.43 335.92 507.888L333.981 511.526C334.073 511.569 334.196 511.628 334.286 511.68C336.583 513.109 337.94 515.477 338.17 517.972L338.198 518.476C338.248 520.037 337.841 521.627 336.975 523.044C336.826 523.299 336.646 523.552 336.448 523.782L348.76 534.041C350.262 532.425 352.746 532.037 354.666 533.234C356.866 534.597 357.564 537.49 356.18 539.694C354.83 541.904 351.937 542.585 349.732 541.223C347.518 539.853 346.837 536.962 348.202 534.767C348.289 534.637 348.362 534.535 348.433 534.427L336.138 524.175C334.872 525.582 333.193 526.488 331.424 526.81L330.908 526.895C329.117 527.115 327.27 526.741 325.619 525.724C323.495 524.411 322.163 522.28 321.817 519.962L304.758 522.107C304.819 522.947 304.632 523.791 304.162 524.56C302.953 526.533 300.372 527.141 298.409 525.92C296.446 524.707 295.845 522.126 297.046 520.179C298.255 518.211 300.841 517.61 302.804 518.817C303.842 519.453 304.505 520.48 304.708 521.591L321.737 519.453C321.583 517.733 321.964 515.95 322.927 514.36C324.131 512.413 326.03 511.15 328.1 510.665L323.395 487.086C322.38 487.24 321.299 487.032 320.37 486.462C318.224 485.123 317.555 482.315 318.884 480.186C320.199 478.029 323.014 477.369 325.155 478.689C327.291 480.018 327.97 482.819 326.643 484.971L326.636 484.976Z" fill="#15285B"/>
<path d="M-0.111371 367.132C2.16892 366.6 4.4563 367.026 6.33683 368.104L32.0067 329.722C29.277 327.771 27.1788 324.979 26.1025 321.592L18.5544 323.851C18.5544 323.851 18.5922 323.875 18.5733 323.903C19.1883 326.451 17.5798 329.038 15.0015 329.656C12.4042 330.278 9.84244 328.653 9.24635 326.077C8.62423 323.506 10.2114 320.92 12.7922 320.326C15.186 319.747 17.5964 321.119 18.3864 323.39L25.963 321.098C25.8991 320.904 25.7974 320.674 25.7596 320.459C24.5674 315.409 25.9512 310.356 29.0404 306.663L29.6862 305.904C31.737 303.742 34.4384 302.131 37.5442 301.381C38.1119 301.251 38.6844 301.145 39.2497 301.09L36.4656 270.438C32.2433 270.583 28.3474 267.753 27.3562 263.51C26.2114 258.67 29.2036 253.79 34.0741 252.657C38.902 251.505 43.7535 254.511 44.8937 259.356C46.0385 264.219 43.0604 269.066 38.2136 270.19C37.9463 270.247 37.698 270.301 37.452 270.339L40.2314 300.977C43.8694 300.787 47.3514 301.824 50.2112 303.799L51.032 304.381C53.7357 306.512 55.7582 309.533 56.605 313.159C57.7262 317.838 56.6216 322.519 53.9557 326.136L80.0277 346.389C81.0874 345.197 82.5114 344.275 84.1909 343.894C88.5126 342.855 92.8414 345.521 93.8419 349.843C94.8709 354.174 92.1743 358.486 87.8928 359.496C83.5783 360.521 79.2684 357.838 78.2371 353.535C77.6977 351.248 78.1945 348.958 79.4245 347.177L53.3762 326.936C51.2449 329.488 48.307 331.406 44.8487 332.246C40.5578 333.249 36.2598 332.402 32.811 330.238L7.16711 368.651C8.7425 369.836 9.92996 371.57 10.4385 373.635C11.529 378.349 8.62659 383.071 3.91462 384.176C-0.797361 385.304 -5.52353 382.378 -6.63056 377.678C-7.74232 372.968 -4.84937 368.258 -0.111371 367.12L-0.111371 367.132Z" fill="#15285B"/>
<path d="M238.014 266.386C239.372 271.332 236.488 276.444 231.535 277.823C230.08 278.242 228.595 278.266 227.204 277.977L221.283 301.145C226.035 302.491 229.995 306.202 231.426 311.311C231.972 313.296 232.074 315.304 231.819 317.218L272.729 324.047C273.434 320.762 275.901 317.954 279.371 316.998C284.341 315.64 289.517 318.533 290.901 323.539C292.284 328.518 289.358 333.677 284.372 335.073C279.397 336.447 274.238 333.519 272.838 328.544C272.509 327.338 272.436 326.129 272.571 324.97L231.658 318.141C230.863 322.039 228.509 325.516 225.077 327.652L230.75 337.19C230.996 337.072 231.26 336.953 231.535 336.882C234.196 336.144 236.921 337.706 237.694 340.355C238.414 343.016 236.867 345.774 234.21 346.517C231.547 347.248 228.793 345.696 228.053 343.026C227.478 340.953 228.301 338.865 229.957 337.663L224.282 328.088C223.322 328.615 222.319 329.048 221.231 329.332C217.742 330.313 214.206 329.926 211.138 328.504L185.659 380.911C185.903 381.058 186.147 381.181 186.369 381.358C188.443 382.905 189.652 385.181 189.908 387.563L226.463 383.944C226.407 382.624 226.771 381.283 227.639 380.145C229.562 377.571 233.229 377.02 235.809 378.964C237.799 380.462 238.567 382.967 237.943 385.223L237.862 385.484C237.664 386.063 237.368 386.626 236.987 387.151C235.048 389.739 231.395 390.269 228.807 388.332C227.514 387.362 226.747 385.973 226.527 384.485L189.95 388.102C190.047 390.054 189.489 392.067 188.264 393.77L229.087 424.228C231.104 421.749 234.731 421.281 237.321 423.213C239.97 425.203 240.507 428.968 238.522 431.615C237.207 433.352 235.147 434.191 233.124 433.99L232.874 433.957C231.909 433.822 230.958 433.449 230.111 432.826C227.547 430.896 226.974 427.289 228.751 424.656L187.933 394.198C186.4 396.072 184.238 397.172 182.009 397.415L181.716 397.448C180.446 397.569 179.135 397.363 177.903 396.888L137.217 480.553C139.604 481.742 141.702 483.464 143.304 485.648L189.815 453.834C189.553 453.385 189.33 452.874 189.177 452.321C188.221 448.898 190.248 445.33 193.688 444.375C197.11 443.433 200.666 445.423 201.621 448.867C202.56 452.309 200.576 455.857 197.136 456.82C194.556 457.536 191.918 456.564 190.345 454.615L143.841 486.398C144.749 487.798 145.44 489.321 145.917 490.989C146.622 493.61 146.672 496.198 146.182 498.66L227.024 516.39C227.923 512.979 230.572 510.1 234.231 509.102C237.697 508.125 241.269 509.061 243.814 511.273L270.404 482.239C269.638 481.482 269.07 480.55 268.758 479.45C268.311 477.882 268.545 476.278 269.226 474.911L256.646 467.803C256.067 468.709 255.182 469.418 254.063 469.73C251.686 470.397 249.226 468.995 248.545 466.62C247.897 464.221 249.276 461.754 251.681 461.089C254.054 460.432 256.528 461.825 257.193 464.195C257.507 465.328 257.332 466.447 256.876 467.403L269.47 474.521C270.26 473.224 271.53 472.209 273.096 471.77C273.931 471.533 274.754 471.49 275.554 471.592L276.008 471.663C278.25 472.113 280.152 473.766 280.81 476.105C281.727 479.436 279.778 482.89 276.448 483.798C274.376 484.399 272.242 483.848 270.723 482.559L244.152 511.593C245.446 512.841 246.44 514.426 246.962 516.293C248.49 521.797 245.271 527.503 239.767 529.033C234.253 530.573 228.552 527.323 227.036 521.847C226.608 520.312 226.527 518.767 226.802 517.3L145.979 499.566C144.567 505.137 140.283 509.828 134.341 511.474C134.329 511.496 134.305 511.481 134.296 511.474L156.959 593.095C156.959 593.095 156.995 593.095 157.007 593.079C162.743 591.496 168.597 593.379 172.375 597.471L192.609 580.61C191.793 579.569 191.185 578.373 190.821 577.027C189.243 571.409 192.552 565.575 198.17 564.005C203.807 562.434 209.631 565.729 211.178 571.383C212.739 576.998 209.463 582.831 203.838 584.381C199.857 585.507 195.802 584.17 193.196 581.306L172.997 598.183C174.286 599.756 175.289 601.632 175.885 603.764C177.096 608.13 176.271 612.568 173.983 616.123L245.351 664.765C247.251 662.167 250 660.169 253.347 659.241C257.671 658.009 262.08 658.877 265.545 661.214L283.506 636.176C282.349 635.213 281.448 633.924 281.022 632.379C279.906 628.384 282.236 624.237 286.226 623.142C290.217 622.037 294.333 624.372 295.452 628.358C296.563 632.351 294.222 636.464 290.234 637.578C288.124 638.158 285.966 637.786 284.268 636.715L266.307 661.735C268.774 663.636 270.664 666.307 271.57 669.524C272.675 673.484 272.046 677.524 270.153 680.824L269.675 681.607C267.944 684.214 265.432 686.269 262.3 687.395L264.694 694.352C264.71 694.366 264.72 694.336 264.743 694.345C267.109 693.676 269.581 695.095 270.241 697.463C270.901 699.845 269.505 702.329 267.123 702.967C264.743 703.637 262.269 702.251 261.621 699.859C260.997 697.645 262.172 695.367 264.275 694.527L261.881 687.544C261.673 687.613 261.474 687.698 261.264 687.76C256.592 689.056 251.835 687.944 248.266 685.205L247.537 684.609C245.448 682.764 243.845 680.308 243.055 677.453C242.894 676.926 242.778 676.391 242.697 675.864L214.194 679.582C214.487 683.514 212.003 687.232 208.06 688.325C203.592 689.557 198.937 686.946 197.699 682.454C196.451 677.983 199.069 673.359 203.549 672.114C208.029 670.861 212.673 673.484 213.915 677.957C213.974 678.194 214.023 678.425 214.073 678.662L242.589 674.955C242.243 671.563 243.104 668.278 244.841 665.548L173.475 616.876C171.521 619.579 168.685 621.666 165.219 622.621C160.952 623.811 156.602 623.075 153.108 620.925L119.808 674.25C121.669 675.532 123.114 677.453 123.739 679.805C125.229 685.115 122.116 690.641 116.799 692.112C112.709 693.245 108.491 691.663 106.123 688.46L105.844 688.088C105.251 687.225 104.787 686.232 104.472 685.155C103.008 679.833 106.107 674.328 111.417 672.838C114.093 672.093 116.782 672.509 119.013 673.761L152.328 620.424C149.579 618.522 147.427 615.662 146.409 612.218L62.514 635.702C63.7393 641.034 60.5885 646.442 55.2663 647.913C49.8115 649.427 44.151 646.243 42.6158 640.772C41.646 637.174 42.6702 633.529 45.0641 631.002L29.2629 615.442C28.759 615.908 28.1487 616.27 27.4556 616.457C25.076 617.138 22.5899 615.726 21.9229 613.341C21.2747 610.955 22.6774 608.497 25.0429 607.816C27.4415 607.172 29.911 608.566 30.5591 610.952C30.9991 612.48 30.5757 614.032 29.5774 615.111L45.3668 630.647C46.5472 629.505 48.0564 628.604 49.7689 628.116C55.0723 626.652 60.5601 629.642 62.2467 634.811L146.182 611.324C145.246 607.279 146 603.21 148.016 599.896L139.869 594.761C139.299 595.572 138.471 596.215 137.44 596.532C135.046 597.154 132.576 595.775 131.914 593.393C131.247 590.999 132.673 588.544 135.043 587.891C137.437 587.215 139.888 588.61 140.567 590.995C140.886 592.17 140.713 593.393 140.146 594.382L148.269 599.499C150.05 596.74 152.768 594.541 156.072 593.389L133.383 511.678C127.372 512.981 121.338 510.824 117.463 506.469L99.5711 521.596C100.534 522.812 101.277 524.253 101.724 525.856C103.531 532.326 99.7178 539.023 93.2388 540.837C89.9248 541.76 86.5541 541.201 83.7794 539.571L66.6204 567.293C67.3963 567.848 68.0113 568.636 68.2928 569.637C68.9173 571.927 67.5997 574.287 65.3123 574.924C63.0296 575.548 60.6689 574.228 60.0374 571.948C59.4081 569.66 60.7446 567.288 63.0249 566.668C64.1461 566.346 65.2839 566.51 66.2372 567.032L83.3962 539.318C80.9763 537.75 79.0863 535.351 78.2655 532.369C77.2697 528.794 77.9817 525.175 79.8953 522.325L63.5217 510.871C63.0107 511.514 62.2774 512.042 61.4022 512.295C59.2071 512.91 56.9244 511.611 56.3283 509.423C55.7251 507.228 56.9978 504.964 59.1858 504.352C61.3857 503.741 63.6565 505.019 64.2597 507.228C64.5838 508.366 64.3756 509.546 63.7748 510.485L80.1602 521.939C81.7238 519.805 83.9828 518.138 86.7315 517.367C91.2968 516.113 95.9615 517.62 98.9798 520.894L116.846 505.754C115.517 504.084 114.485 502.1 113.873 499.912C112.214 493.875 114.071 487.741 118.199 483.656L68.1698 429.004C67.181 429.827 66.0361 430.452 64.7517 430.809C59.8126 432.152 54.7269 429.288 53.3644 424.363C51.9806 419.445 54.8901 414.354 59.7913 412.994C64.7068 411.632 69.8185 414.492 71.1763 419.438C72.0893 422.728 71.0958 426.106 68.8463 428.398L118.873 483.034C120.718 481.395 122.925 480.127 125.449 479.438C129.215 478.393 133.04 478.731 136.385 480.165L177.042 396.526C176.725 396.377 176.401 396.221 176.103 396.027L175.649 395.705C175.649 395.705 175.644 395.695 175.62 395.695C172.843 393.611 171.639 390.217 172.176 387.014L157.165 383.66C156.957 384.405 156.628 385.124 156.134 385.775C154.092 388.523 150.227 389.07 147.493 387.024C144.754 384.975 144.202 381.103 146.256 378.373C148.297 375.636 152.172 375.078 154.89 377.138C156.824 378.558 157.664 380.916 157.276 383.147L172.276 386.48C172.557 385.313 173.068 384.171 173.834 383.147C175.429 381.025 177.768 379.821 180.231 379.613L180.763 379.568C182.161 379.53 183.559 379.825 184.855 380.443L210.326 328.088C207.994 326.827 206.035 324.932 204.678 322.595L180.938 335.496C181.243 336.118 181.496 336.755 181.669 337.422C183.32 343.345 179.85 349.464 173.929 351.132C169.856 352.249 165.671 350.962 162.927 348.104L130.04 378.42C130.414 378.87 130.722 379.4 130.873 380.008C131.507 382.3 130.171 384.675 127.867 385.302C125.579 385.966 123.209 384.599 122.57 382.312C121.927 380.005 123.285 377.644 125.572 376.996C127.105 376.573 128.654 377.041 129.721 378.068L162.632 347.754C161.562 346.534 160.713 345.053 160.252 343.385C159.426 340.424 159.869 337.415 161.279 334.926L139.942 322.285C139.176 323.439 138.059 324.329 136.64 324.738C133.544 325.578 130.36 323.756 129.494 320.686C128.626 317.611 130.443 314.422 133.53 313.566C136.614 312.702 139.803 314.519 140.664 317.578C141.104 319.096 140.858 320.624 140.172 321.892L161.527 334.552C162.946 332.258 165.191 330.47 167.992 329.687C172.926 328.324 177.988 330.481 180.479 334.671L204.226 321.755C203.809 320.93 203.452 320.076 203.216 319.122C202.132 315.269 202.717 311.349 204.519 308.104L204.997 307.314C206.858 304.381 209.782 302.107 213.408 301.102C215.757 300.459 218.142 300.428 220.389 300.915L226.312 277.729C223.407 276.811 220.985 274.509 220.114 271.339C218.742 266.398 221.617 261.279 226.579 259.917C231.521 258.533 236.632 261.435 238.016 266.367L238.014 266.386Z" fill="#15285B"/>
<path d="M17.9324 452.238C19.4486 451.346 21.3977 451.857 22.2848 453.368C23.1718 454.882 22.6869 456.832 21.1517 457.73C21.05 457.78 20.9388 457.794 20.8277 457.861L23.1837 463.826C26.0908 462.774 29.419 463.89 31.0559 466.653C32.0352 468.292 32.1889 470.182 31.6567 471.857L44.0304 476.018C44.3663 475.124 44.9978 474.334 45.8896 473.809C47.9523 472.595 50.6111 473.286 51.8222 475.337C53.0428 477.407 52.3449 480.046 50.2752 481.265C48.2291 482.473 45.5655 481.792 44.3521 479.732C43.7181 478.646 43.6164 477.416 43.9499 476.309L31.5692 472.179C31.0795 473.567 30.1097 474.786 28.7259 475.59C26.1949 477.08 23.0465 476.652 20.9814 474.752L-4.68607 499.912C-4.0545 500.593 -3.48206 501.336 -2.99005 502.166C-1.18994 505.258 -0.825653 508.813 -1.70796 512.009L-1.89484 512.596C-2.66834 514.928 -4.09708 517.026 -6.11007 518.609L-2.03913 524.075C-1.97999 524.025 -1.91849 523.985 -1.85462 523.952C0.390191 522.637 3.2926 523.384 4.61725 525.636C5.93954 527.895 5.18969 530.784 2.94961 532.118C0.685876 533.445 -2.226 532.697 -3.53647 530.438C-4.70973 528.432 -4.239 525.916 -2.52878 524.442L-6.61628 518.985C-6.91433 519.214 -7.21001 519.399 -7.51042 519.59C-10.1526 521.125 -13.1118 521.617 -15.8912 521.194L-22.8362 560.452C-20.9414 560.892 -19.2312 562.055 -18.1549 563.856C-16.1325 567.312 -17.2868 571.737 -20.738 573.75C-24.1703 575.773 -28.6173 574.628 -30.6351 571.191C-32.6622 567.735 -31.5079 563.316 -28.0544 561.282C-26.6162 560.43 -24.9864 560.151 -23.4512 560.35L-16.5157 521.073C-19.9314 520.371 -23.0585 518.299 -24.9462 515.048C-25.5375 514.038 -25.968 512.96 -26.259 511.872L-53.6083 518.403C-52.8206 522.301 -54.5025 526.452 -58.124 528.579C-62.6845 531.264 -68.5651 529.743 -71.2475 525.159C-73.9252 520.607 -72.39 514.746 -67.8318 512.063C-63.2759 509.383 -57.412 510.916 -54.7153 515.467C-54.2848 516.217 -53.9773 517.002 -53.7502 517.785L-26.408 511.261C-26.8598 509.109 -26.7179 506.909 -26.091 504.839L-25.8805 504.26C-24.9059 501.575 -23.0656 499.195 -20.4116 497.639C-19.2738 496.953 -18.0556 496.491 -16.8374 496.203L-16.2035 496.084C-12.2129 495.375 -8.07339 496.626 -5.11895 499.469L20.5486 474.296C20.2671 473.986 20.0116 473.648 19.7869 473.257C17.9655 470.147 19.0086 466.142 22.1287 464.321C22.377 464.183 22.6349 464.051 22.8951 463.949L20.5486 457.986C19.1624 458.468 17.5752 457.905 16.7875 456.578C15.9194 455.065 16.4114 453.118 17.9324 452.24L17.9324 452.238Z" fill="#15285B"/>
<path d="M181.65 269.085C181.054 271.418 178.674 272.809 176.347 272.21C174.033 271.612 172.633 269.234 173.241 266.907C173.283 266.746 173.371 266.635 173.423 266.467L165.371 262.978C163.599 266.798 159.296 268.941 155.039 267.848C152.517 267.209 150.54 265.535 149.432 263.392L133.468 271.325C134.01 272.506 134.154 273.894 133.811 275.262C132.983 278.417 129.754 280.321 126.606 279.51C123.434 278.68 121.549 275.465 122.358 272.295C123.167 269.144 126.407 267.236 129.575 268.056C131.223 268.487 132.517 269.582 133.284 270.961L149.212 263.006C148.344 261.192 148.108 259.072 148.676 256.969C149.683 253.073 153.127 250.445 156.962 250.294L157.44 201.191C156.174 201.137 154.904 200.969 153.643 200.645C148.896 199.405 145.132 196.314 142.887 192.373L142.499 191.623C140.997 188.633 140.342 185.226 140.754 181.744L131.55 180.399C131.54 180.507 131.517 180.602 131.491 180.682C130.589 184.143 127.065 186.225 123.606 185.323C120.146 184.417 118.081 180.902 118.965 177.444C119.879 173.981 123.413 171.904 126.857 172.812C129.925 173.607 131.912 176.498 131.67 179.559L140.884 180.888C140.952 180.391 141.049 179.918 141.175 179.443C142.242 175.407 144.616 172.077 147.722 169.813L116.501 125.167C114.258 126.595 111.462 127.13 108.697 126.409C103.406 125.03 100.245 119.629 101.62 114.364C102.992 109.07 108.382 105.9 113.674 107.279C118.963 108.646 122.112 114.037 120.761 119.334C120.181 121.552 118.871 123.386 117.191 124.677L148.437 169.335C152.408 166.707 157.423 165.697 162.402 166.996C163.956 167.4 165.399 168.027 166.736 168.805L186.849 136.065C182.298 133.068 179.933 127.44 181.38 121.872C183.19 114.889 190.329 110.678 197.352 112.502C204.342 114.316 208.521 121.47 206.712 128.445C204.902 135.457 197.754 139.634 190.759 137.839C189.617 137.529 188.557 137.072 187.58 136.514L167.469 169.238C169.984 170.885 171.968 173.155 173.354 175.753L173.735 176.519C175.374 180.06 175.885 184.136 174.833 188.183C174.386 189.957 173.664 191.578 172.763 193.042L172.269 193.756C169.104 198.286 163.888 201.099 158.289 201.21L157.827 250.32C158.395 250.334 158.965 250.433 159.554 250.58C164.318 251.82 167.18 256.69 165.929 261.468C165.813 261.842 165.695 262.218 165.553 262.578L173.562 266.081C174.438 264.276 176.519 263.273 178.556 263.789C180.869 264.413 182.27 266.779 181.652 269.09L181.65 269.085Z" fill="#15285B"/>
</g>
<path d="M-61.6933 1106.79C-60.9269 1100.32 -55.0629 1095.7 -48.584 1096.46C-46.2611 1096.73 -44.1677 1097.68 -42.4882 1099.07L19.3778 1029.99C17.8213 1028.4 16.9674 1026.15 17.2441 1023.76C17.4145 1022.31 18.0082 1020.99 18.8597 1019.91L-15.4109 988.685C-17.8852 991.169 -21.4144 992.536 -25.1637 992.091C-30.0554 991.524 -33.8969 988.03 -35.1601 983.557L-88.3306 996.02C-88.2195 996.711 -88.1864 997.425 -88.2739 998.145C-88.7777 1002.33 -92.5506 1005.31 -96.728 1004.82C-100.903 1004.32 -103.888 1000.53 -103.406 996.382C-102.907 992.202 -99.1242 989.227 -94.9444 989.704C-91.8599 990.078 -89.4259 992.243 -88.5625 995.036L-35.3895 982.584C-35.6142 981.421 -35.6663 980.224 -35.522 979.005C-34.7508 972.531 -28.8916 967.902 -22.4174 968.663C-21.1826 968.81 -20.007 969.151 -18.9189 969.638L3.88171 924.552C0.172684 922.503 -2.44115 918.849 -3.12949 914.626L-72.6761 923.36C-72.6383 923.871 -72.6548 924.391 -72.7163 924.9C-73.2627 929.55 -77.4732 932.876 -82.1261 932.33C-86.7789 931.783 -90.1095 927.57 -89.5678 922.924C-89.3076 920.779 -88.2739 918.901 -86.76 917.576L-103.011 895.726C-103.971 896.367 -105.135 896.691 -106.36 896.547C-109.095 896.23 -111.067 893.746 -110.743 891C-110.419 888.258 -107.943 886.304 -105.194 886.636C-102.45 886.953 -100.484 889.439 -100.811 892.173C-100.967 893.51 -101.651 894.643 -102.597 895.44L-86.3768 917.25C-84.6642 915.908 -82.4596 915.222 -80.1509 915.49C-76.3638 915.939 -73.4685 918.799 -72.8038 922.345L-3.27143 913.628C-3.35185 912.684 -3.34476 911.738 -3.22649 910.768C-2.69426 906.271 -0.0827876 902.553 3.54108 900.424L-7.05851 880.842C-8.60788 881.588 -10.3725 881.909 -12.2128 881.701C-17.405 881.084 -21.1211 876.388 -20.5203 871.191C-19.9029 865.999 -15.2075 862.292 -9.99877 862.903C-4.82316 863.515 -1.09758 868.213 -1.7055 873.408C-2.05322 876.412 -3.78236 878.91 -6.1691 880.362L4.42576 899.939C6.75573 898.78 9.43578 898.26 12.2105 898.584C16.7048 899.125 20.4493 901.753 22.583 905.384L93.7452 867.127C92.3827 864.424 91.7819 861.311 92.1532 858.072C92.2218 857.488 92.3164 856.913 92.4631 856.348L62.2326 848.364C60.9174 852.44 56.8725 855.151 52.4704 854.631C47.458 854.042 43.8531 849.49 44.4373 844.475C45.0287 839.454 49.5657 835.882 54.5993 836.466C59.6188 837.06 63.2096 841.606 62.6206 846.616C62.5993 846.879 62.5496 847.13 62.4857 847.387L92.7257 855.371C93.7594 851.846 95.9663 848.885 98.8427 846.841L47.0252 768.588C43.943 770.507 40.2197 771.432 36.3286 770.977C31.5669 770.4 27.5078 767.874 24.868 764.271L-30.5876 804.191C-29.2417 806.245 -28.5841 808.759 -28.8845 811.385C-29.5894 817.355 -34.985 821.606 -40.9602 820.906C-45.5373 820.364 -49.0997 817.045 -50.2043 812.849L-104.297 825.514C-104.212 825.954 -104.184 826.387 -104.229 826.843C-104.539 829.339 -106.791 831.12 -109.281 830.836C-111.789 830.543 -113.572 828.277 -113.281 825.776C-112.976 823.285 -110.724 821.49 -108.234 821.795C-106.351 822.015 -104.882 823.337 -104.394 825.019L-50.3179 812.355C-50.5497 811.231 -50.6183 810.055 -50.4882 808.847C-49.7809 802.886 -44.3877 798.616 -38.4149 799.323C-35.4439 799.687 -32.9011 801.206 -31.1719 803.375L24.2884 763.46C22.292 760.406 21.3151 756.669 21.7077 752.768L-72.397 741.875C-73.3455 747.744 -78.7529 751.871 -84.7139 751.169C-90.8286 750.459 -95.2118 744.903 -94.5045 738.788C-94.0219 734.778 -91.4696 731.54 -88.0302 729.95L-97.5394 707.838C-98.2395 708.093 -99.0012 708.216 -99.7842 708.115C-102.457 707.805 -104.376 705.385 -104.056 702.712C-103.739 700.046 -101.322 698.142 -98.6606 698.452C-95.9758 698.771 -94.0692 701.184 -94.3768 703.859C-94.5754 705.555 -95.6423 706.941 -97.0663 707.649L-87.5761 729.747C-85.9061 729.071 -84.0303 728.803 -82.1143 729.016C-76.1675 729.719 -71.8766 734.98 -72.2905 740.874L21.8449 751.77C22.5522 747.316 24.9839 743.535 28.3854 741.035L22.2967 732.531C21.3789 733.113 20.279 733.414 19.1105 733.281C16.4446 732.964 14.531 730.549 14.8479 727.871C15.1649 725.201 17.5682 723.296 20.2459 723.613C22.9236 723.928 24.8372 726.348 24.5226 729.009C24.3689 730.343 23.6852 731.488 22.7083 732.259L28.7852 740.735C31.7349 738.703 35.3564 737.615 39.1671 737.797L49.8968 646.333C43.3138 645.153 38.1121 640.533 36.0187 634.529L11.7918 642.394C12.2578 644.024 12.4139 645.768 12.2057 647.556C11.3518 654.801 4.76873 659.991 -2.47901 659.137C-6.21169 658.693 -9.39321 656.748 -11.4914 653.969L-40.1725 674.768C-39.5929 675.651 -39.3162 676.715 -39.4226 677.834C-39.7349 680.391 -42.0459 682.22 -44.6077 681.917C-47.1671 681.612 -48.9956 679.308 -48.6975 676.748C-48.3877 674.201 -46.0814 672.37 -43.5172 672.661C-42.2612 672.819 -41.1896 673.448 -40.4587 674.362L-11.78 653.552C-13.5706 650.993 -14.4837 647.804 -14.0957 644.452C-13.6132 640.459 -11.4109 637.112 -8.3193 635.031L-20.0945 616.779C-20.894 617.223 -21.826 617.46 -22.8077 617.337C-25.2701 617.048 -27.0206 614.825 -26.7343 612.374C-26.4505 609.921 -24.2246 608.168 -21.7669 608.447C-19.3045 608.743 -17.5659 610.967 -17.8521 613.424C-17.9964 614.718 -18.6918 615.795 -19.6664 616.495L-7.89825 634.752C-5.44764 633.249 -2.49083 632.504 0.60554 632.873C5.722 633.458 9.80478 636.923 11.4748 641.446L35.6852 633.569C35.0418 631.329 34.8052 628.923 35.1057 626.463C35.8886 619.738 40.286 614.316 46.1192 611.896L47.0677 611.553C49.5893 610.673 52.319 610.316 55.1576 610.635C59.3681 611.125 63.0913 613.055 65.8707 615.863L202.795 493.35C200.969 491.138 199.772 488.432 199.367 485.513L170.166 488.732C170.211 489.475 170.194 490.227 170.116 490.984C169.335 497.61 163.332 502.348 156.683 501.57C152.127 501.028 148.451 498.008 146.857 494.007L101.289 510.954C101.487 511.564 101.556 512.224 101.48 512.894C101.168 515.46 98.8569 517.298 96.2833 517.002C93.7073 516.688 91.8693 514.365 92.1627 511.794C92.4702 509.225 94.8025 507.396 97.3667 507.701C99.084 507.886 100.456 509.007 101.104 510.488L146.693 493.539C146.104 491.867 145.865 490.041 146.088 488.155C146.485 484.846 148.179 482.005 150.594 480.082L134.313 458.601C133.097 459.448 131.581 459.871 129.981 459.694C126.533 459.282 124.054 456.153 124.465 452.694C124.87 449.255 127.997 446.771 131.453 447.185C134.906 447.592 137.376 450.729 136.974 454.168C136.773 455.855 135.926 457.302 134.719 458.293L151.013 479.791C153.371 478.074 156.366 477.194 159.509 477.572C165.035 478.22 169.241 482.497 170.052 487.744L199.247 484.519C199.157 483.509 199.185 482.48 199.299 481.451C199.81 477.132 202.009 473.423 205.158 470.909L127.827 365.209C124.598 367.43 120.73 368.746 116.61 368.805L116.546 379.738C116.659 379.743 116.773 379.745 116.882 379.759C121.05 380.254 124.037 384.027 123.555 388.187C123.06 392.355 119.287 395.338 115.117 394.844C110.956 394.352 107.964 390.588 108.458 386.42C108.896 382.704 111.943 379.941 115.533 379.736L115.597 368.798C115.02 368.786 114.445 368.757 113.854 368.689C109.009 368.116 104.756 365.879 101.582 362.619L54.6561 406.132C56.662 408.5 57.7406 411.665 57.3622 414.996C56.6052 421.359 50.8406 425.917 44.4634 425.167C38.0979 424.424 33.5302 418.638 34.2824 412.275C35.0205 405.917 40.7898 401.361 47.1671 402.111C49.8448 402.432 52.1889 403.634 53.963 405.403L100.912 361.874C97.2105 357.68 95.2354 351.998 95.9379 346.016C96.1461 344.123 96.6617 342.335 97.3501 340.651L56.0044 322.529C53.2463 328.293 47.0559 331.943 40.3546 331.153C31.917 330.162 25.8709 322.529 26.8691 314.098C27.8674 305.667 35.4935 299.647 43.9335 300.624C52.3616 301.632 58.3982 309.27 57.4095 317.696C57.2557 319.073 56.8938 320.374 56.4018 321.604L97.7428 339.721C101.381 331.995 109.653 327.07 118.627 328.123C120.737 328.376 122.753 328.939 124.605 329.769L125.499 330.231C131.308 333.18 135.413 338.777 136.418 345.278L193.685 337.956C193.626 337.285 193.636 336.599 193.723 335.894C194.393 330.153 199.606 326.039 205.366 326.72C205.83 326.772 206.284 326.874 206.717 326.988L209.506 317.095C207.258 316.345 205.761 314.11 206.052 311.664C206.386 308.858 208.921 306.872 211.731 307.2C214.518 307.524 216.529 310.06 216.197 312.861C215.869 315.657 213.335 317.663 210.527 317.336C210.345 317.303 210.18 317.251 209.988 317.218L207.216 327.118C211.959 328.577 215.15 333.244 214.556 338.358C214.203 341.398 212.564 343.962 210.26 345.621L222.106 362.917C223.414 362.094 224.987 361.685 226.627 361.886C230.442 362.321 233.174 365.777 232.715 369.588C232.271 373.403 228.822 376.114 225.006 375.684C221.193 375.213 218.475 371.769 218.901 367.958C219.147 365.978 220.204 364.296 221.69 363.203L209.86 345.911C207.871 347.198 205.451 347.835 202.92 347.532C198.203 346.981 194.603 343.378 193.813 338.943L136.553 346.273C136.704 347.747 136.732 349.266 136.539 350.789C135.86 356.497 132.898 361.37 128.659 364.615L205.976 470.291C209.063 468.108 212.926 467.031 216.973 467.502C219.613 467.819 222.033 468.768 224.103 470.178L239.587 449.312C237.032 447.202 235.563 443.871 235.973 440.346C236.616 434.818 241.638 430.854 247.173 431.511C252.706 432.152 256.675 437.177 256.02 442.705C255.369 448.242 250.355 452.198 244.824 451.552C243.178 451.339 241.69 450.764 240.394 449.91L224.902 470.776C229.136 474.078 231.604 479.443 230.939 485.163C230.672 487.398 229.969 489.449 228.912 491.285L267.282 514.94C269.333 511.936 272.964 510.147 276.848 510.604C282.437 511.261 286.442 516.316 285.772 521.906C285.124 527.479 280.065 531.472 274.47 530.812C268.888 530.147 264.888 525.095 265.553 519.517C265.713 518.169 266.123 516.92 266.752 515.798L228.375 492.122C225.962 495.722 222.158 498.223 217.834 498.973L219.608 510.897C219.925 510.878 220.216 510.876 220.533 510.921C223.523 511.268 225.65 513.956 225.304 516.955C224.945 519.924 222.262 522.046 219.268 521.7C216.29 521.341 214.161 518.653 214.518 515.673C214.781 513.36 216.467 511.581 218.613 511.051L216.841 499.117C215.668 499.23 214.48 499.249 213.267 499.107C209.352 498.646 205.948 496.792 203.457 494.119L66.5543 616.613C68.4703 618.77 69.8565 621.375 70.5708 624.227L130.481 611.373C130.414 610.787 130.393 610.186 130.457 609.573C130.906 605.722 134.405 602.981 138.249 603.433C142.107 603.877 144.858 607.369 144.42 611.222C143.954 615.061 140.465 617.815 136.614 617.365C133.719 617.027 131.46 614.976 130.696 612.35L70.805 625.2C71.1433 626.962 71.2237 628.809 70.9943 630.676C70.6584 633.588 69.6365 636.211 68.1297 638.491L142.197 689.562C144.52 686.497 148.356 684.706 152.456 685.188C156.37 685.647 159.564 688.053 161.21 691.315L199.904 673.051C199.441 671.991 199.251 670.82 199.391 669.581C199.604 667.816 200.479 666.298 201.74 665.224L191.982 652.885C191.036 653.555 189.863 653.905 188.607 653.763C185.941 653.441 184.03 651.028 184.34 648.346C184.657 645.678 187.072 643.769 189.747 644.083C192.42 644.407 194.324 646.82 194.014 649.493C193.865 650.742 193.248 651.804 192.373 652.578L202.132 664.907C203.471 663.934 205.16 663.435 206.932 663.641C207.862 663.743 208.701 664.039 209.468 664.474L235.783 621.507C234.506 620.627 233.733 619.094 233.931 617.422C234.206 615.023 236.379 613.308 238.783 613.599C241.181 613.883 242.901 616.059 242.612 618.449C242.329 620.859 240.162 622.569 237.759 622.278C237.205 622.226 236.68 622.037 236.212 621.789L209.898 664.734C211.963 666.108 213.203 668.55 212.888 671.18C212.462 674.913 209.08 677.564 205.354 677.124C203.027 676.862 201.115 675.435 200.103 673.519L161.414 691.779C162.206 693.569 162.57 695.58 162.315 697.666C161.598 703.826 156.011 708.242 149.835 707.516C143.668 706.792 139.242 701.198 139.983 695.024C140.167 693.321 140.766 691.76 141.617 690.383L67.5502 639.315C63.834 644.325 57.594 647.291 50.9376 646.499C50.9376 646.499 50.9045 646.499 50.8879 646.499L40.1677 737.863C40.189 737.88 40.2056 737.88 40.2198 737.88C46.6372 738.639 51.7679 742.951 53.885 748.619L81.1633 739.978C80.8109 738.615 80.6808 737.151 80.8464 735.649C81.5844 729.35 87.304 724.846 93.6056 725.589C99.919 726.329 104.425 732.034 103.68 738.343C102.942 744.64 97.2366 749.135 90.9279 748.397C86.4761 747.869 82.928 744.879 81.4756 740.941L54.2185 749.565C54.8619 751.715 55.115 754.003 54.8406 756.378C54.2658 761.272 51.607 765.402 47.8554 768.037L99.6801 846.299C102.663 844.449 106.256 843.553 110.017 843.988C114.85 844.556 118.944 847.255 121.473 851.004L149.844 833.211C149.056 831.794 148.692 830.108 148.903 828.376C149.411 823.912 153.473 820.721 157.929 821.256C162.4 821.767 165.589 825.817 165.075 830.28C164.55 834.737 160.515 837.928 156.037 837.405C153.671 837.131 151.663 835.865 150.372 834.058L122.008 851.861C123.723 854.761 124.536 858.228 124.122 861.84C123.604 866.271 121.317 870.07 118.053 872.615L145.797 910.404C147.488 909.316 149.534 908.774 151.687 909.032C156.572 909.607 160.056 914.037 159.486 918.905C158.918 923.781 154.495 927.272 149.61 926.688C144.732 926.127 141.236 921.701 141.821 916.817C142.093 914.447 143.294 912.407 144.981 911.007L117.244 873.209C114.438 875.12 111.044 876.166 107.458 876.007L107.004 883.989C107.004 883.989 107.02 883.984 107.03 883.993C109.714 884.296 111.611 886.725 111.309 889.387C110.992 892.062 108.572 893.976 105.894 893.652C103.221 893.335 101.308 890.936 101.634 888.254C101.918 885.77 104.044 883.958 106.502 883.979L106.956 875.979C106.729 875.958 106.495 875.962 106.265 875.932C101.033 875.307 96.6831 872.244 94.2135 868.005L23.0513 906.269C24.1915 908.585 24.719 911.253 24.4067 914.021C24.182 915.899 23.5954 917.657 22.7178 919.208L61.9819 943.19C64.0328 940.202 67.6211 938.435 71.4508 938.882C76.967 939.525 80.9055 944.526 80.2621 950.014C79.6187 955.523 74.6276 959.462 69.1185 958.809C63.6046 958.168 59.6543 953.179 60.3095 947.665C60.4562 946.362 60.8701 945.143 61.471 944.055L22.1714 920.062C19.3754 924.289 14.363 926.825 8.96743 926.194C7.4701 926.023 6.06975 925.605 4.78058 925.013L-18.0271 970.09C-13.9774 972.344 -11.4866 976.876 -12.0709 981.749C-12.3287 984.136 -13.3104 986.234 -14.7391 987.945L19.5315 1019.16C21.114 1017.63 23.3612 1016.81 25.7219 1017.08C29.9064 1017.57 32.8987 1021.37 32.4161 1025.56C31.9123 1029.73 28.1252 1032.72 23.9313 1032.22C22.5002 1032.07 21.1992 1031.49 20.1324 1030.65L-41.7265 1099.74C-39.2026 1102.21 -37.7999 1105.77 -38.2351 1109.55C-38.9944 1116.01 -44.8655 1120.65 -51.3397 1119.88C-57.8092 1119.12 -62.455 1113.27 -61.6933 1106.79L-61.6933 1106.79Z" fill="#15285B"/>
<path d="M116.898 278.973C116.444 277.53 115.436 276.413 114.204 275.761L118.079 266.251C121.239 267.512 124.83 267.739 128.338 266.632C134.197 264.792 138.142 259.756 138.899 254.027L139.003 253.054C139.131 251.205 138.928 249.298 138.339 247.427C135.801 239.337 127.207 234.847 119.143 237.39C118.474 237.594 117.844 237.844 117.232 238.135L76.3143 148.912C81.0593 146.48 83.4981 140.921 81.847 135.674C80.002 129.808 73.7572 126.546 67.9003 128.384C62.0269 130.222 58.7815 136.474 60.6148 142.331C62.4574 148.204 68.7046 151.473 74.5709 149.633C74.8619 149.536 75.1363 149.439 75.4296 149.304L116.354 238.566C110.076 242.003 106.878 249.499 109.111 256.596C110.445 260.827 113.459 264.073 117.192 265.84L113.298 275.389C112.295 275.086 111.183 275.056 110.086 275.399C107.221 276.3 105.648 279.349 106.549 282.223C107.441 285.074 110.483 286.666 113.348 285.76C116.196 284.872 117.795 281.816 116.903 278.968L116.898 278.973Z" fill="#15285B"/>
<path d="M-3.64277 537.239C-3.42751 536.842 -3.22409 536.44 -3.05851 536.009C-1.40033 531.922 -1.84503 527.517 -3.88405 523.983L6.9237 516.884C8.09933 518.323 10.0792 518.957 11.9408 518.365C14.4032 517.573 15.7374 514.945 14.9473 512.499C14.1478 510.062 11.5245 508.709 9.07388 509.504C6.61618 510.296 5.28917 512.915 6.07923 515.37C6.15965 515.602 6.26611 515.836 6.37965 516.047L-4.39972 523.113C-5.88522 520.915 -8.01412 519.115 -10.6587 518.041C-12.7095 517.208 -14.8384 516.917 -16.9153 517.085L-20.9721 480.07C-18.8384 479.678 -16.9319 478.246 -16.0543 476.087C-14.6918 472.735 -16.3145 468.9 -19.6734 467.543C-23.0418 466.171 -26.8691 467.784 -28.2245 471.143C-29.5965 474.507 -27.9667 478.329 -24.6149 479.704C-23.7136 480.049 -22.7816 480.198 -21.8804 480.153L-17.8071 517.168C-22.4954 517.845 -26.7248 520.913 -28.6314 525.618C-29.3079 527.281 -29.6296 529.015 -29.6462 530.713L-48.4326 531.186C-48.7022 527.628 -50.9187 524.355 -54.4479 522.931C-59.4059 520.922 -65.0522 523.29 -67.0652 528.241C-69.083 533.204 -66.6891 538.841 -61.7335 540.849C-56.7755 542.867 -51.1221 540.494 -49.1091 535.536C-48.6549 534.406 -48.4278 533.239 -48.4018 532.092L-29.6131 531.609C-29.2961 536.754 -26.1311 541.516 -21.0312 543.588C-14.6823 546.16 -7.55996 543.657 -4.09457 538.015L-3.64513 537.232L-3.64277 537.239Z" fill="#15285B"/>
<path d="M292.672 384.112C295.21 385.148 297.98 384.746 300.093 383.3L317.569 405.366C316.63 406.205 315.825 407.248 315.343 408.478C314.463 410.633 314.536 412.919 315.326 414.922L315.837 415.935C316.764 417.564 318.191 418.948 320.074 419.719C323.217 421.001 326.657 420.252 329.043 418.13L329.817 417.309C330.418 416.628 330.938 415.856 331.291 414.965C332.627 411.703 331.794 408.119 329.493 405.739L350.448 382.595C351.075 383.09 351.745 383.539 352.539 383.856C356.953 385.654 361.961 383.527 363.756 379.128C365.545 374.704 363.425 369.677 359.014 367.884C354.621 366.098 349.594 368.223 347.804 372.639C346.477 375.901 347.302 379.487 349.602 381.874L328.646 405.008C328.017 404.509 327.343 404.055 326.555 403.743C323.757 402.605 320.734 403.062 318.425 404.654L300.947 382.607C301.798 381.829 302.489 380.88 302.96 379.773C304.594 375.712 302.657 371.116 298.598 369.462C294.569 367.832 289.961 369.786 288.327 373.819C286.683 377.871 288.634 382.479 292.672 384.116L292.672 384.112Z" fill="#15285B"/>
<path d="M-45.1659 415.379C-43.794 412.008 -44.4113 408.372 -46.4385 405.642L-25.457 388.41C-24.0945 389.954 -22.3512 391.225 -20.305 392.06C-16.9201 393.444 -13.327 393.373 -10.1714 392.176L-9.25365 391.785C-6.17857 390.361 -3.62151 387.826 -2.24246 384.445C0.141913 378.543 -1.82141 371.977 -6.60908 368.263L-7.41333 367.669C-8.175 367.165 -9.01237 366.732 -9.87103 366.366C-14.6185 364.447 -19.7775 365.325 -23.541 368.237L-24.305 368.866C-25.8331 370.238 -27.0915 371.958 -27.9218 373.995C-29.8449 378.714 -28.9673 383.849 -26.0933 387.627L-47.063 404.864C-48.0399 403.797 -49.2463 402.908 -50.6798 402.312C-54.5402 400.734 -58.8027 401.754 -61.5632 404.554L-107.044 363.776C-106.441 363.026 -105.896 362.219 -105.516 361.268C-103.427 356.14 -105.896 350.285 -111.041 348.208C-116.158 346.101 -122 348.58 -124.082 353.718C-126.166 358.844 -123.699 364.696 -118.573 366.787C-114.71 368.358 -110.436 367.333 -107.675 364.549L-62.2066 405.328C-62.8145 406.063 -63.3491 406.882 -63.73 407.828C-65.8092 412.956 -63.3468 418.797 -58.2232 420.89C-53.0973 422.984 -47.2546 420.517 -45.1683 415.376L-45.1659 415.379Z" fill="#15285B"/>
<path d="M222.489 209.764C221.222 210.901 220.185 212.33 219.49 214.024C217.595 218.684 218.963 223.864 222.513 227.046L199.739 254.843C199.183 254.433 198.582 254.074 197.924 253.797C193.498 252.014 188.451 254.135 186.648 258.554C184.855 262.975 186.986 268.018 191.407 269.811C193.586 270.696 195.909 270.623 197.931 269.8L198.828 269.345C200.503 268.423 201.901 266.975 202.674 265.05C204.074 261.639 203.088 257.849 200.503 255.467L223.313 227.694C224.084 228.283 224.947 228.777 225.9 229.163C231.854 231.583 238.641 228.728 241.044 222.774C243.478 216.817 240.609 210.048 234.655 207.625C230.716 206.014 226.421 206.75 223.249 209.127L222.489 209.768L222.489 209.764Z" fill="#15285B"/>
<path d="M56.6008 138.52C56.8562 130.503 63.5883 124.199 71.6001 124.455C79.6095 124.71 85.9205 131.433 85.6603 139.45C85.4048 147.459 78.6751 153.768 70.6657 153.505C62.6492 153.255 56.3453 146.529 56.6008 138.52ZM57.2489 138.532C57.0029 146.191 63.0348 152.609 70.6917 152.857C78.3416 153.103 84.7685 147.085 85.0169 139.428C85.2629 131.773 79.2357 125.344 71.5835 125.098C63.9242 124.85 57.4902 130.879 57.2489 138.532Z" fill="#15285B"/>
<path d="M214.327 217.896C214.615 209.097 221.998 202.175 230.797 202.464C239.59 202.743 246.516 210.123 246.229 218.923C245.948 227.72 238.565 234.641 229.771 234.355C220.973 234.076 214.047 226.691 214.327 217.896ZM215.053 217.92C214.785 226.32 221.399 233.359 229.794 233.634C238.194 233.906 245.238 227.297 245.508 218.897C245.78 210.502 239.166 203.457 230.771 203.188C222.371 202.916 215.327 209.532 215.053 217.922L215.053 217.92Z" fill="#15285B"/>
<path d="M322.941 423.313C316.594 423.109 311.596 417.77 311.799 411.431C312.003 405.089 317.335 400.088 323.676 400.292C330.023 400.498 335.021 405.825 334.825 412.174C334.614 418.515 329.283 423.511 322.941 423.313ZM322.96 422.738C328.999 422.927 334.051 418.172 334.245 412.152C334.437 406.123 329.694 401.058 323.655 400.867C317.64 400.673 312.568 405.42 312.377 411.452C312.183 417.472 316.942 422.541 322.957 422.738L322.96 422.738Z" fill="#15285B"/>
<path d="M232.477 441.065C232.718 433.666 238.934 427.828 246.334 428.067C253.735 428.304 259.573 434.525 259.332 441.929C259.095 449.33 252.876 455.164 245.47 454.927C238.071 454.688 232.24 448.469 232.477 441.065ZM233.056 441.082C232.834 448.169 238.404 454.123 245.491 454.343C252.578 454.575 258.53 448.997 258.752 441.905C258.979 434.823 253.404 428.864 246.312 428.644C239.23 428.415 233.286 434 233.054 441.082L233.056 441.082Z" fill="#15285B"/>
<path d="M196.754 670.064C196.919 664.874 201.281 660.784 206.461 660.949C211.656 661.115 215.743 665.477 215.58 670.664C215.41 675.854 211.055 679.944 205.856 679.779C200.671 679.608 196.59 675.251 196.751 670.064L196.754 670.064ZM197.113 670.075C196.952 675.069 200.888 679.261 205.872 679.417C210.871 679.58 215.057 675.648 215.218 670.655C215.372 665.666 211.45 661.474 206.452 661.314C201.468 661.15 197.276 665.087 197.113 670.075Z" fill="#15285B"/>
<path d="M190.542 336.686C190.783 329.197 197.082 323.295 204.581 323.532C212.082 323.768 217.976 330.07 217.737 337.561C217.494 345.05 211.206 350.967 203.708 350.718C196.214 350.477 190.305 344.18 190.544 336.684L190.542 336.686ZM191.024 336.707C190.792 343.941 196.491 350.013 203.722 350.24C210.949 350.477 217.032 344.781 217.262 337.545C217.496 330.309 211.793 324.237 204.564 324.009C197.326 323.773 191.256 329.471 191.024 336.707Z" fill="#15285B"/>
<path d="M31.4536 413.12C31.7067 405.191 38.3654 398.941 46.3039 399.196C54.2352 399.445 60.4729 406.108 60.2246 414.042C59.9691 421.976 53.3103 428.214 45.3837 427.963C37.45 427.708 31.2028 421.054 31.4536 413.12ZM32.0236 413.143C31.7847 420.755 37.7811 427.14 45.3979 427.386C53.0028 427.627 59.3943 421.633 59.6379 414.023C59.8839 406.414 53.8922 400.015 46.2826 399.774C38.6635 399.53 32.2697 405.531 32.0236 413.143Z" fill="#15285B"/>
<path d="M1.6536 531.458C1.34136 541.166 -6.81234 548.809 -16.5249 548.496C-26.2374 548.184 -33.8897 540.04 -33.5798 530.32C-33.2675 520.612 -25.1091 512.964 -15.3966 513.279C-5.67693 513.587 1.9682 521.745 1.6536 531.458ZM1.07406 531.434C1.37447 522.041 -6.01756 514.154 -15.4131 513.849C-24.8016 513.549 -32.6951 520.946 -33.0002 530.341C-33.3007 539.739 -25.8968 547.616 -16.5083 547.922C-7.11275 548.222 0.773649 540.825 1.07406 531.434Z" fill="#15285B"/>
<path d="M30.5025 627.87C30.8999 615.499 41.2936 605.748 53.6579 606.146C66.0386 606.543 75.7772 616.935 75.3798 629.311C74.9824 641.673 64.5957 651.421 52.2197 651.024C39.8507 650.629 30.1051 640.235 30.5025 627.87ZM31.0796 627.887C30.6988 639.941 40.1842 650.059 52.2386 650.444C64.2977 650.832 74.4218 641.344 74.8073 629.297C75.1929 617.235 65.698 607.118 53.6437 606.728C41.587 606.337 31.4699 615.837 31.0796 627.887Z" fill="#15285B"/>
<path d="M87.7842 859.264C88.1414 847.962 97.634 839.068 108.936 839.427C120.238 839.789 129.139 849.28 128.78 860.577C128.416 871.887 118.925 880.788 107.623 880.428C96.3211 880.064 87.42 870.569 87.7842 859.264ZM88.3519 859.283C88.0042 870.273 96.6523 879.492 107.637 879.849C118.625 880.199 127.848 871.556 128.205 860.563C128.553 849.578 119.9 840.362 108.92 840.007C97.932 839.659 88.7091 848.303 88.3519 859.283Z" fill="#15285B"/>
<path d="M121.87 453.144C122.031 448.228 126.156 444.358 131.077 444.517C135.992 444.678 139.864 448.798 139.708 453.714C139.545 458.627 135.417 462.511 130.502 462.348C125.584 462.194 121.714 458.059 121.87 453.144ZM122.242 453.153C122.093 457.87 125.795 461.832 130.521 461.988C135.235 462.135 139.19 458.419 139.341 453.7C139.491 448.985 135.784 445.025 131.062 444.879C126.348 444.723 122.393 448.436 122.242 453.151L122.242 453.153Z" fill="#15285B"/>
</g>
<defs>
<clipPath id="clip0_2009_7602">
<rect width="1640" height="792" fill="white" transform="translate(-221 1640) rotate(-90)"/>
</clipPath>
</defs>
</svg>
