<?xml version="1.0" encoding="UTF-8"?>
<svg id="Layer_2" data-name="Layer 2" xmlns="http://www.w3.org/2000/svg" viewBox="0 0 392.27 235.34">
  <defs>
    <style>
      .cls-1 {
        fill: #0a0b04;
      }

      .cls-2 {
        fill: #4f6f4f;
      }

      .cls-3 {
        fill: #616144;
      }

      .cls-4 {
        fill: #101609;
      }

      .cls-5 {
        fill: #181c05;
      }

      .cls-6 {
        fill: #223335;
      }

      .cls-7 {
        fill: #020201;
      }

      .cls-8 {
        fill: #53745a;
      }

      .cls-9 {
        fill: #31401d;
      }

      .cls-10 {
        fill: #3d5037;
      }

      .cls-11 {
        fill: #fefefe;
      }

      .cls-12 {
        fill: #587b63;
      }

      .cls-13 {
        fill: #292a0f;
      }
    </style>
  </defs>
  <g id="Layer_0_Image" data-name="Layer 0 Image">
    <g>
      <path class="cls-13" d="M232.11,131c-9.44-6.22-18.14-13.45-27.93-19.14,1.54-3.97-.01-4.39-2.61-6.83-14.94-14.03-39.29-25.82-54.94-40.05-1.25-1.13-5.07-4.48-5.39-5.71-.45-1.73,2.68-9.22-2.61-4.26-8.14,7.63,1.94,21.97,2.46,30.6.29,4.81-.45,3.71.82,9.15.84,3.6-4.87,11.57-7.87,13.66-1.98,1.38-11.84,4.67-12.92,3.57-.18-.19-.44-2.28.68-3,3.38-2.17,9.38-3.63,10.31-8.99-2.87.41-3.74,2.79-6.92,3.56-13.71,3.31-21.49-12.28-10.58-21.57,1.22-1.04,6.15-2.25,4.51-3.98-.28-.29-4.99-1.2-7.5-3.02-2.5-1.81-7.78-8.18-9.02-10.98-5.5-12.47,5.43-10.33,5.6-16.52.07-2.78-5.26-1.68-4.98-4.82.05-.57,4.58-7.92,5.34-8.72,4.12-4.3,14.09-6.4,11.04-14.93l5,2.99c1.72,4.03,7.31,31.79,8.62,32.88,2.73,2.27,6.78-2.09,1.89-4.88l6-2c-.15,2.53,1.44,1.5,1.94,2.74.4.99-.1,2.72.57,4.24,1.64,3.76,58.92,40.73,67.4,46.62,3.84,2.67,7.73,5.06,11.1,7.39,2.17,1.5,15.01,10.19,15.5,11,1.33,2.21,1.67,9.3-2.49,6-.37,1.35,1.58,1.2,1.99,1.99.12.23-.1.67,0,1,.03.11-2.06.23,0,1,22.98,13.58,44.79,31.44,67.69,44.81,3.79,2.21,9.2,5.51,13.29,6.72,1.94.57,3.45,1.5,3.02-1.53,4.59,3.04,3.76-.86,4-1,.29-.17,2.62.24,5-1s7.63-5.6,9.52-5.98c2.87-.57,10.36.35,13.48.98.14.93-.21,2.2,0,3,.56,2.13,1.68-.04,2,0,1.35.15,2.27,2,3,3-3.7-.46-2.2,2.69,1,3,.94,4.15,7.16,7.72,5.24,1.27l2.76-.27c3.67,4,19.88,21.84,21,25v9.01s-3,0-3,0c-.17-3.15.22-6.39,0-9.54-.19-2.85-2.47-1.04-4.01-1.47-.7-3.12-4.88-6.72-7.98-7.51l7.98,9.51c.18,1.81.38,6.95.01,8.35-.28,1.05-1.95.57-2.01.65-2.32-.11-5.78-.59-6.01,2.49-.02.95,4.76.47,6.01.51.33.01.67,0,1,0,.95,4.73-2.8,7.74-5.51,10.99-3.12-15.12-4.33-13.55-18.98-12.98-13.49.52-27.57.81-40.92,1.89-5.49.45-2.51.63-4.26,1.1-.46.12-8.57.05-9.33,0-5.54-.38-32.68-17.16-40-21,.25-2.12.11-2.25-2-2-.14-.13-2.44-.12-3.68-.77-40.21-20.98-80.73-42.01-121.32-62.23h5.99c-.33-2.93-3.13-4.73-3.76-7.72-1.63-7.76,1.15-8.12,3.96-13.58,1.74-3.38,3.45-6,5.01-8.99,1.42-2.72,1.48-5.96,2.79-8.71.97,2.32,2.36,3.31,4,5,.1.3-.1.7,0,1,.94,2.91.93,5.75,4,8,.1.3-.09.7,0,1,.2.66.98.93,1,1,.08.31-.08.69,0,1,.21.78-.28,2.67,0,3,.21.25,1.61-.23,2,0,.16.09-.16.8,0,1,.14.17,0,.95,1,2,11.77,12.5,20.52,12.16,32.36,20.14,1.43.97,1.87,2.82,3.26,3.74,3.35,2.21,8.46,4.31,12.38,3.12.99.64,2.35.62,3,1,4.21,2.45,16.27,6.41,17,7,1.43,1.15-1.84.27,3,2,.49.18,1.13.7,2,1,1,.35,2.24.71,3,1,.31.12.92-.15,1,0,.19.34-.33,1.56.09,1.92.51.44,2.2-.12,2.91.08.85.24,1.83.67,3,1,.89,2.46,3.2,2.26,5,3,.29.12.72-.12,1,0,.54.23,1.09.65,2,1,.57.22,1.18.7,2,1,1.03.37,1.99.65,3,1s1.9.67,3,1c1.02,3.04,4.26,2.27,6,3,.59.24,1.19.68,2,1,1.45.58,2.93,2.15,5,2,10.18,5.42,12.62,6.63,24,8,4.33.52,8.82.53,12.99,2v-1.98c-24.58-15.98-48.55-32.82-72.99-49.02-1.92-1.27-3.48-1.66-4-2ZM146.1,136.02c-.13-.16-3.8-1.2-3.99-1.01-2.39,2.34,6.72,4.36,3.99,1.01ZM366.11,190.01c-1.21,1.19,5.05,7.14,6.97,6.51-.61-1.24-5.52-7.93-6.97-6.51Z"/>
      <path class="cls-5" d="M94.11,5c8.13.48,13.57-1.21,21,3,6.76,3.83,14.54,10.34,21,15-1.61,1.89-5.63,1.28-7.51.02l-.47.47c.28.75,1.83,1.2,1.98,1.51.23.46.32,2.02.99,3.49,1.1,2.41,2.63,2.13,1.02,6.51,1.86-.11,3.49-1.27,5.44-1.04,2.65.32,2.88,2.65,3.56,3.04-1.58,2.13-9.82,10.59-7.96,12.98.24.31,1.62-.17,1.96.02,4.89,2.79.84,7.15-1.89,4.88-1.31-1.09-6.9-28.84-8.62-32.88l-5-2.99c3.05,8.53-6.92,10.63-11.04,14.93-.76.79-5.29,8.14-5.34,8.72-.28,3.14,5.05,2.04,4.98,4.82-.17,6.19-11.1,4.05-5.6,16.52,1.23,2.8,6.52,9.18,9.02,10.98,2.51,1.81,7.22,2.72,7.5,3.02,1.65,1.73-3.28,2.94-4.51,3.98-10.91,9.3-3.13,24.89,10.58,21.57,3.18-.77,4.05-3.15,6.92-3.56-.93,5.36-6.92,6.82-10.31,8.99-1.13.72-.87,2.82-.68,3,1.08,1.11,10.95-2.18,12.92-3.57,3-2.09,8.71-10.06,7.87-13.66-1.27-5.44-.53-4.34-.82-9.15-.52-8.63-10.6-22.97-2.46-30.6,5.3-4.97,2.16,2.53,2.61,4.26.32,1.22,4.15,4.57,5.39,5.71,15.65,14.24,40,26.02,54.94,40.05,2.6,2.44,4.15,2.86,2.61,6.83,9.78,5.69,18.49,12.92,27.93,19.14l-2,5c-16.91-10.46-32.63-22.78-49-34,2.24-.97.53-2.92-.43-4.07-5.48-6.52-19.43-12.95-26.06-18.93-1.36-1.22-2.05-3.18-3.47-4.53-4.64-4.36-11.96-8.84-12.03-15.48-3.27-.96-2.09,4.41-1.75,6.27,1.69,9.5,6.27,14.96,8.76,22.74.68,2.11,1.2,6.1,2,8-1.32,2.75-1.37,5.99-2.79,8.71-1.56,2.99-3.27,5.61-5.01,8.99-2.82,5.46-5.59,5.82-3.96,13.58.63,2.99,3.44,4.8,3.76,7.72h-5.99c-4.44-2.2-9.4-4.08-14-5.99.11-4.61.04-9.29-.11-13.89-3.97-1.36-7.83-.99-11.89-1.11-.07-2.59.32-5.25-.21-7.8-9.15-5.92-18.12-12.2-27.11-18.38-2.36-1.62-4.96-4.64-6.68-5.82.22-7.54,6.39-10.71,3.81-19.31-1.24-4.12-11.55-4.87-13.88-8.11-5.76-8.02,11.48-25.75,19.52-24.61,3.64.52,5.25,6.94,9.55,6.03-1.06-7.73,6.51-7.07,8.93-10.64,1.13-1.67-.18-12.45-.95-14.59-.85-2.36-7.26-2.37-6.97-5.77Z"/>
      <path class="cls-10" d="M153.11,50c.25.15.75-.15,1,0l1,1c.52.31,1.27.58,2,1l1,1c.58.34,1.25.53,2,1,.45,2.96,3.73,3.67,6,5,.25.15.75-.15,1,0l1,1c.54.32,1.24.54,2,1l1,1c.54.32,1.27.55,2,1,2.81,4.31,7.11,5.6,11,8,2.67,1.65,5.33,3.36,8,5,.45,2.95,3.72,3.68,6,5,10.59,6.11,14.33,6.28,24.98,10.52,6.45,2.57,7.98,4.88,15.05,6.92.33.1,5.69,3.38,5.89,3.67,1.01,1.45-3.22,4.74-2.98,7.29.02.2,2.43,2.07,3.06,2.61l3,2c.51,2.08-.49,2.66-1,4l-6,1c-.55-1.07-11.93-8.39-13.97-9.53-.95-.53-3.48-2.42-4.03-.47-3.36-2.33-7.26-4.73-11.1-7.39-8.48-5.9-65.76-42.86-67.4-46.62-.66-1.52-.17-3.25-.57-4.24-.5-1.24-2.09-.22-1.94-2.74.17-2.96,1.96-4.03,3-6-.34,4.39,5.82,6.08,9,8ZM234.1,100.02c-.67-.97-13.5-7.66-15.99-7.01,1.96,2.68,10.08,10.13,12.96,10.56,1.68.25,3.74-2.53,3.04-3.55Z"/>
      <path class="cls-9" d="M301.11,221c.76.05,8.87.13,9.33,0,1.75-.47-1.23-.65,4.26-1.1,13.35-1.09,27.43-1.37,40.92-1.89,14.66-.57,15.87-2.13,18.98,12.98,2.7-3.26,6.46-6.26,5.51-10.99,2.33.05,4.67,0,7,0,2.01,4.74-5.9,7.69-1,10-.6.56-.74,2.12-2.49,1.98-4.6-.81-9.36.79-13.51,1.02l-1.01-13c-1.08-.39-2.19,1-2.49,1h-20c-3.02,0-.09,8.99-.5,11l5.49-5.01c-.82,10.64,1.08,2.01,5.7.65,2.99-.89,4.84.45,7.33-.6l-.51,4.97c-6.84.44-13.67,1.64-21,2l-1-12.01-24.01,1,1.01,11,3.5-4.99c2.89-.72.35,6.69,3.47,3.98.46-.4.38-3.04,3.31-4.28,2.52-1.07,4.74.53,7.2-.72l-1.48,6.01c-5.15.16-13.15,2.32-18.3.8-.44-.13-6.97-5.4-7.21-5.8-.96-1.63-.22-4.69-.51-4.99-.31-.32-7.28.54-7.99-3.01Z"/>
      <path class="cls-3" d="M240.11,119c.28.54-.31,2.72,0,3,.28.25,4.52-.62,5-1l85,57c-2.38,1.24-4.71.83-5,1l-82.52-55.99c-2.47-.58-1.07,1.37-1.48,1.99-.67,1.01-2.73,3.27-4,3-.41-.79-2.36-.64-1.99-1.99,4.15,3.3,3.82-3.79,2.49-6-.49-.81-13.33-9.5-15.5-11,.55-1.95,3.08-.06,4.03.47,2.04,1.13,13.42,8.46,13.97,9.53Z"/>
      <path class="cls-12" d="M136.11,23c2.02,1.46,3.04,2.67,4.65,3.86,2.89,2.13,14.96,8.97,15.88,11.16,1.47,3.53-3.91,8.24-3.53,11.98-3.18-1.92-9.34-3.61-9-8,.78-1.47,1.31-2.36,2-4,.13-.3,1.5-.7.98-1.95l-16.98-11.05c-.15-.3-1.7-.76-1.98-1.51l.47-.47c1.88,1.26,5.9,1.87,7.51-.02Z"/>
      <path class="cls-13" d="M364.11,232l.51-4.97c-2.49,1.06-4.34-.28-7.33.6-4.62,1.37-6.52,10-5.7-.65l-5.49,5.01c.41-2.01-2.52-11,.5-11h20c.3,0,1.41-1.38,2.49-1l1.01,13c-.66.04-1.34-.04-2,0,2.21-4.99-.53-6.09-2-1-.66.04-1.34-.04-2,0Z"/>
      <path class="cls-13" d="M335.11,234l1.48-6.01c-2.46,1.25-4.67-.34-7.2.72-2.93,1.24-2.85,3.88-3.31,4.28-3.11,2.71-.58-4.71-3.47-3.98l-3.5,4.99-1.01-11,24.01-1,1,12.01c-1,.05-2-.05-3,0l.99-5c-2.02.64-2.67,3.11-2.99,5-1,.04-2-.03-3,0Z"/>
      <path class="cls-12" d="M381.11,206c1.53.43,3.81-1.38,4.01,1.47.21,3.15-.18,6.39,0,9.54h2.99s0-9.01,0-9.01c1.68,4.73-.75,10.07,4,9,.66,1.52-.95,2.63-1,3h-4c-2.33,0-4.67.05-7,0-.33,0-.67.01-1,0,.17-.77-.25-2.66,0-3,.06-.09,1.74.4,2.01-.65.37-1.4.17-6.54-.01-8.35-.07-.65.13-1.43,0-2Z"/>
      <path class="cls-12" d="M353.11,173c7.33,1.47,9.27,4.85,14,10l-2.76.27c1.92,6.45-4.3,2.88-5.24-1.27-.08-.34,1.5.42-1-3-.73-1-1.65-2.85-3-3l-.5-.97-1.5.97c-.21-.8.14-2.07,0-3Z"/>
      <path class="cls-5" d="M391.11,220c-.14.92.23,2.32,0,3l-1,2c-.76,1.46-2.77,3.85-4,5-4.9-2.31,3.01-5.26,1-10h4Z"/>
      <path class="cls-12" d="M246.11,118c-.31.8-.35,2.48-1,3-.48.38-4.71,1.25-5,1-.31-.28.27-2.46,0-3l6-1Z"/>
      <path class="cls-9" d="M340.11,234c-.66.03-1.34-.02-2,0,.32-1.89.97-4.36,2.99-5l-.99,5Z"/>
      <path class="cls-9" d="M366.11,232c1.47-5.09,4.21-3.99,2,1-.85.05-1.87-1.01-2-1Z"/>
      <path class="cls-12" d="M192.11,76c2.12,1.31,6.38,2.42,6,5-2.28-1.32-5.55-2.05-6-5Z"/>
      <path class="cls-12" d="M184.11,71c-3.89-2.4-8.19-3.69-11-8,3.72,2.29,8.46,4.33,11,8Z"/>
      <path class="cls-12" d="M160.11,54c2.11,1.34,6.39,2.38,6,5-2.27-1.33-5.55-2.04-6-5Z"/>
      <path class="cls-9" d="M259.11,198c2.11-.25,2.25-.12,2,2-3.32-1.74-1.32-1.38-2-2Z"/>
      <path class="cls-12" d="M390.11,225l1-2c-.37,1.08-.62,1.27-1,2Z"/>
      <path class="cls-12" d="M247.11,114l-3-2c.51.43,2.49-.1,3,2Z"/>
      <path class="cls-12" d="M171.11,62l-1-1c.42.25.69.81,1,1Z"/>
      <path class="cls-12" d="M168.11,60l-1-1c.68.39.93.96,1,1Z"/>
      <path class="cls-12" d="M155.11,51l-1-1c.63.37.89.94,1,1Z"/>
      <path class="cls-12" d="M158.11,53l-1-1c.42.24.69.82,1,1Z"/>
      <path class="cls-1" d="M89.11,4c2.08.12,3.92.94,5,1-.29,3.4,6.12,3.41,6.97,5.77.77,2.14,2.08,12.92.95,14.59-2.42,3.57-9.99,2.9-8.93,10.64-4.29.9-5.91-5.51-9.55-6.03-8.03-1.14-25.28,16.59-19.52,24.61,2.33,3.25,12.65,4,13.88,8.11,2.58,8.6-3.59,11.76-3.81,19.31-2.04-1.4-6.43-3.36-9-5s-4.84-4.07-7.99-5v8c-.45.06-1.18,2.21-3-.52,4.99-6.65,1.89-15.46-6.99-10.49-2.23-2.84-1.31-11.11-5.52-11.02-1.33,4.49-6.11.83-5.51-2.97l3-.99c-3.06.5-8.34-7.39-8,0-6.35-.43-4.34-2.13-6-7,2.12-.83,8.75-14.19,11.15-17.35,1.01-1.33,7.74-5.49,1.07-5.01-8.98.65-9.26,12.98-13.47,17.09-3.97,3.88-9.16-2.1-7.75-6.73l-6.99,4.99c.42-8.35,3.07-19.46,12.48-21.01,3.5-.58-.78,3.82,1.02,5.03,16.7-2.04,33.89-1.92,50.78-2.99l4.7-3.02c.13,2.15.37,3.95,1.02,6,5.38-.95,2.22-7.58,2.98-12-1.36-.54-3.36,1.02-3.99,1-5.94-.21-20.61-5.7-27.55-6.94-4.19-.75-7.48.94-10.85.85-12.27-.33-24.73-1.33-36.44-4.62C1.55,1.8-.49,2.92.11,0c29.65,1.54,59.46,2.27,89,4Z"/>
      <path class="cls-2" d="M36.11,19c.35-4.08-1.93-10.78,4-10-.7,5.19,4.01,8.6-2,11-.63-.19-1.47-.95-2-1Z"/>
      <path class="cls-2" d="M78.11,13c.64.02,2.64-1.54,3.99-1-.76,4.41,2.4,11.05-2.98,12-.65-2.05-.89-3.85-1.02-6-.1-1.66.07-3.34,0-5Z"/>
      <path class="cls-1" d="M36.11,19c.53.05,1.37.81,2,1-4.14,1.66-7.56.91-11.99.99-1.61-1.22,0-1.81,1.47-2,2.19-.28,6.26-.22,8.52,0Z"/>
      <path class="cls-4" d="M146.11,88c-2.49-7.78-7.07-13.24-8.76-22.74-.33-1.86-1.51-7.23,1.75-6.27.07,6.63,7.4,11.12,12.03,15.48,1.43,1.34,2.12,3.3,3.47,4.53,6.64,5.98,20.58,12.41,26.06,18.93.96,1.15,2.68,3.1.43,4.07-8.08-5.53-17.02-10.33-25-16-.24-.17-5.36-6.1-3.99-1.52.77,2.54,3.29,7.27,4.99,9.52,3.74,15.64,13.86,30.93,27.98,38.52,9.37,5.03,14.27,7.83,23.02,13.48-3.92,1.19-9.03-.91-12.38-3.12-1.39-.92-1.83-2.77-3.26-3.74-11.84-7.98-20.59-7.64-32.36-20.14l-1-2c-.16-.2.16-.91,0-1,0-1.47-.56-2.57-2-3-.08-.31.08-.69,0-1l-1-1c-.09-.3.1-.7,0-1-.89-2.77-1.06-6.53-4-8-.1-.3.1-.7,0-1-1.37-4.16-2.5-10.16-6-13Z"/>
      <path class="cls-12" d="M241.11,125c17.74,11.69,35.41,23.58,52.97,35.56,1.34.91,1.7,2.72,2.79,3.46,7.86,5.37,16.45,10.81,24.24,15.98.43,3.02-1.08,2.1-3.02,1.53-4.09-1.2-9.49-4.51-13.29-6.72-22.91-13.37-44.71-31.23-67.69-44.81v-1c-.1-.33.12-.77,0-1,1.27.27,3.33-1.99,4-3ZM246.1,131.01c-1.09-1.09-3.08.9-1.99,1.99s3.08-.9,1.99-1.99ZM249.1,133.01c-1.09-1.09-3.08.9-1.99,1.99s3.08-.9,1.99-1.99ZM250.61,135v1c.65-.33.65-.67,0-1ZM253.6,137.02c-.99.7.54,1.37,1.02,1.96.99-.66-.47-1.32-1.02-1.96Z"/>
      <path class="cls-6" d="M296.11,182c-11.38-1.37-13.82-2.58-24-8-1.42-.76-2.48-2.59-5-2-.81-.32-1.41-.76-2-1-1.15-2.96-3.89-2.36-6-3-1.1-.33-1.95-.64-3-1-.43-1.57-2.44-3.17-3-1-.82-.3-1.43-.78-2-1l1-.99h-3c-.28-.13-.71.11-1-.01.77-2.67-2.73-2.37-5-3-1.17-.33-2.15-.76-3-1-.44-1.44-1.53-2-3-2-.08-.15-.69.12-1,0l-3-1c-.87-.3-1.51-.82-2-1l-3-2c-.73-.59-12.79-4.55-17-7l4.79-.38c26.87,11.34,53.89,22.73,80.21,35.38Z"/>
      <path class="cls-11" d="M325.11,179c-.24.14.59,4.04-4,1-7.79-5.16-16.38-10.61-24.24-15.98-1.09-.74-1.45-2.55-2.79-3.46-17.56-11.98-35.22-23.87-52.97-35.56.41-.61-.99-2.57,1.48-1.99l82.52,55.99Z"/>
      <path class="cls-7" d="M146.11,38c-.69,1.64-1.22,2.53-2,4-1.04,1.97-2.83,3.04-3,6l-6,2c-.35-.2-1.73.28-1.96-.02-1.85-2.39,6.38-10.84,7.96-12.98,1.14.65,3.6.77,5,1Z"/>
      <path class="cls-8" d="M236.11,133c-1.22,2.06-3.81,5.65-6,3l2-5c.52.34,2.08.73,4,2Z"/>
      <path class="cls-10" d="M152.11,101c-1.64-1.69-3.03-2.68-4-5-.8-1.9-1.32-5.89-2-8,3.5,2.84,4.63,8.84,6,13Z"/>
      <path class="cls-9" d="M379.11,217c-.25.34.17,2.23,0,3-1.25-.04-6.03.44-6.01-.51.23-3.08,3.69-2.6,6.01-2.49Z"/>
      <path class="cls-8" d="M366.11,190.01c1.46-1.43,6.37,5.26,6.97,6.51-1.92.63-8.18-5.32-6.97-6.51Z"/>
      <path class="cls-8" d="M381.11,206c.13.57-.07,1.35,0,2l-7.98-9.51c3.1.79,7.28,4.39,7.98,7.51Z"/>
      <path class="cls-10" d="M265.11,171c-1.74-.73-4.98.04-6-3,2.11.64,4.85.04,6,3Z"/>
      <path class="cls-10" d="M156.11,110c-3.07-2.25-3.06-5.09-4-8,2.94,1.47,3.11,5.23,4,8Z"/>
      <path class="cls-10" d="M358.11,179c2.5,3.42.92,2.66,1,3-3.2-.31-4.7-3.46-1-3Z"/>
      <path class="cls-10" d="M243.11,161c2.27.63,5.77.33,5,3-1.8-.74-4.11-.54-5-3Z"/>
      <path class="cls-5" d="M146.1,136.02c2.73,3.35-6.38,1.33-3.99-1.01.19-.19,3.86.85,3.99,1.01Z"/>
      <path class="cls-10" d="M240.11,160c-.71-.2-2.41.37-2.91-.08-.41-.36.1-1.59-.09-1.92,1.47,0,2.56.56,3,2Z"/>
      <path class="cls-10" d="M159.11,116c-.39-.22-1.79.25-2,0-.28-.33.21-2.22,0-3,1.44.43,1.99,1.53,2,3Z"/>
      <path class="cls-10" d="M256.11,167c-1.01-.35-1.97-.63-3-1,.56-2.17,2.57-.57,3,1Z"/>
      <path class="cls-10" d="M231.11,156c-4.84-1.73-1.57-.85-3-2l3,2Z"/>
      <path class="cls-10" d="M236.11,158c-.76-.29-2-.65-3-1l3,1Z"/>
      <path class="cls-10" d="M249.11,164h3s-1,1-1,1c-.91-.35-1.46-.77-2-1Z"/>
      <path class="cls-10" d="M272.11,174c-2.07.15-3.55-1.42-5-2,2.52-.59,3.58,1.24,5,2Z"/>
      <path class="cls-10" d="M355.11,176c-.32-.04-1.44,2.13-2,0l1.5-.97.5.97Z"/>
      <path class="cls-10" d="M160.11,119c-.99-1.05-.86-1.83-1-2l1,2Z"/>
      <path class="cls-3" d="M237.11,130c-2.06-.77.03-.89,0-1v1Z"/>
      <path class="cls-10" d="M157.11,112c-.02-.07-.8-.34-1-1l1,1Z"/>
      <path class="cls-13" d="M130.11,25l16.98,11.05c.52,1.25-.86,1.65-.98,1.95-1.4-.23-3.86-.35-5-1-.68-.39-.9-2.72-3.56-3.04-1.94-.24-3.58.93-5.44,1.04,1.61-4.38.08-4.09-1.02-6.51-.67-1.47-.76-3.03-.99-3.49Z"/>
      <path class="cls-5" d="M156.11,86c1.36,2.41.5,5.9,1,8-1.7-2.25-4.22-6.98-4.99-9.52-1.38-4.58,3.74,1.35,3.99,1.52Z"/>
      <path class="cls-3" d="M246.1,131.01c1.09,1.09-.9,3.08-1.99,1.99s.9-3.08,1.99-1.99Z"/>
      <path class="cls-3" d="M249.1,133.01c1.09,1.09-.9,3.08-1.99,1.99s.9-3.08,1.99-1.99Z"/>
      <path class="cls-3" d="M250.61,135c.65.33.65.67,0,1v-1Z"/>
      <path class="cls-3" d="M253.6,137.02c.55.64,2.01,1.3,1.02,1.96-.48-.59-2.01-1.26-1.02-1.96Z"/>
    </g>
  </g>
</svg>