<?xml version="1.0" encoding="UTF-8"?>
<svg id="Layer_2" data-name="Layer 2" xmlns="http://www.w3.org/2000/svg" viewBox="0 0 235.08 272.15">
  <defs>
    <style>
      .cls-1 {
        fill: #0a0b04;
      }

      .cls-2 {
        fill: #4f6f4f;
      }

      .cls-3 {
        fill: #616144;
      }

      .cls-4 {
        fill: #101609;
      }

      .cls-5 {
        fill: #181c05;
      }

      .cls-6 {
        fill: #223335;
      }

      .cls-7 {
        fill: #020201;
      }

      .cls-8 {
        fill: #31401d;
      }

      .cls-9 {
        fill: #3d5037;
      }

      .cls-10 {
        fill: #fefefe;
      }

      .cls-11 {
        fill: #152223;
      }

      .cls-12 {
        fill: #587b63;
      }

      .cls-13 {
        fill: #292a0f;
      }
    </style>
  </defs>
  <g id="Layer_0_Image" data-name="Layer 0 Image">
    <g>
      <path class="cls-4" d="M162,252.06c11.65-.91,5.16,2.85,7,5.01h3c-.67,3.35-2.28,5.8-3,8.99l5,3.01c-13.8.22-26.77,3.09-40.5,3.09-4.92,0-6.93-2.52-10.5-3.09l-4-13c13.14-.55,23.25-2.19,37-2-.11.62.17,1.51,0,2-.43,1.23-2.71,2.23,1,2-.02.65.1,1.39,0,2s-2.95,2.38,1,2c2.1,3.54,2.24,4.86,7,3.99l-7-12.99c.21-.01,2.1-.85,4-1ZM156.5,266.06v1c.65-.33.65-.67,0-1Z"/>
      <path class="cls-6" d="M188,252.06c-.02,6.33,4.91,10.13,5,16-.16,0-1.35.94-3,1-1.27-2.42-4.31-9.02-5.94-10.55-6.29-5.89-10.67,5.22-8.06,10.55-.67-.01-1.33-.01-2,0l-5-3.01c.72-3.19,2.33-5.64,3-8.99.29-1.45-.21-3.44,0-5.01,5.32.07,10.68-.08,16.01,0Z"/>
      <path class="cls-6" d="M213,258.06c-9-1.48-9.71,1.68-10,10-1.33.08-2.67-.07-4,0l-4-2.01c-.66-.65,2.77-7.47,3-8.99,5.26,1.42,1.53-4.13,4-5,2.59,2.52,8.5-.22,11.04,1.46,2.23,1.47-.03,3.63-.04,4.54Z"/>
      <path class="cls-1" d="M190,269.06c-1.3.05-2.7.1-4,0-.86-.06-3.5-3.07-3,1-2.35-.23-4.17-.94-7-1-2.62-5.33,1.77-16.44,8.06-10.55,1.64,1.54,4.68,8.13,5.94,10.55Z"/>
      <path class="cls-4" d="M188,252.06c3.32.06,6.68-.04,10.01,0-.16,1.6.23,3.47,0,5.01-.24,1.52-3.66,8.35-3,8.99l4,2.01c-1.99.11-4.01-.07-6,0-.09-5.87-5.02-9.67-5-16Z"/>
      <path class="cls-8" d="M233,252.06c-.22.27,1.4,3.41,1,4-1.58,2.34-1.37,1.23-2.95,5.55-2.97,8.11-8.68,3.9-14.05,4.45-.24-.38-.83-.68-1-1-.55-1.06-.62-2.13-1-3l2-1c.26.86,4.42,5.2,5.95,3.96.33-.27,2.14-7.5,3.05-7.96,1.93-.99,3.88,2.22,3-5.01h4Z"/>
      <path class="cls-1" d="M213,258.06c-.06,3.64,1.68,3.26,2,4,.38.87.45,1.94,1,3-2.13-.24-2.24-.13-2,2-.99.09-2.01-.08-3,0l-3.49-5.99-2.51,6.99c-.66.04-1.34-.04-2,0,.29-8.32,1-11.48,10-10Z"/>
      <path class="cls-6" d="M205,268.06l2.51-6.99,3.49,5.99c-1.35.1-3.56.84-6,1Z"/>
      <path class="cls-6" d="M186,269.06c-.38,1.22-1.97,1.1-3,1-.5-4.07,2.14-1.06,3-1Z"/>
      <path class="cls-6" d="M216,265.06c.17.32.76.62,1,1-.26.03-1.39.86-3,1-.24-2.13-.13-2.24,2-2Z"/>
      <path class="cls-13" d="M69,163.06c17,14.51,34.36,28.69,51.74,42.76,9.12,4.43,14.18,2.09,21.53-3.75.9-.72.64-1.93.72-2,1.7-1.38,3.75-3.84,4-4,1.15-.74,4.47-.96,6-1,.23.27,4.21,2.93,5,3-.03,1.98.29,4.16,1,6-2.32,2.72-.03,6.79-1.51,9.99-.73,1.57-4.41,4.35-4.89,7.11-7.23,2.76-3.42-.27-3.67-3.48-.13-1.65-.98-3.21-1.02-5.12-.05-2.83,2.92-8.83-2.55-9.21-4.09-.28-5.34,5.88-5.35,9.2,0,3.31,1.68,5.45,2.61,8.21.27.8-.67,2.21-.15,3.28.54,1.14,4.68,3.72,6.09,3.97,10.02,1.82,15.37-5.68,14.45-14.96,7.03,10.24,13.9,22.05,12.01,35.01-1.34,1.34-14.34-3.17-13.01,3.99-1.9.15-3.79.99-4,1-.47.03-1.45,1.01-2,1-13.75-.19-23.86,1.45-37,2-1.95.08-4.14.33-5.98-.52-.39-.18-6.29-5.12-6.51-5.49-1.7-2.78.55-8.68.49-12,5,.06,12.98,13.28,14.69,13.8,1.83.56,18.56-.97,19.73-1.75,1-.67.66-.99.57-2.03l-31.03-15.48-58.95-59.05c-1.17-2.81,5.24-.41,6.47-.4,5.51.03,10.9-1.56,16.51-.09,1.22-1.1-4.14-5.53-5.01-6.48-.74-.81-3.35-2.66-.99-3.52Z"/>
      <path class="cls-4" d="M62,158.06c4.39,2.3,4.14,2.56,7,5-2.37.85.24,2.71.99,3.52.87.95,6.23,5.38,5.01,6.48-5.61-1.47-11,.12-16.51.09-1.24,0-7.65-2.41-6.47.4l58.95,59.05,31.03,15.48c.09,1.05.43,1.36-.57,2.03-1.17.79-17.9,2.32-19.73,1.75-1.72-.53-9.69-13.75-14.69-13.8,0-.33.02-.67,0-1-.13-1.92.23-2.61-.95-4.54-2.59-4.24-16.93-16.97-21.53-21.49-13.55-13.3-27.51-27.76-42.02-39.98-.82-.69-2.6-3.41-3.51-1-3.3-3.38-6.72-6.52-10-10-.93-5.53,3.29-1.66,5.99-2,.54-7.88-.53-17.41,4.01-24,3.96,10.6,13.57,19.05,23,24Z"/>
      <path class="cls-1" d="M29,89.06c4.53,12.46,5.15,32.04,10,45-4.53,6.59-3.46,16.11-4.01,24-2.7.35-6.93-3.53-5.99,2-4.23-4.49-6.59-7.29-10.48-12.07-.73-.9-2.45-.82-2.52-.93-.24-.35.54-2.87-1-3,1.3-9.27-.75-18.98,1-29,5.47.73,7.72-1.58,7-7l2.98,1.99c3.68-8.69-1.31-17.98-1.98-26.99,1.59.72,4.5,4.65,4.99,6Z"/>
      <path class="cls-13" d="M107,237.06c-22.87-22.19-45.77-44.19-68-67,.91-2.42,2.68.3,3.51,1,14.51,12.22,28.47,26.67,42.02,39.98,4.6,4.51,18.94,17.25,21.53,21.49,1.18,1.93.81,2.62.95,4.54Z"/>
      <path class="cls-5" d="M58,.06c.51,0,1.53,1,2,1,1.01,3.61,4.69,6.12,7,9,1,1.25,2.59,2.44,3,3,1.29,1.76,4.02,6.83,5,9,2.32,5.15,2.93,10.1,3.86,15.64,1.98,11.9,3.03,24.34,4.15,36.36.64-.06,1.4.11,1.99,0,.36,2.32.57,4.68,1,7-1.63,4.22-4.15.98-4.73-1.75-.72-3.38-.06-6.85-.27-10.25-.14-2.29.88-3.46-2-3-.13-1.3.05-2.68,0-4l.67-.8-.67-1.2c-.19-3.25-.73-5.96-1-9-.29-3.34-.57-5.86-1-9-.5-3.67-.44-11.17-1.54-13.96-1.81-4.59-13.05-15.9-16.85-20.15-1.84-2.05-3.17-8.48-8.61-4.89-.64-.77-2.31-1-2-3,3.31-.1,6.68,0,10,0Z"/>
      <path class="cls-1" d="M71,.06v8c-1.8.17-3.36-.16-4,2-2.31-2.88-5.99-5.39-7-9,3.84,0,7.05-1.12,11-1Z"/>
      <path class="cls-8" d="M79,31.06c.27,1.25.94,2.62,1,3,.26,1.51-.24,3.46,0,5,1.82,11.63,3.18,23.37,5,35-.6.11-1.35-.05-1.99,0-1.12-12.02-2.16-24.46-4.15-36.36-.92-5.55-1.54-10.5-3.86-15.64,3.49,2.8,3.22,5.4,4,9Z"/>
      <path class="cls-9" d="M196,195.06c5.09.54,4.62,3.42,6.98,6.56.67.9,2.3,1.09,2.74,1.64.27.34,1.23,6.59,2.09,8.5,1.33,2.96,4.48,6.7,5.19,8.31,1.32,2.96,6.2,13.54,6.76,15.74.73,2.89-.49,8.42.46,10.04,1.85,3.15,12.98.39,14.71,2.29.17.19.19,3.75.07,3.93-.16.23-1.83-.21-2,0h-4c.88,7.22-1.07,4.01-3,5v-5.01c-3.32-.04-6.68.06-10,0-2.79-.05-12.37-.57-14,0-2.47.87,1.26,6.42-4,5,.24-1.54-.15-3.41,0-5.01-3.32-.03-6.68.06-10.01,0-5.32-.09-10.68.07-16.01,0-.21,1.57.29,3.55,0,5.01h-3c-1.84-2.15,4.65-5.91-7-5-1.34-7.17,11.67-2.66,13.01-3.99,1.89-12.96-4.98-24.77-12.01-35.01-.34-3.38-2.98-6.37-4-9-.71-1.84-1.03-4.02-1-6,.99.09,2.01-.06,3,0,.32.35.68.66,1,1,1.68,1.78,4.23,4.6,6,6,.03.66-.05,1.34,0,2,.14,1.82.85,3.4,1,5l-1,1c.21,1.25.95,1.79,1,2,.84,3.62,5.99,16.13,8,19,.29.41.43.87,1,1,9.64.25,19.37-.34,29,0,1.99.07,4.01-.06,6.01,0,.45.43-.65,9.56.98,12.33.61,1.05,2.75.93,3.01.68.48-.47-.87-11.87-1.22-13.28-1.1-4.52-13.56-29.46-16.5-34.45-.81-1.37-2.74-2.03-3.28-3.28-.18-.43.12-1.39,0-2ZM197.93,243.12c-.4-.38-2.91.11-3.93-.07v5.01s5-.01,5-.01c-1-1.09-.86-4.73-1.07-4.92Z"/>
      <path class="cls-6" d="M158,253.06l7,12.99c-4.76.87-4.9-.45-7-3.99-.26-.44.1-1.66-1-2,.1-.61-.02-1.35,0-2,.02-.84-.09-1.72-1-2,.17-.49-.11-1.38,0-2,.55,0,1.53-.97,2-1Z"/>
      <path class="cls-13" d="M157,258.06c-3.71.23-1.43-.77-1-2,.91.28,1.02,1.16,1,2Z"/>
      <path class="cls-13" d="M158,262.06c-3.95.38-1.09-1.4-1-2,1.1.34.74,1.56,1,2Z"/>
      <path class="cls-13" d="M156.5,266.06c.65.33.65.67,0,1v-1Z"/>
      <path class="cls-11" d="M216,252.06c1.07,2.46.42,7.09,1,9l-2,1c-.32-.74-2.06-.36-2-4,.01-.92,2.27-3.07.04-4.54-2.54-1.68-8.45,1.06-11.04-1.46,1.63-.57,11.21-.05,14,0Z"/>
      <path class="cls-4" d="M216,252.06c3.32.06,6.68-.04,10.01,0v5.01c-.91.47-2.73,7.7-3.06,7.96-1.53,1.24-5.68-3.1-5.95-3.96-.58-1.91.07-6.54-1-9Z"/>
      <path class="cls-1" d="M79,136.06c5.15,11.79,15.94,15.15,19.72,21.28,1.32,2.14.81,5.55,4.76,7.83,1.85,1.07,2.93-.14,5.05.76,6.17,2.63,11.25,12.7,18.47,13.13,5.07,7.22,10.82,13.89,16,21-.08.07.18,1.29-.72,2-7.35,5.84-12.42,8.19-21.53,3.75-17.38-14.07-34.74-28.25-51.74-42.76-2.86-2.44-2.61-2.7-7-5-3.28-4.22-7.27-7.01-11-11,12.46-.7,19.98,12.91,28.95,19.55,4.06,3,5.47,1.61,2.58-2.58-5.52-7.98-6.26-13.62-5.59-23.52.13-1.86-.24-3.74,2.06-4.45Z"/>
      <path class="cls-8" d="M121,160.06c.72.5,2.91.24,3.75,1.24.64.77,1.2,4.2,2.42,6.09,5.41,8.37,12.37,15.82,17.9,24.1,1,1.49,2.37,2.33,1.92,4.57-.25.16-2.3,2.62-4,4-5.18-7.11-10.93-13.78-16-21-3.51-5-5.63-9.44-7.95-13.75-3.44-6.39-8.17-11.5-12.72-17.1-.85-1.05.43-3-3.33-2.15-.05-.93-.11-2.11,0-3,.09-.75,1.07-1.96,1-3,.23.07.68.02,1,0,5.62,4.58,10.55,16.2,16,20Z"/>
      <path class="cls-5" d="M163,213.06c.92,9.28-4.42,16.78-14.45,14.96-1.41-.26-5.55-2.84-6.09-3.97-.51-1.07.42-2.49.15-3.28-.93-2.75-2.62-4.9-2.61-8.21,0-3.33,1.26-9.48,5.35-9.2,5.47.37,2.5,6.38,2.55,9.21.03,1.9.89,3.47,1.02,5.12.25,3.21-3.56,6.24,3.67,3.48.48-2.76,4.16-5.54,4.89-7.11,1.48-3.19-.81-7.27,1.51-9.99,1.02,2.63,3.66,5.62,4,9Z"/>
      <path class="cls-12" d="M120,141.06c.22.24.28,1.62.99,2.47,3.44,4.09,6.52,8.49,10.01,12.53-.09.56-.06,1.41,0,2,.17,1.74.78,2.51,1.56,3.91,4.85,8.66,21.27,28.28,28.44,36.09-.99-.06-2.01.09-3,0-.79-.07-4.77-2.73-5-3-.5-.58-1.32-3.35-2.59-4.91-13.89-17.12-28.35-34.78-40.41-53.09,3.94-.38,7.39,1.09,10,4Z"/>
      <path class="cls-3" d="M110,137.06c12.06,18.31,26.52,35.97,40.41,53.09,1.27,1.56,2.09,4.33,2.59,4.91-1.53.04-4.85.26-6,1,.45-2.25-.92-3.08-1.92-4.57-5.54-8.27-12.49-15.73-17.9-24.1-1.22-1.89-1.78-5.32-2.42-6.09-.84-1-3.03-.74-3.75-1.24-1.87-8.36-9.55-13.42-13-21,.43-.33-1.21-1.69,2-2Z"/>
      <path class="cls-13" d="M31,88.06c.31.66.83,1.52,1,2,.8,2.22,2.57,14.56,4.51,14.99l11.99-12.06c1.27,0,9.99,11.11,10.33,12.79.18.86.37,1.8.09,2.65-1.05,3.17-18.28,2.61-21.93,2.63-.22,2.11.51,4.02,1,6,.25,1.01.92,4.69,1.14,4.87.5.42,7.29.56,7.86,1.14,1.32,1.33-4.15,3.78-4.01,6.48.02.34,5.13.79,4.01,4.5-.62.59-4.75-1.31-3.98,1.48,1.24,4.46,5.04,8.38,7.98,11.53,3.73,3.99,7.72,6.78,11,11-9.43-4.95-19.04-13.4-23-24-4.85-12.96-5.47-32.54-10-45l2-1Z"/>
      <path class="cls-4" d="M15,51.06l4.92.48c-1.39,3.59,2.2,7.33,1.09,11.52,2.35.8,2.53-3.27,3-5,2.73,4.15,12.15-4.6,13.99-3,2.68,13.79,14.79,24.83,22.42,36.09,1.04,1.54,1.24,3.95,2.37,5.63,2.43,3.58,12.57,19.91,14.64,21.36,1.73,1.22,4.41.77,4.58.93.27.25-1.05,2.32-.51,3.94.8,2.44,8.3,12.55,10.54,13.58,2.64,1.21,6.16-1.14,6.96-.52.22.17-.22,1.59,0,1.99-2.96,1.04-3.9,7.01-7.39,5.94-.55-.13-.43-.75-.61-.94-.08-.08-.17-1.09-1-2-.32-.35-.65-.68-1-1s-.63-.71-1-1c-1.35-1.08-3.56-1.63-4-2-1.27-1.05-4.65-4.74-5-6-.02-.08,1.08-.47.86-1.32-.75-2.83-2.62-3.23-4.86-4.68-.92-2.88-8.89-13.22-11.75-13.81-3.14-.64-7.97,3.02-10.99,3.57-4.96.91-9.59-.9-14.27,2.23-.49-1.98-1.22-3.89-1-6,3.64-.02,20.88.53,21.93-2.63.28-.85.09-1.79-.09-2.65-.35-1.68-9.06-12.79-10.33-12.79l-11.99,12.06c-1.94-.44-3.71-12.77-4.51-14.99,3.33-1.11,8.78,3.17,11.39,1.09.93-.75.32-2.42.82-2.88.86-.78,4.91,1.05,2.25-5.17-1.71-3.98-9.03-16.08-11.7-20.3-3.95-6.26-4.73,8.3-6.24,10.29-1.18,1.56-3.82.88-5.53.98-.58,7.56,5.18,7.86,8,14l-2,1c-.49-1.35-3.4-5.28-4.99-6,.66,9.02,5.66,18.3,1.98,26.99l-2.98-1.99c.71,5.42-1.53,7.72-7,7,.16-.89.21-2.85-1-3,.46-2.89,1.05-6.08,1-9,4.4,1.61,7.11.32,7.09-4.49-.03-8.44-2.83-25.93-4.38-34.75-.48-2.72-.23-4.48-3.71-3.76.02-2.99-.06-6.01,0-9ZM84.5,134.06v1c.65-.33.65-.67,0-1Z"/>
      <path class="cls-13" d="M43,39.06c10.01.45,20.86.26,30.59.93,2.02.14,2.45.17,3.41,2.07.43,3.14.71,5.66,1,9-3.22-.35-2.5-.29-3.29,2.17-1.66,5.22-2.84,9.35-1.72,14.83-7.57-5.72-10.94-19.47-21.98-18.99,1.64,7.7,5.88,14.71,10.18,21.31,5.01,7.68,16.28,23.24,22.28,29.72,4.7,5.07,3.81-1.22,4.62-1.93,1.03-.9,7.54,2.12,8.91,2.9,2.58,1.47,5.14,2.97,6,6-1.12.3-1.1,1.03-1,2-.29-.24-1.63.23-2,0-.11-1.78-2.84-6.93-5-4.99-1.83,1.64,4.29,4.55,5,4.99.2,3.08-5.14,8.64,2.03,11.53.56.23,6.73-.29,6.98-.53,1.96-1.89-2.73-4.2-3.43-5.06-.52-.64-.38-1.71-.58-1.93l8,1c-.03.8-.79,5.32-1,6-.04.12-1.5.54-1.84,1.67-1.43,4.78,4.2,5.24,7.84,5.33,3.11,4.66,4.01,4.06,4.02,10.52,0,1.91.92,4.05-2.02,3.48-2.61-2.91-6.06-4.38-10-4-.82-1.25-2.42-4.51-3.6-4.8-2.08-.51-10.18,1.08-11.93-.09-2.38-1.58-11.69-14.31-9.47-17.11.12-.16,4.12.13,1.99-1.99-2.12-2.12-1.84,1.87-1.99,1.99-.43.36-2.23-.12-2.99-.51-2.3-1.17-14.55-18.67-16.83-22.17-7.93-12.13-14.14-25.57-22.78-37.31-1.44-2.63,1.75-3.54,1.6-6.01-6.63.5-11.18.14-16.99-3.01.5-1.12.82-2.35,2-3l39,.99c1.62-1.24-.02-1.81-1.48-2-6.44-.82-14.38.53-21.07,0-3.07-.24-2.57.49-2.45-3ZM88.5,112.06v1c.65-.33.65-.67,0-1Z"/>
      <path class="cls-8" d="M77,42.06c-.95-1.9-1.38-1.93-3.41-2.07-9.73-.68-20.59-.48-30.59-.93-5.01-.22-10.18.7-15-1-.83-1.94-8.36-11.6-10-12-.24-.06-.76-.05-1,0-.37-.63-.58-1.41-1-2,1.93-2.26,6.63-.81,6.93-1.01s1.73-4.71,3.07-6.48c2.11-2.79,6.88-8.05,9.99-9.5-.19.31.12,1.82-.54,2.91-1.28,2.11-9.56,11.92-7.46,14.08,3.97.18,8.04-.23,12,0,8.66.51,17.25,1.59,25.99.99.8-.7-1.97-4.01-2.6-4.89-3.91-5.51-9.05-11.88-13.4-17.1,5.44-3.59,6.77,2.84,8.61,4.89,3.8,4.25,15.05,15.55,16.85,20.15,1.1,2.8,1.04,10.3,1.54,13.96Z"/>
      <path class="cls-8" d="M97,101.06c-1.37-.78-7.88-3.8-8.91-2.9-.81.71.08,7-4.62,1.93-6-6.48-17.28-22.04-22.28-29.72-4.3-6.6-8.54-13.6-10.18-21.31,11.05-.48,14.42,13.27,21.98,18.99-1.12-5.48.06-9.61,1.72-14.83.78-2.46.06-2.52,3.29-2.17.27,3.04.81,5.75,1,9,0,.15-.04.95,0,2,.05,1.32-.13,2.7,0,4,.23,2.23-.97,3.47,2,3,.21,3.4-.45,6.87.27,10.25.58,2.73,3.1,5.97,4.73,1.75.29,1.55-.23,2.86.54,4.93,1.69,4.52,9.06,9.83,10.46,15.07Z"/>
      <path class="cls-1" d="M48,.06c-.31,2,1.36,2.23,2,3,4.35,5.22,9.49,11.59,13.4,17.1.63.88,3.39,4.19,2.6,4.89-8.74.6-17.33-.49-25.99-.99.34-6.22,4.89-11.76,3.07-18.39-.3-1.09-3.16-.76-4.07-1.61.49-.77.47-3.46,1.13-3.86,2.6-.39,5.25-.06,7.87-.14Z"/>
      <path class="cls-13" d="M79,66.06c2.88-.46,1.86.71,2,3-2.97.47-1.77-.77-2-3Z"/>
      <path class="cls-13" d="M79,62.06c-.04-1.05,0-1.85,0-2l.67,1.2-.67.8Z"/>
      <path class="cls-9" d="M175,194.06c3.68-.15,6.73.25,10,2,.21.42.83.7,1,1,.28.5.77,1.49,1,2,1.01,2.29,1.51,4.7,3,7v10.01s-12,0-12,0c.18-4.54.03-9.55-1.69-13.81-.42-1.05-3.75-6.58-4.3-7.2.49-1.3,1.9-.96,3-1Z"/>
      <path class="cls-8" d="M196,195.06c.12.61-.18,1.57,0,2-6.42,2.01-1.48,2.9-1,3.7,2.33,3.95,4.26,12.46-1.99,13.29-.09-1.97-.06-5.69-1-7.3-.66-1.13-1.95-.6-2.01-.69-1.49-2.3-1.99-4.71-3-7,2.27-3.41,4.89-4.43,9-4Z"/>
      <path class="cls-9" d="M113,112.06c.13.42.02,1.41,0,2l-8-1c-1-1.18-2.8-3.84-3-4-.1-.97-.12-1.7,1-2,3.69-.99,8.9,1.46,10,5Z"/>
      <path class="cls-2" d="M118,127.06c-3.64-.09-9.27-.55-7.84-5.33.34-1.13,1.8-1.55,1.84-1.67,2.43,1.59,4.4,4.6,6,7Z"/>
      <path class="cls-11" d="M186,197.06c-.17-.3-.79-.58-1-1h1v1Z"/>
      <path class="cls-5" d="M180,172.06c-.76,6.47-1.96,11.31-5.56,16.94-.99,1.54-5.5,4.56-4.38,6.02.23.31,1.78-.14,1.94.05.56.61,3.88,6.14,4.3,7.2,1.72,4.26,1.87,9.27,1.69,13.81h12.01s0-10,0-10c.06.09,1.35-.44,2.01.69.94,1.62.91,5.33,1,7.3,6.25-.84,4.33-9.35,1.99-13.29-.47-.8-5.42-1.69,1-3.7.53,1.25,2.47,1.91,3.28,3.28,2.94,4.98,15.4,29.93,16.5,34.45.34,1.41,1.69,12.81,1.22,13.28-.26.26-2.4.37-3.01-.68-1.63-2.78-.53-11.9-.98-12.33-1.99-.05-4.01.07-6.01,0,.02-2.27-5.24-17.43-6.01-18-.85-.63-3.45,2.11-5.49,2.11s-4.64-2.74-5.49-2.11c-1,.74-1.73,8.63-2.05,8.96-.56.55-10.9-.31-12.96.04.4-7.54,5.36-15.79-6-11-.05-.21-.79-.75-1-2-.01-.07,1.09,0,1-1-.15-1.6-.86-3.18-1-5,5.93-1.11.22-1.83,0-2-1.77-1.4-4.32-4.22-6-6l.97-.57c-.07-1.45-2.05-5.21-2.97-6.43,2.06-.55,5.55-3.13,6.94-4.56,1.07-1.11,6.84-7.49,7.52-8.47,1.95-2.78,1.17-7.98,5.54-6.96Z"/>
      <path class="cls-1" d="M169,215.06c11.36-4.8,6.4,3.45,6,11,2.06-.35,12.4.51,12.96-.04.33-.32,1.05-8.21,2.05-8.96.84-.63,3.45,2.11,5.49,2.11s4.63-2.74,5.49-2.11c.77.56,6.04,15.73,6.01,18-9.63-.34-19.36.25-29,0l-1-1c-2.01-2.87-7.16-15.38-8-19Z"/>
      <path class="cls-10" d="M138,165.06c1.85,2.25,3.85,2.79,4,3,5.64,7.91,12.33,16.5,18,24,.92,1.22,2.9,4.98,2.97,6.43l-.97.57c-.32-.34-.68-.65-1-1-7.17-7.81-23.59-27.42-28.44-36.09-.78-1.4-1.4-2.17-1.56-3.91,3.34.36,4.93,4.48,7,7Z"/>
      <path class="cls-1" d="M197.93,243.12c.21.2.07,3.83,1.07,4.92h-5s0-5,0-5c1.02.18,3.53-.31,3.93.07Z"/>
      <path class="cls-13" d="M168,205.06c.22.17,5.93.89,0,2-.05-.66.03-1.34,0-2Z"/>
      <path class="cls-13" d="M168,213.06l1-1c.09,1.01-1.01.93-1,1Z"/>
      <path class="cls-5" d="M178,235.06c-.57-.13-.71-.59-1-1l1,1Z"/>
      <path class="cls-7" d="M75,125.06c1.09,3.39-1.33,7.86,3,8,.03.28.81,2.56,1,3-2.3.7-1.93,2.59-2.06,4.45-.67,9.9.07,15.54,5.59,23.52,2.89,4.19,1.48,5.58-2.58,2.58-8.97-6.63-16.5-20.25-28.95-19.55-2.93-3.15-6.74-7.06-7.98-11.53-.78-2.79,3.36-.89,3.98-1.48,1.11-3.72-3.99-4.16-4.01-4.5-.13-2.7,5.34-5.15,4.01-6.48-.58-.58-7.37-.73-7.86-1.14-.21-.18-.89-3.86-1.14-4.87,4.68-3.13,9.3-1.33,14.27-2.23,3.01-.55,7.85-4.22,10.99-3.57,2.85.58,10.82,10.93,11.75,13.81Z"/>
      <path class="cls-13" d="M79,131.06c.35,1.26,3.73,4.95,5,6,1.55,9.62,10.45,12.04,15.52,18.99,2.32-1.09,2.3-3.01,6.48-2-1.39-3.8-2.75-3.45-3-7.99,3.76-.85,2.47,1.1,3.33,2.15,4.55,5.6,9.28,10.71,12.72,17.1,2.32,4.31,4.44,8.75,7.95,13.75-7.21-.43-12.3-10.5-18.47-13.13-2.12-.9-3.2.3-5.05-.76-3.95-2.28-3.44-5.69-4.76-7.83-3.78-6.12-14.57-9.49-19.72-21.28-.19-.44-.97-2.72-1-3-.08-.71.46-1.52,1-2Z"/>
      <path class="cls-5" d="M27,46.06c5.81,3.15,10.36,3.51,16.99,3.01.15,2.48-3.04,3.38-1.6,6.01,8.64,11.74,14.85,25.18,22.78,37.31,2.29,3.5,14.53,20.99,16.83,22.17.76.39,2.56.86,2.99.51.15-.13-.13-4.12,1.99-1.99,2.13,2.13-1.87,1.84-1.99,1.99-2.22,2.8,7.09,15.53,9.47,17.11,1.75,1.17,9.86-.42,11.93.09,1.18.29,2.78,3.55,3.6,4.8-3.21.31-1.57,1.67-2,2-.13.1-2.84.99-3,1-.32.02-.77.07-1,0-.21-.07-2.92-1.52-4-2-.29-.13-.91.15-1,0-.23-.41.21-1.82,0-1.99-.8-.62-4.32,1.73-6.96.52-2.24-1.03-9.74-11.15-10.54-13.58-.53-1.62.79-3.69.51-3.94-.17-.16-2.85.29-4.58-.93-2.07-1.45-12.21-17.78-14.64-21.36-1.13-1.67-1.33-4.09-2.37-5.63-7.63-11.26-19.74-22.3-22.42-36.09-1.84-1.6-11.26,7.16-13.99,3,1-3.71,1.42-8.44,3-12Z"/>
      <path class="cls-1" d="M88,139.06l1,1c.35.32.68.65,1,1l1,2c.18.18.06.81.61.94,3.49,1.07,4.43-4.9,7.39-5.94.09.15.71-.13,1,0,.89,2.17.08,5.75,3,5-.11.89-.05,2.07,0,3,.24,4.55,1.6,4.19,3,7.99-4.18-1.01-4.16.91-6.48,2-5.07-6.95-13.97-9.38-15.52-18.99.44.37,2.65.92,4,2Z"/>
      <path class="cls-11" d="M108,139.06c3.45,7.58,11.13,12.64,13,21-5.45-3.8-10.38-15.42-16-20,.16,0,2.87-.9,3-1Z"/>
      <path class="cls-4" d="M104,140.06c.07,1.04-.91,2.25-1,3-2.92.75-2.11-2.83-3-5,1.08.48,3.79,1.93,4,2Z"/>
      <path class="cls-7" d="M31,88.06c-2.82-6.13-8.59-6.44-8-14,1.71-.09,4.35.58,5.53-.98,1.51-1.99,2.29-16.55,6.24-10.29,2.66,4.23,9.99,16.32,11.7,20.3,2.67,6.22-1.39,4.39-2.25,5.17-.5.46.11,2.13-.82,2.88-2.61,2.08-8.06-2.2-11.39-1.09-.17-.48-.69-1.34-1-2Z"/>
      <path class="cls-13" d="M15,60.06c3.48-.72,3.23,1.04,3.71,3.76,1.56,8.82,4.35,26.32,4.38,34.75.02,4.81-2.7,6.1-7.09,4.49-.1-6.33-.92-13.22-1-20-.02-2.06-1-3.79-1-4-.08-6.31.95-12.46,1-19Z"/>
      <path class="cls-7" d="M28,38.06c.49,1.13.26,3.62,1,5-1.18.65-1.5,1.88-2,3-1.58,3.56-2,8.29-3,12-.47,1.73-.65,5.8-3,5,1.11-4.2-2.48-7.93-1.09-11.52l-4.92-.48c.02-1-.02-2,0-3,3.02-.07,4.6,1.04,4.01-2.49l-4.01-.51c.02-1.33-.03-2.67,0-4,3.87.85,3.36-1.5,3-5,6.79-1.17-.22-6.02,0-10,1.64.4,9.17,10.06,10,12Z"/>
      <path class="cls-1" d="M75,125.06c2.24,1.44,4.11,1.84,4.86,4.68.23.86-.88,1.25-.86,1.32-.54.48-1.08,1.29-1,2-4.33-.14-1.91-4.61-3-8Z"/>
      <path class="cls-5" d="M91,143.06l-1-2c.83.91.92,1.92,1,2Z"/>
      <path class="cls-5" d="M84.5,134.06c.65.33.65.67,0,1v-1Z"/>
      <path class="cls-5" d="M89,140.06l-1-1c.37.29.65.69,1,1Z"/>
      <path class="cls-9" d="M37,6.06c-.18.29-.73.56-1,1-3.11,1.45-7.88,6.72-9.99,9.5-1.35,1.77-2.77,6.28-3.07,6.48s-5-1.25-6.93,1.01c-3.34-4.73-.45-8.31-8-10,.75-3.81-1.32-3.12-4-4-.76-1.72-2.97-5.72-4-7,4.3-.75,8.43.85,12.46,1.04,7.75.36,18.02-1.88,24.54,1.96Z"/>
      <path class="cls-13" d="M18,36.06c-.19-1.87-1-6.12-3-5,.13-1.81-.58-4.43,2-5,.24-.05.76-.06,1,0-.22,3.98,6.79,8.83,0,10Z"/>
      <path class="cls-4" d="M15,31.06c2-1.12,2.81,3.13,3,5,.36,3.5.87,5.85-3,5,.07-3.3-.23-6.72,0-10Z"/>
      <path class="cls-4" d="M15,45.06l4.01.51c.6,3.54-.98,2.42-4.01,2.49.02-1-.01-2,0-3Z"/>
      <path class="cls-5" d="M43,39.06c-.12,3.5-.62,2.76,2.45,3,6.69.53,14.63-.83,21.07,0,1.46.19,3.1.76,1.48,2l-39-.99c-.74-1.38-.51-3.87-1-5,4.82,1.7,9.99.78,15,1Z"/>
      <path class="cls-5" d="M102,109.06c.2.16,2,2.82,3,4,.19.23.05,1.29.58,1.93.7.86,5.39,3.17,3.43,5.06-.25.24-6.42.76-6.98.53-7.16-2.89-1.83-8.45-2.03-11.53.37.23,1.71-.24,2,0Z"/>
      <path class="cls-9" d="M100,109.06c-.71-.44-6.83-3.35-5-4.99,2.16-1.93,4.88,3.21,5,4.99Z"/>
      <path class="cls-5" d="M88.5,112.06c.65.33.65.67,0,1v-1Z"/>
      <path class="cls-5" d="M39,4.06c.91.85,3.77.53,4.07,1.61,1.83,6.62-2.72,12.16-3.07,18.39-3.97-.23-8.03.17-12,0-2.1-2.16,6.18-11.97,7.46-14.08.66-1.09.35-2.6.54-2.91.27-.44.82-.71,1-1,.43-.7,1.56-1.3,2-2Z"/>
    </g>
  </g>
</svg>