<?xml version="1.0" encoding="UTF-8"?>
<svg id="Layer_2" data-name="Layer 2" xmlns="http://www.w3.org/2000/svg" viewBox="0 0 655.31 374.16">
  <defs>
    <style>
      .cls-1 {
        fill: #0a0b04;
      }

      .cls-2 {
        fill: #4f6f4f;
      }

      .cls-3 {
        fill: #616144;
      }

      .cls-4 {
        fill: #101609;
      }

      .cls-5 {
        fill: #29484c;
      }

      .cls-6 {
        fill: #181c05;
      }

      .cls-7 {
        fill: #223335;
      }

      .cls-8 {
        fill: #020201;
      }

      .cls-9 {
        fill: #53745a;
      }

      .cls-10 {
        fill: #31401d;
      }

      .cls-11 {
        fill: #4a4118;
      }

      .cls-12 {
        fill: #3d5037;
      }

      .cls-13 {
        fill: #fefefe;
      }

      .cls-14 {
        fill: #587b63;
      }

      .cls-15 {
        fill: #292a0f;
      }
    </style>
  </defs>
  <g id="Layer_0_Image" data-name="Layer 0 Image">
    <g>
      <path class="cls-14" d="M539.22,17.04c3.97.22,8.06.55,12,1l.5,44.01.5-44.01c.66.06,1.34-.05,2,0,.15.01,1.11.94,2.41,1.04,2.74.21,8.7.95,7.59-2.04,3.49.8,1.83,1.91,3.4,3.07,4.21,3.12,16.25.69,21.05.89,4.8.2,23.84,6.98,26.55,5.03l-.99-1.5c-16.91-1.88-40.83-13.7-57.01-13.49-.67,0-1.33,0-2,0,.11-.93-1.28-2.68,0-4,.46.29,8.64,1.12,10.82,1.68,18.99,4.91,37.87,10.4,56.92,15.08,3.48.86,7.59-1.44,7.28,4.23l.99-4.99c2.84-.93,1.66,2.23,3.62,2.84,1.3.41,3.05,0,4.6.43,3.13.86,5.33,4.82,4.77-2.27.03.11,1.12.38,1.43,1.08,2.18,4.93,1.55,2.69,3.57,4.92.18.2-.12,1.39,0,2,1.04,5.33,1.01,1.87,3.97,4.52,2.81,2.52,2.48,6.4,1.03,9.48-.09-4.38,1.12-10.4-5-9.01v9.01s5,0,5,0c-.24.51-.78,1.85-1,2-.7.48-3.43.44-3.86,1.14-.64,1.04.08,4.25-.14,5.86-.61,4.63-1.68,9.88-1.09,14.57.19,1.49.52,1.65,2.09,1.43v1c-1.29-.25-2.2,0-2.09,1.43,1.5,15.58-1.69,33.91.03,49.13.31,2.71,1.58,2.84,2.05,3.97.23.55-1.83.93-1.99,1.48-.7,2.36.06,10.64,0,14-.07,3.99.02,8.01,0,12-.02,2.99,0,6.01,0,9-.01,4.32.04,8.68,0,13-.25,24.34-.84,48.66-1,73-.1,14.62-1.6,35.13,0,49-2.29-.16-4.73.23-7,0-2.98-.3-9.66-2-12.5-2h-17c-5.06,0-12.84-1.67-18.5-2,.34-3.95-5.36-2.16-7.59-3.91-2.56-2-1.02-8.31-1.42-11.58-.38-3.12-2.68-20.21-3.49-21.51-.62-1-1.38-1.18-2.49-1,.08,4.55,1.24,8.89-5.01,8,1.5-46.41-.43-93.96-.05-140.55.11-13.12,2.14-26.65,1.03-39.94-.39-4.66-1.43-14.09-6.7-15.3-6.03-1.38-8.27,2.92-7.3-6.21-2.28,1.31-2.97,8.49-2.99,11-.56.12-1.8-.19-2,0-2.13-.24-2.24-.13-2,2-.17.27.08,1.38,0,2-3.55-.95-3.57,2.01-3.88,4.61-2.1,17.67,1.13,37.44-4.79,55.23-.78,2.33-4.41,6.57-6.64,7.45-2.38.94-4.95-.74-5.66-.27-.66.44-1.37,8.71-1.88,10.69-.66,2.57.39,2.63-3.16,2.3.16-17.88.47-35.75.99-53.51.12-4.12,1.25-13.55-1.99-15.49-2.95-1.76-20.35-2.34-25.31-3.22-1.78-.32-2.81-1.52-3.69-1.78l10.99-1.01c2.97-2.67-10.34-4.9-11.52-4.99-3.33-.26-6.2.94-9.24.35-1.02-.2-11.79-5.34-12.27-5.82-1.26-1.29-.71-3.45-1.46-4.57-.95-1.41-2.95-.66-3.51-.96-1.33-.73-.57-5.02-1.18-5.86-.37-.51-1.42,0-1.82-.14-4.04-1.35-1.94,1.08-3,2-.42.37-5.61,3.85-6.29,4.21-11.89,6.39-13.53-.43-21.96.03-4.61.25-7.81,3.3-11.51,4.5-3.59,1.16-7.1.81-10.31,1.69-2.62.72-5.64,4.35-7.93,2.57.32-.58.06-3.38,1-4,.35-.23,1.76.22,1.99,0,.56-.54-1-1.88-.99-1.99.05-2.39,7.26-18.43,9-20,.31-.28,3.14.08,3.06-3.4-.04-.46-3.88-2.6-4.59-2.62-2.53-.05-11.33,11.34-13.31,4.28-.82-2.92,3.08-8.64-1.16-8.27,2.24-5.36,5.27-11.34,6-17,1.21-.05,2.1.52,3.09-.62.51-.58,5.42-13.43,5.54-14.36.32-2.52-2.5-4.31-1.63-7.02.98-.01,2.03-.09,3,0-.62,2.77,5.04,4.63,4,1,5.56.69,11.43,2.47,17,3-.15,7.17.66,13.98-1,21-.3,1.28-1.82,2.87-1.01,5l-2.99-1c-.9-3-.8-6.93-4.07-4.55-1.11.81-.8,3.42-.93,3.55-.16.15-5.21-.54-2.52,2.02.68.65,2.19.71,3.18,1.37.47.31.3,1.51.38,1.56,2.38,1.56,1.82-1.81,1.96-1.95s1.41.07,2,0c1.63-.19,3.36.13,5,0,.06,4.48-.18,9.02,0,13.51.05,1.22-.75,3.72.99,3.49V4.04c3.8.31,11.04.73,14.01,0,6.59-1.62,3.65,1.53,5.7,2.02,7.56,1.82,18.54.97,26.3,1.98,5.94.78,12.69,2.16,19,3,5.59.74,11.25,2.29,17,3,4.29.53,8.65,1.18,13.01,1l5.99,2ZM411.21,24.05c-1.04-1.02-4.01,1.99-2.99,2.99,1.04,1.02,4.01-1.99,2.99-2.99ZM447.22,39.05c-5.3-.27-7.34,6.45-1.48,7.98,2.98.78-.46-6.45,1.48-7.98ZM635.22,43.05c-6.77.56-6.5,6.97,0,6.99-.93-2.6-.87-4.38,0-6.99ZM495.22,46.04c-7.23-.12-5.7,7.97,1,7l-1-7ZM542.21,51.05c-1.81-2.26-9.02,8.71,2,6.99-1.77-2.24-2.44-4.03-2-6.99ZM634.21,121.04c-2.79-3.05-8.57,8.57,2,6.99.96-2.69-1.8-1.58-2.02-2.64-.28-1.35.14-2.95.02-4.36ZM634.22,200.05c-2.63-2.72-8.92,7.57,0,6.99-1.62-1.77.25-6.73,0-6.99ZM576.21,235.05c-1.22-1.63-1.81.02-2,1.48-.49,3.83-1.32,13.5,4,13.51.23-5.36-3.21-9.41-2-14.99ZM633.22,280.04c-4.55-1.46-5.5,5.85-2.37,6.88,5.77,1.91,1.8-3.15,2.37-6.88Z"/>
      <path class="cls-12" d="M74.22,343.04l9.99,2.99c-21.64,1.62-43.69,1.51-64.99,5.01-.51-.63-12.21-4.61-15-6,11.63-3.08,24.42-3.13,36.49-4.01,3.27-.24,9.85-2.08,12.51-1.99,5.86.2,14.49,4.63,21,4Z"/>
      <path class="cls-15" d="M74.22,325.04c-.41,2.3.2,3.29,1.44,5.06,4.11,5.89,13.64,10.88,16.56,17.94-5.36.18-11.22.7-16.48,1.03-9.48.6-18.98,2.15-28.51,1.98l8.85,4.63,3.14,3.36c-8.62-3.01-12.84-7.15-22.55-7-1.92.03-4.01-.99-3.45,2-5.89-2.35-13.43-.57-14.01-1-.23-.18.24-1.71,0-2,21.3-3.5,43.36-3.39,64.99-5.01l-9.99-2.99c1.07-5-4.05-8.98-7.5-12-2-1.76-5.59-1.75-5.5-5,4.39.29,8.67-.61,13-1Z"/>
      <path class="cls-14" d="M16.22,280.04c6.09.64,8.92.89,10.01,8,3.36-.45,5.06-4.29,8.53-4.95,2.97-.56,7.31-.36,9.46,1.95s3.96,9.63,4,13c-4.71,2.04-3.25-1.39-7-1-.36-4.71-2.47-5.66-3.8-8.71-.65-1.49.75-4.4-1.19-4.29,1.31,5.1-5.19,2.18-7.75,4.26-.41.34-4.12,9.01-4.26,9.74l-3-1c1.85-17.25-10.51-6.5-6.76,5.26.52,1.62.43,3.24,2.76,2.74-2.16,1.29-3.43,1.24-6,1-.71-2.91-4.27-3.8-4.08-10.5.06-2.27,2.78-11.23,4.08-12.5.52-.51,4.29-1.14,5-3Z"/>
      <path class="cls-3" d="M24.22,298.04c-.23,1.14-.11,3.69,0,5,.07.85.02,1.73,1,2,.4,1.42.62,4.16,1,5-3.26,1.94-6.65.87-10,0-2.25-.58-3.8-.69-5-3,.03-.28.06-.74,0-1,2.57.24,3.84.29,6-1,2.79-1.66,3.68-5.02,4-8l3,1Z"/>
      <path class="cls-3" d="M373.22,6.04c.61,4.62-5.02,6.25-4,1,.71-.09,2.19-.77,4-1Z"/>
      <path class="cls-12" d="M402.22,1.04v2c-.34.05-1.24,1.08-2,1-.16-.79-.29-.8-1-1V1.04c1,.02,2,.02,3,0Z"/>
      <path class="cls-2" d="M399.22,3.04c-.27-.08-.65.03-1,0l1-1v1Z"/>
      <path class="cls-1" d="M369.22,68.04c-4.16,11.34-8.35,22.86-13,34-8.59,20.6-18.12,41.01-26.99,61.51-41.3,4.34-82.6,9.28-124.01,12.49,9.85-27.18,23.95-53.23,34.47-80.03,1.02-2.61,2.25-5.24,3.09-7.91.57-1.82.08-4.95.88-6.12.95-1.4,10.17-1.18,12.56-1.93-1.44,2.1-5.12,2.72-7.35,4.14-1.01.64-3.09,2.07-.18,1.82,2.99.29,6.51-3.6,7.31-3.9,3.89-1.43,13.86-.41,13.23-6.07,6.35-.76,5.81-.96,11-3-.92,4.06,4.69-.15,8,1,.12.04.5,1.47,1.66,1.8,3.22.91,7.64,1.12,6.34-2.8.88-.09,2.42-.81,4-1-.56,3.02,1.53,1.94,3.45,2,22.37.74,43.37-5.73,65.55-6Z"/>
      <path class="cls-1" d="M214.22,86.04c-13.98,30.99-26.03,62.94-40.99,93.51-36.34,3.31-72.62,7.83-109.01,10.49-.05-1.88.57-3.51,1.28-5.21,11.42-26.93,25.27-52.88,35.78-80.23,1.11-2.23,5.87-1.6,6.81-2.73.43-.52-.02-1.42.13-1.84.17-.49-.11-1.37,0-1.99.24-.19,3.27.68,3.99.99.12.48.53.93,1,1,5.66.89,12.27-3.7,17.22-5.28,1.65-.53,3.26-.23,2.78-2.72,2.66-.34,5.33-.66,8-1,1.9-.24,4.1.24,6,0l3.35,2.95c18.64-3.34,37.39-5.46,56.19-7.9,1.98-.26,5.83-1.11,7.45-.05Z"/>
      <path class="cls-2" d="M372.22,184.04c-.44,2.46-.31,9.86.04,12.46.21,1.5,2.01,2.95,1.97,4.02-.02.67-1,.47-1.01.52-3.78.81-.47-4.87-3.48-3.98-4.21,1.25-5.46,2.82-3.52,6.98,1.06,2.28,1.84,1.8,4,2-.04.85.78,1.46,1,2,.91,2.23.43,3.39,4,3,1.54,10.22-.78,21.8-1,32l-4,2c-.46-1.54-1.67-2.84-1-5.01-2.54-2.73-8.69,7.38,1,7.01,1.22-.05,2.71-.84,4-1-.29,10.98-.77,22.1-1,33-6.07,2.86-9.38-.59-10,8-6.13,4.12-2.46,19.39,1.5,23.01,1.78,1.63,3.45.59,4.5.99.13.05,1.66,1.64,2,2,.14.15-.32,1.36.17,1.82.7.64,2.58-.04,2.83.18,1.27,1.13-2.02,29.73-1.01,34-3.62.45-6.52-3.08-9.72-3.77-2.43-.52-4.86-.08-7.28-.23-.09-.87-.1-2.14,0-3,0-.06.98-.18.98-.49-.17-.61-.56-.42-.98-.51-4.14-.84-2.07-.96-3.75-1.96-2.79-1.66-14.69-8.69-16.74-9.06-2.66-.48-1.21,2.68-1.51,4.02-5.79-2.95-13.96-8.12-21-9v-2c0-3.11-.8-11.43,1-13,.94,1.87,3.38.69,4.84.35,2.51-.59,12.62-3.11,13.16-5.35-2.53-13.27,4.53-95.27,0-101-.24-.3-.85-.49-1-1,2.11-6.21,5.46-12,8-18,2.65,4.99-3.79,8.81-2.76,15.24.8,5.01,3.69,5.52,8.31,4.8,7.05-1.09,7.5-8.01,10.63-13.36,1.13-1.94,4.41-7.22,6.82-7.68-1.32,3.77-.83,6.29.5,10l5.51-1.01c-.75-3.92-.36-5.9-5.01-5-.69-.58,2.46-5.73,3-7l6,3ZM344.22,232.05c-6.29-.34-5.59,8.03,1,6.99-.42-3-3.23-3.67-1-6.99ZM344.21,311.04l-.48-7.97c-6.71,1.53-5.41,7.44.48,7.97ZM368.22,328.04c-4.55-1.46-5.5,5.85-2.37,6.88,5.77,1.91,1.8-3.15,2.37-6.88Z"/>
      <path class="cls-10" d="M243.22,322.04c-8.8-2.16-19.61-7.37-24.41,4.08-2.11,5.03.14,8.2-.52,11.22-.23,1.05-3.61,1.25-3.06,3.7-.33.02-.67-.02-1,0-2.17.12-5.11.84-8,1-.99.06-2.01-.06-3,0-.99.06-2.01-.06-3,0-7.67.43-17.33,2-24.5,2h-15c-2.56,0-8.02.82-11.5,1-1.78-12.9-8.15-25.15-23.28-18.78-6,2.53-3.95,11.94-4.74,16.26-.36,1.94-2.25,2.54-1.97,4.52,6-2.96,10.45-.96,15.99-1v6c-8.48-1.01-15.35-2.27-24-3-6.27-.53-12.34-1.22-19-1-2.92-7.06-12.44-12.05-16.56-17.94-1.24-1.77-1.85-2.76-1.44-5.06,42.31-3.79,85.06-5.35,127.49-8.01,11.95-.75,25.24-2.93,37.02-3.07,6.54-.08,3.95,3.58,4.5,8.08Z"/>
      <path class="cls-9" d="M400.22,39.04c4.24-.37.34,5.35,1.16,8.27,1.99,7.06,10.78-4.33,13.31-4.28.7.01,4.54,2.15,4.59,2.62.07,3.48-2.75,3.12-3.06,3.4-.44-5.74-5.47,2.82-5.88,3.62-13.28,25.76-23.08,58.81-34.13,85.87.86,7.87-.73,15.97-.99,23.51-3.02-.56-1.93,1.53-2,3.45-.18,4.6,1.68,7.67-3.67,9.19-1.02.29-2.18-.8-3.33-.17-1.94,1.07.05,2.38,0,2.53-.54,1.8-3.43,5.39-4,7-2.41.45-5.69,5.74-6.82,7.68-3.13,5.35-3.58,12.28-10.63,13.36-4.62.71-7.51.2-8.31-4.8-1.03-6.42,5.41-10.25,2.76-15.24.37-.86.57-1.97,1-3,1.91.9,3.68-3.45,3.84-4.73.21-1.66-.86-1.2-.84-1.27,3.93-18.53,22.79-57.39,31-77,6.25-14.93,12.79-30.13,19-45,2.09-4.99,4.88-9.95,7-15ZM354.22,169.04c-1.92.05-3.47-.7-3.01,1.49.23,1.07,2.04.31,3.01.51.76.16.85.24,1,1,.5,2.48-.95,4.29,4.31,3.03.99-.24,2.07-3.62,1.69-4.03-.28-.31-2.41.28-3,0-2.55-1.22,2.22-9.18-3.06-5.55-1.09.75-.91,2.38-.94,3.55Z"/>
      <path class="cls-10" d="M332.22,305.04c-3.24.54-16.28,3.5-18,5-1.8,1.57-1,9.89-1,13-2.31-6.52.8-13.01-4.93-18.56-2.23-2.16-5.83-2.22-6.07-2.45-.31-.3,4.39-6.84,0-7.99,7.63-4.53,9.16-13.15,8.08-21.57-.3-2.36-1.92-1.2-2.08-1.43-.18-.25-.57-2.09-1-3-.21-.45-.88-.74-1-1-.13-.27.12-.72,0-1-.88-2.02-1.57-4.68-3-7,2.92-.65,4.77.05,5.97-3.51-.96-1.44-2.32-1.69-3.97-1.49.02-2.73-.38-5.28.54-7.96,2.58-7.51,18.44-27.81,23.53-36.51.85-1.45.6-2.85.92-3.53.13-.27,1.89-1.01,2-2,4.53,5.73-2.53,87.73,0,101Z"/>
      <path class="cls-15" d="M243.22,322.04c.42,3.49.55,4.53,4.45,5.05,20.45,1.69,45.68-4.54,65.55-2.05,7.04.88,15.21,6.05,21,9,.67.34,1.32.63,2,1-.64,3.4,7.45,10.33,9.8,10.85,1.5.34,2.02-.84,2.2-.85,1.31-.09,2.68,0,4,0,.04,2.04-.88,3.02,1.24,4.3,3.92,2.37,9.23,4.18,13.43,6.52,1.64.91,3.15,2.55,4.33,3.17-1.55,3.13-1.94-.66-2.73-.98s-1.73.12-2.27-.02c-3.64-.93-2.24-.11-4,0-3.14.2-19.16.45-20,1-3.19-.09-6.31-1.92-8.91-3.59-6.48-4.16-15.17-10.88-21.15-15.87-1.18-.98-1.69-3.33-2.64-3.56-2.39-.58-10.72-.13-13.79.03-15.68.8-32.07,3.09-47.51,3.99-10.91.64-22.08.38-33,1-.54-2.45,2.83-2.65,3.06-3.7.66-3.02-1.59-6.19.52-11.22,4.8-11.45,15.61-6.24,24.41-4.08Z"/>
      <path class="cls-15" d="M394.22,20.04c2.38-1.15,3.05,5.01,3.02,5.41-.04.52-5.64,5.19-7.02,7.59-5.72,4.85-6.96.87-10.73.23-.78-.13-1.2.77-1.27.77-.99-.05-2,0-3,0-5.11-.03-18.48.2-22.57,1.93-6.72,2.83-3.34,7.24-4.67,12.33-2.41,9.27-16.65,14.93-24.76,17.74-.11-.13-1.41.53-2.1-.59-1.13-1.85-.92-5.24-.9-7.41,4.69-1.87,10.34-3.47,14.69-5.81,2.71-1.46,4.44-4.34,7.89-5.13-.07-8.28-5.08-7.7-7.01,0l-30.56,14.94c1.77-4.34,3.41-2.21,6.2-4.09s5.41-5.14,8.87-6.5c.14-1.32-7.21-9.65-8.56-10.51-2.54-1.63-12.58,2.11-16.27,2.84-4.1.81-8.16-.24-12.48,1.52-.74.3-7.61,4.8-7.89,5.18-1.19,1.63,2,6.71-3.37,7.56-4.75.75,2.37-6.24,1.48-7.01-14.74-.26-29.53,6.46-44.49,4.98-6.12-.6-12.18-3.49-18.95-3.03-5.32.36-9.5,3.16-14.14,3.95-9.1,1.55-18.2-.34-26.9.1-14.11.7-29.74,4.76-43.51,4.99,1.33-2.59,6.04-2.44,8.67-2.83,30.88-4.62,62.85-9.51,93.78-10.13,23.32-.47,50.23-9.21,74.06-12.02,22.7-2.68,46.69-6.76,69.01-8.99,7.84-.78,21.82,2.98,23.48-8.02Z"/>
      <path class="cls-10" d="M375.22,34.04l-9.99,5.55c1.92,8.12,9.87,9.18,16.96,10.98,3.48.88,8.84.15,11.03,3.47-6.21,14.87-12.75,30.07-19,45l-18,3c4.65-11.14,8.84-22.66,13-34,.32-.86,3.56-3.26,1.49-5.02-15.75,2.48-31.66,4.14-47.49,6.02-.17-.75.24-2.71,0-3,8.11-2.81,22.35-8.46,24.76-17.74,1.32-5.09-2.05-9.5,4.67-12.33,4.09-1.72,17.46-1.96,22.57-1.93Z"/>
      <path class="cls-4" d="M392.22,18.04l2,1c0,.32.05.68,0,1-1.67,10.99-15.65,7.23-23.48,8.02-22.32,2.24-46.3,6.31-69.01,8.99-23.83,2.82-50.74,11.55-74.06,12.02-30.93.63-62.9,5.52-93.78,10.13-2.62.39-7.33.24-8.67,2.83-.66.01-1.34.03-2,0-1.29-.06-3.34-.43-4,1-.57-.14-1.37.11-2,0-2.32-.41-4.92-1.81-8-1-.25-.36-1.62-.55-1.81-1.63-.14-.78.82-1.28.81-1.37,4.21,1.14,8.59-1.53,12-2,31.48-4.34,63.4-7.81,95-12,17.65-2.34,35.35-4.65,53-7,34-4.53,68.01-9.42,102-14,5.51-.74,7.5-.76,13-2,.57-.13,1.36.09,2,0,.92-.13,3.81.23,4,0,.36-.42-.54-3.16.13-3.92.45-.52,2.62.13,2.87-.08Z"/>
      <path class="cls-15" d="M331.22,203.04c.15.51.76.7,1,1-.11.99-1.87,1.73-2,2l-297.51,26.99c-3.19-.21-6.93.4-10.01.01-1.46-.19-3.1-.76-1.48-2l309.99-28.01Z"/>
      <path class="cls-6" d="M269.22,76.04c.63,5.66-9.33,4.64-13.23,6.07-.8.29-4.31,4.19-7.31,3.9-2.91.25-.82-1.18.18-1.82,2.23-1.42,5.91-2.04,7.35-4.14-2.39.75-11.6.53-12.56,1.93-.8,1.17-.3,4.3-.88,6.12-.84,2.67-2.07,5.3-3.09,7.91-10.52,26.8-24.62,52.86-34.47,80.03-.45.04-6.65,3.06-5.89-.38l41.02-96.49c9.57-1.33,19.28-1.98,28.87-3.13Z"/>
      <path class="cls-6" d="M305.22,254.04c1.66-.19,3.01.05,3.97,1.49-1.21,3.56-3.05,2.86-5.97,3.51-1.16.26-3.05,1.04-4,1-2-.08-3.96-1.63-5.65-1.72-4.96-.27-10.95,6.26-12.35,10.72-4.27-1.04-3.05-8.01-9-3-6.07-4.43-10.08-.21-14,4-8.81,9.46-8.32,19.94,1,29,.88.86,1.3,2.61,3,3-.53,5.13,1.82,8.02,0,13-.2.54.46,1.19-.64,2.06-.84.67-7.76,3.58-8.36,2.93l-6.99-53.96,58.98-12.04Z"/>
      <path class="cls-15" d="M178.22,87.04c-10.35,1.22-20.67,2.7-31,4-1.9.24-4.1-.24-6,0,1.79-2.77,5.47-3.61,8.26-5.04,1.67-.85-.52-1.76,4.74-1.96.06,0-.19.91.55.95,2.52.14,20.14-9.88,25.21-10.78,1.92-.34,2.26-.42,2.31,1.74,1.92,1.33,3.44-3.86,4.86-5.48,1.92-2.17,9.4-5.17,9.06-6.92s-1.93-1.51-3.49-.51c-1.95,1.25-7.81,5.61-9.5,6-.07-4.93,11.82-11.81,15.57-9.07,4.51,3.29.99,5.04.01,7.16-4.94,10.74-10.25,9.3-18.36,15.63-1.68,1.31-2.61,1.81-2.22,4.28Z"/>
      <path class="cls-10" d="M61.22,326.04c-.09,3.24,3.5,3.24,5.5,5,3.44,3.03,8.57,7,7.5,12-6.51.63-15.14-3.8-21-4l10.94-61.57c.88-2.83-2.83-.1-2.94-2.41,3.63.11,5.19-3.04,7.99-5.01l-8,56Z"/>
      <path class="cls-8" d="M108.22,100.04c-.14.41.31,1.32-.13,1.84-.93,1.13-5.7.49-6.81,2.73-10.51,27.35-24.36,53.3-35.78,80.23-.72,1.69-1.34,3.33-1.28,5.21-1.65.12-3.34-.09-5,0,5.04-13.46,11.05-26.86,17-40,5.64-12.45,16.59-31.15,20.07-43.47.72-2.55,1.11-3.96-.07-6.53.33-.01.68.04,1,0,4.11-.55,6.71-1.05,11,0Z"/>
      <path class="cls-15" d="M308.22,271.04c.16.23,1.78-.93,2.08,1.43,1.08,8.42-.45,17.04-8.08,21.57-4.18,2.48-11.4,3.74-15.51,6.99-3.01,2.39-3.95,8.07-8.01,8.99-2.69.61-.95-2.36-1.49-2.99l-4,1.02c-.46.46,1.43,3.37,1,3.95-.49.67-10.17,3.81-11.99,3.05,1.82-4.98-.53-7.87,0-13,1.55.36,4.16-.15,6,0,.35.03,1.43,1.17,3.42,1.09,5.95-.23,12.05-9.32,14.58-14.09,3.17,2.73,4.64,1.61,8,2,.24.03,1,1.04,2.43,1.06,5.51.09,3.87-2.83,4.82-3.81,1.6-1.66,2.41.71,4.75-5.25,1.52-3.88,2.63-7.29,1.22-11.42l.78-.58Z"/>
      <path class="cls-15" d="M26.22,310.04c.5,1.12,2.29,2.15,3,3,.23.27.03,1.57,1,2.46,3.06,2.78,10.32,3.89,14,2.54,2.17-.8,3.27-1.51,5-3-.31,4.81-2.94,7.26-3.02,7.69-.43,2.3,3.5,10.2-1.41,10.29-1.05.02-18.57-6.79-19.51-7.54-.57-.45-5.07-6.04-6.76-7.8-.74-.77.66-3.6-3.29-2.65l1-4.99c3.35.87,6.74,1.94,10,0Z"/>
      <path class="cls-6" d="M96.22,100.04c1.18,2.57.78,3.98.07,6.53-3.48,12.32-14.43,31.02-20.07,43.47-5.02,2.38-7.16,10.95-9.7,15.83-.93,1.79.38,2.78-3.3,2.17,9.81-22.88,20.63-45.38,31-68,.67-.01,1.33.02,2,0Z"/>
      <path class="cls-6" d="M268.22,38.04c-17.65,2.35-35.35,4.66-53,7,.74-2.43-3.03-2.78-3.01-3.5l4.02-.51-1.01-1.99c13.9-.23,27.68-3.39,41.5-5,3.67-.43,7.47,1.14,10.5-2,1.69,1.71.95,3.75,1,6Z"/>
      <path class="cls-6" d="M323.22,69.04c15.82-1.87,31.74-3.53,47.49-6.02,2.08,1.75-1.17,4.15-1.49,5.02-22.17.27-43.18,6.74-65.55,6-1.93-.06-4.01,1.02-3.45-2,7.63-.92,15.35-2.1,23-3Z"/>
      <path class="cls-15" d="M69.22,270.04c.54-.38.32-1.6,2.48-1.98,50.44-1.84,100.7-9.3,151.03-12.01,4.14-.22,8.35.12,12.48,0l-165.99,13.99Z"/>
      <path class="cls-6" d="M178.22,87.04c12.49-1.48,25.07-2.93,37.49-5.02,1.84,1.32-1.09,3.15-1.49,4.02-1.62-1.06-5.48-.2-7.45.05-18.8,2.44-37.55,4.56-56.19,7.9l-3.35-2.95c10.33-1.3,20.65-2.78,31-4Z"/>
      <path class="cls-15" d="M413.22.04c-.87,2.7,1.96,4.5,1.63,7.02-.12.93-5.04,13.78-5.54,14.36-.99,1.14-1.88.57-3.09.62-6.26.28-2.79-.59-4.52-3.95-.78-1.52-4.55-3.38-3.33-4.95.27-.34,1.74.05,1.86-.11,1.28,2.59,4.1,4.25,6.99,3.99,1.37-4.85-3.12-1.89-4.56-3.92s-1.19-8.67,2.93-7.89c2.58.49,1.57,4.6,4.64,3.81-.45-5.59-2.71-6.84-7.99-5.99V1.04c3.91-.08,7.23-.96,11-1Z"/>
      <path class="cls-15" d="M16.22,280.04c-1.31-.14-2.68.11-3.99-.01-.27-1.3,1.86-1.6,2.74-1.74,12.12-1.86,26.83,2.93,39.26,1.75-.1,2.71-.76,5.29-1,8-3.98-.48-6.41-10.84-9-3-2.15-2.31-6.49-2.51-9.46-1.95-3.47.66-5.17,4.5-8.53,4.95-1.09-7.11-3.92-7.36-10.01-8Z"/>
      <path class="cls-4" d="M76.22,150.04c-5.95,13.14-11.96,26.54-17,40-1.34.07-3.91,1.82-6,.99-.34-1.3.7-2.1,1-2.99,2.29-.01,3.43-1.24,2.98-3.48l-.98-.52c.38-.9.46-1.93,1-3,1.7.1,2.34.36,1.99-1.49l-.99-.51c.74-1.31-.22-1.56,2-3,.3-.19,1.41.16,2,0l-1-3c.69-2.03,1.2-3.14,2-5,3.68.61,2.36-.38,3.3-2.17,2.54-4.88,4.68-13.45,9.7-15.83Z"/>
      <path class="cls-1" d="M305.22,62.04l30.56-14.94c1.93-7.71,6.94-8.29,7.01,0-3.44.79-5.18,3.67-7.89,5.13-4.35,2.34-9.99,3.95-14.69,5.81-2.46.98-14.97,6.88-16,5.99-.53-1.74.9-1.77,1-1.99Z"/>
      <path class="cls-1" d="M267.22,32.04c-3.03,3.14-6.82,1.58-10.5,2-13.82,1.6-27.6,4.77-41.5,5-.38-.21-.75-.93-1-1v-1c13.49-1.07,28.19-5.08,41.51-5.99,2.82-.19,9.82-.69,11.49.99Z"/>
      <path class="cls-12" d="M44.22,285.04c2.59-7.84,5.02,2.52,9,3-.76,8.45-2.56,16.71-5.98,24.53l1.97-.53c-.02.99.07,2.01,0,3-1.73,1.49-2.83,2.2-5,3-1.6-7.08,4.11-12.05,4-20-.04-3.37-1.77-10.6-4-13Z"/>
      <path class="cls-1" d="M183.22,69.04c1.7-.38,7.56-4.75,9.5-6,1.56-1,3.13-1.32,3.49.51s-7.14,4.75-9.06,6.92c-1.42,1.61-2.95,6.8-4.86,5.48-.05-2.17-.39-2.08-2.31-1.74-5.07.91-22.69,10.92-25.21,10.78-.74-.04-.5-.96-.55-.95,2.97-2.65,6.52-4.19,10-6,5.7-2.96,11.41-5.84,17-9,.07.07,1.6.09,2,0Z"/>
      <path class="cls-6" d="M133.22,92.04c.49,2.48-1.13,2.19-2.78,2.72-4.95,1.58-11.57,6.17-17.22,5.28-.27-.36-.59-.82-1-1-.72-.31-3.75-1.18-3.99-.99-.12.63.16,1.51,0,1.99-4.29-1.05-6.89-.55-11,0v-3c11.72-2.14,24.16-3.48,36-5Z"/>
      <path class="cls-6" d="M383.22,20.04c-.12.6.08,1.36,0,2-5.5,1.24-7.49,1.26-13,2-.54-.82-2.02-3.75-.27-4.02,1.03-.16,2.56.7,2.26-.97l-4.99-3c4.41-.28,11.13-2.15,15.34-.86,2.66.81,1,3.11.65,4.85Z"/>
      <path class="cls-15" d="M108.22,59.04c-.26-2.65-.26-5.43-1.01-7.99l13.01-1.01v7.01c-3.41.47-7.8,3.14-12,2Z"/>
      <path class="cls-13" d="M223.22,26.04c-4.08-7.26,13.85-8.6,14.92-5.4,2.12,6.38-10.72,4.42-14.92,5.4Z"/>
      <path class="cls-2" d="M402.22,3.04c5.28-.84,7.54.4,7.99,5.99-3.06.79-2.06-3.33-4.64-3.81-4.12-.78-4.42,5.79-2.93,7.89s5.93-.93,4.56,3.92c-2.89.25-5.71-1.4-6.99-3.99.27-.36.21-7.98,0-9,.76.08,1.66-.95,2-1Z"/>
      <path class="cls-15" d="M164.22,78.04c-.47-2.15,1.16-2.16,2.45-3,2.37-1.52,12.35-8.27,13.99-8.07.89.11.45,1.96.55,2.06-5.59,3.16-11.3,6.04-17,9Z"/>
      <path class="cls-10" d="M390.22,33.04c-.3.53.47,2.58-.95,3.53-2.33,1.55-11.42,2.78-11.05-2.53.07,0,.5-.9,1.27-.77,3.77.63,5.01,4.62,10.73-.23Z"/>
      <path class="cls-13" d="M100.15,47.1c.68.42,1.53,7.46,1.07,7.94-7.21,1.32-5.42-10.64-1.07-7.94Z"/>
      <path class="cls-10" d="M392.21,38.05c2.02,1.95-4.06,6.85-5.99,4.99s4.06-6.85,5.99-4.99Z"/>
      <path class="cls-6" d="M296.22,73.04c1.3,3.92-3.12,3.71-6.34,2.8-1.16-.33-1.54-1.76-1.66-1.8v-1c1.18.33,6.4.16,8,0Z"/>
      <path class="cls-15" d="M117.22,63.04c-.74,2.69-6.01,2.81-7.51,1.01-.49-.58-.26-1.7-.49-2.01,3.08-.81,5.68.59,8,1Z"/>
      <path class="cls-15" d="M280.22,73.04c1.44-.57,5.2-2.04,6.37-1.98.72.04,1.25,1.87,1.63,1.98v1c-3.31-1.15-8.92,3.06-8-1Z"/>
      <path class="cls-2" d="M343.22,176.04c-.02.07,1.05-.39.84,1.27-.16,1.28-1.93,5.63-3.84,4.73.84-2.04.92-4.43,3-6Z"/>
      <path class="cls-6" d="M54.22,188.04c.7-2.12,1.51-2.82,2-4l.98.52c.45,2.24-.7,3.47-2.98,3.48Z"/>
      <path class="cls-15" d="M123.22,62.04c.42,3.93-2.08,1.47-4,1,.66-1.43,2.71-1.06,4-1Z"/>
      <path class="cls-15" d="M392.22,18.04c.26-.22-.3-2.69,0-3,2.25-2.28,2.01,2.68,2,4l-2-1Z"/>
      <path class="cls-1" d="M97.22,97.04v3c-.32.04-.67-.01-1,0-.67.02-1.33-.01-2,0l.97-2.53c.6-.51,1.35-.35,2.03-.47Z"/>
      <path class="cls-15" d="M318.21,62.05c1.02,1-1.95,4.01-2.99,2.99-1.02-1,1.95-4.01,2.99-2.99Z"/>
      <path class="cls-1" d="M302.21,64.05v1.99s-3.99,0-3.99,0c-1.21-.55,3.44-2.53,3.99-1.99Z"/>
      <path class="cls-6" d="M61.22,173.04l1,3c-.59.16-1.7-.19-2,0-.48-1.39.75-2.27,1-3Z"/>
      <path class="cls-15" d="M383.22,20.04c2.13-.24,2.24-.13,2,2-.64.09-1.43-.13-2,0,.08-.64-.12-1.4,0-2Z"/>
      <path class="cls-6" d="M58.22,179.04l.99.51c.35,1.85-.29,1.59-1.99,1.49.34-.69.62-1.32,1-2Z"/>
      <path class="cls-6" d="M214.22,37.04v1c-.73-.2-2.01.49-2.01-.5l2.01-.5Z"/>
      <path class="cls-15" d="M290.72,69.04c.65.33.65.67,0,1v-1Z"/>
      <path class="cls-12" d="M92.22,348.04c6.66-.22,12.73.47,19,1-8.01,1.81-6.46,12.22-9.12,17.37-1.23,2.39-6.86,4.24-4.26,5.62,2.61,1.39,5.85-.66,8.38,1.01-13.74,1.88-15.7,1.91-28-4,.32-2.86-.24-1.7-2-2-.63-.11-1.44.14-2,0,.61-2.67-1.99-2.4-4-3-.57-.17-1.81.2-2,0-.69-.75,1.72-1.43-2-2-.33-.05-.67.05-1,0,.37-2.96-.41-1.64-2-2-1.53-.34-2.39-.44-4-1l-3.14-3.36-8.85-4.63c9.53.17,19.04-1.37,28.51-1.98,5.26-.33,11.12-.85,16.48-1.03Z"/>
      <path class="cls-12" d="M356.22,345.04c.33,3.26,4.34,3.2,7.32,5.18,6.79,4.49,10.78,8.75,19.25,10.75,4.52,1.07,11.46.73,16.43,1.07,14.73,1,29.56,1.58,44.34,1.96l1.67,5.04,2.5-4.98,1.49,4.99c2.22-.16,1.36-3.73,2.6-4.06,1-.27,16.57-.25,17.73.02,1.31.31,1.46,3.79,1.67,5.04,1.91.14.48-4.93,2.49-4.97,1.22-.02,1.78,3.77,1.51,4.98,2.23-.16,1.36-3.73,2.6-4.06,2.71-.72,25.28-1.79,23.39,5.06-.16.52.11,1.37,0,2-1.32.08-2.67-.01-4,0-3.98.04-8.02.1-12,0-.53-.01-2.77-.93-5-1-6.49-.2-14.65-1-20.5-1h-27c-4.54,0-12.41-.68-17.5-1-7.07-.45-14.9-.86-22-2-7.88-1.26-11.19-3.47-18-7-1.33-.69-2.72-1.33-4-2-1.18-.62-2.69-2.26-4.33-3.17-4.19-2.34-9.51-4.15-13.43-6.52-2.12-1.28-1.2-2.27-1.24-4.3,1.53,0,2.05-.12,4,0Z"/>
      <path class="cls-15" d="M70.22,364.04c2.01.6,4.61.33,4,3-2.04-.51-4.61-.42-4-3Z"/>
      <path class="cls-15" d="M63.22,360.04c1.59.36,2.37-.96,2,2-1.8-.28-2.31.83-2-2Z"/>
      <path class="cls-15" d="M66.22,362.04c3.72.57,1.31,1.25,2,2-2.12.24-2.24.13-2-2Z"/>
      <path class="cls-15" d="M76.22,367.04c1.76.3,2.32-.86,2,2-.82-.39-2.58.99-2-2Z"/>
      <path class="cls-9" d="M552.22,77.04c-3.05,23.02-.66,50.84-.96,74.54-.36,28.52-.69,57.34-1,86-.12,11.57-4.39,32.1,2.96,41.46.26.33,1.47.34,1.82,1.63.99,3.64-1.46,6.34,3.69,8.35l-1.51-5.98c4.31.51,7.81-.69,11.03-3.48,5.56-4.8,3.76-9,3.97-15.53,6.25.9,5.09-3.45,5.01-8,1.12-.19,1.87,0,2.49,1,.81,1.3,3.11,18.39,3.49,21.51.4,3.27-1.14,9.58,1.42,11.58,2.24,1.75,7.94-.04,7.59,3.91-3.47-.2-7,.16-10.49,0-1.94-.09-6.07-1.87-7.34-.78-.46.4-.04,1.68-.17,1.79-.26.23-1.97,0-2.52.95-.85,1.44-.1,3.31-.53,4.32-.24.56-1.37,2.54-1.95,3.73-.13.26.12.71,0,1-5.36-2.79-10.46,4.02-8,9-3.02,3.62-5.94,7.4-9,11-6.39-1.31-4.87,2.21-6.97,4.53-1.24,1.37-8.17,9.18-8.73,9.52-.62.38-9.24,3-9.73,2.88-1.26-.29-1.54-3.14-2.62-4.39-.67-.78-2.21-1.05-3.02-2.01-.87-1.04-.73-3.12-1.05-3.4-.85-.73-3.99.42-4.79-.23-.43-.35-2.97-9.63-3.05-10.53-.27-3,1.14-5.29,1.05-7.88-.07-1.91-1.07-10.24-1.6-11.48-1.41-3.27-5.24-4.28-7.48-1.02-.93.06-1.4-.64-2-1,.44-5.28-.93-4.67-5-5-2.3-.19-4.69.16-7,0v-5c2.35.16,7.04.05,9-1-.37,3.87,3.77,2.4,1-1,.49-.6-1.5-2.59,3-2,.11.01.72,1.45,1.99,1-.15-1.16.4-2.96-.14-3.85-2.06-3.4-25.4-2.54-30.38-3.12-6.3-.74-9.42-7.43-13.55-11.42-2.16-2.08-3.69-3.97-5.14-5.38-1.05-1.02-3.96-.88-5.37-2.16-1.39-1.27-1.16-3.56-1.57-3.91-.45-.39-3.79-.17-5.6-.91-3.34-1.37-10.42-14.44-11.79-18.21-.71-1.95,0-4.66-.67-5.84-.27-.47-2.64-.94-3.69-2.8-3.21-5.65,1.17-9.81-10.1-7.4-.59.54,4.08,11.8-3.01,7.51-1.37-.83-1.32-3.44-2.21-4.28-1.79-1.7-5.5-.11-6.55-4.95-.23-1.06-1.16-9.11-1.06-9.58.85-3.71,9.28-2.97,2.12-11.35,1.77-3.31-3.08-14.06,2.21-14.39,3.83-.24,11.59,1.91,15.98,2.08,28.56,1.11,58.66,3.98,87.03,2.94,3-.11,5.77,2.49,9.22-.3,2.41-1.95,3.94-7.4,4.29-7.69.88-.75,1.78,1.91,3-2,.64-2.04.6-12.17,0-13.01-.13-.18-1.57.12-2,0,.06-3.32-.03-6.68,0-10,3.55.33,2.5.28,3.16-2.3.5-1.98,1.21-10.25,1.88-10.69.71-.47,3.28,1.21,5.66.27,2.23-.88,5.86-5.11,6.64-7.45,5.92-17.79,2.69-37.56,4.79-55.23.31-2.6.33-5.56,3.88-4.61ZM543.22,170.05c-2.73-2.62-6.53,5.49-2.37,6.87,6.15,2.03,1.81-2.47,1.63-3.51-.2-1.11,1.08-3.03.75-3.36ZM542.21,253.05c-3.79-.3-5.72,5.76-2.36,6.86,5.78,1.9,1.78-3.13,2.36-6.86ZM452.21,255.05c-1.09-1.09-3.08.9-1.99,1.99s3.08-.9,1.99-1.99Z"/>
      <path class="cls-9" d="M463.22,62.04c.23,1.03,1.95.9,2,1,.21.41.49,2.67,1,4,.48,1.24-.4,4.09,2.49,4.01l-.49-4.01c.48-.11.86-.52,1-1,.56.31,2.56-.45,3.51.96.75,1.12.2,3.28,1.46,4.57.47.49,11.24,5.63,12.27,5.82,3.04.59,5.9-.61,9.24-.35,1.18.09,14.49,2.32,11.52,4.99l-10.99,1.01c-.55-.16-1.42.15-2,0-1.96-.51-3.38-2.54-3,1-1.78-.14-2.85-.82-4-1,1.19-2.32-4.52-3.03-6.5-2.99-.95.02-1.38.97-1.5.99-.32.05-.68-.05-1,0-3.1-3.2-4.3-1.53-7-1-.32.06-.68-.06-1,0-2.24-1.71-5.77-2.06-8.5-2.04-2.51.02-4.04-.74-3.5,2.04-6.32-.51-12.63-1.85-19-1.99l2,2.99c-2.42.06-3.68,1.9-4.51,3.99-5.94,21.99-21.71,46.65-26.81,68.19-.57,2.41-1.73,10.76,1.05,11.82,12.65,1.85,25.91,1.56,38.27,4-2.22,1.26-3.71.79-3,4-9.98-.88-19.99-1.4-30-2-1.49-.09-5.62-3.32-5,1-.65-.08-1.36.09-2,0,.74-3.52-2.54-1.25-3.84-2.14-2.2-1.51.72-17.53.07-21.13l29.57-71.44.19-2.29c-.29-.28-6.72.74-8,.99-.91.18-2.07-.2-3.3.2-1.23.4-1.4,1.61-1.7,1.8-1.19.77-1.67-.08-3.24,2.24-2.1,3.1-3.55,9.93-4.76,13.76-.23.74.16,2.1,0,3-2.24-.4-3.35,2.79-4.17,4.32-4.56,8.52-7.47,17.51-11.42,25.58-2.24,4.57-7.3,9.31-9.79,14.21-2.04,4-2.79,8.92-4.53,12.47-1.08,2.2-1.45,2.71-4.09,2.42.65-20.74,1.15-24.75,8.52-43.98,4.72-12.32,10.24-25.72,16.48-37.02,2.29,1.78,5.31-1.85,7.93-2.57,3.21-.88,6.72-.53,10.31-1.69,3.7-1.2,6.9-4.24,11.51-4.5,8.43-.46,10.07,6.36,21.96-.03.67-.36,5.87-3.85,6.29-4.21Z"/>
      <path class="cls-15" d="M375.22,162.04c.26-7.53,1.85-15.64.99-23.51,11.05-27.06,20.85-60.12,34.13-85.87.41-.8,5.44-9.37,5.88-3.62-1.74,1.57-8.95,17.61-9,20l-1,2c-.94.62-.68,3.42-1,4-6.25,11.29-11.77,24.7-16.48,37.02-7.36,19.23-7.86,23.25-8.52,43.98-.18,5.57-1.85,12.43-1.08,18.57.24,1.91,1.92.95,2.16,2.87,1.24,9.78.77,26.72-3.08,35.05v67.51s1,1,1,1c.32.28.62.87,1,1-.62,8.87.84,18.77,0,27.51-.17,1.77-.26,5.09-3,4.49-.49-4.66-2.45-3.17-3.01-4.78-.62-1.76,1.36-3.85-1.99-3.22.04-.66.02-1.34,0-2,1.63-4.36,1.29-11.12,1-16-.31-5.34-1.86-3.69-2.02-4.5-.47-2.44,2.48-1.34,2.99-3.1.19-.67-.97-1.3-.97-1.4.23-10.9.71-22.02,1-33,.03-1-.02-2,0-3,.22-10.2,2.54-21.78,1-32-.41-2.74-1.13-3.19-4-3-.22-.54-1.04-1.15-1-2,1.74.16,5.45.57,6-1,1.31-3.76,1.51-17.87,1.43-22.49-.11-5.97-1.2-4.62-2.43-6.51-.38-.59-.07-11.87,0-14Z"/>
      <path class="cls-10" d="M556.22,73.04c0,.92,1,1.85,1,2-.09,6.32-.92,12.59-1.04,18.46-.69,33.15.6,66.4.04,99.54-.91-.13-3.91-.35-4.02.52-.27,1.98.68,3.88.64,5.81-.13,7.44-1.22,19.33-.63,26.23.26,3.05-.54,2.58,3,2.45-.4,13.7-.29,28.28,0,42-5.82-1.17-1.63,5.12-2,9-7.35-9.36-3.08-29.89-2.96-41.46.31-28.66.64-57.48,1-86,.3-23.71-2.1-51.52.96-74.54.08-.62-.17-1.73,0-2,.05-.08,1.15.17,1.64-.36.52-.56.26-1.55.36-1.64.2-.19,1.44.12,2,0Z"/>
      <path class="cls-2" d="M557.22,11.04c16.18-.21,40.1,11.61,57.01,13.49l.99,1.5c-2.71,1.96-21.76-4.83-26.55-5.03-4.8-.2-16.84,2.23-21.05-.89-1.57-1.16.09-2.27-3.4-3.07-4.04-.93-9.84.29-7-6Z"/>
      <path class="cls-2" d="M458.22,80.04c4.59.37,7.8.82,12,0,.32-.06.68.06,1,0,2.73,2.99,4.72,1.38,7,1,.32-.05.68.05,1,0,2.11,2.41,5.4,1.6,8,2,1.15.18,2.22.86,4,1,1.07.08,2.54.21,3-1,.58.15,1.45-.16,2,0,.89.26,1.91,1.46,3.69,1.78,4.96.88,22.36,1.46,25.31,3.22v2l-84-9-2-2.99c6.36.14,12.68,1.48,19,1.99Z"/>
      <path class="cls-10" d="M526.22,157.04c-.03,3.32.06,6.68,0,10-.05,2.99.04,6.01,0,9.01-1,.04-2-.04-3,0,2.74-4.58-.02-10.25,0-14.5.03-3.58,1.91-8.12,2.03-11.97.61-19.76-.04-39.77-.04-59.54v-2c3.24,1.94,2.11,11.37,1.99,15.49-.52,17.76-.83,35.63-.99,53.51Z"/>
      <path class="cls-7" d="M592.22,294.04c5.66.33,13.44,2,18.5,2h17c2.84,0,9.52,1.7,12.5,2v1c-1.83.29-10.62-.41-11.01,0-.43.45.73,3.54-.49,4l-2.08-5.05-52.43-2.94c.13-.11-.29-1.39.17-1.79,1.27-1.09,5.41.69,7.34.78,3.49.17,7.02-.19,10.49,0Z"/>
      <path class="cls-12" d="M438.22,4.04v43.99c-1.75.23-.95-2.27-1-3.49-.18-4.49.06-9.03,0-13.51-.03-1.89.68-4.91-1-6,1.66-7.02.85-13.83,1-21,.33.03.67-.03,1,0Z"/>
      <path class="cls-12" d="M552.22,18.04l-.5,44.01-.5-44.01c.33.04.67-.03,1,0Z"/>
      <path class="cls-15" d="M654.22,46.04h-5.01s0-9.01,0-9.01c6.12-1.39,4.9,4.63,5,9.01Z"/>
      <path class="cls-9" d="M576.21,235.05c-1.21,5.58,2.23,9.63,2,14.99-5.32-.01-4.48-9.68-4-13.51.19-1.46.77-3.11,2-1.48Z"/>
      <path class="cls-12" d="M557.22,11.04c-2.84,6.29,2.96,5.07,7,6,1.11,2.99-4.85,2.25-7.59,2.04-1.31-.1-2.26-1.03-2.41-1.04.12-1.98-.17-4.03,0-6,0-.07.92-.3,1-1,.67,0,1.33,0,2,0Z"/>
      <path class="cls-10" d="M495.22,46.04l1,7c-6.7.97-8.23-7.12-1-7Z"/>
      <path class="cls-10" d="M447.22,39.05c-1.94,1.53,1.51,8.75-1.48,7.98-5.87-1.52-3.83-8.25,1.48-7.98Z"/>
      <path class="cls-10" d="M634.21,121.04c.12,1.41-.3,3.01-.02,4.36.22,1.05,2.98-.05,2.02,2.64-10.57,1.58-4.79-10.04-2-6.99Z"/>
      <path class="cls-10" d="M633.22,280.04c-.57,3.73,3.4,8.79-2.37,6.88-3.13-1.04-2.17-8.34,2.37-6.88Z"/>
      <path class="cls-10" d="M427.22,28.04c.14-.12-.17-2.74.93-3.55,3.26-2.38,3.17,1.55,4.07,4.55.16.52-.11,1.37,0,2-.59.07-1.86-.14-2,0-1.98.08-3.08-.98-3-3Z"/>
      <path class="cls-10" d="M542.21,51.05c-.43,2.96.24,4.75,2,6.99-11.03,1.73-3.81-9.24-2-6.99Z"/>
      <path class="cls-10" d="M634.22,200.05c.25.26-1.62,5.22,0,6.99-8.92.58-2.63-9.7,0-6.99Z"/>
      <path class="cls-10" d="M635.22,43.05c-.86,2.6-.93,4.38,0,6.99-6.5-.02-6.77-6.42,0-6.99Z"/>
      <path class="cls-15" d="M466.22,60.04c.4.13,1.45-.37,1.82.14.61.84-.16,5.13,1.18,5.86-.14.48-.52.89-1,1-.57.13-1.36-.09-2,0-.51-1.33-.79-3.59-1-4l1-3Z"/>
      <path class="cls-9" d="M437.22,31.04c-1.64.13-3.37-.19-5,0-.11-.63.16-1.48,0-2l2.99,1c-.81-2.13.71-3.72,1.01-5,1.68,1.09.97,4.11,1,6Z"/>
      <path class="cls-2" d="M466.22,60.04l-1,3c-.05-.1-1.77.03-2-1,1.06-.92-1.04-3.35,3-2Z"/>
      <path class="cls-9" d="M427.22,28.04c-.08,2.02,1.02,3.08,3,3-.13.14.42,3.51-1.96,1.95-.09-.06.09-1.25-.38-1.56-.99-.66-2.5-.72-3.18-1.37-2.69-2.57,2.36-1.88,2.52-2.02Z"/>
      <path class="cls-9" d="M420.22,1.04c1.04,3.63-4.62,1.77-4-1,1.31.12,2.69.84,4,1Z"/>
      <path class="cls-9" d="M411.21,24.05c1.02,1-1.95,4.01-2.99,2.99-1.02-1,1.95-4.01,2.99-2.99Z"/>
      <path class="cls-9" d="M407.22,69.04c0,.11,1.55,1.45.99,1.99-.24.23-1.64-.22-1.99,0l1-2Z"/>
      <path class="cls-9" d="M554.22,73.04c-.1.09.16,1.08-.36,1.64-.49.53-1.59.28-1.64.36-.24-2.13-.13-2.24,2-2Z"/>
      <path class="cls-13" d="M41.22,297.04c.56,7.22-2.91,17.89-12,16-.71-.85-2.5-1.88-3-3-.38-.84-.6-3.58-1-5-.21-.77-.03-1.63-1-2-.11-1.31-.23-3.86,0-5,.15-.73,3.85-9.4,4.26-9.74,2.56-2.08,9.06.84,7.75-4.26,1.94-.11.54,2.8,1.19,4.29,1.33,3.04,3.44,4,3.8,8.71Z"/>
      <path class="cls-13" d="M21.22,297.04c-.32,2.98-1.21,6.34-4,8-2.33.51-2.24-1.11-2.76-2.74-3.75-11.76,8.62-22.52,6.76-5.26Z"/>
      <path class="cls-14" d="M25.22,305.04c-.98-.27-.93-1.15-1-2,.97.37.79,1.23,1,2Z"/>
      <path class="cls-8" d="M113.22,100.04c-.47-.07-.88-.52-1-1,.41.18.73.64,1,1Z"/>
      <path class="cls-6" d="M372.22,306.04c3.35-.63,1.37,1.45,1.99,3.22.57,1.61,2.53.12,3.01,4.78.61,5.82-1.03,35.94.16,37.84,4.9.91,11.5,6.8,15.59,7.92,2.08.57,4.16.12,6.25.24v2c-4.96-.34-11.91,0-16.43-1.07-8.47-2-12.46-6.25-19.25-10.75-2.99-1.98-7-1.92-7.32-5.18,2.42.15,4.85-.3,7.28.23,3.2.69,6.1,4.22,9.72,3.77-1.02-4.26,2.27-32.86,1.01-34,.46-2.67-.63-2.04-3-2-.34-.36-1.87-1.95-2-2,1.82-.46,1.54-1.79,2-3,.19-.51.94-.95,1-2Z"/>
      <path class="cls-12" d="M373.22,279.04c0,.09,1.16.73.97,1.4-.51,1.77-3.45.67-2.99,3.1.16.81,1.7-.83,2.02,4.5h-2c-.31-2.54-1.06-5.65-4.01-3.41l4.01,4.41c.34,4.72.9,10.63,1,15,.02.66.04,1.34,0,2-.06,1.05-.81,1.49-1,2-2.62-6.11-3-2.67-5.4-3.16-2.24-.46-4.62-7.04.41-6.35.74-5.37-3.76-4.25-4.02-4.49-.67-.63,1.73-4.43,1.82-5.71.12-1.66-.83-1.21-.82-1.29.62-8.59,3.93-5.14,10-8Z"/>
      <path class="cls-4" d="M334.22,334.04c.3-1.34-1.15-4.5,1.51-4.02,2.05.37,13.95,7.4,16.74,9.06,1.68,1-.39,1.12,3.75,1.96v1c-.1.86-.09,2.13,0,3-1.95-.12-2.47,0-4,0-1.32,0-2.69-.09-4,0-1.01.09-1.12-1.26-1-2,.03-.19,1.55-1.46,1-1.99-.25-.24-1.58.22-2,0-3.14-1.67-6.62-4.18-10-6-.68-.37-1.33-.66-2-1Z"/>
      <path class="cls-15" d="M363.22,287.04c0,.08.95-.38.82,1.29-.09,1.28-2.49,5.08-1.82,5.71.26.25,4.76-.88,4.02,4.49-5.03-.69-2.65,5.9-.41,6.35,2.4.49,2.77-2.95,5.4,3.16-.46,1.21-.18,2.54-2,3-1.05-.4-2.72.65-4.5-.99-3.96-3.63-7.63-18.89-1.5-23.01Z"/>
      <path class="cls-10" d="M375.22,176.04c1.24,1.89,2.33.54,2.43,6.51.08,4.63-.12,18.73-1.43,22.49h-1c-.57-3.23.76-22,0-22.99-.89-1.14-2.87,1.32-2.99,1.99l-6-3c.55-1.28.25-3.12,2-4,2.58.82,4.08,2.64,5.66-.98l1.34-.02Z"/>
      <path class="cls-6" d="M372.22,184.04c.12-.68,2.11-3.14,2.99-1.99.77.99-.56,19.77,0,22.99-.75.09-1.7-.97-2-1-.89-1.2-.22-1.95,0-3,.01-.06.99.14,1.01-.52.04-1.07-1.76-2.52-1.97-4.02-.35-2.59-.48-10-.04-12.46Z"/>
      <path class="cls-15" d="M368.22,177.04c-1.75.88-1.45,2.72-2,4s-3.69,6.41-3,7c4.64-.9,4.26,1.08,5.01,5l-5.51,1.01c-1.33-3.71-1.82-6.23-.5-10,.57-1.61,3.46-5.2,4-7,1.51-1.44,1.73-.08,2,0Z"/>
      <path class="cls-10" d="M366.22,204.04c-1.94-4.16-.69-5.73,3.52-6.98,3-.89-.3,4.8,3.48,3.98-.22,1.05-.89,1.8,0,3-2.25-.24-4.71.16-7,0Z"/>
      <path class="cls-14" d="M332.22,305.04c-.55,2.24-10.66,4.76-13.16,5.35-1.45.34-3.9,1.51-4.84-.35,1.72-1.5,14.76-4.46,18-5Z"/>
      <path class="cls-10" d="M370.22,247.04c-9.69.38-3.54-9.73-1-7.01-.67,2.17.54,3.47,1,5.01.16.52-.11,1.37,0,2Z"/>
      <path class="cls-10" d="M368.22,328.04c-.57,3.73,3.4,8.79-2.37,6.88-3.13-1.04-2.17-8.34,2.37-6.88Z"/>
      <path class="cls-10" d="M344.21,311.04c-5.9-.54-7.19-6.44-.48-7.97l.48,7.97Z"/>
      <path class="cls-15" d="M344.22,232.05c-2.23,3.32.58,3.98,1,6.99-6.58,1.05-7.29-7.32-1-6.99Z"/>
      <path class="cls-14" d="M373.22,204.04c.3.03,1.25,1.09,2,1h1c-.55,1.57-4.26,1.16-6,1-2.16-.2-2.94.28-4-2,2.29.16,4.75-.24,7,0Z"/>
      <path class="cls-12" d="M375.22,211.04c-3.57.39-3.09-.77-4-3,2.87-.19,3.59.26,4,3Z"/>
      <path class="cls-12" d="M374.22,243.04c-.02,1,.03,2,0,3-1.29.16-2.78.95-4,1-.11-.63.16-1.48,0-2l4-2Z"/>
      <path class="cls-15" d="M371.22,313.04c2.37-.04,3.46-.67,3,2-.25-.22-2.13.46-2.83-.18-.5-.46-.03-1.67-.17-1.82Z"/>
      <path class="cls-6" d="M356.22,342.04v-1c.42.09.82-.1.98.51,0,.31-.97.43-.98.49Z"/>
      <path class="cls-15" d="M149.22,345.04c-4.69.24-8.93.96-14,1-5.54.04-10-1.96-15.99,1-.28-1.98,1.61-2.58,1.97-4.52.8-4.31-1.26-13.73,4.74-16.26,15.13-6.38,21.5,5.88,23.28,18.78Z"/>
      <path class="cls-2" d="M375.22,162.04c-.07,2.13-.38,13.41,0,14l-1.34.02c-1.59,3.62-3.08,1.8-5.66.98-.27-.08-.49-1.44-2,0,.04-.15-1.94-1.46,0-2.53,1.15-.64,2.31.46,3.33.17,5.35-1.52,3.5-4.59,3.67-9.19.07-1.92-1.02-4,2-3.45Z"/>
      <path class="cls-15" d="M354.22,169.04c.03-1.17-.14-2.8.94-3.55,5.28-3.64.51,4.32,3.06,5.55l-3,1c-.15-.76-.24-.84-1-1,.01-.67-.02-1.33,0-2Z"/>
      <path class="cls-2" d="M358.22,171.04c.59.28,2.72-.3,3,0,.37.41-.71,3.79-1.69,4.03-5.26,1.26-3.81-.56-4.31-3.03l3-1Z"/>
      <path class="cls-2" d="M354.22,169.04c-.02.67.01,1.33,0,2-.96-.2-2.78.56-3.01-.51-.46-2.19,1.08-1.44,3.01-1.49Z"/>
      <path class="cls-14" d="M299.22,260.04c.05,2.27,2.66,4.1,3,6,.26,1.47-1.83,10.93,2.49,11.01,1.22-3.51.52-7.55-.49-11.01.38-.07.88-1.16,2,0,.12.28-.13.73,0,1l1,1c.43.91.82,2.75,1,3l-.78.58c1.41,4.13.3,7.54-1.22,11.42-1.04-.08-1.98.12-2.93.56-.48.22-4.57,3.01-5.07,3.44.24-.2,1.81-5.01,1.99-5.99-.26-.26-4.5,1.66-4.99,1.99-.19.13.36,2.47-3,3,.49-3.35,2.87-2.8,3-3,.26-.4,3.99-7.92,4.16-8.37,4.15-11.24-10.21-9.39-11.92-.9-1.01,4.99,1.89,8.74-1.24,12.26,1.91-.18,4.18.3,6,.01-.49,3.33,5.4,1.49,6,1-1.11.95-2.34,3.14-4,4-3.36-.39-4.83.73-8-2-.38-.33-5.84-7.53-6-8-.83-2.41.16-9.31,1-12,1.4-4.46,7.39-10.99,12.35-10.72,1.69.09,3.66,1.64,5.65,1.72Z"/>
      <path class="cls-3" d="M303.22,259.04c1.43,2.32,2.12,4.98,3,7-1.12-1.16-1.62-.07-2,0-.61.11-1.36-.08-2,0-.34-1.9-2.95-3.73-3-6,.95.04,2.84-.74,4-1Z"/>
      <path class="cls-3" d="M307.22,268.04l-1-1c.12.26.79.55,1,1Z"/>
      <path class="cls-4" d="M248.22,340.04c15.44-.9,31.83-3.19,47.51-3.99,3.07-.16,11.4-.61,13.79-.03.94.23,1.46,2.58,2.64,3.56,5.98,4.99,14.67,11.71,21.15,15.87,2.6,1.67,5.72,3.49,8.91,3.59-.09.06.4,1.73-.66,2.02-4.19,1.12-17.32-.23-22.89-.06-10.99.33-21.41,1.95-32.73-.18-2.44-.46-33.5-14.93-35.5-16.5-1.68-1.31-2.62-1.8-2.23-4.28Z"/>
      <path class="cls-12" d="M336.22,335.04c3.38,1.82,6.86,4.33,10,6l1,2c-.12.74,0,2.09,1,2-.18.01-.69,1.19-2.2.85-2.35-.52-10.44-7.45-9.8-10.85Z"/>
      <path class="cls-13" d="M258.22,270.04l8.99-2.01c1.06,6.37,4.23,8.71,4.01,16.01-.07,2.39-.46,5.86-1.57,7.93-.59,1.1-4.63,6.03-6.43,6.07-1.42-.14-2.8.24-4,1-9.32-9.06-9.81-19.54-1-29Z"/>
      <path class="cls-14" d="M272.22,266.04c4.19,3.06,5.79,10.17,6,15,.38,8.99-.38,10.67-6,17l4.02-10.4-5.02-3.6c.22-7.29-2.95-9.64-4.01-16.01l-8.99,2.01c3.92-4.21,7.93-8.43,14-4Z"/>
      <path class="cls-3" d="M272.22,266.04c5.95-5.01,4.73,1.96,9,3-.84,2.69-1.83,9.59-1,12h-2c-.21-4.83-1.81-11.94-6-15Z"/>
      <path class="cls-14" d="M263.22,298.04c1.86.19,5.14,1.96,8,1-.95.88-1.77,2.25-3,3-1.84-.15-4.45.36-6,0-1.7-.39-2.12-2.14-3-3,1.2-.76,2.58-1.14,4-1Z"/>
      <path class="cls-12" d="M280.22,281.04c.16.47,5.62,7.67,6,8-2.54,4.78-8.64,13.87-14.58,14.09-1.99.08-3.07-1.07-3.42-1.09,1.23-.75,2.05-2.12,3-3,.35-.33.68-.64,1-1,5.62-6.33,6.38-8.01,6-17h2Z"/>
      <path class="cls-12" d="M306.22,283.04c-2.34,5.97-3.15,3.59-4.75,5.25-.94.98.7,3.9-4.82,3.81-1.43-.02-2.2-1.03-2.43-1.06,1.66-.86,2.89-3.05,4-4,.5-.43,4.59-3.21,5.07-3.44.94-.44,1.89-.64,2.93-.56Z"/>
      <path class="cls-3" d="M41.22,297.04c3.75-.39,2.29,3.04,7,1,.11,7.95-5.6,12.92-4,20-3.67,1.35-10.94.24-14-2.54-.97-.88-.78-2.18-1-2.46,9.09,1.89,12.56-8.78,12-16Z"/>
      <path class="cls-11" d="M398.22,3.04c.35.03.73-.08,1,0,.71.2.84.21,1,1,.21,1.02.27,8.64,0,9-.11.15-1.59-.24-1.86.11-1.21,1.57,2.55,3.43,3.33,4.95,1.73,3.36-1.73,4.23,4.52,3.95-.73,5.66-3.76,11.64-6,17-2.12,5.05-4.91,10.01-7,15-2.19-3.32-7.55-2.59-11.03-3.47-7.09-1.8-15.04-2.86-16.96-10.98l9.99-5.55c1,0,2.01-.05,3,0-.37,5.31,8.72,4.08,11.05,2.53,1.43-.95.65-3,.95-3.53,1.38-2.41,6.98-7.08,7.02-7.59.03-.39-.64-6.56-3.02-5.41.05-.32,0-.68,0-1,.01-1.32.25-6.28-2-4-.31.31.26,2.78,0,3s-2.41-.43-2.87.08c-.67.76.23,3.5-.13,3.92-.19.22-3.08-.13-4,0,.24-2.13.13-2.24-2-2,.35-1.74,2-4.03-.65-4.85-4.21-1.29-10.94.58-15.34.86l4.99,3c.3,1.67-1.23.81-2.26.97-1.75.27-.27,3.2.27,4.02-33.99,4.58-68,9.47-102,14-.05-2.25.69-4.29-1-6s-8.66-1.18-11.49-.99c-13.33.91-28.02,4.91-41.51,5.99l-2.01.5c0,.99,1.28.3,2.01.5.25.07.62.79,1,1l1.01,1.99-4.02.51c-.02.72,3.75,1.07,3.01,3.5-31.6,4.19-63.52,7.66-95,12v-7.01s-13.01,1.01-13.01,1.01c.75,2.57.75,5.34,1.01,7.99,0,.09-.95.6-.81,1.37.19,1.08,1.56,1.27,1.81,1.63.22.31,0,1.43.49,2.01,1.51,1.8,6.77,1.68,7.51-1.01.63.11,1.43-.14,2,0,1.92.47,4.42,2.93,4-1,.66.03,1.34.01,2,0,13.77-.23,29.4-4.28,43.51-4.99,8.7-.43,17.8,1.45,26.9-.1,4.63-.79,8.82-3.59,14.14-3.95,6.77-.46,12.83,2.42,18.95,3.03,14.96,1.48,29.74-5.24,44.49-4.98.89.77-6.23,7.76-1.48,7.01,5.37-.85,2.18-5.93,3.37-7.56.28-.38,7.15-4.88,7.89-5.18,4.32-1.76,8.37-.72,12.48-1.52,3.68-.73,13.72-4.47,16.27-2.84,1.34.86,8.7,9.19,8.56,10.51-3.46,1.36-6.18,4.69-8.87,6.5s-4.43-.25-6.2,4.09c-.09.22-1.53.25-1,1.99,1.03.88,13.54-5.02,16-5.99-.01,2.17-.23,5.56.9,7.41.69,1.12,1.99.46,2.1.59.24.29-.17,2.25,0,3-7.65.9-15.37,2.08-23,3-1.58.19-3.12.91-4,1-1.6.16-6.82.33-8,0-.38-.11-.91-1.94-1.63-1.98-1.17-.06-4.92,1.41-6.37,1.98-5.19,2.04-4.65,2.24-11,3-9.59,1.15-19.3,1.81-28.87,3.13l-41.02,96.49c-.76,3.43,5.44.41,5.89.38,41.41-3.21,82.71-8.15,124.01-12.49,8.87-20.51,18.39-40.91,26.99-61.51l18-3c-8.21,19.61-27.07,58.47-31,77-2.08,1.57-2.16,3.96-3,6-.43,1.03-.63,2.14-1,3-2.54,6-5.89,11.79-8,18L21.22,231.05c-1.62,1.23.02,1.81,1.48,2,3.08.39,6.82-.23,10.01-.01l297.51-26.99c-.32.68-.07,2.07-.92,3.53-5.09,8.7-20.95,28.99-23.53,36.51-.92,2.68-.53,5.23-.54,7.96l-58.98,12.04,6.99,53.96c.6.65,7.52-2.26,8.36-2.93,1.1-.87.44-1.53.64-2.06,1.82.76,11.5-2.37,11.99-3.05.43-.58-1.46-3.49-1-3.95l4-1.02c.54.64-1.2,3.61,1.49,2.99,4.06-.93,5-6.61,8.01-8.99,4.11-3.25,11.33-4.51,15.51-6.99,4.38,1.15-.32,7.69,0,7.99.24.23,3.84.28,6.07,2.45,5.73,5.55,2.63,12.05,4.93,18.56v2c-19.86-2.49-45.1,3.74-65.55,2.05-3.9-.52-4.03-1.56-4.45-5.05-.54-4.5,2.04-8.16-4.5-8.08-11.77.14-25.06,2.32-37.02,3.07-42.42,2.67-85.18,4.22-127.49,8.01-4.33.39-8.61,1.29-13,1l8-56,165.99-13.99c-4.14.12-8.34-.22-12.48,0-50.33,2.7-100.59,10.16-151.03,12.01-2.16.38-1.94,1.61-2.48,1.98-2.8,1.97-4.36,5.13-7.99,5.01.11,2.31,3.82-.42,2.94,2.41l-10.94,61.57c-2.66-.09-9.24,1.76-12.51,1.99-12.08.87-24.87.93-36.49,4.01-.88-.44-3.12.62-3.87-1.63-.46-1.38-.44-10.15-.12-11.85.56-2.93,6.53-7.23,7.54-10.46.67-2.12.13-4.35.68-6.32.58-2.06,2.55-5.9,2.76-7.74,1.2,2.31,2.75,2.42,5,3l-1,4.99c3.95-.95,2.56,1.88,3.29,2.65,1.69,1.76,6.19,7.35,6.76,7.8.95.75,18.47,7.56,19.51,7.54,4.9-.1.98-7.99,1.41-10.29.08-.43,2.72-2.88,3.02-7.69.06-.99-.03-2.01,0-3l-1.97.53c3.42-7.82,5.22-16.08,5.98-24.53.24-2.71.9-5.28,1-8-12.43,1.18-27.14-3.61-39.26-1.75-.88.13-3.01.43-2.74,1.74,1.31.12,2.69-.13,3.99.01-.71,1.86-4.48,2.49-5,3,.89-3.78-2.06-5.73-1.96-9.33.39-13.46,11.64-30.62,10.37-44.67,25.39-51.44,45.85-106.48,71.41-157.68,1.1-2.2,2.09-4.55,3.34-6.66.86-1.46,3.61-3.44,3.77-4.3.27-1.52-9.96-8.87-3.91-13.85.4-.33,9.07-4.19,9.59-4.25,12.05-1.4,24.78-3.34,37.03-5.12,20.84-3.03,41.8-5.54,62.71-8.1,1.31-.38.05-4.18,4.18-5.02,6.35-1.3,5.98,2.69,7.17,2.99,6.95,1.77,2.95-5.66,7.9-8.91,2.98-1.97,14.35-4.1,16.87-1.07,3.53,4.25-2,6.67,7.02,5.95,39.43-3.16,82.65-10.94,122.51-15.98-1.02,5.25,4.61,3.62,4-1,8.16-1.02,16.73-3.68,25-3ZM223.22,26.04c4.2-.98,17.04.99,14.92-5.4-1.07-3.21-19-1.86-14.92,5.4ZM392.21,38.05c-1.93-1.86-8.01,3.04-5.99,4.99s8.01-3.04,5.99-4.99ZM100.15,47.1c-4.36-2.7-6.14,9.26,1.07,7.94.47-.48-.39-7.52-1.07-7.94ZM183.22,69.04c-.4.09-1.93.07-2,0-.11-.1.34-1.95-.55-2.06-1.64-.2-11.63,6.54-13.99,8.07-1.29.83-2.92.85-2.45,3-3.48,1.81-7.03,3.35-10,6-5.27.21-3.08,1.12-4.74,1.96-2.79,1.42-6.47,2.27-8.26,5.04-2.67.34-5.34.66-8,1-11.84,1.52-24.28,2.86-36,5-.68.13-1.43-.04-2.03.47l-.97,2.53c-10.37,22.62-21.19,45.12-31,68-.8,1.86-1.31,2.97-2,5-.25.73-1.48,1.61-1,3-2.22,1.44-1.26,1.69-2,3-.38.68-.66,1.31-1,2-.54,1.07-.62,2.1-1,3-.49,1.18-1.3,1.88-2,4-.3.89-1.34,1.69-1,2.99,2.09.83,4.66-.92,6-.99,1.66-.09,3.35.12,5,0,36.39-2.66,72.68-7.17,109.01-10.49,14.95-30.57,27.01-62.52,40.99-93.51.39-.87,3.33-2.7,1.49-4.02-12.42,2.09-24.99,3.54-37.49,5.02-.39-2.47.54-2.97,2.22-4.28,8.12-6.33,13.42-4.89,18.36-15.63.98-2.12,4.5-3.87-.01-7.16-3.75-2.74-15.64,4.14-15.57,9.07ZM318.21,62.05c-1.04-1.02-4.01,1.99-2.99,2.99,1.04,1.02,4.01-1.99,2.99-2.99ZM302.21,64.05c-.55-.55-5.2,1.44-3.99,1.99h3.99s0-1.99,0-1.99ZM290.72,69.04v1c.65-.33.65-.67,0-1Z"/>
      <path class="cls-2" d="M414.22,97.04c-4.18,16.64-19.39,39.07-22.56,54.94-.61,3.06-1.21,17.14.53,18.63.54.46,1.39.32,2.03.43.78.14,2.13.06,3,0,.24.95,1.16,1.01,2,1,2.05-.02,4.04-1.07,6-1-.38,2.26.45,2.84,2,1,.65.06,1.36-.09,2,0s1.35-.08,2,0c1.17.14,2.94.77,5,1,29.47,3.33,61.81,7.48,91.51,8.99,5.8.3,11.69-.19,17.49.01v-.99s-2-1.01-2-1.01c1.67,0,3.33,0,5,0-1.22,3.91-2.12,1.25-3,2-.34.29-1.87,5.74-4.29,7.69-3.44,2.79-6.22.19-9.22.3-28.37,1.03-58.47-1.83-87.03-2.94-4.39-.17-12.15-2.32-15.98-2.08-5.29.33-.44,11.08-2.21,14.39,7.16,8.38-1.28,7.64-2.12,11.35-.11.47.82,8.52,1.06,9.58,1.06,4.84,4.77,3.25,6.55,4.95.89.85.84,3.46,2.21,4.28,7.1,4.29,2.43-6.97,3.01-7.51,11.27-2.41,6.89,1.75,10.1,7.4,1.05,1.85,3.42,2.32,3.69,2.8.66,1.18-.04,3.89.67,5.84,1.37,3.77,8.45,16.84,11.79,18.21,1.81.74,5.14.53,5.6.91.41.35.18,2.64,1.57,3.91,1.41,1.28,4.32,1.14,5.37,2.16,1.45,1.4,2.98,3.29,5.14,5.38,4.14,3.99,7.26,10.69,13.55,11.42,4.97.58,28.31-.28,30.38,3.12.54.89,0,2.69.14,3.85-1.28.45-1.88-.98-1.99-1-.69-1.28-7.66-1.11-8.34-.91s-.65,1.54-1.44,1.82c-1.92.67-12.16,2.49-3.22,3.09v5c-1.32-.09-2.69.13-4,0-2.2-.22-5.14-1.87-8.01-.99v-5.01s-8.99,1.01-8.99,1.01l-.5-7c-2.32,1.62-1.07,4.21-1.54,6.28-.18.8-2.73,1.11-2.81,3.38-.01.41,3.54,7.05,3.84,7.33,1.81,1.71,3.45.47,4.78,1.24.53.31.56,2.17,1.83,2.61,1.75.61,19.81,1.58,21.7,1.13.76-.18.62-1.79,1.37-1.96,1.7-.39,5.52.47,6.27-.1.37-.28-.14-1.65.05-1.92,2.24-3.27,6.08-2.25,7.48,1.02.53,1.24,1.54,9.57,1.6,11.48.09,2.59-1.32,4.88-1.05,7.88.08.9,2.62,10.19,3.05,10.53.8.65,3.94-.5,4.79.23.32.28.18,2.36,1.05,3.4.81.96,2.35,1.24,3.02,2.01,1.08,1.25,1.36,4.1,2.62,4.39.49.11,9.11-2.5,9.73-2.88.56-.34,7.49-8.16,8.73-9.52,2.1-2.32.58-5.85,6.97-4.53-1.86,2.19-4.4,6.29-5,7-8.34,9.81-18.66,21.59-27.49,31.01-7.24,7.73-7.55,9.36-18.51,9.99.11-.63-.16-1.48,0-2,.46-1.53,1.69-2.82,1.01-5l2.99-1c-35.29-1.96-70.71-2.94-105.99-5.01-2.08-.12-4.17.32-6.25-.24-4.09-1.11-10.68-7-15.59-7.92-1.19-1.9.44-32.02-.16-37.84,2.74.6,2.83-2.72,3-4.49.84-8.74-.62-18.64,0-27.51,3.58,1.27,7.27,1.07,10.99,1.01l-1.99,5.47c1.4,2.1,3.91,1.55,5.99,1.52.92-.81-3.24-4.63-2-5.99.45-.5,4.12,1.18,3-2l-17-1.01c-.35-.3-.61-.73-1-1v-67.51c3.85-8.33,4.31-25.27,3.08-35.05-.24-1.91-1.92-.95-2.16-2.87-.78-6.14.9-13,1.08-18.57,2.63.29,3.01-.22,4.09-2.42,1.74-3.55,2.49-8.47,4.53-12.47,2.5-4.89,7.55-9.64,9.79-14.21,3.95-8.07,6.86-17.07,11.42-25.58.82-1.53,1.94-4.72,4.17-4.32ZM395.21,179.05c-2.55-2.57-7.79,6.2,0,5.99-.2-1.24.32-5.67,0-5.99ZM387.21,188.04c1.28-1.22-2.29-5.68-3.98-5.99v6c.97-.17,3.72.25,3.98,0ZM401.21,190.04c-2.89-2.48-7.62,6.19,1.01,4.99-.4-.96-.81-4.83-1.01-4.99ZM395.21,198.05c-2.55-2.57-7.79,6.2,0,5.99-.2-1.24.32-5.67,0-5.99ZM397.22,208.03c-2.99-3.52-9.79-2.84-13.99-2.98-.74,2.51,2.16,2.48,3.76,2.7,3.42.49,6.81.29,10.24.28ZM386.22,241.05c-5.02-.12-6.23,5.08-2.48,7.99,4.09-.51.7-5.2,2.48-7.99ZM385.21,294.04c.69-.68.14-7.06-2.99-6v6c.81-.12,2.79.19,2.99,0ZM458.22,289.05c-4.86-.74-4.12,3.41-4,6.99h5c-.42-3.01-3.23-3.68-1-6.99ZM400.21,295.05c-2.97-3.09-7.39,7.83.01,5.49-.23-1.18.31-5.15-.01-5.49ZM385.21,299.04c-.2-.2-2.18.12-2.99,0v6c3.13,1.06,3.68-5.32,2.99-6ZM394.21,304.04h-3.99c-.53,3.11.73,6.41,4,4.5v-4.5ZM396.21,311.05c-4.45.25-8.34.02-12.73-.79-2.04-.38-1.7,1.36-1.26,1.77.9.86,10.63,1.26,12.52,1.01,1.38-.18,3.13-.73,1.47-1.99ZM392.22,326.05c-7.3.26-6.83,8.66,1,6.98-2-2.54-2.74-3.92-1-6.98Z"/>
      <path class="cls-7" d="M399.22,360.04c35.29,2.07,70.7,3.04,105.99,5.01l-2.99,1c.68,2.18-.55,3.47-1.01,5,1.89-6.85-20.68-5.79-23.39-5.06-1.24.33-.38,3.91-2.6,4.06.27-1.21-.28-5-1.51-4.98-2.01.04-.58,5.12-2.49,4.97-.21-1.25-.36-4.73-1.67-5.04-1.16-.27-16.73-.29-17.73-.02-1.24.33-.38,3.91-2.6,4.06l-1.49-4.99-2.5,4.98-1.67-5.04c-14.78-.37-29.61-.95-44.34-1.96v-2Z"/>
      <path class="cls-2" d="M574.22,295.04l52.43,2.94,2.08,5.05c1.22-.46.06-3.56.49-4,.38-.4,9.18.3,11.01,0v7.01c-21.43-.47-43.64-3.99-65-4.01,1.26-3.82-2.37-3.78-2.99-1.48-.44,1.62.99,1.4.99,1.48.09,1.3-2.71,2.41-4,2,.58-1.2,1.71-3.18,1.95-3.73.43-1.01-.32-2.88.53-4.32.55-.94,2.26-.71,2.52-.95Z"/>
      <path class="cls-14" d="M526.22,167.04c.43.11,1.87-.19,2,0,.6.84.64,10.97,0,13.01-1.67,0-3.33,0-5,0-17.75.06-38.01-3.37-56-5,.2-4.02-4.43-3.15-4,0-5.64-.52-11.33-1.5-17-2-.71-3.21.78-2.74,3-4,23.15-.41,51.62,7.73,74,7,1-.03,2.01.05,3,0,.04-2.99-.06-6.01,0-9.01Z"/>
      <path class="cls-12" d="M486.22,297.04c1.65,7.37,6.41,5.31,12.54,4.02,2.13-.45,3.41.99,1.46-2.02.44.39,1.39.64,2,1s1.07,1.06,2,1c-.18.26.32,1.63-.05,1.92-.75.58-4.57-.29-6.27.1-.75.17-.61,1.78-1.37,1.96-1.89.45-19.95-.52-21.7-1.13-1.28-.45-1.3-2.31-1.83-2.61-1.33-.77-2.97.47-4.78-1.24-.31-7.35,13.52-3.25,18-3Z"/>
      <path class="cls-15" d="M490.22,295.04c2.31.16,4.7-.19,7,0,.96,1.09,2.03,3.13,3,4,1.94,3.01.67,1.57-1.46,2.02-6.13,1.29-10.89,3.35-12.54-4.02-.13-.58.09-1.36,0-2,1.31.13,2.68-.09,4,0Z"/>
      <path class="cls-10" d="M503.22,286.04c-4.5-.59-2.51,1.4-3,2-.22.27-.79.89-1,1-1.96,1.05-6.65,1.16-9,1-8.93-.6,1.3-2.42,3.22-3.09.79-.28.74-1.61,1.44-1.82s7.65-.37,8.34.91Z"/>
      <path class="cls-2" d="M569.22,305.04c-1.35,3.19-5.82,6.39-8,9-2.46-4.98,2.64-11.79,8-9Z"/>
      <path class="cls-10" d="M542.21,253.05c-.59,3.74,3.41,8.77-2.36,6.86-3.35-1.1-1.43-7.17,2.36-6.86Z"/>
      <path class="cls-10" d="M543.22,170.05c.34.32-.94,2.25-.75,3.36.18,1.04,4.53,5.55-1.63,3.51-4.16-1.37-.36-9.49,2.37-6.87Z"/>
      <path class="cls-2" d="M502.22,300.04c-.61-.36-1.56-.61-2-1-.97-.87-2.04-2.91-3-4,4.07.33,5.44-.28,5,5Z"/>
      <path class="cls-2" d="M500.22,288.04c2.77,3.4-1.37,4.87-1,1,.21-.11.78-.73,1-1Z"/>
      <path class="cls-2" d="M452.21,255.05c1.09,1.09-.9,3.08-1.99,1.99s.9-3.08,1.99-1.99Z"/>
      <path class="cls-15" d="M556.22,73.04c.02-2.51.71-9.69,2.99-11-.97,9.13,1.27,4.83,7.3,6.21,5.26,1.21,6.31,10.64,6.7,15.3,1.1,13.28-.92,26.82-1.03,39.94-.38,46.59,1.55,94.14.05,140.55-.21,6.53,1.58,10.73-3.97,15.53-3.22,2.78-6.72,3.98-11.03,3.48l1.51,5.98c-5.15-2-2.7-4.7-3.69-8.35-.35-1.3-1.57-1.31-1.82-1.63.37-3.88-3.82-10.17,2-9,.04,2-.04,4.01,0,6.01,2.42-1.91,3.86.94,5.51,1.01,2.13.09,6.48-5.76,6.48-7.52v-48.5c-2.02-.12-11,.02-11.89,1.1-.46.56-.07,4.51-.11,5.9-3.53.13-2.74.6-3-2.45-.59-6.89.49-18.78.63-26.23.03-1.93-.91-3.83-.64-5.81.1-.87,3.11-.65,4.02-.52.66.09,4.73.92,4.92,1.09.23.2,1.31,5.7,1.09,5.9s-5.21.1-5.87,1.15c-.41.67-1.67,14.33-1.14,14.86,2.04.11,10.96-.01,11.89-1.11,1.41-1.65-.04-37.72.07-43.44.49-26.86,4.09-63.82.93-89.84-.24-2.01-1.07-6.22-2.87-7.18-2.59-1.38-4.8,2.88-8.01.57,0-.15-1.01-1.08-1-2Z"/>
      <path class="cls-5" d="M441.22,81.04l84,9c0,19.77.65,39.78.04,59.54-.12,3.85-2.01,8.39-2.03,11.97-.03,4.24,2.74,9.92,0,14.5-22.38.73-50.85-7.41-74-7-12.35-2.44-25.62-2.15-38.27-4-2.78-1.06-1.62-9.41-1.05-11.82,5.1-21.54,20.87-46.19,26.81-68.19.82-2.1,2.09-3.94,4.51-3.99Z"/>
      <path class="cls-15" d="M427.22,76.04c1.28-.25,7.71-1.28,8-.99l-.19,2.29-29.57,71.44c.64,3.6-2.28,19.62-.07,21.13,1.3.89,4.58-1.39,3.84,2.14-.64-.09-1.35.06-2,0-.11-.01-.17-.94-2-1-1.96-.07-3.95.98-6,1,.4-3.96-1.56-1.03-2-1-.87.06-2.22.14-3,0-1.18-3.91-1.37-8.45-.99-12.49,1.16-12.4,21.34-55.42,27.5-69.49,1.96-4.48,4.38-8.64,6.48-13.02Z"/>
      <path class="cls-10" d="M446.22,173.04c5.67.5,11.36,1.48,17,2,1.31.12,2.69-.12,4,0,17.99,1.63,38.25,5.06,56,5l1.99,1.01v.99c-5.79-.2-11.68.29-17.48-.01-29.7-1.51-62.04-5.66-91.51-8.99v-2c10.01.6,20.02,1.12,30,2Z"/>
      <path class="cls-10" d="M427.22,76.04c-2.11,4.38-4.52,8.54-6.48,13.02-6.17,14.08-26.34,57.09-27.5,69.49-.38,4.04-.2,8.58.99,12.49-.65-.12-1.49.03-2.03-.43-1.74-1.48-1.14-15.57-.53-18.63,3.17-15.87,18.38-38.3,22.56-54.94.16-.9-.23-2.26,0-3,2.58.54,2.05-1.25,2.71-2.74,1.95-4.32,3.86-8.74,5.29-13.26.3-.2.48-1.4,1.7-1.8,1.23-.4,2.39-.02,3.3-.2Z"/>
      <path class="cls-2" d="M422.22,78.04c-1.43,4.52-3.34,8.94-5.29,13.26-.67,1.48-.13,3.28-2.71,2.74,1.22-3.83,2.66-10.65,4.76-13.76,1.57-2.32,2.04-1.47,3.24-2.24Z"/>
      <path class="cls-14" d="M470.22,80.04c-4.2.82-7.41.37-12,0-.54-2.79.99-2.03,3.5-2.04,2.73-.02,6.26.33,8.5,2.04Z"/>
      <path class="cls-14" d="M479.22,81.04c.12-.02.55-.97,1.5-.99,1.98-.04,7.69.66,6.5,2.99-2.6-.4-5.89.41-8-2Z"/>
      <path class="cls-14" d="M478.22,81.04c-2.28.38-4.27,1.99-7-1,2.7-.53,3.9-2.2,7,1Z"/>
      <path class="cls-15" d="M416.22,171.04v2c-2.06-.23-3.83-.86-5-1-.62-4.32,3.51-1.09,5-1Z"/>
      <path class="cls-14" d="M468.22,67.04l.49,4.01c-2.89.08-2.01-2.77-2.49-4.01.64-.09,1.43.13,2,0Z"/>
      <path class="cls-14" d="M494.22,83.04c-.46,1.21-1.93,1.08-3,1-.38-3.54,1.04-1.51,3-1Z"/>
      <path class="cls-9" d="M557.22,75.04c3.21,2.31,5.42-1.95,8.01-.57,1.8.96,2.63,5.17,2.87,7.18,3.16,26.03-.43,62.98-.93,89.84-.1,5.71,1.34,41.78-.07,43.44-.94,1.1-9.85,1.22-11.89,1.11-.53-.53.73-14.19,1.14-14.86.65-1.05,5.65-.95,5.87-1.15s-.86-5.71-1.09-5.9c-.19-.17-4.25-1-4.92-1.09.56-33.14-.73-66.39-.04-99.54.12-5.87.95-12.14,1.04-18.46Z"/>
      <path class="cls-9" d="M555.22,228.04c.04-1.38-.35-5.34.11-5.9.89-1.08,9.87-1.23,11.89-1.1v48.5c0,1.76-4.35,7.6-6.48,7.52-1.65-.07-3.09-2.92-5.51-1.01-.04-1.99.04-4.01,0-6.01-.29-13.72-.4-28.3,0-42Z"/>
      <path class="cls-9" d="M573.22,302.04c0-.09-1.43.13-.99-1.48.62-2.3,4.26-2.34,2.99,1.48-.67,0-1.33,0-2,0Z"/>
      <path class="cls-10" d="M379.22,281.04l17,1.01c1.12,3.18-2.54,1.5-3,2-1.24,1.36,2.91,5.18,2,5.99-2.08.02-4.6.58-5.99-1.52l1.99-5.47c-3.72.07-7.41.26-10.99-1.01-.38-.13-.68-.72-1-1Z"/>
      <path class="cls-6" d="M373.22,288.04c.29,4.88.63,11.64-1,16-.1-4.37-.66-10.28-1-15-.02-.33.04-.67,0-1h2Z"/>
      <path class="cls-12" d="M379.22,281.04l-1-1c.39.27.65.7,1,1Z"/>
      <path class="cls-15" d="M371.22,289.04l-4.01-4.41c2.95-2.24,3.7.87,4.01,3.41.04.33-.02.67,0,1Z"/>
      <path class="cls-15" d="M346.22,341.04c.42.22,1.75-.23,2,0,.55.53-.97,1.81-1,1.99l-1-2Z"/>
      <path class="cls-13" d="M292.22,286.04c-1.82.29-4.09-.19-6-.01,3.13-3.52.23-7.28,1.24-12.26,1.71-8.49,16.07-10.34,11.92.9-.17.45-3.9,7.97-4.16,8.37-.13.2-2.51-.35-3,3Z"/>
      <path class="cls-13" d="M304.22,266.04c1.01,3.46,1.71,7.5.49,11.01-4.32-.08-2.23-9.54-2.49-11.01.64-.08,1.39.11,2,0Z"/>
      <path class="cls-3" d="M295.22,283.04c.5-.34,4.74-2.25,4.99-1.99-.19.99-1.75,5.8-1.99,5.99-.6.49-6.49,2.33-6-1,3.36-.53,2.81-2.87,3-3Z"/>
      <path class="cls-3" d="M271.22,284.04l5.02,3.6-4.02,10.4c-.32.36-.65.67-1,1-2.86.96-6.14-.81-8-1,1.8-.04,5.84-4.97,6.43-6.07,1.11-2.07,1.5-5.54,1.57-7.93Z"/>
      <path class="cls-10" d="M468.22,300.04c-.3-.28-3.86-6.92-3.84-7.33.08-2.27,2.63-2.58,2.81-3.38.47-2.07-.78-4.66,1.54-6.28l.5,7,8.99-1.01v5.01c2.86-.87,5.8.78,8,.99.09.64-.13,1.42,0,2-4.48-.25-18.31-4.35-18,3Z"/>
      <path class="cls-13" d="M397.22,208.03c-3.42,0-6.82.21-10.24-.28-1.6-.23-4.5-.19-3.76-2.7,4.2.14,11-.54,13.99,2.98Z"/>
      <path class="cls-10" d="M392.22,326.05c-1.74,3.06-1,4.44,1,6.98-7.83,1.68-8.31-6.72-1-6.98Z"/>
      <path class="cls-15" d="M386.22,241.05c-1.78,2.79,1.61,7.48-2.48,7.99-3.75-2.91-2.54-8.11,2.48-7.99Z"/>
      <path class="cls-12" d="M396.21,311.05c1.66,1.26-.1,1.81-1.47,1.99-1.89.25-11.63-.15-12.52-1.01-.43-.42-.78-2.15,1.26-1.77,4.4.81,8.29,1.04,12.73.79Z"/>
      <path class="cls-10" d="M458.22,289.05c-2.23,3.32.58,3.98,1,6.99h-5c-.11-3.58-.86-7.73,4-6.99Z"/>
      <path class="cls-15" d="M400.21,295.05c.33.34-.22,4.31.01,5.49-7.4,2.34-2.98-8.58-.01-5.49Z"/>
      <path class="cls-10" d="M395.21,198.05c.32.32-.2,4.75,0,5.99-7.78.2-2.55-8.56,0-5.99Z"/>
      <path class="cls-10" d="M395.21,179.05c.32.32-.2,4.75,0,5.99-7.78.2-2.55-8.56,0-5.99Z"/>
      <path class="cls-10" d="M401.21,190.04c.19.17.61,4.04,1.01,4.99-8.63,1.2-3.9-7.48-1.01-4.99Z"/>
      <path class="cls-15" d="M394.21,304.04v4.5c-3.26,1.91-4.53-1.38-3.99-4.49h3.99Z"/>
      <path class="cls-4" d="M387.21,188.04c-.27.26-3.02-.16-3.99,0v-6c1.7.32,5.27,4.77,3.99,5.99Z"/>
      <path class="cls-4" d="M385.21,299.04c.69.68.14,7.06-2.99,6v-6c.81.12,2.79-.19,2.99,0Z"/>
      <path class="cls-4" d="M385.21,294.04c-.2.2-2.18-.12-2.99,0v-6c3.13-1.06,3.68,5.32,2.99,6Z"/>
      <path class="cls-10" d="M407.22,172.04c-1.55,1.84-2.38,1.26-2-1,1.83.06,1.89.99,2,1Z"/>
      <path class="cls-10" d="M397.22,171.04c.44-.03,2.4-2.96,2,1-.84,0-1.76-.05-2-1Z"/>
      <path class="cls-9" d="M467.22,175.04c-1.31-.12-2.69.12-4,0-.43-3.15,4.2-4.02,4,0Z"/>
    </g>
  </g>
</svg>