<svg width="16" height="16" viewBox="0 0 16 16" fill="none" xmlns="http://www.w3.org/2000/svg">
<g opacity="0.5">
<mask id="mask0_2028_1123" style="mask-type:alpha" maskUnits="userSpaceOnUse" x="0" y="0" width="16" height="16">
<rect width="16" height="16" fill="#D9D9D9"/>
</mask>
<g mask="url(#mask0_2028_1123)">
<path d="M3.99992 10.6667H9.33325V8.53341L11.9999 10.6667V5.33341L9.33325 7.46675V5.33341H3.99992V10.6667ZM2.66659 13.3334C2.29992 13.3334 1.98603 13.2029 1.72492 12.9417C1.46381 12.6806 1.33325 12.3667 1.33325 12.0001V4.00008C1.33325 3.63341 1.46381 3.31953 1.72492 3.05841C1.98603 2.7973 2.29992 2.66675 2.66659 2.66675H13.3333C13.6999 2.66675 14.0138 2.7973 14.2749 3.05841C14.536 3.31953 14.6666 3.63341 14.6666 4.00008V12.0001C14.6666 12.3667 14.536 12.6806 14.2749 12.9417C14.0138 13.2029 13.6999 13.3334 13.3333 13.3334H2.66659Z" fill="white"/>
</g>
</g>
</svg>
