<svg width="205" height="173" viewBox="0 0 205 173" fill="none" xmlns="http://www.w3.org/2000/svg">
<rect x="45.5761" y="1.5761" width="117.848" height="117.848" rx="58.9239" fill="#1D334F"/>
<rect x="45.5761" y="1.5761" width="117.848" height="117.848" rx="58.9239" stroke="white" stroke-width="2.8478"/>
<g clip-path="url(#clip0_2115_240)">
<path d="M137.706 62.0046C137.704 55.7505 136.989 50.0534 135.001 44.5636C131.815 35.7637 125.723 30.0774 116.994 27.2201C111.721 25.4937 106.321 24.9295 100.807 25.4078C95.3378 25.8821 90.1754 27.3715 85.4186 30.1978C80.0433 33.3918 76.571 38.1676 74.3153 43.9673C73.1732 46.9038 72.4552 49.9536 71.8634 53.0375C71.6512 54.1437 71.102 54.935 70.1616 55.4988C69.6171 55.8253 69.0531 56.1328 68.6073 56.6055C67.8622 57.396 68.0089 58.2491 69.0106 58.6663C70.4027 59.246 71.8954 59.3756 73.371 59.5404C79.0549 60.1744 84.7696 60.3662 90.4695 60.7739C93.1433 60.9653 95.8362 61.0314 98.4707 61.6286C101.142 62.234 103.368 63.5451 104.979 65.8425C105.546 66.6504 106.078 67.4896 106.71 68.2421C107.355 69.01 107.563 69.8254 107.48 70.8219C107.208 74.0845 106.989 77.3519 106.774 80.6192C106.748 81.0095 106.624 81.1989 106.259 81.275C105.628 81.4057 105.298 81.8325 105.221 82.4625C105.092 83.5113 104.793 84.5466 104.962 85.6196C104.994 85.8197 104.875 85.9497 104.781 86.0888C103.376 88.1761 102.025 90.3031 100.379 92.2126C99.5176 93.2111 98.569 94.0907 97.3805 94.6751C97.2365 94.7461 97.0154 94.7687 97.0384 94.9965C97.0575 95.1875 97.2369 95.2564 97.3887 95.3424C99.5297 96.5513 101.45 96.2842 103.169 94.5499C105.055 92.648 106.495 90.4006 107.977 88.1856C108.197 87.856 108.453 87.6587 108.82 87.4633C109.861 86.9102 110.711 86.0654 111.51 85.1929C111.815 84.8605 111.847 84.3854 111.633 84.0038C111.372 83.5402 111.582 83.3053 111.884 83.0109C114.39 80.5716 116.886 78.1213 119.384 75.6742C119.558 75.5038 119.71 75.3358 119.999 75.3354C122.951 75.3331 125.793 74.5691 128.654 73.9704C131.897 73.2917 135.121 72.5214 138.348 71.7658C140.087 71.3584 140.57 70.3187 139.571 68.8487C138.062 66.629 137.257 64.277 137.707 62.0046H137.706ZM111.186 72.8752C112.211 73.5278 113.177 74.0346 114.203 74.3956C114.657 74.5549 114.61 74.6836 114.328 74.9709C113.278 76.0372 112.243 77.1181 111.195 78.1867C111.07 78.3147 110.984 78.5374 110.677 78.4657C110.842 76.6545 111.007 74.839 111.186 72.8752H111.186ZM107.068 82.6848C106.652 83.0073 106.303 83.2775 105.899 83.5901C106.021 82.3515 106.086 82.3004 107.068 82.6848ZM109.849 85.5757C109.902 85.1216 109.953 84.6925 110.004 84.255C110.824 84.7309 110.802 84.9282 109.849 85.5757Z" fill="white"/>
</g>
<path d="M70.2155 152V137.2H73.2955V143.1H79.0555V137.2H82.1355V152H79.0555V145.78H73.2955V152H70.2155ZM89.8267 152.2C88.8934 152.2 88.0867 152.047 87.4067 151.74C86.7267 151.42 86.1667 151 85.7267 150.48C85.2867 149.947 84.9534 149.353 84.7267 148.7C84.5134 148.047 84.4067 147.373 84.4067 146.68C84.4067 146.013 84.5067 145.36 84.7067 144.72C84.9201 144.067 85.2401 143.473 85.6667 142.94C86.1067 142.407 86.6601 141.987 87.3267 141.68C88.0067 141.36 88.8067 141.2 89.7267 141.2C90.7001 141.2 91.5601 141.413 92.3067 141.84C93.0667 142.267 93.6601 142.9 94.0867 143.74C94.5134 144.567 94.7267 145.573 94.7267 146.76V147.5H87.4667C87.5067 148.14 87.7267 148.693 88.1267 149.16C88.5401 149.627 89.1067 149.86 89.8267 149.86C90.2401 149.86 90.5734 149.8 90.8267 149.68C91.0934 149.547 91.3001 149.4 91.4467 149.24C91.5934 149.067 91.6934 148.913 91.7467 148.78C91.8001 148.647 91.8267 148.58 91.8267 148.58H94.6267C94.6267 148.58 94.5934 148.707 94.5267 148.96C94.4734 149.2 94.3534 149.5 94.1667 149.86C93.9801 150.22 93.7067 150.58 93.3467 150.94C93.0001 151.3 92.5401 151.6 91.9667 151.84C91.3934 152.08 90.6801 152.2 89.8267 152.2ZM87.4667 145.66H91.8067C91.7667 144.927 91.5467 144.38 91.1467 144.02C90.7467 143.66 90.2534 143.48 89.6667 143.48C89.0801 143.48 88.5801 143.673 88.1667 144.06C87.7534 144.433 87.5201 144.967 87.4667 145.66ZM96.9928 152V136.8H100.033V152H96.9928ZM102.555 152V141.4H105.595V142.84H105.695C105.921 142.453 106.261 142.087 106.715 141.74C107.168 141.38 107.788 141.2 108.575 141.2C109.375 141.2 110.015 141.387 110.495 141.76C110.988 142.133 111.348 142.593 111.575 143.14H111.615C111.788 142.833 112.015 142.533 112.295 142.24C112.588 141.933 112.948 141.687 113.375 141.5C113.815 141.3 114.328 141.2 114.915 141.2C115.648 141.2 116.255 141.367 116.735 141.7C117.215 142.033 117.568 142.473 117.795 143.02C118.035 143.553 118.155 144.127 118.155 144.74V152H115.115V145.5C115.115 144.98 114.981 144.553 114.715 144.22C114.461 143.873 114.075 143.7 113.555 143.7C113.155 143.7 112.828 143.8 112.575 144C112.335 144.2 112.155 144.46 112.035 144.78C111.928 145.087 111.875 145.407 111.875 145.74V152H108.835V145.5C108.835 144.98 108.701 144.553 108.435 144.22C108.181 143.873 107.795 143.7 107.275 143.7C106.875 143.7 106.548 143.8 106.295 144C106.055 144.2 105.875 144.46 105.755 144.78C105.648 145.087 105.595 145.407 105.595 145.74V152H102.555ZM125.647 152.2C124.714 152.2 123.907 152.047 123.227 151.74C122.547 151.42 121.987 151 121.547 150.48C121.107 149.947 120.774 149.353 120.547 148.7C120.334 148.047 120.227 147.373 120.227 146.68C120.227 146.013 120.327 145.36 120.527 144.72C120.74 144.067 121.06 143.473 121.487 142.94C121.927 142.407 122.48 141.987 123.147 141.68C123.827 141.36 124.627 141.2 125.547 141.2C126.52 141.2 127.38 141.413 128.127 141.84C128.887 142.267 129.48 142.9 129.907 143.74C130.334 144.567 130.547 145.573 130.547 146.76V147.5H123.287C123.327 148.14 123.547 148.693 123.947 149.16C124.36 149.627 124.927 149.86 125.647 149.86C126.06 149.86 126.394 149.8 126.647 149.68C126.914 149.547 127.12 149.4 127.267 149.24C127.414 149.067 127.514 148.913 127.567 148.78C127.62 148.647 127.647 148.58 127.647 148.58H130.447C130.447 148.58 130.414 148.707 130.347 148.96C130.294 149.2 130.174 149.5 129.987 149.86C129.8 150.22 129.527 150.58 129.167 150.94C128.82 151.3 128.36 151.6 127.787 151.84C127.214 152.08 126.5 152.2 125.647 152.2ZM123.287 145.66H127.627C127.587 144.927 127.367 144.38 126.967 144.02C126.567 143.66 126.074 143.48 125.487 143.48C124.9 143.48 124.4 143.673 123.987 144.06C123.574 144.433 123.34 144.967 123.287 145.66ZM137.475 152.2C136.648 152.2 135.988 152.08 135.495 151.84C135.002 151.587 134.628 151.273 134.375 150.9C134.122 150.513 133.955 150.107 133.875 149.68C133.795 149.253 133.755 148.86 133.755 148.5V143.82H131.955V141.4H133.755V138.78H136.795V141.4H139.055V143.82H136.795V148.42C136.795 148.86 136.908 149.2 137.135 149.44C137.375 149.68 137.768 149.8 138.315 149.8C138.555 149.8 138.775 149.78 138.975 149.74C139.175 149.7 139.275 149.68 139.275 149.68V152.02C139.275 152.02 139.095 152.047 138.735 152.1C138.375 152.167 137.955 152.2 137.475 152.2Z" fill="black"/>
<defs>
<clipPath id="clip0_2115_240">
<rect width="71.9473" height="70.8404" fill="white" transform="translate(68.1377 25.2444)"/>
</clipPath>
</defs>
</svg>
