<svg width="205" height="173" viewBox="0 0 205 173" fill="none" xmlns="http://www.w3.org/2000/svg">
<rect x="43.5761" y="1.5761" width="117.848" height="117.848" rx="58.9239" fill="#1D334F"/>
<rect x="43.5761" y="1.5761" width="117.848" height="117.848" rx="58.9239" stroke="white" stroke-width="2.8478"/>
<path d="M98.0698 68.2339C98.0932 68.6708 97.8494 69.0744 97.4521 69.2643C94.6937 70.5748 91.6079 71.3085 88.352 71.3085C85.096 71.3085 82.0068 70.5748 79.2484 69.2643C78.8511 69.0741 78.6072 68.6708 78.6338 68.2339L80.2301 41.024C80.4838 36.732 84.044 33.377 88.3485 33.377H88.352C92.6568 33.377 96.2167 36.732 96.4703 41.024L98.0698 68.2339Z" fill="white"/>
<path d="M127.342 59.3366C127.342 60.4472 127.111 61.5777 126.627 62.6551L115.46 87.5238C115.279 87.924 114.875 88.1707 114.438 88.1543C111.385 88.0441 108.306 87.2705 105.418 85.7699C102.529 84.2657 100.131 82.1915 98.2911 79.7571C98.0273 79.4068 97.9973 78.9333 98.2209 78.5565L112.227 55.165C114.438 51.4732 119.143 50.1425 122.963 52.1302C125.735 53.5709 127.342 56.3956 127.342 59.3369V59.3366Z" fill="white"/>
<path d="M7.86 152V137.2H10.94V143.1H16.7V137.2H19.78V152H16.7V145.78H10.94V152H7.86ZM27.4713 152.2C26.5379 152.2 25.7313 152.047 25.0513 151.74C24.3713 151.42 23.8113 151 23.3713 150.48C22.9313 149.947 22.5979 149.353 22.3713 148.7C22.1579 148.047 22.0513 147.373 22.0513 146.68C22.0513 146.013 22.1513 145.36 22.3512 144.72C22.5646 144.067 22.8846 143.473 23.3113 142.94C23.7513 142.407 24.3046 141.987 24.9713 141.68C25.6513 141.36 26.4513 141.2 27.3713 141.2C28.3446 141.2 29.2046 141.413 29.9513 141.84C30.7113 142.267 31.3046 142.9 31.7313 143.74C32.1579 144.567 32.3713 145.573 32.3713 146.76V147.5H25.1113C25.1513 148.14 25.3713 148.693 25.7713 149.16C26.1846 149.627 26.7513 149.86 27.4713 149.86C27.8846 149.86 28.2179 149.8 28.4713 149.68C28.7379 149.547 28.9446 149.4 29.0913 149.24C29.2379 149.067 29.3379 148.913 29.3913 148.78C29.4446 148.647 29.4713 148.58 29.4713 148.58H32.2713C32.2713 148.58 32.2379 148.707 32.1713 148.96C32.1179 149.2 31.9979 149.5 31.8113 149.86C31.6246 150.22 31.3513 150.58 30.9913 150.94C30.6446 151.3 30.1846 151.6 29.6113 151.84C29.0379 152.08 28.3246 152.2 27.4713 152.2ZM25.1113 145.66H29.4513C29.4113 144.927 29.1913 144.38 28.7913 144.02C28.3913 143.66 27.8979 143.48 27.3113 143.48C26.7246 143.48 26.2246 143.673 25.8113 144.06C25.3979 144.433 25.1646 144.967 25.1113 145.66ZM38.9769 141.2C39.6569 141.2 40.2169 141.313 40.6569 141.54C41.0969 141.753 41.4302 141.987 41.6569 142.24C41.8969 142.493 42.0435 142.667 42.0969 142.76H42.2569V141.4H45.2969V152H42.2569V150.64H42.0969C42.0435 150.733 41.8969 150.907 41.6569 151.16C41.4302 151.413 41.0969 151.653 40.6569 151.88C40.2169 152.093 39.6569 152.2 38.9769 152.2C38.1902 152.2 37.5035 152.047 36.9169 151.74C36.3435 151.42 35.8635 151 35.4769 150.48C35.0902 149.947 34.7969 149.353 34.5969 148.7C34.4102 148.047 34.3169 147.38 34.3169 146.7C34.3169 146.02 34.4102 145.353 34.5969 144.7C34.7969 144.047 35.0902 143.46 35.4769 142.94C35.8635 142.407 36.3435 141.987 36.9169 141.68C37.5035 141.36 38.1902 141.2 38.9769 141.2ZM39.8569 143.66C39.3102 143.66 38.8502 143.813 38.4769 144.12C38.1169 144.413 37.8435 144.793 37.6569 145.26C37.4835 145.727 37.3969 146.207 37.3969 146.7C37.3969 147.193 37.4835 147.673 37.6569 148.14C37.8435 148.607 38.1169 148.993 38.4769 149.3C38.8502 149.593 39.3102 149.74 39.8569 149.74C40.4035 149.74 40.8569 149.593 41.2169 149.3C41.5902 148.993 41.8635 148.607 42.0369 148.14C42.2235 147.673 42.3169 147.193 42.3169 146.7C42.3169 146.207 42.2235 145.727 42.0369 145.26C41.8635 144.793 41.5902 144.413 41.2169 144.12C40.8569 143.813 40.4035 143.66 39.8569 143.66ZM47.6209 152V141.4H50.6409V142.94H50.7409C50.8609 142.66 51.0276 142.387 51.2409 142.12C51.4543 141.853 51.7476 141.633 52.1209 141.46C52.4943 141.287 52.9743 141.2 53.5609 141.2C53.8543 141.2 54.0876 141.22 54.2609 141.26C54.4343 141.287 54.5209 141.3 54.5209 141.3V144.3C54.5209 144.3 54.4209 144.28 54.2209 144.24C54.0343 144.2 53.7876 144.18 53.4809 144.18C52.5343 144.18 51.8276 144.44 51.3609 144.96C50.8943 145.467 50.6609 146.3 50.6609 147.46V152H47.6209ZM58.2686 139.96C57.7353 139.96 57.3019 139.793 56.9686 139.46C56.6353 139.113 56.4686 138.707 56.4686 138.24C56.4686 137.747 56.6353 137.333 56.9686 137C57.3019 136.653 57.7353 136.48 58.2686 136.48C58.7753 136.48 59.2019 136.653 59.5486 137C59.8953 137.333 60.0686 137.747 60.0686 138.24C60.0686 138.707 59.8953 139.113 59.5486 139.46C59.2019 139.793 58.7753 139.96 58.2686 139.96ZM56.7486 152V141.4H59.7886V152H56.7486ZM62.3866 152V141.4H65.4266V142.92H65.5266C65.6466 142.707 65.8199 142.467 66.0466 142.2C66.2866 141.933 66.5999 141.7 66.9866 141.5C67.3866 141.3 67.8932 141.2 68.5066 141.2C69.3332 141.2 70.0066 141.393 70.5266 141.78C71.0466 142.153 71.4266 142.64 71.6666 143.24C71.9066 143.827 72.0266 144.447 72.0266 145.1V152H68.9866V145.62C68.9866 145.113 68.8466 144.667 68.5666 144.28C68.2999 143.893 67.8666 143.7 67.2666 143.7C66.8132 143.7 66.4532 143.807 66.1866 144.02C65.9199 144.233 65.7266 144.507 65.6066 144.84C65.4866 145.173 65.4266 145.527 65.4266 145.9V152H62.3866ZM79.6625 156.24C78.6758 156.24 77.8625 156.12 77.2225 155.88C76.5958 155.64 76.0958 155.333 75.7225 154.96C75.3492 154.6 75.0758 154.24 74.9025 153.88C74.7292 153.52 74.6158 153.213 74.5625 152.96C74.5225 152.72 74.5025 152.6 74.5025 152.6H77.4625C77.4625 152.6 77.4825 152.66 77.5225 152.78C77.5758 152.913 77.6758 153.06 77.8225 153.22C77.9692 153.393 78.1825 153.54 78.4625 153.66C78.7558 153.793 79.1425 153.86 79.6225 153.86C80.4492 153.86 81.0558 153.627 81.4425 153.16C81.8425 152.693 82.0425 152.08 82.0425 151.32V150.2H81.9025C81.7692 150.413 81.5692 150.647 81.3025 150.9C81.0358 151.153 80.6958 151.367 80.2825 151.54C79.8692 151.713 79.3692 151.8 78.7825 151.8C77.9958 151.8 77.3092 151.653 76.7225 151.36C76.1358 151.053 75.6425 150.647 75.2425 150.14C74.8558 149.633 74.5625 149.067 74.3625 148.44C74.1758 147.813 74.0825 147.167 74.0825 146.5C74.0825 145.847 74.1758 145.207 74.3625 144.58C74.5625 143.94 74.8558 143.367 75.2425 142.86C75.6425 142.353 76.1358 141.953 76.7225 141.66C77.3092 141.353 77.9958 141.2 78.7825 141.2C79.3692 141.2 79.8692 141.293 80.2825 141.48C80.6958 141.653 81.0358 141.867 81.3025 142.12C81.5825 142.36 81.7825 142.593 81.9025 142.82H82.0425V141.4H85.0825V151.32C85.0825 152.2 84.8892 153.013 84.5025 153.76C84.1158 154.507 83.5225 155.107 82.7225 155.56C81.9225 156.013 80.9025 156.24 79.6625 156.24ZM79.6225 149.4C80.1825 149.4 80.6425 149.26 81.0025 148.98C81.3758 148.7 81.6558 148.34 81.8425 147.9C82.0292 147.447 82.1225 146.98 82.1225 146.5C82.1225 146.007 82.0292 145.54 81.8425 145.1C81.6558 144.66 81.3758 144.3 81.0025 144.02C80.6425 143.74 80.1825 143.6 79.6225 143.6C79.0758 143.6 78.6158 143.74 78.2425 144.02C77.8825 144.3 77.6092 144.66 77.4225 145.1C77.2358 145.54 77.1425 146.007 77.1425 146.5C77.1425 146.98 77.2358 147.447 77.4225 147.9C77.6092 148.34 77.8825 148.7 78.2425 148.98C78.6158 149.26 79.0758 149.4 79.6225 149.4ZM92.2155 155.9V141.4H95.2555V142.76H95.3955C95.4621 142.667 95.6088 142.493 95.8355 142.24C96.0755 141.987 96.4155 141.753 96.8555 141.54C97.2955 141.313 97.8555 141.2 98.5355 141.2C99.3221 141.2 100.002 141.36 100.575 141.68C101.162 141.987 101.649 142.407 102.035 142.94C102.422 143.46 102.709 144.047 102.895 144.7C103.095 145.353 103.195 146.02 103.195 146.7C103.195 147.38 103.095 148.047 102.895 148.7C102.709 149.353 102.422 149.947 102.035 150.48C101.649 151 101.162 151.42 100.575 151.74C100.002 152.047 99.3221 152.2 98.5355 152.2C97.8555 152.2 97.2955 152.093 96.8555 151.88C96.4155 151.653 96.0755 151.413 95.8355 151.16C95.6088 150.907 95.4621 150.733 95.3955 150.64H95.2555V155.9H92.2155ZM95.1955 146.7C95.1955 147.193 95.2821 147.673 95.4555 148.14C95.6421 148.607 95.9155 148.993 96.2755 149.3C96.6488 149.593 97.1088 149.74 97.6555 149.74C98.2021 149.74 98.6555 149.593 99.0155 149.3C99.3888 148.993 99.6621 148.607 99.8355 148.14C100.022 147.673 100.115 147.193 100.115 146.7C100.115 146.207 100.022 145.727 99.8355 145.26C99.6621 144.793 99.3888 144.413 99.0155 144.12C98.6555 143.813 98.2021 143.66 97.6555 143.66C97.1088 143.66 96.6488 143.813 96.2755 144.12C95.9155 144.413 95.6421 144.793 95.4555 145.26C95.2821 145.727 95.1955 146.207 95.1955 146.7ZM105.375 152V141.4H108.395V142.94H108.495C108.615 142.66 108.782 142.387 108.995 142.12C109.208 141.853 109.502 141.633 109.875 141.46C110.248 141.287 110.728 141.2 111.315 141.2C111.608 141.2 111.842 141.22 112.015 141.26C112.188 141.287 112.275 141.3 112.275 141.3V144.3C112.275 144.3 112.175 144.28 111.975 144.24C111.788 144.2 111.542 144.18 111.235 144.18C110.288 144.18 109.582 144.44 109.115 144.96C108.648 145.467 108.415 146.3 108.415 147.46V152H105.375ZM118.92 152.2C117.733 152.2 116.727 151.947 115.9 151.44C115.073 150.92 114.44 150.247 114 149.42C113.573 148.58 113.36 147.673 113.36 146.7C113.36 145.727 113.573 144.827 114 144C114.44 143.16 115.073 142.487 115.9 141.98C116.727 141.46 117.733 141.2 118.92 141.2C120.107 141.2 121.113 141.46 121.94 141.98C122.767 142.487 123.393 143.16 123.82 144C124.26 144.827 124.48 145.727 124.48 146.7C124.48 147.673 124.26 148.58 123.82 149.42C123.393 150.247 122.767 150.92 121.94 151.44C121.113 151.947 120.107 152.2 118.92 152.2ZM118.92 149.72C119.453 149.72 119.9 149.58 120.26 149.3C120.633 149.02 120.92 148.653 121.12 148.2C121.32 147.733 121.42 147.233 121.42 146.7C121.42 146.153 121.32 145.653 121.12 145.2C120.92 144.747 120.633 144.38 120.26 144.1C119.9 143.82 119.453 143.68 118.92 143.68C118.387 143.68 117.933 143.82 117.56 144.1C117.187 144.38 116.9 144.747 116.7 145.2C116.513 145.653 116.42 146.153 116.42 146.7C116.42 147.233 116.513 147.733 116.7 148.2C116.9 148.653 117.187 149.02 117.56 149.3C117.933 149.58 118.387 149.72 118.92 149.72ZM131.409 152.2C130.582 152.2 129.922 152.08 129.429 151.84C128.935 151.587 128.562 151.273 128.309 150.9C128.055 150.513 127.889 150.107 127.809 149.68C127.729 149.253 127.689 148.86 127.689 148.5V143.82H125.889V141.4H127.689V138.78H130.729V141.4H132.989V143.82H130.729V148.42C130.729 148.86 130.842 149.2 131.069 149.44C131.309 149.68 131.702 149.8 132.249 149.8C132.489 149.8 132.709 149.78 132.909 149.74C133.109 149.7 133.209 149.68 133.209 149.68V152.02C133.209 152.02 133.029 152.047 132.669 152.1C132.309 152.167 131.889 152.2 131.409 152.2ZM140.362 152.2C139.429 152.2 138.622 152.047 137.942 151.74C137.262 151.42 136.702 151 136.262 150.48C135.822 149.947 135.489 149.353 135.262 148.7C135.049 148.047 134.942 147.373 134.942 146.68C134.942 146.013 135.042 145.36 135.242 144.72C135.455 144.067 135.775 143.473 136.202 142.94C136.642 142.407 137.195 141.987 137.862 141.68C138.542 141.36 139.342 141.2 140.262 141.2C141.235 141.2 142.095 141.413 142.842 141.84C143.602 142.267 144.195 142.9 144.622 143.74C145.049 144.567 145.262 145.573 145.262 146.76V147.5H138.002C138.042 148.14 138.262 148.693 138.662 149.16C139.075 149.627 139.642 149.86 140.362 149.86C140.775 149.86 141.109 149.8 141.362 149.68C141.629 149.547 141.835 149.4 141.982 149.24C142.129 149.067 142.229 148.913 142.282 148.78C142.335 148.647 142.362 148.58 142.362 148.58H145.162C145.162 148.58 145.129 148.707 145.062 148.96C145.009 149.2 144.889 149.5 144.702 149.86C144.515 150.22 144.242 150.58 143.882 150.94C143.535 151.3 143.075 151.6 142.502 151.84C141.929 152.08 141.215 152.2 140.362 152.2ZM138.002 145.66H142.342C142.302 144.927 142.082 144.38 141.682 144.02C141.282 143.66 140.789 143.48 140.202 143.48C139.615 143.48 139.115 143.673 138.702 144.06C138.289 144.433 138.055 144.967 138.002 145.66ZM152.728 152.2C151.794 152.2 150.981 152.047 150.288 151.74C149.594 151.42 149.021 151 148.568 150.48C148.114 149.96 147.774 149.373 147.548 148.72C147.321 148.053 147.208 147.38 147.208 146.7C147.208 146.02 147.321 145.353 147.548 144.7C147.774 144.047 148.114 143.46 148.568 142.94C149.021 142.407 149.594 141.987 150.288 141.68C150.981 141.36 151.794 141.2 152.728 141.2C153.674 141.2 154.454 141.34 155.068 141.62C155.681 141.887 156.168 142.227 156.528 142.64C156.901 143.04 157.174 143.447 157.348 143.86C157.521 144.26 157.628 144.6 157.668 144.88C157.721 145.147 157.748 145.28 157.748 145.28H154.908C154.908 145.28 154.881 145.2 154.828 145.04C154.788 144.867 154.694 144.673 154.548 144.46C154.414 144.233 154.208 144.04 153.928 143.88C153.648 143.707 153.274 143.62 152.808 143.62C152.234 143.62 151.754 143.767 151.368 144.06C150.994 144.34 150.714 144.713 150.528 145.18C150.341 145.647 150.248 146.153 150.248 146.7C150.248 147.247 150.341 147.753 150.528 148.22C150.714 148.687 150.994 149.067 151.368 149.36C151.754 149.64 152.234 149.78 152.808 149.78C153.274 149.78 153.648 149.7 153.928 149.54C154.208 149.367 154.414 149.173 154.548 148.96C154.694 148.733 154.788 148.54 154.828 148.38C154.881 148.207 154.908 148.12 154.908 148.12H157.748C157.748 148.12 157.721 148.26 157.668 148.54C157.628 148.807 157.521 149.147 157.348 149.56C157.174 149.96 156.901 150.367 156.528 150.78C156.168 151.18 155.681 151.52 155.068 151.8C154.454 152.067 153.674 152.2 152.728 152.2ZM164.866 152.2C164.039 152.2 163.379 152.08 162.886 151.84C162.392 151.587 162.019 151.273 161.766 150.9C161.512 150.513 161.346 150.107 161.266 149.68C161.186 149.253 161.146 148.86 161.146 148.5V143.82H159.346V141.4H161.146V138.78H164.186V141.4H166.446V143.82H164.186V148.42C164.186 148.86 164.299 149.2 164.526 149.44C164.766 149.68 165.159 149.8 165.706 149.8C165.946 149.8 166.166 149.78 166.366 149.74C166.566 149.7 166.666 149.68 166.666 149.68V152.02C166.666 152.02 166.486 152.047 166.126 152.1C165.766 152.167 165.346 152.2 164.866 152.2ZM170.495 139.96C169.962 139.96 169.528 139.793 169.195 139.46C168.862 139.113 168.695 138.707 168.695 138.24C168.695 137.747 168.862 137.333 169.195 137C169.528 136.653 169.962 136.48 170.495 136.48C171.002 136.48 171.428 136.653 171.775 137C172.122 137.333 172.295 137.747 172.295 138.24C172.295 138.707 172.122 139.113 171.775 139.46C171.428 139.793 171.002 139.96 170.495 139.96ZM168.975 152V141.4H172.015V152H168.975ZM180.033 152.2C178.846 152.2 177.84 151.947 177.013 151.44C176.186 150.92 175.553 150.247 175.113 149.42C174.686 148.58 174.473 147.673 174.473 146.7C174.473 145.727 174.686 144.827 175.113 144C175.553 143.16 176.186 142.487 177.013 141.98C177.84 141.46 178.846 141.2 180.033 141.2C181.22 141.2 182.226 141.46 183.053 141.98C183.88 142.487 184.506 143.16 184.933 144C185.373 144.827 185.593 145.727 185.593 146.7C185.593 147.673 185.373 148.58 184.933 149.42C184.506 150.247 183.88 150.92 183.053 151.44C182.226 151.947 181.22 152.2 180.033 152.2ZM180.033 149.72C180.566 149.72 181.013 149.58 181.373 149.3C181.746 149.02 182.033 148.653 182.233 148.2C182.433 147.733 182.533 147.233 182.533 146.7C182.533 146.153 182.433 145.653 182.233 145.2C182.033 144.747 181.746 144.38 181.373 144.1C181.013 143.82 180.566 143.68 180.033 143.68C179.5 143.68 179.046 143.82 178.673 144.1C178.3 144.38 178.013 144.747 177.813 145.2C177.626 145.653 177.533 146.153 177.533 146.7C177.533 147.233 177.626 147.733 177.813 148.2C178.013 148.653 178.3 149.02 178.673 149.3C179.046 149.58 179.5 149.72 180.033 149.72ZM187.66 152V141.4H190.7V142.92H190.8C190.92 142.707 191.093 142.467 191.32 142.2C191.56 141.933 191.873 141.7 192.26 141.5C192.66 141.3 193.167 141.2 193.78 141.2C194.607 141.2 195.28 141.393 195.8 141.78C196.32 142.153 196.7 142.64 196.94 143.24C197.18 143.827 197.3 144.447 197.3 145.1V152H194.26V145.62C194.26 145.113 194.12 144.667 193.84 144.28C193.573 143.893 193.14 143.7 192.54 143.7C192.087 143.7 191.727 143.807 191.46 144.02C191.193 144.233 191 144.507 190.88 144.84C190.76 145.173 190.7 145.527 190.7 145.9V152H187.66Z" fill="black"/>
</svg>
